<svg width="24" height="16" viewBox="0 0 24 16" fill="none" xmlns="http://www.w3.org/2000/svg">
<path fill-rule="evenodd" clip-rule="evenodd" d="M12.872 1.20496C13.3111 1.90746 13.0975 2.83289 12.395 3.27195L7.23019 6.49996H22C22.8284 6.49996 23.5 7.17153 23.5 7.99996C23.5 8.82838 22.8284 9.49996 22 9.49996H7.23019L12.395 12.728C13.0975 13.167 13.3111 14.0925 12.872 14.795C12.4329 15.4975 11.5075 15.711 10.805 15.272L1.205 9.27195C0.76643 8.99785 0.5 8.51714 0.5 7.99996C0.5 7.48277 0.76643 7.00207 1.205 6.72796L10.805 0.727959C11.5075 0.288894 12.4329 0.502453 12.872 1.20496Z" fill="white"/>
</svg>
