<svg width="352" height="352" viewBox="0 0 352 352" fill="none" xmlns="http://www.w3.org/2000/svg">
<path d="M351.989 74.8849L117.131 10.0503L0.980834 286.236L235.839 351.07L351.989 74.8849Z" fill="#EDEDED"/>
<path d="M323.703 91.9031L126.687 37.515L29.2315 269.248L226.248 323.636L323.703 91.9031Z" fill="#F9F9F9"/>
<path d="M266.098 41.1826C267.722 39.409 268.992 37.4398 269.862 35.3471C270.895 32.7874 271.296 30.0879 271.041 27.4027C270.787 24.7175 269.882 22.0992 268.379 19.6973C266.876 17.2954 264.803 15.1569 262.28 13.404C259.756 11.651 256.831 10.3179 253.672 9.48077C250.513 8.64363 247.181 8.31884 243.866 8.52497C240.552 8.73111 237.321 9.46416 234.356 10.6822C231.391 11.9002 228.752 13.5794 226.588 15.6238C224.425 17.6683 222.779 20.0381 221.746 22.5978C220.919 24.6915 220.503 26.8775 220.514 29.0758L184.998 19.6669L170.386 55.7604L287.058 86.713L301.614 50.5915L266.098 41.1826Z" fill="#DDDDDD" stroke="#EDEDED" stroke-width="0.95" stroke-linecap="round" stroke-linejoin="round"/>
<path d="M251.348 37.7612C257.356 35.2834 259.748 29.3284 256.69 24.4601C253.632 19.5919 246.281 17.654 240.273 20.1318C234.264 22.6096 231.872 28.5646 234.93 33.4329C237.989 38.3011 245.339 40.239 251.348 37.7612Z" fill="#F9F9F9"/>
<path d="M147.682 74.1085L281.98 111.206" stroke="#DDDDDD" stroke-width="0.95" stroke-linecap="round" stroke-linejoin="round"/>
<path d="M140.827 93.0896L275.17 130.179" stroke="#DDDDDD" stroke-width="0.95" stroke-linecap="round" stroke-linejoin="round"/>
<path d="M124.845 128.781L259.188 165.871" stroke="#DDDDDD" stroke-width="0.95" stroke-linecap="round" stroke-linejoin="round"/>
<path d="M104.834 175.27L249.961 213.564" stroke="#DDDDDD" stroke-width="0.95" stroke-linecap="round" stroke-linejoin="round"/>
<path d="M86.1531 209.848L231.28 248.141" stroke="#DDDDDD" stroke-width="0.95" stroke-linecap="round" stroke-linejoin="round"/>
<path d="M76.8125 227.158L221.939 265.451" stroke="#DDDDDD" stroke-width="0.95" stroke-linecap="round" stroke-linejoin="round"/>
<path d="M113.104 154.318L247.446 191.407" stroke="#DDDDDD" stroke-width="0.95" stroke-linecap="round" stroke-linejoin="round"/>
<path d="M95.4937 192.581L214.743 224.167" stroke="#DDDDDD" stroke-width="0.95" stroke-linecap="round" stroke-linejoin="round"/>
<path d="M134.057 112.071L238.739 140.963" stroke="#DDDDDD" stroke-width="0.95" stroke-linecap="round" stroke-linejoin="round"/>
<path d="M94.251 150.801L150.165 196.102L289.949 82.8492" stroke="black" stroke-width="25" stroke-linecap="round" stroke-linejoin="round"/>
</svg>
