<svg width="102" height="93" viewBox="0 0 102 93" fill="none" xmlns="http://www.w3.org/2000/svg">
<g clip-path="url(#clip0_120_85)">
<path d="M71.5826 7.63616C71.2955 7.34897 70.9061 7.18759 70.5 7.1875V2.59375C70.5 2.18764 70.3387 1.79816 70.0515 1.51099C69.7643 1.22383 69.3749 1.0625 68.9688 1.0625H16.9062V1.07628C16.706 1.07342 16.5071 1.11039 16.3213 1.18505C16.1354 1.2597 15.9663 1.37055 15.8237 1.51116L0.51116 16.8237C0.22902 17.113 0.0727001 17.5021 0.0762801 17.9062H0.0625V91.4062C0.0625 91.8124 0.22383 92.2018 0.51099 92.489C0.79816 92.7762 1.18764 92.9375 1.59375 92.9375H68.9688C69.3749 92.9375 69.7643 92.7762 70.0515 92.489C70.3387 92.2018 70.5 91.8124 70.5 91.4062V41.5089L74.0112 45.0201C74.2983 45.3072 74.6877 45.4684 75.0938 45.4684C75.4998 45.4684 75.8892 45.3072 76.1763 45.0201L91.4888 29.7076C91.7759 29.4204 91.9372 29.031 91.9372 28.625C91.9372 28.219 91.7759 27.8296 91.4888 27.5424L71.5826 7.63616ZM67.4375 7.1875H64.375V4.125H67.4375V7.1875ZM15.375 6.29019V16.375H5.29019L15.375 6.29019ZM3.125 89.875V19.4375H16.9062C17.3124 19.4375 17.7018 19.2762 17.989 18.989C18.2762 18.7018 18.4375 18.3124 18.4375 17.9062V4.125H61.3125V7.1875H55.1875C54.7814 7.1875 54.3919 7.34883 54.1047 7.63599C53.8176 7.92316 53.6562 8.3126 53.6562 8.7188V24.0312C53.6563 24.4373 53.8177 24.8267 54.1049 25.1138L61.3125 32.3214V89.875H3.125ZM67.4375 89.875H64.375V35.3839L67.4375 38.4464V89.875ZM75.0938 41.7723L56.7188 23.3973V10.25H69.8661L88.2411 28.625L75.0938 41.7723Z" fill="#ED5757"/>
<path d="M38.3438 16.375H50.5938V19.4375H38.3438V16.375Z" fill="#ED5757"/>
<path d="M46 10.25H50.5938V13.3125H46V10.25Z" fill="#ED5757"/>
<path d="M30.6875 10.25H42.9375V13.3125H30.6875V10.25Z" fill="#ED5757"/>
<path d="M5 69H17.25V72.0626H5V69Z" fill="#ED5757"/>
<path d="M5 75.125H17.25V78.1876H5V75.125Z" fill="#ED5757"/>
<path d="M5 81.25H17.25V84.3126H5V81.25Z" fill="#ED5757"/>
<path d="M66.8274 4.67566L53.8245 6.01063C53.5208 6.05486 53.207 6.16593 52.9038 6.3365C52.6006 6.50715 52.3152 6.73323 52.0667 6.9997C51.8184 7.26606 51.6128 7.56659 51.4638 7.88094C51.3149 8.19537 51.226 8.51617 51.2031 8.82222L50.7808 21.8867L50.8136 21.8767C50.7863 22.3407 50.9226 22.7424 51.1997 23.0139L80.1353 49.9919C80.8026 50.614 81.7963 50.8314 82.8975 50.5963C83.9988 50.3612 85.1176 49.6926 86.0077 48.7379L96.0766 37.9384C96.9667 36.9837 97.5554 35.8209 97.7129 34.7058C97.8704 33.5908 97.5841 32.6148 96.9168 31.9926L67.9812 5.01469C67.6909 4.75723 67.2807 4.64939 66.8198 4.70902L66.8274 4.67566ZM55.3129 10.0263L61.5543 9.38552L55.1104 16.2971L55.3129 10.0263ZM83.4916 46.392L55.814 20.587L65.8829 9.78745L93.5605 35.5925L83.4916 46.392Z" fill="#ED5757"/>
</g>
<path d="M59.9375 43.9821C59.9399 39.8405 58.8224 35.7753 56.7034 32.2169C54.5844 28.6584 51.5426 25.7391 47.9001 23.7681C44.2577 21.797 40.15 20.8474 36.012 21.0199C31.874 21.1925 27.8596 22.4806 24.3938 24.7481C20.9281 27.0155 18.1399 30.1778 16.3244 33.9003C14.5089 37.6228 13.7337 41.7669 14.0808 45.8939C14.428 50.021 15.8845 53.9773 18.2963 57.3443C20.7081 60.7112 23.9854 63.3633 27.7812 65.02V76.1384C27.7812 77.3567 28.2652 78.5251 29.1267 79.3866C29.9882 80.2481 31.1567 80.7321 32.375 80.7321V82.2634C32.375 83.4817 32.859 84.6501 33.7205 85.5116C34.582 86.3731 35.7504 86.8571 36.9687 86.8571C38.1871 86.8571 39.3555 86.3731 40.217 85.5116C41.0785 84.6501 41.5625 83.4817 41.5625 82.2634V80.7321C42.7808 80.7321 43.9493 80.2481 44.8108 79.3866C45.6723 78.5251 46.1562 77.3567 46.1562 76.1384V65.02C50.2482 63.2305 53.7306 60.288 56.1779 56.5521C58.6252 52.8161 59.9316 48.4483 59.9375 43.9821ZM17.0625 43.9821C17.059 40.2756 18.0903 36.6417 20.0404 33.4897C21.9905 30.3377 24.7819 27.7927 28.1003 26.1414C31.4186 24.4902 35.1321 23.7981 38.8225 24.1433C42.5129 24.4884 46.0336 25.8571 48.9882 28.0951C51.9427 30.3331 54.2138 33.3515 55.5456 36.8105C56.8774 40.2695 57.217 44.0316 56.5262 47.6731C55.8354 51.3147 54.1416 54.691 51.6356 57.422C49.1295 60.1529 45.9108 62.1299 42.3419 63.1304L44.6097 47.2621L41.5778 46.8272L39.16 63.7613C37.7041 63.9307 36.2334 63.9307 34.7775 63.7613L32.3597 46.8272L29.3278 47.2621L31.5956 63.1304C27.4187 61.9563 23.7391 59.4509 21.116 55.9949C18.493 52.5388 17.0697 48.3209 17.0625 43.9821ZM30.8438 71.5446H43.0937V73.0759H30.8438V71.5446ZM38.5 82.2634C38.5 82.6695 38.3387 83.059 38.0515 83.3461C37.7643 83.6333 37.3749 83.7946 36.9687 83.7946C36.5626 83.7946 36.1732 83.6333 35.886 83.3461C35.5988 83.059 35.4375 82.6695 35.4375 82.2634V80.7321H38.5V82.2634ZM41.5625 77.6696H32.375C31.9689 77.6696 31.5794 77.5083 31.2922 77.2211C31.0051 76.934 30.8438 76.5445 30.8438 76.1384H43.0937C43.0937 76.5445 42.9324 76.934 42.6453 77.2211C42.3581 77.5083 41.9686 77.6696 41.5625 77.6696ZM43.0937 68.4821H30.8438V66.0964C34.8476 67.2357 39.0899 67.2357 43.0937 66.0964V68.4821Z" fill="#ED5757"/>
<path d="M36.5342 45.3156C36.7467 45.4218 36.9811 45.4771 37.2186 45.4771C37.4562 45.4771 37.6906 45.4218 37.9031 45.3156L43.3436 42.5869L48.7842 45.3156L50.1531 42.5747L44.0281 39.5122C43.8156 39.406 43.5812 39.3507 43.3436 39.3507C43.1061 39.3507 42.8717 39.406 42.6592 39.5122L37.2186 42.2256L31.7781 39.5045C31.5656 39.3983 31.3312 39.343 31.0936 39.343C30.8561 39.343 30.6217 39.3983 30.4092 39.5045L24.2842 42.567L25.6531 45.308L31.0936 42.5869L36.5342 45.3156Z" fill="#ED5757"/>
<defs>
<clipPath id="clip0_120_85">
<rect width="101.433" height="92.9999" fill="#ED5757"/>
</clipPath>
</defs>
</svg>
