<svg width="206" height="196" viewBox="0 0 206 196" fill="none" xmlns="http://www.w3.org/2000/svg">
<g clip-path="url(#clip0_104_3692)">
<path d="M6.4163 113.47C6.97588 113.47 8.96612 113.377 12.3867 113.19C12.449 113.439 12.48 113.688 12.48 113.936C12.48 114.465 12.418 114.729 12.2936 114.729C12.0135 114.729 11.4539 114.854 10.6142 115.102C9.77483 115.32 9.33929 115.553 9.30828 115.802C9.0595 116.735 8.93511 118.103 8.93511 119.907V130.635C8.93511 133.838 9.61907 136.404 10.9874 138.332C12.3867 140.229 14.3149 141.177 16.7713 141.177C19.1661 141.177 21.0783 140.4 22.5089 138.845C23.9702 137.259 24.7013 134.647 24.7013 131.009V119.627C24.7013 117.73 24.5455 116.486 24.2347 115.895C24.0483 115.616 23.4884 115.351 22.5556 115.102C21.6535 114.823 21.0006 114.683 20.5964 114.683C20.472 114.683 20.3943 114.465 20.3633 114.03C20.3633 113.594 20.4096 113.314 20.503 113.19C23.8615 113.408 25.8208 113.517 26.3803 113.517C27.1577 113.517 28.1842 113.47 29.4591 113.377C30.765 113.252 31.5737 113.19 31.8845 113.19C31.9469 113.408 31.9779 113.656 31.9779 113.936C31.9779 114.434 31.9155 114.683 31.7911 114.683C31.3559 114.683 30.6873 114.807 29.7856 115.056C28.8838 115.274 28.2929 115.585 28.0131 115.989C27.6709 116.766 27.4999 118.057 27.4999 119.86V130.822C27.4999 133.248 27.2044 135.347 26.6134 137.119C26.0229 138.86 25.1831 140.244 24.0946 141.271C23.0065 142.266 21.7626 142.996 20.3633 143.463C18.995 143.929 17.4246 144.163 15.6522 144.163C11.9205 144.163 8.9818 143.043 6.83617 140.804C4.69053 138.534 3.61735 134.896 3.61735 129.889V119.72C3.61735 117.73 3.49296 116.424 3.24418 115.802C3.11979 115.553 2.6846 115.32 1.93826 115.102C1.19192 114.854 0.632353 114.729 0.259183 114.729C0.134793 114.729 0.0724182 114.496 0.0724182 114.03C0.0724182 113.563 0.119111 113.283 0.212495 113.19C4.1616 113.377 6.22954 113.47 6.4163 113.47ZM40.1705 121.213C40.1705 118.881 41.1503 116.922 43.1092 115.336C45.0684 113.719 47.276 112.91 49.7328 112.91C50.6036 112.91 51.3656 112.957 52.0185 113.05C52.6715 113.143 53.5732 113.346 54.7238 113.656C55.9056 113.936 56.714 114.123 57.1495 114.216C57.5227 116.331 57.7091 118.725 57.7091 121.4C57.6471 121.679 57.4603 121.819 57.1495 121.819C56.3098 121.819 55.8589 121.679 55.7966 121.4C55.6102 119.969 54.9415 118.57 53.791 117.202C52.6405 115.833 51.2412 115.149 49.5928 115.149C48.1625 115.149 47.0586 115.553 46.2813 116.362C45.5349 117.17 45.1618 118.259 45.1618 119.627C45.1618 120.094 45.2081 120.544 45.3015 120.98C45.4259 121.384 45.6436 121.788 45.9544 122.193C46.2966 122.597 46.5611 122.939 46.7475 123.219C46.9652 123.468 47.3541 123.794 47.9137 124.198C48.5046 124.603 48.8931 124.882 49.0799 125.038C49.2976 125.193 49.7638 125.504 50.4792 125.971C51.2255 126.406 51.6764 126.655 51.8318 126.717C52.0185 126.873 52.5314 127.215 53.3711 127.743C54.2419 128.241 54.8481 128.614 55.1903 128.863C55.5325 129.081 56.03 129.469 56.683 130.029C57.3359 130.589 57.8025 131.117 58.0823 131.615C58.3934 132.112 58.6732 132.75 58.922 133.527C59.1708 134.274 59.2952 135.082 59.2952 135.953C59.2952 138.441 58.2844 140.493 56.2631 142.11C54.2729 143.727 51.9562 144.536 49.313 144.536C47.4471 144.536 44.5865 144.1 40.7304 143.229C40.4506 142.11 40.1862 140.711 39.9374 139.032C39.7196 137.321 39.6109 136.202 39.6109 135.673C39.6419 135.424 39.8907 135.3 40.3573 135.3C41.1656 135.3 41.6165 135.424 41.7099 135.673C41.8343 136.233 42.052 136.855 42.3628 137.539C42.674 138.192 43.0938 138.907 43.6224 139.685C44.182 140.431 44.913 141.053 45.8147 141.55C46.7475 142.017 47.7893 142.25 48.9398 142.25C50.4015 142.25 51.6144 141.815 52.5781 140.944C53.5422 140.073 54.0241 138.767 54.0241 137.026C54.0241 136.497 53.9154 135.984 53.6976 135.487C53.5112 134.989 53.2778 134.569 52.998 134.227C52.7492 133.885 52.3607 133.512 51.8318 133.108C51.3342 132.703 50.9147 132.392 50.5726 132.175C50.2304 131.957 49.7171 131.662 49.0332 131.288C48.3802 130.884 47.9137 130.604 47.6339 130.449C47.5405 130.356 47.3694 130.231 47.1206 130.075C46.2189 129.516 45.5349 129.081 45.0684 128.77C44.6018 128.459 43.9956 128.008 43.2492 127.417C42.5339 126.795 41.9896 126.22 41.6165 125.691C41.2433 125.162 40.9015 124.509 40.5904 123.732C40.3106 122.954 40.1705 122.115 40.1705 121.213ZM88.3681 113.377C89.2699 113.377 90.3117 113.361 91.4936 113.33C92.6751 113.268 93.7322 113.237 94.6653 113.237C95.5981 113.237 96.5155 113.33 97.4172 113.517C98.3503 113.672 99.2678 113.967 100.17 114.403C101.102 114.838 101.911 115.382 102.595 116.035C103.31 116.657 103.886 117.466 104.321 118.461C104.787 119.456 105.02 120.56 105.02 121.773C105.02 123.234 104.632 124.665 103.855 126.064C103.108 127.463 101.958 128.661 100.403 129.656C98.8789 130.62 97.1531 131.102 95.2249 131.102C94.572 131.102 93.919 130.993 93.266 130.775C92.6127 130.526 92.1618 130.231 91.9131 129.889C91.851 129.827 91.7887 129.671 91.7267 129.423C91.6957 129.174 91.6957 128.941 91.7267 128.723C91.7577 128.505 91.8044 128.396 91.8667 128.396C92.5817 128.707 93.4524 128.863 94.4786 128.863C95.9712 128.863 97.1531 128.256 98.0239 127.044C98.8946 125.8 99.3298 124.245 99.3298 122.379C99.3298 120.296 98.9099 118.648 98.0705 117.435C97.2308 116.222 95.9402 115.616 94.1988 115.616C92.8929 115.616 91.9911 115.724 91.4936 115.942C91.1204 116.129 90.9336 117.746 90.9336 120.793V137.446C90.9336 139.311 91.058 140.633 91.3068 141.41C91.4002 141.783 91.9131 142.095 92.8462 142.343C93.8103 142.561 94.5099 142.67 94.9451 142.67C95.0695 142.67 95.1319 142.934 95.1319 143.463C95.1319 143.805 95.1005 144.069 95.0385 144.256C91.618 144.069 89.41 143.976 88.4148 143.976C87.5751 143.976 86.6267 144.007 85.5695 144.069C84.5434 144.1 83.719 144.131 83.0974 144.163L82.1643 144.256C82.0709 144.131 82.0242 143.851 82.0242 143.416C82.0242 142.919 82.0709 142.67 82.1643 142.67C82.5685 142.67 83.1594 142.576 83.9368 142.39C84.7455 142.172 85.2117 141.924 85.3361 141.644C85.5229 141.084 85.6162 139.669 85.6162 137.399V119.767C85.6162 117.994 85.5229 116.72 85.3361 115.942C85.2431 115.693 84.7765 115.445 83.9368 115.196C83.1284 114.916 82.5375 114.776 82.1643 114.776C82.0399 114.776 81.9779 114.543 81.9779 114.076C81.9779 113.61 82.0399 113.33 82.1643 113.237C85.4295 113.33 87.4974 113.377 88.3681 113.377ZM124.921 115.616C123.615 115.616 122.713 115.724 122.216 115.942C121.874 116.098 121.687 117.715 121.656 120.793V126.157C121.656 126.842 121.92 127.292 122.449 127.51C122.978 127.728 123.708 127.837 124.641 127.837H125.854C127.005 127.837 128.031 127.292 128.933 126.204C129.865 125.116 130.332 123.701 130.332 121.959C130.332 117.73 128.529 115.616 124.921 115.616ZM125.668 113.283C126.476 113.283 127.316 113.377 128.186 113.563C129.088 113.719 130.006 113.999 130.938 114.403C131.902 114.807 132.757 115.305 133.504 115.895C134.25 116.486 134.857 117.264 135.323 118.228C135.79 119.192 136.023 120.28 136.023 121.493C136.023 123.172 135.479 124.758 134.39 126.251C133.302 127.743 131.98 128.801 130.425 129.423C130.177 129.516 130.114 129.671 130.239 129.889C131.98 133.03 133.722 135.673 135.463 137.819C136.552 139.156 137.718 140.306 138.961 141.271C140.237 142.203 141.402 142.67 142.46 142.67C142.584 142.856 142.646 143.105 142.646 143.416C142.646 143.727 142.584 144.007 142.46 144.256C142.087 144.318 141.605 144.349 141.014 144.349C139.428 144.349 137.982 144.163 136.676 143.789C135.401 143.416 134.282 142.872 133.317 142.157C132.384 141.41 131.607 140.695 130.985 140.011C130.363 139.327 129.71 138.456 129.026 137.399C128.591 136.777 128.093 136.046 127.533 135.206C126.974 134.367 126.538 133.729 126.227 133.294C125.947 132.828 125.621 132.346 125.248 131.848C124.875 131.351 124.548 130.978 124.268 130.729C124.02 130.48 123.771 130.309 123.522 130.216C123.335 130.122 122.962 130.075 122.402 130.075C121.905 130.075 121.656 130.34 121.656 130.869V137.446C121.656 139.311 121.781 140.633 122.029 141.41C122.123 141.783 122.636 142.095 123.569 142.343C124.532 142.561 125.232 142.67 125.668 142.67C125.792 142.67 125.854 142.934 125.854 143.463C125.854 143.805 125.823 144.069 125.761 144.256C122.34 144.069 120.132 143.976 119.137 143.976C118.298 143.976 117.349 144.007 116.292 144.069C115.266 144.1 114.442 144.131 113.82 144.163L112.887 144.256C112.793 144.131 112.747 143.851 112.747 143.416C112.747 142.919 112.793 142.67 112.887 142.67C113.291 142.67 113.882 142.576 114.659 142.39C115.468 142.172 115.934 141.924 116.059 141.644C116.245 141.084 116.338 139.669 116.338 137.399V119.767C116.338 117.994 116.245 116.72 116.059 115.942C115.965 115.693 115.499 115.445 114.659 115.196C113.851 114.916 113.26 114.776 112.887 114.776C112.762 114.776 112.7 114.543 112.7 114.076C112.7 113.61 112.762 113.33 112.887 113.237C116.183 113.33 118.251 113.377 119.091 113.377C119.961 113.377 121.034 113.361 122.309 113.33C123.615 113.299 124.735 113.283 125.668 113.283ZM156.25 113.423C157.618 113.423 160.028 113.377 163.48 113.283C166.932 113.159 169.544 113.097 171.317 113.097C171.441 114.03 171.69 115.336 172.063 117.015C172.436 118.663 172.638 119.565 172.669 119.72C172.514 119.876 172.187 119.954 171.69 119.954C171.348 119.954 171.13 119.845 171.037 119.627C170.01 116.859 168.02 115.476 165.066 115.476H162.641C160.339 115.476 159.158 115.678 159.095 116.082C158.909 116.953 158.816 118.212 158.816 119.86V127.184C158.816 127.37 159.499 127.463 160.868 127.463H163.294C163.325 127.463 163.387 127.463 163.48 127.463C165.284 127.463 166.357 127.386 166.698 127.23C167.041 127.075 167.305 126.531 167.491 125.598C167.585 125.131 167.678 124.743 167.771 124.432C167.803 124.214 168.051 124.105 168.518 124.105C168.953 124.105 169.249 124.183 169.404 124.338V133.154C169.28 133.279 168.984 133.341 168.518 133.341C168.113 133.341 167.865 133.216 167.771 132.967C167.554 132.128 167.352 131.506 167.165 131.102C167.01 130.697 166.901 130.48 166.838 130.449C166.807 130.418 166.683 130.324 166.465 130.169C166.061 129.92 164.63 129.796 162.174 129.796C159.935 129.796 158.816 129.92 158.816 130.169V137.399C158.816 139.109 158.956 140.368 159.235 141.177C159.391 141.581 160.448 141.783 162.407 141.783H164.133C166.559 141.783 168.409 141.457 169.684 140.804C170.181 140.555 170.741 140.011 171.363 139.171C171.985 138.332 172.467 137.383 172.809 136.326C172.84 136.14 173.058 136.046 173.462 136.046C174.146 136.046 174.582 136.14 174.768 136.326C174.675 136.606 174.442 137.243 174.068 138.239C173.726 139.234 173.462 139.995 173.275 140.524C173.089 141.022 172.887 141.644 172.669 142.39C172.451 143.136 172.312 143.743 172.249 144.209C171.005 144.209 168.425 144.163 164.506 144.069C160.619 143.976 157.883 143.96 156.297 144.022L150.093 144.209C150 144.116 149.953 143.867 149.953 143.463C149.953 142.934 150 142.67 150.093 142.67C150.497 142.67 151.088 142.576 151.865 142.39C152.643 142.172 153.094 141.924 153.218 141.644C153.436 140.99 153.544 139.576 153.544 137.399V119.767C153.544 117.901 153.436 116.626 153.218 115.942C153.125 115.6 152.689 115.32 151.912 115.102C151.135 114.885 150.513 114.776 150.046 114.776C149.922 114.776 149.86 114.543 149.86 114.076C149.86 113.641 149.922 113.361 150.046 113.237C152.098 113.361 154.166 113.423 156.25 113.423ZM188.792 113.377C189.693 113.377 190.735 113.361 191.917 113.33C193.099 113.268 194.156 113.237 195.089 113.237C196.022 113.237 196.939 113.33 197.841 113.517C198.774 113.672 199.691 113.967 200.593 114.403C201.526 114.838 202.334 115.382 203.018 116.035C203.734 116.657 204.309 117.466 204.744 118.461C205.211 119.456 205.444 120.56 205.444 121.773C205.444 123.234 205.055 124.665 204.278 126.064C203.531 127.463 202.381 128.661 200.826 129.656C199.302 130.62 197.576 131.102 195.648 131.102C194.995 131.102 194.343 130.993 193.689 130.775C193.036 130.526 192.585 130.231 192.337 129.889C192.275 129.827 192.212 129.671 192.15 129.423C192.119 129.174 192.119 128.941 192.15 128.723C192.181 128.505 192.228 128.396 192.29 128.396C193.005 128.707 193.876 128.863 194.902 128.863C196.395 128.863 197.576 128.256 198.447 127.044C199.318 125.8 199.753 124.245 199.753 122.379C199.753 120.296 199.333 118.648 198.494 117.435C197.654 116.222 196.364 115.616 194.622 115.616C193.316 115.616 192.414 115.724 191.917 115.942C191.544 116.129 191.357 117.746 191.357 120.793V137.446C191.357 139.311 191.482 140.633 191.73 141.41C191.824 141.783 192.337 142.095 193.27 142.343C194.233 142.561 194.933 142.67 195.369 142.67C195.493 142.67 195.555 142.934 195.555 143.463C195.555 143.805 195.524 144.069 195.462 144.256C192.041 144.069 189.834 143.976 188.838 143.976C187.999 143.976 187.05 144.007 185.993 144.069C184.967 144.1 184.143 144.131 183.521 144.163L182.588 144.256C182.495 144.131 182.448 143.851 182.448 143.416C182.448 142.919 182.495 142.67 182.588 142.67C182.992 142.67 183.583 142.576 184.36 142.39C185.169 142.172 185.635 141.924 185.76 141.644C185.946 141.084 186.039 139.669 186.039 137.399V119.767C186.039 117.994 185.946 116.72 185.76 115.942C185.666 115.693 185.2 115.445 184.36 115.196C183.552 114.916 182.961 114.776 182.588 114.776C182.463 114.776 182.401 114.543 182.401 114.076C182.401 113.61 182.463 113.33 182.588 113.237C185.853 113.33 187.921 113.377 188.792 113.377Z" fill="black"/>
<path d="M27.5465 186.756C27.5465 187.161 27.3134 188.373 26.8468 190.394C26.3803 192.385 26.0228 193.442 25.774 193.567C23.0684 194.872 19.4611 195.525 14.9521 195.525C10.8476 195.525 7.34897 194.017 4.457 191.001C1.56502 187.985 0.119034 184.393 0.119034 180.226C0.119034 175.81 1.59603 172.032 4.55038 168.891C7.50437 165.719 11.143 164.133 15.4653 164.133C18.9792 164.133 22.6486 164.553 26.4737 165.393C26.567 165.424 26.6601 166.45 26.7534 168.472C26.8468 170.461 26.8935 171.705 26.8935 172.203C26.8935 172.669 26.5203 172.902 25.774 172.902C25.5872 172.902 25.3698 172.84 25.121 172.716C24.9967 172.156 24.7632 171.581 24.421 170.99C24.1102 170.399 23.6284 169.731 22.9751 168.984C22.3221 168.238 21.3583 167.632 20.0831 167.165C18.8082 166.668 17.3312 166.419 15.6521 166.419C12.6044 166.419 10.2256 167.678 8.51517 170.197C6.83609 172.716 5.99637 175.732 5.99637 179.246C5.99637 183.164 6.9448 186.492 8.84166 189.229C10.7699 191.934 13.4751 193.287 16.958 193.287C19.7256 193.287 21.9179 192.416 23.535 190.675C23.9392 190.239 24.2966 189.664 24.6078 188.948C24.95 188.202 25.1987 187.58 25.3541 187.083C25.5405 186.585 25.6649 186.337 25.7273 186.337C26.8158 186.337 27.4221 186.476 27.5465 186.756ZM36.3158 164.6C37.6841 164.6 40.0942 164.553 43.5457 164.46C46.9976 164.336 49.6098 164.273 51.3823 164.273C51.5067 165.206 51.7554 166.512 52.1286 168.191C52.5018 169.839 52.7039 170.742 52.7349 170.897C52.5795 171.052 52.253 171.13 51.7555 171.13C51.4133 171.13 51.1955 171.021 51.1021 170.804C50.076 168.036 48.0858 166.652 45.1318 166.652H42.706C40.405 166.652 39.2234 166.854 39.1611 167.259C38.9747 168.129 38.8813 169.389 38.8813 171.037V178.36C38.8813 178.547 39.5652 178.64 40.9335 178.64H43.3593C43.3903 178.64 43.4523 178.64 43.5457 178.64C45.3496 178.64 46.4224 178.562 46.7642 178.407C47.1063 178.251 47.3708 177.707 47.5572 176.774C47.6506 176.308 47.744 175.919 47.837 175.608C47.8684 175.39 48.1171 175.282 48.5833 175.282C49.0189 175.282 49.3143 175.359 49.4697 175.515V184.331C49.3453 184.455 49.0499 184.517 48.5833 184.517C48.1791 184.517 47.9304 184.393 47.837 184.144C47.6196 183.305 47.4175 182.683 47.2307 182.278C47.0753 181.874 46.9663 181.656 46.9042 181.625C46.8732 181.594 46.7488 181.501 46.5311 181.345C46.1269 181.097 44.6962 180.972 42.2398 180.972C40.0008 180.972 38.8813 181.097 38.8813 181.345V188.575C38.8813 190.286 39.0213 191.545 39.3011 192.354C39.4565 192.758 40.5137 192.96 42.4729 192.96H44.1987C46.6245 192.96 48.4746 192.633 49.7495 191.98C50.2471 191.732 50.807 191.187 51.429 190.348C52.0506 189.508 52.5328 188.56 52.875 187.502C52.906 187.316 53.1237 187.223 53.5279 187.223C54.2119 187.223 54.6474 187.316 54.8338 187.502C54.7404 187.783 54.5074 188.42 54.1342 189.415C53.792 190.41 53.5279 191.172 53.3411 191.701C53.1547 192.198 52.9527 192.82 52.7349 193.567C52.5171 194.313 52.3774 194.919 52.315 195.386C51.0711 195.386 48.4903 195.339 44.5718 195.246C40.6847 195.152 37.9482 195.137 36.3625 195.199L30.1587 195.386C30.0653 195.292 30.0186 195.044 30.0186 194.639C30.0186 194.111 30.0653 193.846 30.1587 193.846C30.5628 193.846 31.1538 193.753 31.9311 193.567C32.7085 193.349 33.1593 193.1 33.2837 192.82C33.5015 192.167 33.6102 190.752 33.6102 188.575V170.944C33.6102 169.078 33.5015 167.803 33.2837 167.119C33.1903 166.776 32.7552 166.497 31.9778 166.279C31.2005 166.061 30.5785 165.952 30.112 165.952C29.9876 165.952 29.9252 165.719 29.9252 165.253C29.9252 164.818 29.9876 164.538 30.112 164.413C32.1642 164.538 34.2322 164.6 36.3158 164.6ZM82.6344 170.85C82.6344 169.202 82.479 167.958 82.1679 167.119C82.0125 166.745 81.4839 166.45 80.5822 166.232C79.7114 166.015 79.0271 165.906 78.5296 165.906C78.4052 165.906 78.3275 165.688 78.2965 165.253C78.2965 164.787 78.3432 164.491 78.4366 164.367C81.7637 164.584 83.7229 164.693 84.3135 164.693C85.1222 164.693 86.164 164.646 87.4389 164.553C88.7138 164.429 89.5069 164.367 89.8177 164.367C89.88 164.491 89.9111 164.74 89.9111 165.113C89.9111 165.642 89.8491 165.906 89.7247 165.906C89.2891 165.906 88.6205 166.03 87.7187 166.279C86.817 166.497 86.2261 166.808 85.9463 167.212C85.6041 168.052 85.433 169.342 85.433 171.083V188.762C85.433 189.882 85.4954 192.058 85.6198 195.292C85.4954 195.417 85.1532 195.479 84.5937 195.479C84.0961 195.479 83.5985 195.121 83.101 194.406L64.5362 169.777V188.669C64.5362 190.534 64.6606 191.809 64.9094 192.494C65.0648 192.867 65.6401 193.193 66.6352 193.473C67.6303 193.722 68.33 193.846 68.7341 193.846C68.8275 193.846 68.8742 194.064 68.8742 194.499C68.9052 194.935 68.8895 195.23 68.8275 195.386C65.0958 195.199 63.1523 195.106 62.9969 195.106C62.1571 195.106 61.1153 195.152 59.8714 195.246C58.6589 195.308 57.8502 195.355 57.446 195.386C57.3216 195.261 57.2596 194.997 57.2596 194.593C57.2596 194.095 57.3216 193.846 57.446 193.846C57.9746 193.846 58.6742 193.738 59.545 193.52C60.4467 193.271 61.0223 192.914 61.2711 192.447C61.5819 191.794 61.7373 190.488 61.7373 188.529V170.244C61.7373 168.565 61.5662 167.43 61.2244 166.839C61.1 166.621 60.5558 166.419 59.5917 166.232C58.6589 166.046 57.9746 165.952 57.5394 165.952C57.415 165.952 57.3373 165.719 57.3059 165.253C57.3059 164.787 57.3683 164.491 57.4927 164.367C60.7579 164.522 62.608 164.6 63.0436 164.6C64.0697 164.6 65.469 164.522 67.2414 164.367C67.8324 165.486 68.9052 167.15 70.4599 169.358C72.046 171.534 74.2073 174.427 76.9439 178.033C79.6801 181.61 81.5459 184.082 82.541 185.45C82.6034 185.077 82.6344 184.439 82.6344 183.538V170.85ZM101.386 164.553C103.501 164.615 105.226 164.646 106.564 164.646C107.901 164.646 109.626 164.615 111.741 164.553C113.856 164.46 115.55 164.398 116.825 164.367C117.603 164.367 118.676 164.211 120.044 163.9L120.93 171.037C120.712 171.254 120.293 171.363 119.671 171.363C119.422 171.363 119.266 171.285 119.204 171.13C118.769 169.42 118.194 168.269 117.479 167.678C116.763 167.057 115.644 166.745 114.12 166.745C111.228 166.745 109.72 167.01 109.595 167.538C109.316 168.44 109.175 169.902 109.175 171.923V188.762C109.175 190.441 109.316 191.794 109.595 192.82C109.626 193.038 110.046 193.271 110.855 193.52C111.663 193.738 112.208 193.846 112.487 193.846C112.612 193.846 112.674 194.126 112.674 194.686C112.674 194.997 112.643 195.246 112.581 195.432C112.176 195.401 111.57 195.355 110.762 195.292C109.984 195.23 109.253 195.184 108.569 195.152C107.916 195.121 107.279 195.106 106.657 195.106C105.817 195.106 104.651 195.152 103.158 195.246C101.697 195.339 100.795 195.401 100.453 195.432C100.328 195.308 100.266 195.059 100.266 194.686C100.266 194.126 100.328 193.846 100.453 193.846C100.826 193.846 101.401 193.738 102.179 193.52C102.987 193.302 103.438 193.069 103.532 192.82C103.78 191.98 103.905 190.69 103.905 188.948V172.063C103.905 169.482 103.765 167.974 103.485 167.538C103.236 167.01 101.759 166.745 99.0535 166.745C97.5299 166.745 96.4103 167.057 95.695 167.678C94.98 168.269 94.3891 169.404 93.9226 171.083C93.8915 171.27 93.7361 171.363 93.456 171.363C92.8654 171.363 92.4609 171.239 92.2435 170.99L93.1295 163.9C94.4978 164.211 95.5706 164.367 96.348 164.367C97.6232 164.398 99.3023 164.46 101.386 164.553ZM129.653 164.6C131.021 164.6 133.431 164.553 136.883 164.46C140.335 164.336 142.947 164.273 144.719 164.273C144.844 165.206 145.092 166.512 145.466 168.191C145.839 169.839 146.041 170.742 146.072 170.897C145.916 171.052 145.59 171.13 145.092 171.13C144.75 171.13 144.533 171.021 144.439 170.804C143.413 168.036 141.423 166.652 138.469 166.652H136.043C133.742 166.652 132.56 166.854 132.498 167.259C132.312 168.129 132.218 169.389 132.218 171.037V178.36C132.218 178.547 132.903 178.64 134.271 178.64H136.696C136.727 178.64 136.79 178.64 136.883 178.64C138.686 178.64 139.759 178.562 140.101 178.407C140.443 178.251 140.708 177.707 140.894 176.774C140.988 176.308 141.081 175.919 141.174 175.608C141.205 175.39 141.454 175.282 141.921 175.282C142.356 175.282 142.651 175.359 142.807 175.515V184.331C142.682 184.455 142.387 184.517 141.921 184.517C141.516 184.517 141.267 184.393 141.174 184.144C140.957 183.305 140.754 182.683 140.568 182.278C140.412 181.874 140.304 181.656 140.241 181.625C140.21 181.594 140.086 181.501 139.868 181.345C139.464 181.097 138.034 180.972 135.577 180.972C133.338 180.972 132.218 181.097 132.218 181.345V188.575C132.218 190.286 132.358 191.545 132.638 192.354C132.793 192.758 133.851 192.96 135.81 192.96H137.536C139.961 192.96 141.812 192.633 143.086 191.98C143.584 191.732 144.144 191.187 144.766 190.348C145.388 189.508 145.87 188.56 146.212 187.502C146.243 187.316 146.461 187.223 146.865 187.223C147.549 187.223 147.984 187.316 148.171 187.502C148.078 187.783 147.844 188.42 147.471 189.415C147.129 190.41 146.865 191.172 146.678 191.701C146.492 192.198 146.29 192.82 146.072 193.567C145.854 194.313 145.714 194.919 145.652 195.386C144.408 195.386 141.827 195.339 137.909 195.246C134.022 195.152 131.285 195.137 129.699 195.199L123.496 195.386C123.402 195.292 123.356 195.044 123.356 194.639C123.356 194.111 123.402 193.846 123.496 193.846C123.9 193.846 124.491 193.753 125.268 193.567C126.045 193.349 126.497 193.1 126.621 192.82C126.838 192.167 126.948 190.752 126.948 188.575V170.944C126.948 169.078 126.838 167.803 126.621 167.119C126.528 166.776 126.092 166.497 125.315 166.279C124.537 166.061 123.915 165.952 123.449 165.952C123.325 165.952 123.263 165.719 123.263 165.253C123.263 164.818 123.325 164.538 123.449 164.413C125.502 164.538 127.569 164.6 129.653 164.6ZM162.771 166.792C161.465 166.792 160.563 166.901 160.066 167.119C159.723 167.274 159.537 168.891 159.506 171.97V177.334C159.506 178.018 159.77 178.469 160.299 178.687C160.828 178.904 161.558 179.013 162.491 179.013H163.704C164.854 179.013 165.88 178.469 166.783 177.381C167.715 176.292 168.182 174.877 168.182 173.136C168.182 168.907 166.378 166.792 162.771 166.792ZM163.517 164.46C164.326 164.46 165.166 164.553 166.036 164.74C166.938 164.895 167.855 165.175 168.788 165.579C169.752 165.984 170.607 166.481 171.354 167.072C172.1 167.663 172.706 168.44 173.173 169.404C173.639 170.368 173.872 171.457 173.872 172.669C173.872 174.348 173.328 175.935 172.24 177.427C171.152 178.92 169.83 179.977 168.275 180.599C168.026 180.692 167.964 180.848 168.088 181.066C169.83 184.206 171.571 186.849 173.313 188.995C174.401 190.332 175.567 191.483 176.811 192.447C178.086 193.38 179.252 193.846 180.31 193.846C180.434 194.033 180.496 194.282 180.496 194.593C180.496 194.903 180.434 195.184 180.31 195.432C179.937 195.494 179.454 195.525 178.864 195.525C177.278 195.525 175.832 195.339 174.525 194.966C173.25 194.593 172.131 194.048 171.167 193.333C170.234 192.587 169.457 191.872 168.835 191.187C168.213 190.503 167.56 189.633 166.876 188.575C166.44 187.953 165.943 187.223 165.383 186.383C164.823 185.544 164.388 184.906 164.077 184.471C163.797 184.004 163.471 183.522 163.098 183.025C162.724 182.527 162.398 182.154 162.118 181.905C161.869 181.656 161.62 181.485 161.371 181.392C161.185 181.299 160.812 181.252 160.252 181.252C159.755 181.252 159.506 181.516 159.506 182.045V188.622C159.506 190.488 159.63 191.809 159.879 192.587C159.972 192.96 160.485 193.271 161.418 193.52C162.382 193.738 163.082 193.846 163.517 193.846C163.642 193.846 163.704 194.111 163.704 194.639C163.704 194.982 163.673 195.246 163.61 195.432C160.19 195.246 157.982 195.152 156.987 195.152C156.147 195.152 155.199 195.184 154.141 195.246C153.115 195.277 152.291 195.308 151.669 195.339L150.737 195.432C150.643 195.308 150.597 195.028 150.597 194.593C150.597 194.095 150.643 193.846 150.737 193.846C151.141 193.846 151.731 193.753 152.509 193.567C153.317 193.349 153.784 193.1 153.908 192.82C154.095 192.26 154.188 190.846 154.188 188.575V170.944C154.188 169.171 154.095 167.896 153.908 167.119C153.815 166.87 153.348 166.621 152.509 166.372C151.7 166.092 151.11 165.952 150.737 165.952C150.612 165.952 150.55 165.719 150.55 165.253C150.55 164.787 150.612 164.506 150.737 164.413C154.033 164.506 156.101 164.553 156.94 164.553C157.811 164.553 158.884 164.538 160.159 164.506C161.465 164.475 162.584 164.46 163.517 164.46ZM183.062 172.39C183.062 170.057 184.041 168.098 186 166.512C187.96 164.895 190.167 164.087 192.624 164.087C193.495 164.087 194.256 164.133 194.91 164.227C195.563 164.32 196.464 164.522 197.615 164.833C198.797 165.113 199.605 165.299 200.04 165.393C200.413 167.507 200.6 169.902 200.6 172.576C200.538 172.856 200.351 172.996 200.04 172.996C199.201 172.996 198.75 172.856 198.688 172.576C198.501 171.146 197.833 169.746 196.682 168.378C195.532 167.01 194.132 166.326 192.484 166.326C191.054 166.326 189.949 166.73 189.172 167.538C188.426 168.347 188.053 169.435 188.053 170.804C188.053 171.27 188.099 171.721 188.193 172.156C188.317 172.561 188.535 172.965 188.846 173.369C189.188 173.773 189.452 174.115 189.639 174.395C189.856 174.644 190.245 174.97 190.805 175.375C191.395 175.779 191.784 176.059 191.971 176.214C192.188 176.37 192.655 176.681 193.37 177.147C194.117 177.583 194.568 177.831 194.723 177.894C194.91 178.049 195.423 178.391 196.262 178.92C197.133 179.417 197.739 179.791 198.081 180.039C198.424 180.257 198.921 180.646 199.574 181.206C200.227 181.765 200.694 182.294 200.973 182.791C201.284 183.289 201.564 183.926 201.813 184.704C202.062 185.45 202.186 186.259 202.186 187.129C202.186 189.617 201.175 191.67 199.154 193.287C197.164 194.903 194.847 195.712 192.204 195.712C190.338 195.712 187.477 195.277 183.621 194.406C183.341 193.287 183.077 191.887 182.829 190.208C182.611 188.498 182.502 187.378 182.502 186.849C182.533 186.601 182.782 186.476 183.248 186.476C184.057 186.476 184.508 186.601 184.601 186.849C184.725 187.409 184.943 188.031 185.254 188.715C185.565 189.368 185.985 190.084 186.514 190.861C187.073 191.607 187.804 192.229 188.706 192.727C189.639 193.193 190.68 193.426 191.831 193.426C193.293 193.426 194.505 192.991 195.469 192.121C196.433 191.25 196.915 189.944 196.915 188.202C196.915 187.674 196.807 187.161 196.589 186.663C196.402 186.166 196.169 185.746 195.889 185.403C195.64 185.061 195.251 184.688 194.723 184.284C194.225 183.88 193.805 183.569 193.464 183.351C193.122 183.133 192.608 182.838 191.924 182.465C191.271 182.061 190.805 181.781 190.525 181.625C190.432 181.532 190.261 181.408 190.012 181.252C189.11 180.692 188.426 180.257 187.96 179.946C187.493 179.635 186.887 179.184 186.14 178.593C185.425 177.971 184.881 177.396 184.508 176.868C184.134 176.339 183.792 175.686 183.481 174.908C183.202 174.131 183.062 173.291 183.062 172.39Z" fill="black"/>
<path d="M86.5033 60.721C86.1035 60.721 85.677 60.7342 85.224 60.7612C84.7709 60.7743 84.4175 60.7944 84.1643 60.821L83.7645 60.841C83.7247 60.8009 83.7047 60.6944 83.7047 60.5211C83.7047 60.2946 83.7247 60.1812 83.7645 60.1812C83.9378 60.1812 84.1909 60.1414 84.5243 60.0611C84.8574 59.9681 85.0507 59.8612 85.104 59.7416C85.1974 59.4614 85.244 58.8552 85.244 57.9224V50.3657C85.244 49.5661 85.1974 49.0196 85.104 48.7267C85.0638 48.5801 84.8774 48.46 84.5444 48.3667C84.211 48.2733 83.9443 48.2266 83.7444 48.2266C83.6912 48.2266 83.6646 48.1266 83.6646 47.9267C83.6646 47.7403 83.6912 47.6203 83.7444 47.5671C84.6108 47.6203 85.4906 47.647 86.3833 47.647C87.0099 47.6605 88.0627 47.6404 89.5419 47.5871C91.0346 47.5339 92.134 47.5072 92.8406 47.5072C92.8938 47.907 93.0004 48.4666 93.1601 49.1863C93.3203 49.8925 93.4067 50.2792 93.4202 50.3456C93.3535 50.4124 93.2138 50.4459 93.0004 50.4459C92.8537 50.4459 92.7603 50.3992 92.7206 50.3058C92.2806 49.1196 91.4278 48.5264 90.1616 48.5264H89.122C88.136 48.5264 87.6293 48.6133 87.6027 48.7865C87.5363 49.1064 87.5028 49.6459 87.5028 50.4058V53.5444C87.5028 53.6242 87.796 53.6644 88.3826 53.6644H89.4022C89.4153 53.6644 89.4419 53.6644 89.4821 53.6644C90.255 53.6644 90.7146 53.6308 90.8613 53.5644C91.0079 53.4977 91.1214 53.2646 91.2013 52.8648C91.241 52.6649 91.2812 52.4982 91.3213 52.365C91.3344 52.2716 91.4409 52.2249 91.6408 52.2249C91.8276 52.2249 91.9542 52.2581 92.0209 52.3249V56.1033C91.9673 56.1565 91.8407 56.1832 91.6408 56.1832C91.4676 56.1832 91.361 56.1299 91.3213 56.023C91.2279 55.6634 91.1411 55.3967 91.0612 55.2234C90.9944 55.0502 90.9481 54.9571 90.9215 54.9436C90.908 54.9305 90.8547 54.8904 90.7613 54.8236C90.5881 54.7171 89.9752 54.6639 88.9221 54.6639C87.9759 54.6639 87.5028 54.7171 87.5028 54.8236V57.9622C87.5028 58.6819 87.5761 59.2349 87.7227 59.6216C87.776 59.7547 88.016 59.8813 88.4424 60.0013C88.8689 60.1213 89.1556 60.1812 89.3022 60.1812C89.3686 60.1812 89.4022 60.2946 89.4022 60.5211C89.4022 60.6809 89.3821 60.7878 89.342 60.841C87.7428 60.7612 86.7965 60.721 86.5033 60.721ZM102.656 57.2626C102.656 56.4097 102.416 55.71 101.936 55.1636C101.47 54.6037 100.71 54.3239 99.6572 54.3239C99.2709 54.3239 98.8576 54.3574 98.4177 54.4238C98.3112 54.4906 98.2579 54.6237 98.2579 54.8236V58.5418C98.2579 59.1018 98.3378 59.4483 98.498 59.5815C98.6712 59.715 99.0977 59.7814 99.7772 59.7814C100.071 59.7814 100.357 59.7547 100.637 59.7015C100.917 59.6347 101.217 59.5282 101.537 59.3816C101.87 59.2218 102.136 58.9617 102.336 58.602C102.549 58.2289 102.656 57.7824 102.656 57.2626ZM95.9989 57.9224V50.3657C95.9989 49.5661 95.9522 49.0196 95.8591 48.7267C95.819 48.5801 95.6326 48.46 95.2992 48.3667C94.9662 48.2733 94.6995 48.2266 94.4996 48.2266C94.4463 48.2266 94.4197 48.1266 94.4197 47.9267C94.4197 47.7403 94.4463 47.6203 94.4996 47.5671C95.3791 47.6072 96.2655 47.6269 97.1585 47.6269C97.8381 47.6269 98.4111 47.6269 98.8777 47.6269C99.3442 47.6138 99.744 47.6072 100.077 47.6072C100.557 47.6072 101.037 47.667 101.517 47.787C101.996 47.907 102.463 48.0934 102.916 48.3466C103.369 48.5866 103.735 48.9397 104.015 49.4063C104.309 49.8728 104.455 50.4124 104.455 51.0255C104.455 51.5052 104.315 51.9517 104.035 52.365C103.756 52.7779 103.489 53.0712 103.236 53.2445C102.996 53.4043 102.789 53.5177 102.616 53.5841C102.509 53.6242 102.483 53.6644 102.536 53.7041C103.029 53.7844 103.575 54.1375 104.175 54.7638C104.788 55.3766 105.095 56.1365 105.095 57.0426C105.095 58.1887 104.628 59.1018 103.695 59.7814C102.776 60.4613 101.55 60.7944 100.017 60.7809L97.1785 60.7612L94.5197 60.841C94.4795 60.8009 94.4598 60.6944 94.4598 60.5211C94.4598 60.2946 94.4795 60.1812 94.5197 60.1812C94.6929 60.1812 94.9461 60.1414 95.2791 60.0611C95.6125 59.9681 95.8059 59.8612 95.8591 59.7416C95.9522 59.4614 95.9989 58.8552 95.9989 57.9224ZM100.577 53.2244C101.55 53.011 102.036 52.3581 102.036 51.2652C102.036 49.4661 101.27 48.5666 99.7371 48.5666C99.1108 48.5666 98.6844 48.5998 98.4578 48.6665C98.3513 48.6931 98.2981 48.7665 98.2981 48.8865L98.2579 50.8056V53.1446C98.2579 53.2777 98.6577 53.3445 99.4573 53.3445C99.9505 53.3445 100.324 53.3043 100.577 53.2244ZM113.451 47.5871L117.649 58.0622C117.849 58.5955 118.049 59.0817 118.249 59.5216C118.329 59.7215 118.542 59.8813 118.888 60.0013C119.235 60.1213 119.488 60.1812 119.648 60.1812C119.702 60.1812 119.728 60.3012 119.728 60.5412C119.728 60.701 119.715 60.8009 119.688 60.841C118.089 60.7612 117.249 60.721 117.169 60.721C117.076 60.721 116.21 60.7612 114.571 60.841C114.517 60.7878 114.491 60.6678 114.491 60.481C114.491 60.2811 114.517 60.1812 114.571 60.1812C114.73 60.1812 114.95 60.1414 115.23 60.0611C115.51 59.9813 115.677 59.8882 115.73 59.7814C115.77 59.7015 115.79 59.615 115.79 59.5216C115.79 59.255 115.663 58.7954 115.41 58.142L114.71 56.2831C114.657 56.2299 114.61 56.2032 114.571 56.2032C114.144 56.1766 113.571 56.1631 112.851 56.1631C112.132 56.1631 111.372 56.1832 110.572 56.2229C110.492 56.2229 110.452 56.2496 110.452 56.3032L109.693 58.1621C109.44 58.8552 109.313 59.2882 109.313 59.4615C109.313 59.6347 109.386 59.7682 109.533 59.8612C109.653 59.9415 109.859 60.0148 110.152 60.0812C110.459 60.148 110.666 60.1812 110.772 60.1812C110.812 60.1947 110.832 60.288 110.832 60.4613C110.832 60.6342 110.819 60.7612 110.792 60.841C110.725 60.841 110.412 60.821 109.852 60.7809C109.293 60.7411 108.84 60.721 108.493 60.721C108.147 60.721 107.733 60.7411 107.254 60.7809C106.787 60.8075 106.454 60.8276 106.254 60.841C106.201 60.7878 106.174 60.6878 106.174 60.5412C106.174 60.3012 106.188 60.1812 106.214 60.1812C106.374 60.1812 106.627 60.1279 106.974 60.0214C107.334 59.9014 107.56 59.7682 107.654 59.6216C107.907 59.2218 108.16 58.702 108.413 58.0622L112.132 49.0663C112.438 48.2667 112.685 47.787 112.871 47.6269C112.978 47.5339 113.091 47.4872 113.211 47.4872C113.304 47.4872 113.384 47.5204 113.451 47.5871ZM111.052 55.0235C111.518 55.0637 111.998 55.0837 112.491 55.0837C112.958 55.0837 113.504 55.0637 114.131 55.0235L114.171 54.9436L112.651 50.9457L111.012 54.9436C111.012 54.9969 111.025 55.0235 111.052 55.0235Z" fill="black"/>
<path d="M62.3455 53.5571L100.557 91.7689L138.769 53.5571L100.557 15.3454L62.3455 53.5571Z" stroke="black" stroke-width="1.87059"/>
<path d="M98.1446 12.545L85.5997 0.00012207L47 38.5998L59.5449 51.1447L98.1446 12.545Z" fill="black"/>
<path d="M154.114 68.5147L141.569 55.9698L102.97 94.5695L115.515 107.114L154.114 68.5147Z" fill="black"/>
<path d="M85.6 107.114L98.1449 94.5693L59.5452 55.9696L47.0003 68.5145L85.6 107.114Z" fill="black"/>
<path d="M141.57 51.1446L154.114 38.5997L115.515 -2.85371e-05L102.97 12.5449L141.57 51.1446Z" fill="black"/>
<path d="M100.805 11.4155L91.8681 2.66083H109.742L100.805 11.4155Z" fill="#D00000"/>
<path d="M58.3083 53.5476L49.5536 44.6105V62.4847L58.3083 53.5476Z" fill="#D00000"/>
<path d="M142.937 53.5476L151.692 44.6105V62.4847L142.937 53.5476Z" fill="#D00000"/>
</g>
<defs>
<clipPath id="clip0_104_3692">
<rect width="206" height="196" fill="white"/>
</clipPath>
</defs>
</svg>
