<svg width="108" height="108" viewBox="0 0 108 108" fill="none" xmlns="http://www.w3.org/2000/svg">
<path d="M39.5033 60.7211C39.1035 60.7211 38.677 60.7343 38.224 60.7613C37.7709 60.7744 37.4175 60.7945 37.1643 60.8211L36.7645 60.8411C36.7247 60.801 36.7047 60.6945 36.7047 60.5212C36.7047 60.2947 36.7247 60.1813 36.7645 60.1813C36.9378 60.1813 37.1909 60.1415 37.5243 60.0612C37.8574 59.9682 38.0507 59.8613 38.104 59.7417C38.1974 59.4615 38.244 58.8553 38.244 57.9225V50.3658C38.244 49.5662 38.1974 49.0197 38.104 48.7268C38.0638 48.5802 37.8774 48.4601 37.5444 48.3668C37.211 48.2734 36.9443 48.2267 36.7444 48.2267C36.6912 48.2267 36.6646 48.1267 36.6646 47.9268C36.6646 47.7404 36.6912 47.6204 36.7444 47.5672C37.6108 47.6204 38.4906 47.6471 39.3833 47.6471C40.0099 47.6606 41.0627 47.6405 42.5419 47.5872C44.0346 47.534 45.134 47.5073 45.8406 47.5073C45.8938 47.9071 46.0004 48.4667 46.1601 49.1864C46.3203 49.8926 46.4067 50.2793 46.4202 50.3457C46.3535 50.4125 46.2138 50.446 46.0004 50.446C45.8537 50.446 45.7603 50.3993 45.7206 50.3059C45.2806 49.1197 44.4278 48.5265 43.1616 48.5265H42.122C41.136 48.5265 40.6293 48.6134 40.6027 48.7866C40.5363 49.1065 40.5028 49.646 40.5028 50.4059V53.5445C40.5028 53.6243 40.796 53.6645 41.3826 53.6645H42.4022C42.4153 53.6645 42.4419 53.6645 42.4821 53.6645C43.255 53.6645 43.7146 53.6309 43.8613 53.5645C44.0079 53.4978 44.1214 53.2647 44.2013 52.8649C44.241 52.665 44.2812 52.4983 44.3213 52.3651C44.3344 52.2717 44.4409 52.225 44.6408 52.225C44.8276 52.225 44.9542 52.2582 45.0209 52.325V56.1034C44.9673 56.1566 44.8407 56.1833 44.6408 56.1833C44.4676 56.1833 44.361 56.13 44.3213 56.0231C44.2279 55.6635 44.1411 55.3968 44.0612 55.2235C43.9944 55.0503 43.9481 54.9572 43.9215 54.9437C43.908 54.9306 43.8547 54.8905 43.7613 54.8237C43.5881 54.7172 42.9752 54.664 41.9221 54.664C40.9759 54.664 40.5028 54.7172 40.5028 54.8237V57.9623C40.5028 58.682 40.5761 59.235 40.7227 59.6217C40.776 59.7548 41.016 59.8814 41.4424 60.0014C41.8689 60.1214 42.1556 60.1813 42.3022 60.1813C42.3686 60.1813 42.4022 60.2947 42.4022 60.5212C42.4022 60.681 42.3821 60.7879 42.342 60.8411C40.7428 60.7613 39.7965 60.7211 39.5033 60.7211ZM55.656 57.2627C55.656 56.4098 55.416 55.7101 54.936 55.1637C54.47 54.6038 53.71 54.324 52.6572 54.324C52.2709 54.324 51.8576 54.3575 51.4177 54.4239C51.3112 54.4907 51.2579 54.6238 51.2579 54.8237V58.5419C51.2579 59.1019 51.3378 59.4484 51.498 59.5816C51.6712 59.7151 52.0977 59.7815 52.7772 59.7815C53.071 59.7815 53.357 59.7548 53.637 59.7016C53.917 59.6348 54.217 59.5283 54.537 59.3817C54.87 59.2219 55.136 58.9618 55.336 58.6021C55.549 58.229 55.656 57.7825 55.656 57.2627ZM48.9989 57.9225V50.3658C48.9989 49.5662 48.9522 49.0197 48.8591 48.7268C48.819 48.5802 48.6326 48.4601 48.2992 48.3668C47.9662 48.2734 47.6995 48.2267 47.4996 48.2267C47.4463 48.2267 47.4197 48.1267 47.4197 47.9268C47.4197 47.7404 47.4463 47.6204 47.4996 47.5672C48.3791 47.6073 49.2655 47.627 50.1585 47.627C50.8381 47.627 51.4111 47.627 51.8777 47.627C52.3442 47.6139 52.744 47.6073 53.077 47.6073C53.557 47.6073 54.037 47.6671 54.517 47.7871C54.996 47.9071 55.463 48.0935 55.916 48.3467C56.369 48.5867 56.735 48.9398 57.015 49.4064C57.309 49.8729 57.455 50.4125 57.455 51.0256C57.455 51.5053 57.315 51.9518 57.035 52.3651C56.756 52.778 56.489 53.0713 56.236 53.2446C55.996 53.4044 55.789 53.5178 55.616 53.5842C55.509 53.6243 55.483 53.6645 55.536 53.7042C56.029 53.7845 56.575 54.1376 57.175 54.7639C57.788 55.3767 58.095 56.1366 58.095 57.0427C58.095 58.1888 57.628 59.1019 56.695 59.7815C55.776 60.4614 54.55 60.7945 53.017 60.781L50.1785 60.7613L47.5197 60.8411C47.4795 60.801 47.4598 60.6945 47.4598 60.5212C47.4598 60.2947 47.4795 60.1813 47.5197 60.1813C47.6929 60.1813 47.9461 60.1415 48.2791 60.0612C48.6125 59.9682 48.8059 59.8613 48.8591 59.7417C48.9522 59.4615 48.9989 58.8553 48.9989 57.9225ZM53.577 53.2245C54.55 53.0111 55.036 52.3582 55.036 51.2653C55.036 49.4662 54.27 48.5667 52.7371 48.5667C52.1108 48.5667 51.6844 48.5999 51.4578 48.6666C51.3513 48.6932 51.2981 48.7666 51.2981 48.8866L51.2579 50.8057V53.1447C51.2579 53.2778 51.6577 53.3446 52.4573 53.3446C52.9505 53.3446 53.324 53.3044 53.577 53.2245ZM66.451 47.5872L70.649 58.0623C70.849 58.5956 71.049 59.0818 71.249 59.5217C71.329 59.7216 71.542 59.8814 71.888 60.0014C72.235 60.1214 72.488 60.1813 72.648 60.1813C72.702 60.1813 72.728 60.3013 72.728 60.5413C72.728 60.7011 72.715 60.801 72.688 60.8411C71.089 60.7613 70.249 60.7211 70.169 60.7211C70.076 60.7211 69.21 60.7613 67.571 60.8411C67.517 60.7879 67.491 60.6679 67.491 60.4811C67.491 60.2812 67.517 60.1813 67.571 60.1813C67.73 60.1813 67.95 60.1415 68.23 60.0612C68.51 59.9814 68.677 59.8883 68.73 59.7815C68.77 59.7016 68.79 59.6151 68.79 59.5217C68.79 59.2551 68.663 58.7955 68.41 58.1421L67.71 56.2832C67.657 56.23 67.61 56.2033 67.571 56.2033C67.144 56.1767 66.571 56.1632 65.851 56.1632C65.132 56.1632 64.372 56.1833 63.572 56.223C63.492 56.223 63.452 56.2497 63.452 56.3033L62.693 58.1622C62.44 58.8553 62.313 59.2883 62.313 59.4616C62.313 59.6348 62.386 59.7683 62.533 59.8613C62.653 59.9416 62.859 60.0149 63.152 60.0813C63.459 60.1481 63.666 60.1813 63.772 60.1813C63.812 60.1948 63.832 60.2881 63.832 60.4614C63.832 60.6343 63.819 60.7613 63.792 60.8411C63.725 60.8411 63.412 60.8211 62.852 60.781C62.293 60.7412 61.84 60.7211 61.493 60.7211C61.147 60.7211 60.733 60.7412 60.254 60.781C59.787 60.8076 59.454 60.8277 59.254 60.8411C59.201 60.7879 59.174 60.6879 59.174 60.5413C59.174 60.3013 59.188 60.1813 59.214 60.1813C59.374 60.1813 59.627 60.128 59.974 60.0215C60.334 59.9015 60.56 59.7683 60.654 59.6217C60.907 59.2219 61.16 58.7021 61.413 58.0623L65.132 49.0664C65.438 48.2668 65.685 47.7871 65.871 47.627C65.978 47.534 66.091 47.4873 66.211 47.4873C66.304 47.4873 66.384 47.5205 66.451 47.5872ZM64.052 55.0236C64.518 55.0638 64.998 55.0838 65.491 55.0838C65.958 55.0838 66.504 55.0638 67.131 55.0236L67.171 54.9437L65.651 50.9458L64.012 54.9437C64.012 54.997 64.025 55.0236 64.052 55.0236Z" fill="black"/>
<path d="M15.3455 53.5572L53.557 91.769L91.769 53.5572L53.557 15.3455L15.3455 53.5572Z" stroke="black" stroke-width="1.87059"/>
<path d="M51.1446 12.5451L38.5997 0.000244141L0 38.5999L12.5449 51.1448L51.1446 12.5451Z" fill="black"/>
<path d="M107.114 68.5146L94.569 55.9697L55.97 94.5694L68.515 107.114L107.114 68.5146Z" fill="black"/>
<path d="M38.6 107.114L51.1449 94.5694L12.5452 55.9697L0.000305176 68.5146L38.6 107.114Z" fill="black"/>
<path d="M94.57 51.1446L107.114 38.5997L68.515 0L55.97 12.5449L94.57 51.1446Z" fill="black"/>
<path d="M53.805 11.4156L44.8681 2.66089H62.742L53.805 11.4156Z" fill="#D00000"/>
<path d="M11.3083 53.5477L2.55359 44.6106V62.4848L11.3083 53.5477Z" fill="#D00000"/>
<path d="M95.937 53.5477L104.692 44.6106V62.4848L95.937 53.5477Z" fill="#D00000"/>
</svg>
