<svg width="131" height="163" viewBox="0 0 131 163" fill="none" xmlns="http://www.w3.org/2000/svg">
<path d="M4.04656 112.336C4.4035 112.336 5.67301 112.281 7.85489 112.168C7.89463 112.318 7.9144 112.467 7.9144 112.616C7.9144 112.934 7.87485 113.093 7.7955 113.093C7.61684 113.093 7.25988 113.168 6.72427 113.317C6.18886 113.448 5.91104 113.588 5.89126 113.737C5.73257 114.298 5.65323 115.12 5.65323 116.204V122.649C5.65323 124.573 6.08951 126.115 6.96232 127.273C7.85489 128.412 9.08483 128.982 10.6517 128.982C12.1793 128.982 13.399 128.515 14.3115 127.581C15.2436 126.628 15.71 125.059 15.71 122.873V116.035C15.71 114.896 15.6106 114.148 15.4123 113.793C15.2935 113.626 14.9363 113.466 14.3413 113.317C13.7659 113.149 13.3494 113.065 13.0916 113.065C13.0122 113.065 12.9627 112.934 12.9429 112.673C12.9429 112.411 12.9724 112.243 13.032 112.168C15.1743 112.299 16.4241 112.365 16.781 112.365C17.2768 112.365 17.9316 112.336 18.7448 112.281C19.5778 112.205 20.0937 112.168 20.2919 112.168C20.3317 112.299 20.3515 112.448 20.3515 112.616C20.3515 112.916 20.3117 113.065 20.2323 113.065C19.9547 113.065 19.5283 113.14 18.9531 113.289C18.3779 113.42 18.0009 113.607 17.8225 113.85C17.6042 114.317 17.4951 115.092 17.4951 116.175V122.761C17.4951 124.218 17.3066 125.48 16.9296 126.544C16.553 127.59 16.0173 128.421 15.323 129.038C14.6289 129.636 13.8355 130.075 12.9429 130.355C12.0701 130.635 11.0684 130.776 9.93785 130.776C7.55751 130.776 5.68301 130.103 4.31438 128.758C2.94575 127.394 2.2612 125.209 2.2612 122.201V116.091C2.2612 114.896 2.18185 114.111 2.02317 113.737C1.94382 113.588 1.66623 113.448 1.19016 113.317C0.714095 113.168 0.357165 113.093 0.119131 113.093C0.0397869 113.093 0 112.953 0 112.673C0 112.392 0.0297839 112.224 0.0893505 112.168C2.60836 112.281 3.92743 112.336 4.04656 112.336ZM25.5773 116.988C25.5773 115.587 26.2023 114.41 27.4518 113.457C28.7015 112.486 30.1097 112 31.6768 112C32.2322 112 32.7183 112.028 33.1348 112.084C33.5513 112.14 34.1264 112.262 34.8604 112.448C35.6142 112.616 36.1299 112.729 36.4077 112.785C36.6457 114.055 36.7646 115.493 36.7646 117.101C36.7251 117.268 36.6059 117.352 36.4077 117.352C35.872 117.352 35.5844 117.268 35.5447 117.101C35.4258 116.241 34.9992 115.4 34.2654 114.579C33.5315 113.756 32.6389 113.345 31.5875 113.345C30.6751 113.345 29.971 113.588 29.4752 114.074C28.9991 114.559 28.7611 115.214 28.7611 116.035C28.7611 116.316 28.7906 116.586 28.8502 116.848C28.9295 117.091 29.0684 117.334 29.2667 117.577C29.4849 117.82 29.6537 118.025 29.7725 118.193C29.9114 118.343 30.1595 118.539 30.5164 118.782C30.8933 119.025 31.1412 119.192 31.2603 119.286C31.3992 119.379 31.6965 119.566 32.1529 119.847C32.6289 120.108 32.9165 120.258 33.0157 120.295C33.1348 120.389 33.4619 120.594 33.9975 120.911C34.553 121.21 34.9397 121.435 35.1579 121.584C35.3762 121.715 35.6936 121.948 36.1101 122.285C36.5266 122.621 36.8242 122.938 37.0027 123.237C37.2011 123.536 37.3796 123.919 37.5383 124.386C37.697 124.835 37.7763 125.32 37.7763 125.844C37.7763 127.338 37.1316 128.571 35.8422 129.543C34.5728 130.514 33.095 131 31.409 131C30.2188 131 28.3941 130.738 25.9344 130.215C25.756 129.543 25.5873 128.702 25.4286 127.693C25.2897 126.665 25.2203 125.993 25.2203 125.675C25.2401 125.526 25.3988 125.451 25.6964 125.451C26.212 125.451 26.4996 125.526 26.5592 125.675C26.6386 126.012 26.7774 126.385 26.9757 126.796C27.1742 127.189 27.442 127.618 27.7791 128.086C28.1361 128.534 28.6024 128.908 29.1775 129.206C29.7725 129.487 30.4371 129.627 31.1709 129.627C32.1033 129.627 32.877 129.365 33.4917 128.842C34.1067 128.319 34.4141 127.534 34.4141 126.488C34.4141 126.17 34.3447 125.862 34.2058 125.564C34.0869 125.264 33.938 125.012 33.7595 124.807C33.6008 124.601 33.353 124.377 33.0157 124.134C32.6983 123.891 32.4307 123.704 32.2125 123.574C31.9942 123.443 31.6668 123.266 31.2305 123.041C30.814 122.798 30.5164 122.63 30.338 122.537C30.2784 122.481 30.1692 122.406 30.0105 122.312C29.4354 121.976 28.9991 121.715 28.7015 121.528C28.4039 121.341 28.0172 121.07 27.5411 120.715C27.0848 120.342 26.7376 119.996 26.4996 119.678C26.2616 119.361 26.0436 118.968 25.8451 118.502C25.6667 118.034 25.5773 117.53 25.5773 116.988ZM56.321 112.281C56.8962 112.281 57.5608 112.271 58.3147 112.252C59.0683 112.215 59.7426 112.196 60.3378 112.196C60.9328 112.196 61.518 112.252 62.0931 112.365C62.6883 112.458 63.2736 112.635 63.8491 112.897C64.4436 113.158 64.9596 113.485 65.3959 113.877C65.852 114.251 66.2194 114.737 66.4969 115.335C66.7941 115.933 66.9427 116.596 66.9427 117.325C66.9427 118.202 66.6952 119.062 66.1996 119.903C65.7231 120.743 64.9896 121.463 63.9977 122.061C63.0255 122.64 61.9247 122.929 60.6947 122.929C60.2783 122.929 59.8617 122.864 59.4452 122.733C59.0285 122.583 58.7409 122.406 58.5822 122.201C58.5426 122.163 58.5029 122.07 58.4633 121.921C58.4436 121.771 58.4436 121.631 58.4633 121.5C58.4831 121.369 58.5129 121.304 58.5526 121.304C59.0087 121.49 59.5641 121.584 60.2187 121.584C61.1708 121.584 61.9247 121.219 62.4801 120.491C63.0355 119.744 63.3131 118.81 63.3131 117.689C63.3131 116.437 63.0453 115.447 62.5099 114.718C61.9742 113.99 61.151 113.626 60.0402 113.626C59.2072 113.626 58.632 113.691 58.3147 113.822C58.0766 113.934 57.9575 114.905 57.9575 116.736V126.741C57.9575 127.861 58.0368 128.655 58.1955 129.122C58.2551 129.346 58.5822 129.534 59.1774 129.683C59.7924 129.813 60.2387 129.879 60.5163 129.879C60.5956 129.879 60.6354 130.038 60.6354 130.355C60.6354 130.561 60.6154 130.719 60.5758 130.832C58.394 130.719 56.9856 130.664 56.3508 130.664C55.8152 130.664 55.2102 130.682 54.5359 130.719C53.8814 130.738 53.3555 130.757 52.959 130.776L52.3638 130.832C52.3042 130.757 52.2744 130.588 52.2744 130.327C52.2744 130.029 52.3042 129.879 52.3638 129.879C52.6216 129.879 52.9985 129.822 53.4944 129.711C54.0103 129.58 54.3076 129.431 54.387 129.263C54.5061 128.926 54.5657 128.076 54.5657 126.712V116.119C54.5657 115.054 54.5061 114.289 54.387 113.822C54.3277 113.672 54.03 113.523 53.4944 113.373C52.9788 113.205 52.6018 113.121 52.3638 113.121C52.2844 113.121 52.2449 112.981 52.2449 112.7C52.2449 112.421 52.2844 112.252 52.3638 112.196C54.4466 112.252 55.7656 112.281 56.321 112.281ZM79.6369 113.626C78.8039 113.626 78.2285 113.691 77.9115 113.822C77.6934 113.915 77.5741 114.887 77.5543 116.736V119.958C77.5543 120.37 77.7227 120.64 78.0601 120.771C78.3976 120.902 78.8632 120.968 79.4583 120.968H80.2321C80.9663 120.968 81.6207 120.64 82.1961 119.987C82.7906 119.333 83.0884 118.483 83.0884 117.436C83.0884 114.896 81.9384 113.626 79.6369 113.626ZM80.1134 112.224C80.6288 112.224 81.1646 112.281 81.7196 112.392C82.2949 112.486 82.8805 112.654 83.475 112.897C84.0899 113.14 84.6353 113.439 85.1118 113.793C85.5876 114.148 85.9748 114.616 86.272 115.195C86.5699 115.774 86.7185 116.428 86.7185 117.156C86.7185 118.165 86.3715 119.118 85.6769 120.015C84.9829 120.911 84.1396 121.547 83.1478 121.921C82.9896 121.976 82.9494 122.07 83.0291 122.201C84.1396 124.088 85.2508 125.675 86.3613 126.965C87.056 127.768 87.7997 128.459 88.5926 129.038C89.4065 129.598 90.1496 129.879 90.8245 129.879C90.9036 129.991 90.9431 130.14 90.9431 130.327C90.9431 130.514 90.9036 130.682 90.8245 130.832C90.5866 130.869 90.2791 130.888 89.9022 130.888C88.8905 130.888 87.9681 130.776 87.1351 130.551C86.3218 130.327 85.608 130 84.9925 129.571C84.3973 129.122 83.9017 128.692 83.505 128.282C83.1082 127.871 82.6917 127.347 82.2554 126.712C81.9779 126.339 81.6603 125.899 81.303 125.395C80.9465 124.891 80.6684 124.507 80.47 124.246C80.2914 123.966 80.0834 123.677 79.8455 123.377C79.6076 123.079 79.399 122.855 79.2204 122.705C79.0622 122.556 78.9034 122.453 78.7446 122.397C78.6253 122.34 78.3874 122.312 78.0301 122.312C77.7131 122.312 77.5543 122.471 77.5543 122.789V126.741C77.5543 127.861 77.634 128.655 77.7922 129.122C77.8522 129.346 78.1794 129.534 78.7745 129.683C79.3888 129.813 79.8353 129.879 80.1134 129.879C80.1925 129.879 80.2321 130.038 80.2321 130.355C80.2321 130.561 80.2123 130.719 80.1727 130.832C77.9906 130.719 76.5822 130.664 75.9475 130.664C75.4123 130.664 74.807 130.682 74.1328 130.719C73.4783 130.738 72.9527 130.757 72.556 130.776L71.9608 130.832C71.9009 130.757 71.8715 130.588 71.8715 130.327C71.8715 130.029 71.9009 129.879 71.9608 129.879C72.2185 129.879 72.5955 129.822 73.0911 129.711C73.6072 129.58 73.9044 129.431 73.9841 129.263C74.1028 128.926 74.1621 128.076 74.1621 126.712V116.119C74.1621 115.054 74.1028 114.289 73.9841 113.822C73.9242 113.672 73.6269 113.523 73.0911 113.373C72.5757 113.205 72.1988 113.121 71.9608 113.121C71.8811 113.121 71.8415 112.981 71.8415 112.7C71.8415 112.421 71.8811 112.252 71.9608 112.196C74.0632 112.252 75.3824 112.281 75.9182 112.281C76.4731 112.281 77.1575 112.271 77.9708 112.252C78.8039 112.234 79.5183 112.224 80.1134 112.224ZM99.6207 112.308C100.493 112.308 102.031 112.281 104.232 112.224C106.434 112.15 108.101 112.112 109.231 112.112C109.311 112.673 109.469 113.457 109.707 114.466C109.945 115.456 110.074 115.998 110.094 116.091C109.995 116.185 109.786 116.232 109.469 116.232C109.251 116.232 109.112 116.166 109.053 116.035C108.398 114.372 107.128 113.542 105.244 113.542H103.697C102.229 113.542 101.476 113.663 101.435 113.906C101.317 114.429 101.257 115.185 101.257 116.175V120.575C101.257 120.687 101.693 120.743 102.566 120.743H104.114C104.134 120.743 104.173 120.743 104.232 120.743C105.383 120.743 106.068 120.697 106.285 120.603C106.504 120.51 106.672 120.183 106.791 119.623C106.851 119.342 106.91 119.109 106.97 118.922C106.99 118.791 107.148 118.726 107.446 118.726C107.724 118.726 107.912 118.772 108.011 118.866V124.162C107.932 124.237 107.743 124.274 107.446 124.274C107.188 124.274 107.03 124.199 106.97 124.05C106.831 123.546 106.702 123.172 106.583 122.929C106.484 122.686 106.415 122.556 106.374 122.537C106.355 122.518 106.276 122.462 106.137 122.369C105.879 122.219 104.966 122.145 103.399 122.145C101.971 122.145 101.257 122.219 101.257 122.369V126.712C101.257 127.74 101.347 128.496 101.525 128.982C101.624 129.225 102.298 129.346 103.548 129.346H104.649C106.196 129.346 107.377 129.15 108.19 128.758C108.507 128.608 108.864 128.282 109.261 127.777C109.658 127.273 109.965 126.703 110.183 126.068C110.203 125.956 110.342 125.899 110.6 125.899C111.036 125.899 111.314 125.956 111.433 126.068C111.373 126.236 111.225 126.619 110.986 127.217C110.768 127.815 110.6 128.272 110.48 128.59C110.362 128.889 110.233 129.263 110.094 129.711C109.955 130.159 109.866 130.524 109.826 130.804C109.032 130.804 107.387 130.776 104.887 130.719C102.408 130.664 100.662 130.654 99.6507 130.691L95.6934 130.804C95.634 130.748 95.6041 130.598 95.6041 130.355C95.6041 130.038 95.634 129.879 95.6934 129.879C95.9511 129.879 96.328 129.822 96.8237 129.711C97.3199 129.58 97.6076 129.431 97.6867 129.263C97.8257 128.87 97.8946 128.02 97.8946 126.712V116.119C97.8946 114.998 97.8257 114.232 97.6867 113.822C97.6274 113.616 97.3493 113.448 96.8536 113.317C96.358 113.187 95.9613 113.121 95.6634 113.121C95.5843 113.121 95.5447 112.981 95.5447 112.7C95.5447 112.439 95.5843 112.271 95.6634 112.196C96.9723 112.271 98.2914 112.308 99.6207 112.308ZM120.378 112.281C120.953 112.281 121.618 112.271 122.372 112.252C123.126 112.215 123.8 112.196 124.395 112.196C124.99 112.196 125.575 112.252 126.15 112.365C126.745 112.458 127.33 112.635 127.906 112.897C128.501 113.158 129.016 113.485 129.453 113.877C129.909 114.251 130.276 114.737 130.553 115.335C130.851 115.933 131 116.596 131 117.325C131 118.202 130.752 119.062 130.256 119.903C129.78 120.743 129.046 121.463 128.054 122.061C127.082 122.64 125.981 122.929 124.751 122.929C124.335 122.929 123.919 122.864 123.502 122.733C123.085 122.583 122.798 122.406 122.639 122.201C122.6 122.163 122.56 122.07 122.52 121.921C122.5 121.771 122.5 121.631 122.52 121.5C122.54 121.369 122.57 121.304 122.609 121.304C123.066 121.49 123.621 121.584 124.276 121.584C125.228 121.584 125.981 121.219 126.537 120.491C127.092 119.744 127.37 118.81 127.37 117.689C127.37 116.437 127.102 115.447 126.567 114.718C126.031 113.99 125.208 113.626 124.097 113.626C123.264 113.626 122.689 113.691 122.372 113.822C122.134 113.934 122.014 114.905 122.014 116.736V126.741C122.014 127.861 122.094 128.655 122.252 129.122C122.312 129.346 122.639 129.534 123.235 129.683C123.849 129.813 124.295 129.879 124.573 129.879C124.653 129.879 124.692 130.038 124.692 130.355C124.692 130.561 124.672 130.719 124.633 130.832C122.451 130.719 121.043 130.664 120.408 130.664C119.872 130.664 119.267 130.682 118.593 130.719C117.938 130.738 117.413 130.757 117.016 130.776L116.421 130.832C116.362 130.757 116.332 130.588 116.332 130.327C116.332 130.029 116.362 129.879 116.421 129.879C116.679 129.879 117.056 129.822 117.551 129.711C118.067 129.58 118.364 129.431 118.444 129.263C118.563 128.926 118.622 128.076 118.622 126.712V116.119C118.622 115.054 118.563 114.289 118.444 113.822C118.384 113.672 118.087 113.523 117.551 113.373C117.036 113.205 116.659 113.121 116.421 113.121C116.341 113.121 116.302 112.981 116.302 112.7C116.302 112.421 116.341 112.252 116.421 112.196C118.504 112.252 119.823 112.281 120.378 112.281Z" fill="black"/>
<path d="M17.5098 157.369C17.5098 157.624 17.3609 158.386 17.0631 159.657C16.7653 160.908 16.537 161.573 16.3782 161.651C14.6509 162.472 12.348 162.882 9.46946 162.882C6.84914 162.882 4.61561 161.934 2.76937 160.038C0.923121 158.142 0 155.884 0 153.264C0 150.488 0.942918 148.113 2.82898 146.138C4.71482 144.144 7.03772 143.146 9.79709 143.146C12.0404 143.146 14.3829 143.411 16.8249 143.939C16.8844 143.958 16.9439 144.603 17.0034 145.874C17.0631 147.125 17.0929 147.907 17.0929 148.22C17.0929 148.513 16.8546 148.659 16.3782 148.659C16.2589 148.659 16.1201 148.621 15.9613 148.543C15.882 148.19 15.7329 147.829 15.5144 147.457C15.316 147.086 15.0084 146.666 14.5914 146.196C14.1745 145.727 13.5592 145.346 12.7451 145.053C11.9312 144.74 10.9883 144.584 9.91634 144.584C7.97069 144.584 6.45205 145.375 5.36011 146.959C4.28818 148.543 3.7521 150.439 3.7521 152.648C3.7521 155.111 4.35758 157.203 5.56854 158.924C6.79954 160.625 8.52654 161.475 10.75 161.475C12.5169 161.475 13.9164 160.928 14.9488 159.833C15.2068 159.559 15.435 159.198 15.6337 158.748C15.8521 158.279 16.0109 157.887 16.1101 157.575C16.2291 157.262 16.3085 157.106 16.3484 157.106C17.0433 157.106 17.4303 157.193 17.5098 157.369ZM23.1081 143.44C23.9816 143.44 25.5202 143.411 27.7237 143.352C29.9274 143.274 31.595 143.235 32.7266 143.235C32.806 143.821 32.9648 144.642 33.203 145.698C33.4413 146.734 33.5703 147.302 33.5901 147.399C33.4909 147.496 33.2824 147.545 32.9648 147.545C32.7464 147.545 32.6073 147.477 32.5477 147.341C31.8926 145.6 30.6221 144.73 28.7363 144.73H27.1876C25.7187 144.73 24.9643 144.857 24.9245 145.112C24.8055 145.659 24.7459 146.451 24.7459 147.487V152.091C24.7459 152.208 25.1825 152.267 26.056 152.267H27.6047C27.6245 152.267 27.6641 152.267 27.7237 152.267C28.8753 152.267 29.5602 152.218 29.7784 152.12C29.9968 152.022 30.1656 151.68 30.2846 151.094C30.3443 150.801 30.4039 150.556 30.4633 150.361C30.4833 150.224 30.6421 150.156 30.9397 150.156C31.2178 150.156 31.4064 150.204 31.5056 150.302V155.845C31.4262 155.923 31.2376 155.962 30.9397 155.962C30.6817 155.962 30.5229 155.884 30.4633 155.727C30.3245 155.2 30.1954 154.809 30.0762 154.554C29.977 154.3 29.9074 154.163 29.8678 154.144C29.848 154.124 29.7685 154.066 29.6296 153.968C29.3715 153.812 28.4582 153.733 26.89 153.733C25.4606 153.733 24.7459 153.812 24.7459 153.968V158.513C24.7459 159.589 24.8353 160.38 25.0139 160.889C25.1131 161.143 25.788 161.27 27.0388 161.27H28.1406C29.6892 161.27 30.8703 161.064 31.6842 160.654C32.0019 160.498 32.3593 160.155 32.7564 159.628C33.1532 159.1 33.4611 158.504 33.6795 157.838C33.6993 157.721 33.8383 157.663 34.0963 157.663C34.533 157.663 34.811 157.721 34.93 157.838C34.8704 158.015 34.7217 158.416 34.4834 159.041C34.2649 159.667 34.0963 160.146 33.9771 160.478C33.8581 160.791 33.7291 161.182 33.5901 161.651C33.451 162.12 33.3619 162.501 33.322 162.795C32.5279 162.795 30.8803 162.765 28.3787 162.707C25.8972 162.648 24.1502 162.639 23.1379 162.677L19.1774 162.795C19.1178 162.736 19.0879 162.58 19.0879 162.325C19.0879 161.993 19.1178 161.827 19.1774 161.827C19.4354 161.827 19.8127 161.768 20.3089 161.651C20.8052 161.514 21.093 161.358 21.1724 161.182C21.3114 160.771 21.3808 159.882 21.3808 158.513V147.429C21.3808 146.255 21.3114 145.454 21.1724 145.024C21.1128 144.808 20.835 144.633 20.3387 144.496C19.8425 144.359 19.4454 144.29 19.1476 144.29C19.0682 144.29 19.0283 144.144 19.0283 143.851C19.0283 143.577 19.0682 143.401 19.1476 143.323C20.4577 143.401 21.7779 143.44 23.1081 143.44ZM52.678 147.369C52.678 146.333 52.5788 145.551 52.3802 145.024C52.281 144.789 51.9435 144.603 51.3679 144.466C50.8119 144.33 50.3751 144.261 50.0575 144.261C49.9781 144.261 49.9285 144.124 49.9087 143.851C49.9087 143.558 49.9385 143.372 49.9981 143.294C52.1221 143.43 53.3729 143.499 53.7499 143.499C54.2662 143.499 54.9313 143.469 55.7452 143.411C56.5591 143.333 57.0654 143.294 57.2638 143.294C57.3036 143.372 57.3235 143.528 57.3235 143.763C57.3235 144.095 57.2839 144.261 57.2045 144.261C56.9264 144.261 56.4995 144.339 55.9238 144.496C55.3482 144.633 54.9709 144.828 54.7923 145.082C54.5739 145.61 54.4646 146.421 54.4646 147.516V158.631C54.4646 159.335 54.5045 160.703 54.5839 162.736C54.5045 162.815 54.286 162.854 53.9288 162.854C53.6111 162.854 53.2935 162.628 52.9759 162.179L41.1241 146.695V158.572C41.1241 159.745 41.2035 160.546 41.3623 160.977C41.4615 161.211 41.8288 161.416 42.4641 161.592C43.0993 161.749 43.546 161.827 43.804 161.827C43.8636 161.827 43.8935 161.964 43.8935 162.237C43.9132 162.511 43.9032 162.697 43.8636 162.795C41.4813 162.677 40.2406 162.619 40.1414 162.619C39.6052 162.619 38.9402 162.648 38.146 162.707C37.372 162.746 36.8557 162.776 36.5977 162.795C36.5182 162.716 36.4787 162.55 36.4787 162.296C36.4787 161.983 36.5182 161.827 36.5977 161.827C36.9351 161.827 37.3817 161.759 37.9377 161.622C38.5133 161.465 38.8808 161.241 39.0396 160.947C39.238 160.537 39.3372 159.716 39.3372 158.484V146.988C39.3372 145.933 39.228 145.219 39.0098 144.848C38.9304 144.711 38.583 144.584 37.9675 144.466C37.372 144.349 36.9351 144.29 36.6573 144.29C36.5779 144.29 36.5283 144.144 36.5082 143.851C36.5082 143.558 36.5481 143.372 36.6275 143.294C38.712 143.391 39.8931 143.44 40.1712 143.44C40.8262 143.44 41.7196 143.391 42.8511 143.294C43.2284 143.997 43.9132 145.043 44.9058 146.431C45.9183 147.799 47.2981 149.618 49.0452 151.885C50.792 154.134 51.9831 155.688 52.6184 156.548C52.6582 156.314 52.678 155.913 52.678 155.346V147.369ZM64.6491 143.411C65.9993 143.45 67.1005 143.469 67.9547 143.469C68.8082 143.469 69.9095 143.45 71.2597 143.411C72.6099 143.352 73.6914 143.313 74.5053 143.294C75.002 143.294 75.687 143.196 76.5604 143L77.126 147.487C76.9868 147.623 76.7193 147.692 76.3222 147.692C76.1633 147.692 76.0637 147.643 76.0241 147.545C75.7464 146.47 75.3793 145.747 74.9229 145.375C74.4658 144.985 73.7514 144.789 72.7785 144.789C70.9322 144.789 69.9695 144.955 69.8897 145.287C69.7116 145.854 69.6216 146.773 69.6216 148.044V158.631C69.6216 159.686 69.7116 160.537 69.8897 161.182C69.9095 161.319 70.1776 161.465 70.6941 161.622C71.2099 161.759 71.5578 161.827 71.736 161.827C71.8158 161.827 71.8553 162.003 71.8553 162.355C71.8553 162.55 71.8356 162.707 71.796 162.824C71.5374 162.804 71.1505 162.776 70.6347 162.736C70.138 162.697 69.6714 162.668 69.2347 162.648C68.8178 162.628 68.4112 162.619 68.0141 162.619C67.4778 162.619 66.7334 162.648 65.7803 162.707C64.8476 162.765 64.2718 162.804 64.0534 162.824C63.9736 162.746 63.934 162.589 63.934 162.355C63.934 162.003 63.9736 161.827 64.0534 161.827C64.2916 161.827 64.6586 161.759 65.1553 161.622C65.6711 161.485 65.9591 161.338 66.0191 161.182C66.1774 160.654 66.2572 159.843 66.2572 158.748V148.132C66.2572 146.509 66.1678 145.561 65.9891 145.287C65.8301 144.955 64.8872 144.789 63.16 144.789C62.1873 144.789 61.4726 144.985 61.0159 145.375C60.5595 145.747 60.1822 146.46 59.8844 147.516C59.8646 147.633 59.7653 147.692 59.5865 147.692C59.2095 147.692 58.9513 147.614 58.8125 147.457L59.3781 143C60.2516 143.196 60.9365 143.294 61.4328 143.294C62.2469 143.313 63.3188 143.352 64.6491 143.411ZM82.6948 143.44C83.5681 143.44 85.1067 143.411 87.3104 143.352C89.5142 143.274 91.1817 143.235 92.3129 143.235C92.3927 143.821 92.5511 144.642 92.7898 145.698C93.028 146.734 93.1569 147.302 93.1767 147.399C93.0771 147.496 92.869 147.545 92.5511 147.545C92.3327 147.545 92.1942 147.477 92.1342 147.341C91.4792 145.6 90.2088 144.73 88.3229 144.73H86.7742C85.3052 144.73 84.5506 144.857 84.511 145.112C84.3923 145.659 84.3323 146.451 84.3323 147.487V152.091C84.3323 152.208 84.7696 152.267 85.6429 152.267H87.191C87.2108 152.267 87.251 152.267 87.3104 152.267C88.4615 152.267 89.1465 152.218 89.3648 152.12C89.5831 152.022 89.7523 151.68 89.871 151.094C89.9311 150.801 89.9904 150.556 90.0498 150.361C90.0696 150.224 90.2286 150.156 90.5267 150.156C90.8044 150.156 90.9927 150.204 91.0923 150.302V155.845C91.0125 155.923 90.8242 155.962 90.5267 155.962C90.2681 155.962 90.1092 155.884 90.0498 155.727C89.9113 155.2 89.7817 154.809 89.6629 154.554C89.5633 154.3 89.4944 154.163 89.4542 154.144C89.4344 154.124 89.3552 154.066 89.216 153.968C88.9581 153.812 88.0452 153.733 86.4767 153.733C85.0473 153.733 84.3323 153.812 84.3323 153.968V158.513C84.3323 159.589 84.4217 160.38 84.6004 160.889C84.6994 161.143 85.3748 161.27 86.6254 161.27H87.7273C89.2754 161.27 90.4571 161.064 91.2704 160.654C91.5884 160.498 91.9459 160.155 92.3429 159.628C92.74 159.1 93.0477 158.504 93.2661 157.838C93.2859 157.721 93.425 157.663 93.683 157.663C94.1196 157.663 94.3973 157.721 94.5167 157.838C94.4573 158.015 94.3079 158.416 94.0698 159.041C93.8515 159.667 93.6829 160.146 93.5636 160.478C93.4448 160.791 93.3159 161.182 93.1767 161.651C93.0375 162.12 92.9481 162.501 92.9086 162.795C92.1144 162.795 90.4667 162.765 87.9654 162.707C85.4839 162.648 83.7366 162.639 82.7241 162.677L78.7641 162.795C78.7041 162.736 78.6748 162.58 78.6748 162.325C78.6748 161.993 78.7041 161.827 78.7641 161.827C79.022 161.827 79.3993 161.768 79.8954 161.651C80.3914 161.514 80.68 161.358 80.7591 161.182C80.8977 160.771 80.9679 159.882 80.9679 158.513V147.429C80.9679 146.255 80.8977 145.454 80.7591 145.024C80.6998 144.808 80.4214 144.633 79.9254 144.496C79.4287 144.359 79.0316 144.29 78.7341 144.29C78.655 144.29 78.6154 144.144 78.6154 143.851C78.6154 143.577 78.655 143.401 78.7341 143.323C80.0448 143.401 81.3643 143.44 82.6948 143.44ZM103.837 144.818C103.004 144.818 102.428 144.887 102.11 145.024C101.892 145.121 101.773 146.138 101.753 148.074V151.446C101.753 151.876 101.922 152.159 102.259 152.296C102.597 152.433 103.063 152.501 103.659 152.501H104.433C105.167 152.501 105.822 152.159 106.399 151.475C106.994 150.791 107.292 149.901 107.292 148.807C107.292 146.148 106.14 144.818 103.837 144.818ZM104.314 143.352C104.83 143.352 105.366 143.411 105.922 143.528C106.498 143.626 107.083 143.802 107.679 144.056C108.294 144.31 108.84 144.623 109.317 144.994C109.793 145.366 110.18 145.854 110.478 146.46C110.776 147.066 110.924 147.751 110.924 148.513C110.924 149.569 110.577 150.566 109.882 151.504C109.188 152.443 108.344 153.108 107.351 153.499C107.192 153.557 107.153 153.655 107.232 153.792C108.344 155.766 109.455 157.428 110.567 158.777C111.262 159.618 112.006 160.341 112.801 160.947C113.615 161.534 114.359 161.827 115.034 161.827C115.113 161.944 115.153 162.101 115.153 162.296C115.153 162.491 115.113 162.668 115.034 162.824C114.796 162.863 114.488 162.882 114.111 162.882C113.099 162.882 112.176 162.765 111.341 162.531C110.527 162.296 109.813 161.954 109.197 161.504C108.602 161.035 108.106 160.586 107.709 160.155C107.312 159.725 106.895 159.178 106.458 158.513C106.18 158.122 105.862 157.663 105.505 157.135C105.147 156.607 104.87 156.206 104.671 155.933C104.492 155.639 104.284 155.336 104.046 155.024C103.807 154.711 103.599 154.476 103.42 154.32C103.262 154.163 103.103 154.056 102.944 153.997C102.825 153.939 102.587 153.909 102.229 153.909C101.912 153.909 101.753 154.075 101.753 154.408V158.543C101.753 159.716 101.832 160.546 101.991 161.035C102.05 161.27 102.378 161.465 102.974 161.622C103.589 161.759 104.036 161.827 104.314 161.827C104.393 161.827 104.433 161.993 104.433 162.325C104.433 162.541 104.413 162.707 104.373 162.824C102.19 162.707 100.78 162.648 100.145 162.648C99.6086 162.648 99.0034 162.668 98.328 162.707C97.673 162.727 97.1469 162.746 96.7498 162.765L96.1548 162.824C96.0948 162.746 96.0655 162.57 96.0655 162.296C96.0655 161.983 96.0948 161.827 96.1548 161.827C96.4128 161.827 96.7894 161.768 97.2861 161.651C97.8019 161.514 98.1001 161.358 98.1792 161.182C98.2986 160.83 98.358 159.941 98.358 158.513V147.429C98.358 146.314 98.2986 145.512 98.1792 145.024C98.1198 144.867 97.8217 144.711 97.2861 144.554C96.7696 144.378 96.393 144.29 96.1548 144.29C96.075 144.29 96.0355 144.144 96.0355 143.851C96.0355 143.558 96.075 143.381 96.1548 143.323C98.259 143.381 99.5792 143.411 100.115 143.411C100.671 143.411 101.356 143.401 102.17 143.381C103.004 143.362 103.718 143.352 104.314 143.352ZM116.791 148.338C116.791 146.871 117.416 145.639 118.667 144.642C119.918 143.626 121.327 143.118 122.896 143.118C123.452 143.118 123.937 143.146 124.355 143.206C124.772 143.264 125.347 143.391 126.082 143.587C126.836 143.763 127.352 143.88 127.63 143.939C127.868 145.268 127.987 146.773 127.987 148.455C127.948 148.631 127.829 148.719 127.63 148.719C127.094 148.719 126.806 148.631 126.767 148.455C126.647 147.556 126.221 146.675 125.486 145.815C124.752 144.955 123.858 144.525 122.806 144.525C121.893 144.525 121.188 144.779 120.692 145.287C120.216 145.796 119.977 146.48 119.977 147.341C119.977 147.633 120.007 147.917 120.067 148.19C120.146 148.445 120.285 148.699 120.484 148.953C120.702 149.207 120.871 149.422 120.99 149.598C121.129 149.755 121.377 149.96 121.734 150.214C122.111 150.468 122.359 150.644 122.479 150.742C122.617 150.84 122.915 151.035 123.372 151.328C123.849 151.602 124.137 151.758 124.236 151.798C124.355 151.895 124.682 152.11 125.218 152.443C125.774 152.755 126.161 152.991 126.379 153.146C126.598 153.284 126.916 153.528 127.332 153.88C127.749 154.232 128.048 154.564 128.226 154.877C128.424 155.19 128.603 155.59 128.762 156.079C128.921 156.548 129 157.057 129 157.604C129 159.168 128.355 160.459 127.064 161.475C125.794 162.491 124.315 163 122.627 163C121.436 163 119.61 162.727 117.148 162.179C116.969 161.475 116.801 160.595 116.642 159.54C116.503 158.465 116.434 157.76 116.434 157.428C116.453 157.272 116.612 157.193 116.91 157.193C117.426 157.193 117.714 157.272 117.774 157.428C117.853 157.78 117.992 158.171 118.191 158.601C118.389 159.012 118.657 159.462 118.995 159.95C119.352 160.419 119.818 160.81 120.394 161.123C120.99 161.416 121.655 161.563 122.389 161.563C123.323 161.563 124.096 161.289 124.712 160.742C125.327 160.195 125.635 159.374 125.635 158.279C125.635 157.947 125.566 157.624 125.427 157.311C125.307 156.998 125.159 156.734 124.98 156.519C124.821 156.304 124.573 156.069 124.236 155.815C123.918 155.561 123.65 155.366 123.432 155.229C123.214 155.092 122.885 154.906 122.449 154.672C122.032 154.418 121.734 154.242 121.556 154.144C121.496 154.085 121.387 154.007 121.228 153.909C120.652 153.557 120.216 153.284 119.918 153.088C119.62 152.892 119.233 152.609 118.756 152.237C118.3 151.846 117.952 151.485 117.714 151.153C117.476 150.82 117.257 150.41 117.059 149.921C116.881 149.432 116.791 148.904 116.791 148.338Z" fill="black"/>
<path d="M48.5033 60.7211C48.1035 60.7211 47.677 60.7343 47.224 60.7613C46.7709 60.7744 46.4175 60.7945 46.1643 60.8211L45.7645 60.8411C45.7247 60.801 45.7047 60.6945 45.7047 60.5212C45.7047 60.2947 45.7247 60.1813 45.7645 60.1813C45.9378 60.1813 46.1909 60.1415 46.5243 60.0612C46.8574 59.9682 47.0507 59.8613 47.104 59.7417C47.1974 59.4615 47.244 58.8553 47.244 57.9225V50.3658C47.244 49.5662 47.1974 49.0197 47.104 48.7268C47.0638 48.5802 46.8774 48.4601 46.5444 48.3668C46.211 48.2734 45.9443 48.2267 45.7444 48.2267C45.6912 48.2267 45.6646 48.1267 45.6646 47.9268C45.6646 47.7404 45.6912 47.6204 45.7444 47.5672C46.6108 47.6204 47.4906 47.6471 48.3833 47.6471C49.0099 47.6606 50.0627 47.6405 51.5419 47.5872C53.0346 47.534 54.134 47.5073 54.8406 47.5073C54.8938 47.9071 55.0004 48.4667 55.1601 49.1864C55.3203 49.8926 55.4067 50.2793 55.4202 50.3457C55.3535 50.4125 55.2138 50.446 55.0004 50.446C54.8537 50.446 54.7603 50.3993 54.7206 50.3059C54.2806 49.1197 53.4278 48.5265 52.1616 48.5265H51.122C50.136 48.5265 49.6293 48.6134 49.6027 48.7866C49.5363 49.1065 49.5028 49.646 49.5028 50.4059V53.5445C49.5028 53.6243 49.796 53.6645 50.3826 53.6645H51.4022C51.4153 53.6645 51.4419 53.6645 51.4821 53.6645C52.255 53.6645 52.7146 53.6309 52.8613 53.5645C53.0079 53.4978 53.1214 53.2647 53.2013 52.8649C53.241 52.665 53.2812 52.4983 53.3213 52.3651C53.3344 52.2717 53.4409 52.225 53.6408 52.225C53.8276 52.225 53.9542 52.2582 54.0209 52.325V56.1034C53.9673 56.1566 53.8407 56.1833 53.6408 56.1833C53.4676 56.1833 53.361 56.13 53.3213 56.0231C53.2279 55.6635 53.1411 55.3968 53.0612 55.2235C52.9944 55.0503 52.9481 54.9572 52.9215 54.9437C52.908 54.9306 52.8547 54.8905 52.7613 54.8237C52.5881 54.7172 51.9752 54.664 50.9221 54.664C49.9759 54.664 49.5028 54.7172 49.5028 54.8237V57.9623C49.5028 58.682 49.5761 59.235 49.7227 59.6217C49.776 59.7548 50.016 59.8814 50.4424 60.0014C50.8689 60.1214 51.1556 60.1813 51.3022 60.1813C51.3686 60.1813 51.4022 60.2947 51.4022 60.5212C51.4022 60.681 51.3821 60.7879 51.342 60.8411C49.7428 60.7613 48.7965 60.7211 48.5033 60.7211ZM64.656 57.2627C64.656 56.4098 64.416 55.7101 63.936 55.1637C63.47 54.6038 62.71 54.324 61.6572 54.324C61.2709 54.324 60.8576 54.3575 60.4177 54.4239C60.3112 54.4907 60.2579 54.6238 60.2579 54.8237V58.5419C60.2579 59.1019 60.3378 59.4484 60.498 59.5816C60.6712 59.7151 61.0977 59.7815 61.7772 59.7815C62.071 59.7815 62.357 59.7548 62.637 59.7016C62.917 59.6348 63.217 59.5283 63.537 59.3817C63.87 59.2219 64.136 58.9618 64.336 58.6021C64.549 58.229 64.656 57.7825 64.656 57.2627ZM57.9989 57.9225V50.3658C57.9989 49.5662 57.9522 49.0197 57.8591 48.7268C57.819 48.5802 57.6326 48.4601 57.2992 48.3668C56.9662 48.2734 56.6995 48.2267 56.4996 48.2267C56.4463 48.2267 56.4197 48.1267 56.4197 47.9268C56.4197 47.7404 56.4463 47.6204 56.4996 47.5672C57.3791 47.6073 58.2655 47.627 59.1585 47.627C59.8381 47.627 60.4111 47.627 60.8777 47.627C61.3442 47.6139 61.744 47.6073 62.077 47.6073C62.557 47.6073 63.037 47.6671 63.517 47.7871C63.996 47.9071 64.463 48.0935 64.916 48.3467C65.369 48.5867 65.735 48.9398 66.015 49.4064C66.309 49.8729 66.455 50.4125 66.455 51.0256C66.455 51.5053 66.315 51.9518 66.035 52.3651C65.756 52.778 65.489 53.0713 65.236 53.2446C64.996 53.4044 64.789 53.5178 64.616 53.5842C64.509 53.6243 64.483 53.6645 64.536 53.7042C65.029 53.7845 65.575 54.1376 66.175 54.7639C66.788 55.3767 67.095 56.1366 67.095 57.0427C67.095 58.1888 66.628 59.1019 65.695 59.7815C64.776 60.4614 63.55 60.7945 62.017 60.781L59.1785 60.7613L56.5197 60.8411C56.4795 60.801 56.4598 60.6945 56.4598 60.5212C56.4598 60.2947 56.4795 60.1813 56.5197 60.1813C56.6929 60.1813 56.9461 60.1415 57.2791 60.0612C57.6125 59.9682 57.8059 59.8613 57.8591 59.7417C57.9522 59.4615 57.9989 58.8553 57.9989 57.9225ZM62.577 53.2245C63.55 53.0111 64.036 52.3582 64.036 51.2653C64.036 49.4662 63.27 48.5667 61.7371 48.5667C61.1108 48.5667 60.6844 48.5999 60.4578 48.6666C60.3513 48.6932 60.2981 48.7666 60.2981 48.8866L60.2579 50.8057V53.1447C60.2579 53.2778 60.6577 53.3446 61.4573 53.3446C61.9505 53.3446 62.324 53.3044 62.577 53.2245ZM75.451 47.5872L79.649 58.0623C79.849 58.5956 80.049 59.0818 80.249 59.5217C80.329 59.7216 80.542 59.8814 80.888 60.0014C81.235 60.1214 81.488 60.1813 81.648 60.1813C81.702 60.1813 81.728 60.3013 81.728 60.5413C81.728 60.7011 81.715 60.801 81.688 60.8411C80.089 60.7613 79.249 60.7211 79.169 60.7211C79.076 60.7211 78.21 60.7613 76.571 60.8411C76.517 60.7879 76.491 60.6679 76.491 60.4811C76.491 60.2812 76.517 60.1813 76.571 60.1813C76.73 60.1813 76.95 60.1415 77.23 60.0612C77.51 59.9814 77.677 59.8883 77.73 59.7815C77.77 59.7016 77.79 59.6151 77.79 59.5217C77.79 59.2551 77.663 58.7955 77.41 58.1421L76.71 56.2832C76.657 56.23 76.61 56.2033 76.571 56.2033C76.144 56.1767 75.571 56.1632 74.851 56.1632C74.132 56.1632 73.372 56.1833 72.572 56.223C72.492 56.223 72.452 56.2497 72.452 56.3033L71.693 58.1622C71.44 58.8553 71.313 59.2883 71.313 59.4616C71.313 59.6348 71.386 59.7683 71.533 59.8613C71.653 59.9416 71.859 60.0149 72.152 60.0813C72.459 60.1481 72.666 60.1813 72.772 60.1813C72.812 60.1948 72.832 60.2881 72.832 60.4614C72.832 60.6343 72.819 60.7613 72.792 60.8411C72.725 60.8411 72.412 60.8211 71.852 60.781C71.293 60.7412 70.84 60.7211 70.493 60.7211C70.147 60.7211 69.733 60.7412 69.254 60.781C68.787 60.8076 68.454 60.8277 68.254 60.8411C68.201 60.7879 68.174 60.6879 68.174 60.5413C68.174 60.3013 68.188 60.1813 68.214 60.1813C68.374 60.1813 68.627 60.128 68.974 60.0215C69.334 59.9015 69.56 59.7683 69.654 59.6217C69.907 59.2219 70.16 58.7021 70.413 58.0623L74.132 49.0664C74.438 48.2668 74.685 47.7871 74.871 47.627C74.978 47.534 75.091 47.4873 75.211 47.4873C75.304 47.4873 75.384 47.5205 75.451 47.5872ZM73.052 55.0236C73.518 55.0638 73.998 55.0838 74.491 55.0838C74.958 55.0838 75.504 55.0638 76.131 55.0236L76.171 54.9437L74.651 50.9458L73.012 54.9437C73.012 54.997 73.025 55.0236 73.052 55.0236Z" fill="black"/>
<path d="M24.3455 53.5572L62.557 91.769L100.769 53.5572L62.557 15.3455L24.3455 53.5572Z" stroke="black" stroke-width="1.87059"/>
<path d="M60.1446 12.5451L47.5997 0.000244141L9 38.5999L21.5449 51.1448L60.1446 12.5451Z" fill="black"/>
<path d="M116.114 68.5146L103.569 55.9697L64.97 94.5694L77.515 107.114L116.114 68.5146Z" fill="black"/>
<path d="M47.6 107.114L60.1449 94.5694L21.5452 55.9697L9.00031 68.5146L47.6 107.114Z" fill="black"/>
<path d="M103.57 51.1446L116.114 38.5997L77.515 0L64.97 12.5449L103.57 51.1446Z" fill="black"/>
<path d="M62.805 11.4156L53.8681 2.66089H71.742L62.805 11.4156Z" fill="#D00000"/>
<path d="M20.3083 53.5477L11.5536 44.6106V62.4848L20.3083 53.5477Z" fill="#D00000"/>
<path d="M104.937 53.5477L113.692 44.6106V62.4848L104.937 53.5477Z" fill="#D00000"/>
</svg>
