<svg width="323" height="116" viewBox="0 0 323 116" fill="none" xmlns="http://www.w3.org/2000/svg">
<g clip-path="url(#clip0_15_137)">
<path d="M121.416 20.4699C121.976 20.4699 123.966 20.3766 127.387 20.1901C127.449 20.4388 127.48 20.6876 127.48 20.9364C127.48 21.465 127.418 21.7294 127.294 21.7294C127.013 21.7294 126.454 21.8537 125.614 22.1025C124.775 22.3202 124.339 22.5534 124.308 22.8022C124.06 23.7351 123.935 25.1033 123.935 26.907V37.6354C123.935 40.8382 124.619 43.4037 125.987 45.3319C127.387 47.2288 129.315 48.1772 131.771 48.1772C134.166 48.1772 136.078 47.3999 137.509 45.8448C138.97 44.2591 139.701 41.6469 139.701 38.0086V26.6271C139.701 24.7302 139.546 23.4863 139.235 22.8955C139.048 22.6156 138.488 22.3513 137.556 22.1025C136.654 21.8226 136.001 21.6827 135.596 21.6827C135.472 21.6827 135.394 21.465 135.363 21.0297C135.363 20.5943 135.41 20.3144 135.503 20.1901C138.862 20.4077 140.821 20.5166 141.38 20.5166C142.158 20.5166 143.184 20.4699 144.459 20.3766C145.765 20.2522 146.574 20.1901 146.885 20.1901C146.947 20.4077 146.978 20.6565 146.978 20.9364C146.978 21.4339 146.916 21.6827 146.791 21.6827C146.356 21.6827 145.687 21.8071 144.786 22.0559C143.884 22.2735 143.293 22.5845 143.013 22.9888C142.671 23.7662 142.5 25.0567 142.5 26.8603V37.8218C142.5 40.2476 142.204 42.3466 141.613 44.119C141.023 45.8605 140.183 47.2441 139.095 48.2706C138.007 49.2657 136.763 49.9964 135.363 50.4629C133.995 50.9291 132.425 51.1626 130.652 51.1626C126.92 51.1626 123.982 50.043 121.836 47.804C119.691 45.534 118.617 41.8957 118.617 36.8891V26.7204C118.617 24.7302 118.493 23.4241 118.244 22.8022C118.12 22.5534 117.685 22.3202 116.938 22.1025C116.192 21.8537 115.632 21.7294 115.259 21.7294C115.135 21.7294 115.072 21.4961 115.072 21.0297C115.072 20.5632 115.119 20.2833 115.212 20.1901C119.162 20.3766 121.23 20.4699 121.416 20.4699ZM155.17 28.213C155.17 25.8808 156.15 23.9217 158.109 22.3357C160.068 20.7187 162.276 19.9102 164.733 19.9102C165.604 19.9102 166.366 19.9568 167.019 20.0501C167.671 20.1434 168.573 20.3455 169.724 20.6565C170.906 20.9364 171.714 21.1229 172.15 21.2163C172.523 23.3308 172.709 25.7253 172.709 28.3996C172.647 28.6795 172.46 28.8194 172.15 28.8194C171.31 28.8194 170.859 28.6795 170.797 28.3996C170.61 26.9692 169.942 25.5698 168.791 24.2015C167.64 22.8333 166.241 22.1491 164.593 22.1491C163.162 22.1491 162.059 22.5534 161.281 23.3619C160.535 24.1704 160.162 25.2588 160.162 26.6271C160.162 27.0935 160.208 27.5445 160.301 27.9798C160.426 28.3841 160.644 28.7883 160.954 29.1926C161.297 29.5968 161.561 29.9389 161.747 30.2188C161.965 30.4675 162.354 30.7941 162.914 31.1983C163.505 31.6026 163.893 31.8825 164.08 32.0379C164.298 32.1934 164.764 32.5044 165.479 32.9708C166.226 33.4062 166.676 33.655 166.832 33.7171C167.019 33.8727 167.531 34.2147 168.371 34.7433C169.242 35.2409 169.848 35.6141 170.19 35.8628C170.532 36.0805 171.03 36.4692 171.683 37.0288C172.336 37.5887 172.802 38.1173 173.082 38.6149C173.393 39.1124 173.673 39.7501 173.922 40.5274C174.171 41.2737 174.295 42.0821 174.295 42.9528C174.295 45.4406 173.284 47.4929 171.263 49.1099C169.273 50.727 166.956 51.5357 164.313 51.5357C162.447 51.5357 159.587 51.1002 155.73 50.2295C155.451 49.1099 155.186 47.7106 154.937 46.0316C154.72 44.3211 154.611 43.2016 154.611 42.673C154.642 42.4243 154.891 42.2999 155.357 42.2999C156.166 42.2999 156.616 42.4243 156.71 42.673C156.834 43.2326 157.052 43.8546 157.363 44.5389C157.674 45.1918 158.094 45.9072 158.622 46.6845C159.182 47.4309 159.913 48.0528 160.815 48.5504C161.747 49.0169 162.789 49.25 163.94 49.25C165.401 49.25 166.614 48.8148 167.578 47.9441C168.542 47.0734 169.024 45.7671 169.024 44.0256C169.024 43.4971 168.915 42.9838 168.698 42.4866C168.511 41.9891 168.278 41.5692 167.998 41.2271C167.749 40.8849 167.361 40.5117 166.832 40.1075C166.334 39.7034 165.915 39.3922 165.573 39.1748C165.23 38.957 164.717 38.6616 164.033 38.2884C163.38 37.8842 162.914 37.6044 162.634 37.4487C162.541 37.3556 162.369 37.2313 162.121 37.0755C161.219 36.5159 160.535 36.0805 160.068 35.7695C159.602 35.4586 158.996 35.0077 158.249 34.4168C157.534 33.7949 156.99 33.2196 156.616 32.6909C156.243 32.1623 155.902 31.5093 155.59 30.7319C155.311 29.9544 155.17 29.1148 155.17 28.213ZM203.368 20.3766C204.27 20.3766 205.312 20.3611 206.494 20.33C207.675 20.2678 208.732 20.2367 209.665 20.2367C210.598 20.2367 211.515 20.33 212.417 20.5166C213.35 20.672 214.268 20.9675 215.17 21.4028C216.102 21.8382 216.911 22.3824 217.595 23.0354C218.31 23.6573 218.886 24.4659 219.321 25.4609C219.787 26.4561 220.02 27.56 220.02 28.7728C220.02 30.2343 219.632 31.6647 218.855 33.0641C218.108 34.4635 216.958 35.6607 215.403 36.6556C213.879 37.6197 212.153 38.102 210.225 38.102C209.572 38.102 208.919 37.9929 208.266 37.7751C207.613 37.5264 207.162 37.2313 206.913 36.8891C206.851 36.8267 206.789 36.6713 206.727 36.4226C206.696 36.1738 206.696 35.9406 206.727 35.7229C206.758 35.5052 206.804 35.3964 206.867 35.3964C207.582 35.7073 208.452 35.8628 209.479 35.8628C210.971 35.8628 212.153 35.2564 213.024 34.0437C213.895 32.7998 214.33 31.245 214.33 29.3791C214.33 27.2957 213.91 25.6475 213.071 24.4347C212.231 23.222 210.94 22.6156 209.199 22.6156C207.893 22.6156 206.991 22.7244 206.494 22.9421C206.12 23.1287 205.934 24.7457 205.934 27.7932V44.4455C205.934 46.3114 206.058 47.6329 206.307 48.4103C206.4 48.7835 206.913 49.0946 207.846 49.3434C208.81 49.5608 209.51 49.6699 209.945 49.6699C210.07 49.6699 210.132 49.934 210.132 50.4629C210.132 50.8047 210.101 51.0692 210.038 51.2556C206.618 51.0692 204.41 50.9758 203.415 50.9758C202.575 50.9758 201.627 51.0072 200.57 51.0692C199.543 51.1002 198.719 51.1312 198.097 51.1626L197.164 51.2556C197.071 51.1312 197.024 50.8514 197.024 50.4162C197.024 49.9187 197.071 49.6699 197.164 49.6699C197.569 49.6699 198.159 49.5765 198.937 49.3901C199.746 49.1723 200.212 48.9235 200.336 48.6438C200.523 48.0838 200.616 46.6688 200.616 44.3988V26.767C200.616 24.9945 200.523 23.7195 200.336 22.9421C200.243 22.6934 199.777 22.4446 198.937 22.1958C198.128 21.9159 197.537 21.776 197.164 21.776C197.04 21.776 196.978 21.5428 196.978 21.0763C196.978 20.6098 197.04 20.33 197.164 20.2367C200.429 20.33 202.497 20.3766 203.368 20.3766ZM239.921 22.6156C238.615 22.6156 237.713 22.7244 237.216 22.9421C236.874 23.0976 236.687 24.7146 236.656 27.7932V33.1574C236.656 33.8415 236.92 34.2924 237.449 34.5101C237.978 34.7278 238.708 34.8367 239.641 34.8367H240.854C242.005 34.8367 243.031 34.2924 243.933 33.204C244.865 32.1157 245.332 30.7008 245.332 28.9594C245.332 24.7302 243.529 22.6156 239.921 22.6156ZM240.668 20.2833C241.476 20.2833 242.316 20.3766 243.186 20.5632C244.088 20.7187 245.006 20.9986 245.938 21.4028C246.902 21.8071 247.757 22.3046 248.504 22.8955C249.25 23.4863 249.857 24.2637 250.323 25.2277C250.79 26.1917 251.023 27.2801 251.023 28.4929C251.023 30.1721 250.479 31.7581 249.39 33.2507C248.302 34.7433 246.98 35.8007 245.425 36.4226C245.177 36.5159 245.114 36.6713 245.239 36.8891C246.98 40.0298 248.722 42.673 250.463 44.8187C251.552 46.156 252.718 47.3065 253.961 48.2706C255.237 49.2033 256.402 49.6699 257.46 49.6699C257.584 49.8563 257.646 50.1051 257.646 50.4162C257.646 50.727 257.584 51.0072 257.46 51.2556C257.087 51.318 256.605 51.349 256.014 51.349C254.428 51.349 252.982 51.1626 251.676 50.7894C250.401 50.4162 249.282 49.872 248.317 49.1566C247.384 48.4103 246.607 47.6953 245.985 47.011C245.363 46.327 244.71 45.4563 244.026 44.3988C243.591 43.7769 243.093 43.0462 242.533 42.2065C241.974 41.3671 241.538 40.7295 241.227 40.2943C240.947 39.8278 240.621 39.3455 240.248 38.848C239.875 38.3508 239.548 37.9776 239.268 37.7288C239.02 37.48 238.771 37.309 238.522 37.2156C238.335 37.1222 237.962 37.0755 237.402 37.0755C236.905 37.0755 236.656 37.34 236.656 37.8685V44.4455C236.656 46.3114 236.781 47.6329 237.029 48.4103C237.123 48.7835 237.636 49.0946 238.569 49.3434C239.532 49.5608 240.232 49.6699 240.668 49.6699C240.792 49.6699 240.854 49.934 240.854 50.4629C240.854 50.8047 240.823 51.0692 240.761 51.2556C237.34 51.0692 235.132 50.9758 234.137 50.9758C233.298 50.9758 232.349 51.0072 231.292 51.0692C230.266 51.1002 229.442 51.1312 228.82 51.1626L227.887 51.2556C227.793 51.1312 227.747 50.8514 227.747 50.4162C227.747 49.9187 227.793 49.6699 227.887 49.6699C228.291 49.6699 228.882 49.5765 229.659 49.3901C230.468 49.1723 230.934 48.9235 231.059 48.6438C231.245 48.0838 231.338 46.6688 231.338 44.3988V26.767C231.338 24.9945 231.245 23.7195 231.059 22.9421C230.965 22.6934 230.499 22.4446 229.659 22.1958C228.851 21.9159 228.26 21.776 227.887 21.776C227.762 21.776 227.7 21.5428 227.7 21.0763C227.7 20.6098 227.762 20.33 227.887 20.2367C231.183 20.33 233.251 20.3766 234.091 20.3766C234.961 20.3766 236.034 20.3611 237.309 20.33C238.615 20.2989 239.735 20.2833 240.668 20.2833ZM271.25 20.4233C272.618 20.4233 275.028 20.3766 278.48 20.2833C281.932 20.1589 284.544 20.0967 286.317 20.0967C286.441 21.0297 286.69 22.3357 287.063 24.015C287.436 25.6631 287.638 26.5649 287.669 26.7204C287.514 26.8758 287.187 26.9536 286.69 26.9536C286.348 26.9536 286.13 26.8448 286.037 26.6271C285.01 23.8595 283.02 22.4757 280.066 22.4757H277.641C275.339 22.4757 274.158 22.6778 274.095 23.0821C273.909 23.9528 273.816 25.2122 273.816 26.8603V34.1836C273.816 34.3702 274.499 34.4635 275.868 34.4635H278.294C278.325 34.4635 278.387 34.4635 278.48 34.4635C280.284 34.4635 281.357 34.3857 281.698 34.2302C282.041 34.0748 282.305 33.5306 282.491 32.5977C282.585 32.1312 282.678 31.7425 282.771 31.4315C282.803 31.2138 283.051 31.105 283.518 31.105C283.953 31.105 284.249 31.1828 284.404 31.3382V40.1542C284.28 40.2786 283.984 40.3406 283.518 40.3406C283.113 40.3406 282.865 40.2162 282.771 39.9675C282.554 39.1281 282.352 38.5062 282.165 38.102C282.01 37.6974 281.901 37.48 281.839 37.4487C281.807 37.4177 281.683 37.3243 281.465 37.1689C281.061 36.9201 279.63 36.7957 277.174 36.7957C274.935 36.7957 273.816 36.9201 273.816 37.1689V44.3988C273.816 46.1093 273.956 47.3685 274.235 48.1772C274.391 48.5814 275.448 48.7835 277.407 48.7835H279.133C281.559 48.7835 283.409 48.457 284.684 47.804C285.181 47.5553 285.741 47.011 286.363 46.1713C286.985 45.3319 287.467 44.3835 287.809 43.326C287.84 43.1396 288.058 43.0462 288.462 43.0462C289.146 43.0462 289.582 43.1396 289.768 43.326C289.675 43.6058 289.442 44.2434 289.068 45.2385C288.726 46.2337 288.462 46.9953 288.275 47.5242C288.089 48.0218 287.887 48.6438 287.669 49.3901C287.451 50.1364 287.312 50.7427 287.249 51.2093C286.005 51.2093 283.425 51.1626 279.506 51.0692C275.619 50.9758 272.883 50.9605 271.297 51.0225L265.093 51.2093C265 51.1159 264.953 50.8671 264.953 50.4629C264.953 49.934 265 49.6699 265.093 49.6699C265.497 49.6699 266.088 49.5765 266.865 49.3901C267.643 49.1723 268.094 48.9235 268.218 48.6438C268.436 47.9904 268.544 46.5758 268.544 44.3988V26.767C268.544 24.9012 268.436 23.6262 268.218 22.9421C268.125 22.6 267.689 22.3202 266.912 22.1025C266.135 21.8848 265.513 21.776 265.046 21.776C264.922 21.776 264.86 21.5428 264.86 21.0763C264.86 20.641 264.922 20.3611 265.046 20.2367C267.098 20.3611 269.166 20.4233 271.25 20.4233ZM303.792 20.3766C304.693 20.3766 305.735 20.3611 306.917 20.33C308.099 20.2678 309.156 20.2367 310.089 20.2367C311.022 20.2367 311.939 20.33 312.841 20.5166C313.774 20.672 314.691 20.9675 315.593 21.4028C316.526 21.8382 317.334 22.3824 318.018 23.0354C318.734 23.6573 319.309 24.4659 319.744 25.4609C320.211 26.4561 320.444 27.56 320.444 28.7728C320.444 30.2343 320.055 31.6647 319.278 33.0641C318.531 34.4635 317.381 35.6607 315.826 36.6556C314.302 37.6197 312.576 38.102 310.648 38.102C309.995 38.102 309.343 37.9929 308.689 37.7751C308.036 37.5264 307.585 37.2313 307.337 36.8891C307.275 36.8267 307.212 36.6713 307.15 36.4226C307.119 36.1738 307.119 35.9406 307.15 35.7229C307.181 35.5052 307.228 35.3964 307.29 35.3964C308.005 35.7073 308.876 35.8628 309.902 35.8628C311.395 35.8628 312.576 35.2564 313.447 34.0437C314.318 32.7998 314.753 31.245 314.753 29.3791C314.753 27.2957 314.333 25.6475 313.494 24.4347C312.654 23.222 311.364 22.6156 309.622 22.6156C308.316 22.6156 307.414 22.7244 306.917 22.9421C306.544 23.1287 306.357 24.7457 306.357 27.7932V44.4455C306.357 46.3114 306.482 47.6329 306.73 48.4103C306.824 48.7835 307.337 49.0946 308.27 49.3434C309.233 49.5608 309.933 49.6699 310.369 49.6699C310.493 49.6699 310.555 49.934 310.555 50.4629C310.555 50.8047 310.524 51.0692 310.462 51.2556C307.041 51.0692 304.833 50.9758 303.838 50.9758C302.999 50.9758 302.05 51.0072 300.993 51.0692C299.967 51.1002 299.143 51.1312 298.521 51.1626L297.588 51.2556C297.495 51.1312 297.448 50.8514 297.448 50.4162C297.448 49.9187 297.495 49.6699 297.588 49.6699C297.992 49.6699 298.583 49.5765 299.36 49.3901C300.169 49.1723 300.635 48.9235 300.76 48.6438C300.946 48.0838 301.039 46.6688 301.039 44.3988V26.767C301.039 24.9945 300.946 23.7195 300.76 22.9421C300.666 22.6934 300.2 22.4446 299.36 22.1958C298.552 21.9159 297.961 21.776 297.588 21.776C297.464 21.776 297.401 21.5428 297.401 21.0763C297.401 20.6098 297.464 20.33 297.588 20.2367C300.853 20.33 302.921 20.3766 303.792 20.3766Z" fill="black"/>
<path d="M142.546 93.756C142.546 94.1606 142.313 95.3731 141.847 97.3943C141.38 99.3846 141.023 100.442 140.774 100.566C138.068 101.872 134.461 102.525 129.952 102.525C125.848 102.525 122.349 101.017 119.457 98.001C116.565 94.9846 115.119 91.393 115.119 87.2257C115.119 82.8101 116.596 79.0317 119.55 75.8909C122.504 72.7192 126.143 71.1331 130.465 71.1331C133.979 71.1331 137.649 71.553 141.474 72.3927C141.567 72.4237 141.66 73.4498 141.753 75.4714C141.847 77.4613 141.894 78.7052 141.894 79.2028C141.894 79.6693 141.52 79.9024 140.774 79.9024C140.587 79.9024 140.37 79.8404 140.121 79.716C139.997 79.1561 139.763 78.5808 139.421 77.9902C139.11 77.3993 138.628 76.7307 137.975 75.9843C137.322 75.238 136.358 74.6317 135.083 74.1652C133.808 73.6676 132.331 73.4188 130.652 73.4188C127.604 73.4188 125.226 74.6784 123.515 77.1972C121.836 79.716 120.996 82.7324 120.996 86.2463C120.996 90.1644 121.945 93.4919 123.842 96.2285C125.77 98.9337 128.475 100.287 131.958 100.287C134.726 100.287 136.918 99.416 138.535 97.6745C138.939 97.239 139.297 96.6637 139.608 95.9484C139.95 95.202 140.199 94.5804 140.354 94.0829C140.541 93.5853 140.665 93.3365 140.727 93.3365C141.816 93.3365 142.422 93.4762 142.546 93.756ZM151.316 71.5997C152.684 71.5997 155.094 71.553 158.546 71.46C161.998 71.3356 164.61 71.2732 166.382 71.2732C166.507 72.2059 166.755 73.5122 167.129 75.1913C167.502 76.8394 167.704 77.7415 167.735 77.8969C167.579 78.0523 167.253 78.13 166.755 78.13C166.413 78.13 166.196 78.0213 166.102 77.8035C165.076 75.0359 163.086 73.6523 160.132 73.6523H157.706C155.405 73.6523 154.223 73.8544 154.161 74.2586C153.975 75.1293 153.881 76.3885 153.881 78.0366V85.3599C153.881 85.5467 154.565 85.64 155.934 85.64H158.359C158.39 85.64 158.452 85.64 158.546 85.64C160.35 85.64 161.422 85.5624 161.764 85.4066C162.106 85.2512 162.371 84.7069 162.557 83.7742C162.651 83.3076 162.744 82.9188 162.837 82.608C162.868 82.3902 163.117 82.2815 163.583 82.2815C164.019 82.2815 164.314 82.3592 164.47 82.5146V91.3306C164.345 91.455 164.05 91.5174 163.583 91.5174C163.179 91.5174 162.93 91.393 162.837 91.1442C162.62 90.3045 162.417 89.6825 162.231 89.2784C162.075 88.8738 161.966 88.6564 161.904 88.625C161.873 88.594 161.749 88.501 161.531 88.3453C161.127 88.0965 159.696 87.9721 157.24 87.9721C155.001 87.9721 153.881 88.0965 153.881 88.3453V95.5752C153.881 97.2856 154.021 98.5452 154.301 99.3536C154.457 99.7578 155.514 99.9598 157.473 99.9598H159.199C161.624 99.9598 163.475 99.6334 164.75 98.9804C165.247 98.7316 165.807 98.1874 166.429 97.348C167.051 96.5083 167.533 95.5599 167.875 94.5024C167.906 94.316 168.124 94.2226 168.528 94.2226C169.212 94.2226 169.647 94.316 169.834 94.5024C169.74 94.7825 169.507 95.4198 169.134 96.4149C168.792 97.41 168.528 98.1721 168.341 98.7006C168.155 99.1982 167.953 99.8201 167.735 100.566C167.517 101.313 167.377 101.919 167.315 102.386C166.071 102.386 163.49 102.339 159.572 102.246C155.685 102.152 152.948 102.137 151.362 102.199L145.159 102.386C145.065 102.292 145.019 102.043 145.019 101.639C145.019 101.111 145.065 100.846 145.159 100.846C145.563 100.846 146.154 100.753 146.931 100.566C147.708 100.349 148.159 100.1 148.284 99.8201C148.502 99.1672 148.61 97.7522 148.61 95.5752V77.9436C148.61 76.0777 148.502 74.8028 148.284 74.1185C148.19 73.7763 147.755 73.4965 146.978 73.2791C146.2 73.0613 145.579 72.9523 145.112 72.9523C144.988 72.9523 144.925 72.7192 144.925 72.2526C144.925 71.8174 144.988 71.5377 145.112 71.4133C147.164 71.5377 149.232 71.5997 151.316 71.5997ZM197.634 77.8502C197.634 76.2021 197.479 74.9582 197.168 74.1185C197.012 73.7453 196.484 73.4498 195.582 73.2324C194.711 73.0147 194.027 72.906 193.53 72.906C193.405 72.906 193.327 72.6882 193.296 72.2526C193.296 71.7864 193.343 71.491 193.437 71.3666C196.764 71.5844 198.723 71.6931 199.314 71.6931C200.122 71.6931 201.164 71.6464 202.439 71.553C203.714 71.4286 204.507 71.3666 204.818 71.3666C204.88 71.491 204.911 71.7397 204.911 72.1129C204.911 72.6415 204.849 72.906 204.725 72.906C204.289 72.906 203.62 73.0303 202.719 73.2791C201.817 73.4965 201.226 73.8077 200.946 74.2119C200.604 75.0516 200.433 76.3418 200.433 78.0833V95.762C200.433 96.8815 200.495 99.0581 200.62 102.292C200.495 102.417 200.153 102.479 199.594 102.479C199.096 102.479 198.599 102.121 198.101 101.406L179.536 76.7774V95.6686C179.536 97.5344 179.661 98.8093 179.909 99.4937C180.065 99.8668 180.64 100.193 181.635 100.473C182.63 100.722 183.33 100.846 183.734 100.846C183.828 100.846 183.874 101.064 183.874 101.499C183.905 101.935 183.89 102.23 183.828 102.386C180.096 102.199 178.152 102.106 177.997 102.106C177.157 102.106 176.115 102.152 174.871 102.246C173.659 102.308 172.85 102.355 172.446 102.386C172.322 102.261 172.26 101.997 172.26 101.593C172.26 101.095 172.322 100.846 172.446 100.846C172.975 100.846 173.674 100.738 174.545 100.52C175.447 100.271 176.022 99.9135 176.271 99.447C176.582 98.794 176.737 97.4877 176.737 95.5289V77.2439C176.737 75.5645 176.566 74.4296 176.224 73.8387C176.1 73.6209 175.556 73.4188 174.592 73.2324C173.659 73.0457 172.975 72.9523 172.539 72.9523C172.415 72.9523 172.337 72.7192 172.306 72.2526C172.306 71.7864 172.368 71.491 172.493 71.3666C175.758 71.522 177.608 71.5997 178.044 71.5997C179.07 71.5997 180.469 71.522 182.241 71.3666C182.832 72.4861 183.905 74.1495 185.46 76.3575C187.046 78.5341 189.207 81.4265 191.944 85.0334C194.68 88.6097 196.546 91.0818 197.541 92.4501C197.603 92.077 197.634 91.4393 197.634 90.5376V77.8502ZM216.386 71.553C218.501 71.6154 220.226 71.6464 221.564 71.6464C222.901 71.6464 224.626 71.6154 226.741 71.553C228.856 71.46 230.55 71.3976 231.825 71.3666C232.603 71.3666 233.676 71.2112 235.044 70.9L235.93 78.0366C235.712 78.2543 235.293 78.3634 234.671 78.3634C234.422 78.3634 234.266 78.2854 234.204 78.13C233.769 76.4199 233.194 75.269 232.479 74.6784C231.763 74.0565 230.644 73.7453 229.12 73.7453C226.228 73.7453 224.72 74.0098 224.595 74.5383C224.316 75.4401 224.175 76.9017 224.175 78.923V95.762C224.175 97.441 224.316 98.794 224.595 99.8201C224.626 100.038 225.046 100.271 225.855 100.52C226.663 100.738 227.208 100.846 227.487 100.846C227.612 100.846 227.674 101.126 227.674 101.686C227.674 101.997 227.643 102.246 227.581 102.432C227.176 102.401 226.57 102.355 225.762 102.292C224.984 102.23 224.253 102.184 223.569 102.152C222.916 102.121 222.279 102.106 221.657 102.106C220.817 102.106 219.651 102.152 218.158 102.246C216.697 102.339 215.795 102.401 215.453 102.432C215.328 102.308 215.266 102.059 215.266 101.686C215.266 101.126 215.328 100.846 215.453 100.846C215.826 100.846 216.401 100.738 217.179 100.52C217.987 100.302 218.438 100.069 218.532 99.8201C218.78 98.9804 218.905 97.6898 218.905 95.9484V79.0631C218.905 76.4819 218.765 74.9739 218.485 74.5383C218.236 74.0098 216.759 73.7453 214.054 73.7453C212.53 73.7453 211.41 74.0565 210.695 74.6784C209.98 75.269 209.389 76.4042 208.923 78.0833C208.892 78.27 208.736 78.3634 208.456 78.3634C207.865 78.3634 207.461 78.239 207.243 77.9902L208.13 70.9C209.498 71.2112 210.571 71.3666 211.348 71.3666C212.623 71.3976 214.302 71.46 216.386 71.553ZM244.653 71.5997C246.021 71.5997 248.431 71.553 251.883 71.46C255.335 71.3356 257.947 71.2732 259.719 71.2732C259.844 72.2059 260.092 73.5122 260.466 75.1913C260.839 76.8394 261.041 77.7415 261.072 77.8969C260.916 78.0523 260.59 78.13 260.092 78.13C259.75 78.13 259.533 78.0213 259.439 77.8035C258.413 75.0359 256.423 73.6523 253.469 73.6523H251.043C248.742 73.6523 247.56 73.8544 247.498 74.2586C247.312 75.1293 247.218 76.3885 247.218 78.0366V85.3599C247.218 85.5467 247.903 85.64 249.271 85.64H251.696C251.727 85.64 251.79 85.64 251.883 85.64C253.686 85.64 254.759 85.5624 255.101 85.4066C255.443 85.2512 255.708 84.7069 255.894 83.7742C255.988 83.3076 256.081 82.9188 256.174 82.608C256.205 82.3902 256.454 82.2815 256.921 82.2815C257.356 82.2815 257.651 82.3592 257.807 82.5146V91.3306C257.682 91.455 257.387 91.5174 256.921 91.5174C256.516 91.5174 256.267 91.393 256.174 91.1442C255.957 90.3045 255.754 89.6825 255.568 89.2784C255.412 88.8738 255.304 88.6564 255.241 88.625C255.21 88.594 255.086 88.501 254.868 88.3453C254.464 88.0965 253.034 87.9721 250.577 87.9721C248.338 87.9721 247.218 88.0965 247.218 88.3453V95.5752C247.218 97.2856 247.358 98.5452 247.638 99.3536C247.793 99.7578 248.851 99.9598 250.81 99.9598H252.536C254.961 99.9598 256.812 99.6334 258.086 98.9804C258.584 98.7316 259.144 98.1874 259.766 97.348C260.388 96.5083 260.87 95.5599 261.212 94.5024C261.243 94.316 261.461 94.2226 261.865 94.2226C262.549 94.2226 262.984 94.316 263.171 94.5024C263.078 94.7825 262.844 95.4198 262.471 96.4149C262.129 97.41 261.865 98.1721 261.678 98.7006C261.492 99.1982 261.29 99.8201 261.072 100.566C260.854 101.313 260.714 101.919 260.652 102.386C259.408 102.386 256.827 102.339 252.909 102.246C249.022 102.152 246.285 102.137 244.699 102.199L238.496 102.386C238.402 102.292 238.356 102.043 238.356 101.639C238.356 101.111 238.402 100.846 238.496 100.846C238.9 100.846 239.491 100.753 240.268 100.566C241.045 100.349 241.497 100.1 241.621 99.8201C241.838 99.1672 241.948 97.7522 241.948 95.5752V77.9436C241.948 76.0777 241.838 74.8028 241.621 74.1185C241.528 73.7763 241.092 73.4965 240.315 73.2791C239.537 73.0613 238.915 72.9523 238.449 72.9523C238.325 72.9523 238.263 72.7192 238.263 72.2526C238.263 71.8174 238.325 71.5377 238.449 71.4133C240.502 71.5377 242.569 71.5997 244.653 71.5997ZM277.771 73.792C276.465 73.792 275.563 73.9007 275.066 74.1185C274.723 74.2739 274.537 75.8909 274.506 78.9697V84.3338C274.506 85.0181 274.77 85.469 275.299 85.6867C275.828 85.9041 276.558 86.0132 277.491 86.0132H278.704C279.854 86.0132 280.88 85.469 281.783 84.3805C282.715 83.292 283.182 81.8773 283.182 80.1359C283.182 75.9066 281.378 73.792 277.771 73.792ZM278.517 71.46C279.326 71.46 280.166 71.553 281.036 71.7397C281.938 71.8951 282.855 72.1749 283.788 72.5791C284.752 72.9836 285.607 73.4812 286.354 74.0718C287.1 74.6627 287.706 75.4401 288.173 76.4042C288.639 77.3683 288.872 78.4564 288.872 79.6693C288.872 81.3484 288.328 82.9345 287.24 84.4272C286.152 85.9198 284.83 86.977 283.275 87.5989C283.026 87.6923 282.964 87.8477 283.088 88.0655C284.83 91.2062 286.571 93.8494 288.313 95.9951C289.401 97.3323 290.567 98.4829 291.811 99.447C293.086 100.38 294.252 100.846 295.31 100.846C295.434 101.033 295.496 101.281 295.496 101.593C295.496 101.903 295.434 102.184 295.31 102.432C294.937 102.494 294.454 102.525 293.864 102.525C292.278 102.525 290.832 102.339 289.525 101.966C288.25 101.593 287.131 101.048 286.167 100.333C285.234 99.5867 284.457 98.8717 283.835 98.1874C283.213 97.5034 282.56 96.6327 281.876 95.5752C281.44 94.9532 280.943 94.2226 280.383 93.3829C279.823 92.5435 279.388 91.9059 279.077 91.4707C278.797 91.0041 278.471 90.5223 278.098 90.0247C277.724 89.5271 277.398 89.154 277.118 88.9052C276.869 88.6564 276.62 88.4853 276.371 88.3919C276.185 88.2986 275.812 88.2522 275.252 88.2522C274.755 88.2522 274.506 88.5163 274.506 89.0449V95.6219C274.506 97.4877 274.63 98.8093 274.879 99.5867C274.972 99.9598 275.485 100.271 276.418 100.52C277.382 100.738 278.082 100.846 278.517 100.846C278.642 100.846 278.704 101.111 278.704 101.639C278.704 101.981 278.673 102.246 278.61 102.432C275.19 102.246 272.982 102.152 271.987 102.152C271.147 102.152 270.199 102.184 269.141 102.246C268.115 102.277 267.291 102.308 266.669 102.339L265.737 102.432C265.643 102.308 265.597 102.028 265.597 101.593C265.597 101.095 265.643 100.846 265.737 100.846C266.141 100.846 266.731 100.753 267.509 100.566C268.317 100.349 268.784 100.1 268.908 99.8201C269.095 99.2602 269.188 97.8456 269.188 95.5752V77.9436C269.188 76.1711 269.095 74.8958 268.908 74.1185C268.815 73.8697 268.348 73.6209 267.509 73.3721C266.7 73.0924 266.11 72.9523 265.737 72.9523C265.612 72.9523 265.55 72.7192 265.55 72.2526C265.55 71.7864 265.612 71.5063 265.737 71.4133C269.033 71.5063 271.101 71.553 271.94 71.553C272.811 71.553 273.884 71.5377 275.159 71.5063C276.465 71.4753 277.584 71.46 278.517 71.46ZM298.062 79.3895C298.062 77.0571 299.041 75.0983 301 73.5122C302.96 71.8951 305.167 71.0868 307.624 71.0868C308.495 71.0868 309.256 71.1331 309.91 71.2265C310.563 71.3199 311.464 71.522 312.615 71.8328C313.797 72.1129 314.605 72.2993 315.04 72.3927C315.413 74.5073 315.6 76.9017 315.6 79.5759C315.538 79.8561 315.351 79.9958 315.04 79.9958C314.201 79.9958 313.75 79.8561 313.688 79.5759C313.501 78.1456 312.833 76.7464 311.682 75.3781C310.532 74.0098 309.132 73.3254 307.484 73.3254C306.054 73.3254 304.949 73.73 304.172 74.5383C303.426 75.3471 303.053 76.4352 303.053 77.8035C303.053 78.27 303.099 78.7209 303.193 79.1561C303.317 79.5606 303.535 79.9648 303.846 80.369C304.188 80.7732 304.452 81.1153 304.639 81.3951C304.856 81.6439 305.245 81.9704 305.805 82.3749C306.395 82.7791 306.784 83.0589 306.971 83.2143C307.188 83.37 307.655 83.6808 308.37 84.1474C309.117 84.5825 309.568 84.8313 309.723 84.8937C309.91 85.0491 310.423 85.3913 311.262 85.9198C312.133 86.4174 312.739 86.7906 313.081 87.0393C313.424 87.2571 313.921 87.6456 314.574 88.2055C315.227 88.7651 315.694 89.2937 315.973 89.7912C316.284 90.2888 316.564 90.9264 316.813 91.7038C317.062 92.4501 317.186 93.2585 317.186 94.1292C317.186 96.617 316.175 98.6696 314.154 100.287C312.164 101.903 309.847 102.712 307.204 102.712C305.338 102.712 302.477 102.277 298.621 101.406C298.341 100.287 298.077 98.887 297.829 97.2079C297.611 95.4975 297.502 94.378 297.502 93.8494C297.533 93.6006 297.782 93.4762 298.248 93.4762C299.057 93.4762 299.508 93.6006 299.601 93.8494C299.725 94.4094 299.943 95.0313 300.254 95.7153C300.565 96.3682 300.985 97.0835 301.514 97.8609C302.073 98.6072 302.804 99.2292 303.706 99.7268C304.639 100.193 305.68 100.426 306.831 100.426C308.293 100.426 309.505 99.9912 310.469 99.1205C311.433 98.2498 311.915 96.9435 311.915 95.202C311.915 94.6734 311.807 94.1606 311.589 93.663C311.402 93.1655 311.169 92.7456 310.889 92.4034C310.64 92.0613 310.251 91.6881 309.723 91.2839C309.225 90.8797 308.805 90.569 308.464 90.3512C308.122 90.1334 307.608 89.8379 306.924 89.4648C306.271 89.0606 305.805 88.7808 305.525 88.625C305.432 88.532 305.261 88.4076 305.012 88.2522C304.11 87.6923 303.426 87.2571 302.96 86.946C302.493 86.6352 301.887 86.1843 301.14 85.5934C300.425 84.9714 299.881 84.3961 299.508 83.8676C299.134 83.3386 298.792 82.6857 298.481 81.9084C298.202 81.131 298.062 80.2913 298.062 79.3895Z" fill="black"/>
<path d="M39.5031 67.5445C39.1033 67.5445 38.6769 67.5577 38.2238 67.5846C37.7708 67.5978 37.4173 67.6178 37.1641 67.6445L36.7643 67.6645C36.7246 67.6244 36.7045 67.5179 36.7045 67.3446C36.7045 67.1181 36.7246 67.0046 36.7643 67.0046C36.9376 67.0046 37.1908 66.9649 37.5242 66.8846C37.8572 66.7916 38.0506 66.6847 38.1038 66.5651C38.1972 66.2849 38.2439 65.6787 38.2439 64.7459V57.1891C38.2439 56.3895 38.1972 55.8431 38.1038 55.5502C38.0637 55.4035 37.8773 55.2835 37.5442 55.1902C37.2108 55.0968 36.9442 55.0501 36.7443 55.0501C36.691 55.0501 36.6644 54.9501 36.6644 54.7502C36.6644 54.5638 36.691 54.4438 36.7443 54.3906C37.6106 54.4438 38.4905 54.4704 39.3831 54.4704C40.0098 54.4839 41.0625 54.4639 42.5417 54.4106C44.0344 54.3574 45.1339 54.3307 45.8404 54.3307C45.8937 54.7305 46.0002 55.2901 46.16 56.0098C46.3201 56.716 46.4066 57.1027 46.4201 57.1691C46.3533 57.2358 46.2136 57.2694 46.0002 57.2694C45.8536 57.2694 45.7602 57.2227 45.7204 57.1293C45.2805 55.9431 44.4276 55.3499 43.1615 55.3499H42.1219C41.1359 55.3499 40.6292 55.4367 40.6026 55.61C40.5362 55.9299 40.5026 56.4694 40.5026 57.2293V60.3678C40.5026 60.4477 40.7959 60.4879 41.3825 60.4879H42.402C42.4152 60.4879 42.4418 60.4879 42.4819 60.4879C43.2549 60.4879 43.7145 60.4543 43.8611 60.3879C44.0078 60.3211 44.1212 60.0881 44.2011 59.6883C44.2409 59.4884 44.281 59.3216 44.3211 59.1885C44.3343 59.0951 44.4408 59.0484 44.6407 59.0484C44.8274 59.0484 44.954 59.0816 45.0208 59.1484V62.9268C44.9671 62.98 44.8406 63.0067 44.6407 63.0067C44.4674 63.0067 44.3609 62.9534 44.3211 62.8465C44.2277 62.4868 44.1409 62.2202 44.061 62.0469C43.9943 61.8736 43.948 61.7806 43.9213 61.7671C43.9078 61.754 43.8546 61.7139 43.7612 61.6471C43.5879 61.5406 42.9751 61.4873 41.922 61.4873C40.9757 61.4873 40.5026 61.5406 40.5026 61.6471V64.7857C40.5026 65.5054 40.5759 66.0584 40.7226 66.4451C40.7758 66.5782 41.0159 66.7048 41.4423 66.8248C41.8687 66.9448 42.1554 67.0046 42.3021 67.0046C42.3685 67.0046 42.402 67.1181 42.402 67.3446C42.402 67.5044 42.382 67.6113 42.3418 67.6645C40.7426 67.5846 39.7964 67.5445 39.5031 67.5445ZM55.6559 64.086C55.6559 63.2332 55.4159 62.5335 54.9362 61.9871C54.4697 61.4272 53.7098 61.1474 52.6571 61.1474C52.2708 61.1474 51.8575 61.1809 51.4176 61.2473C51.311 61.3141 51.2578 61.4472 51.2578 61.6471V65.3653C51.2578 65.9253 51.3377 66.2718 51.4978 66.4049C51.6711 66.5385 52.0975 66.6048 52.7771 66.6048C53.0704 66.6048 53.3567 66.5782 53.6365 66.525C53.9167 66.4582 54.2165 66.3517 54.5364 66.205C54.8695 66.0453 55.1361 65.7852 55.336 65.4255C55.549 65.0523 55.6559 64.6059 55.6559 64.086ZM48.9987 64.7459V57.1891C48.9987 56.3895 48.952 55.8431 48.859 55.5502C48.8189 55.4035 48.6325 55.2835 48.2991 55.1902C47.966 55.0968 47.6994 55.0501 47.4995 55.0501C47.4462 55.0501 47.4196 54.9501 47.4196 54.7502C47.4196 54.5638 47.4462 54.4438 47.4995 54.3906C48.3789 54.4307 49.2654 54.4504 50.1583 54.4504C50.8379 54.4504 51.411 54.4504 51.8775 54.4504C52.3441 54.4372 52.7439 54.4307 53.0769 54.4307C53.5566 54.4307 54.0367 54.4905 54.5164 54.6105C54.996 54.7305 55.4626 54.9169 55.9156 55.1701C56.3687 55.4101 56.7353 55.7632 57.0151 56.2298C57.3084 56.6963 57.455 57.2358 57.455 57.849C57.455 58.3287 57.3149 58.7752 57.0352 59.1885C56.7554 59.6014 56.4887 59.8947 56.2356 60.068C55.9955 60.2278 55.7891 60.3412 55.6158 60.4076C55.5093 60.4477 55.4827 60.4879 55.5359 60.5276C56.0287 60.6079 56.5752 60.961 57.1749 61.5873C57.7881 62.2001 58.0945 62.96 58.0945 63.8661C58.0945 65.0122 57.6283 65.9253 56.6952 66.6048C55.7756 67.2848 54.5495 67.6178 53.0171 67.6043L50.1784 67.5846L47.5195 67.6645C47.4794 67.6244 47.4597 67.5179 47.4597 67.3446C47.4597 67.1181 47.4794 67.0046 47.5195 67.0046C47.6928 67.0046 47.9459 66.9649 48.279 66.8846C48.6124 66.7916 48.8057 66.6847 48.859 66.5651C48.952 66.2849 48.9987 65.6787 48.9987 64.7459ZM53.5767 60.0479C54.5495 59.8345 55.0362 59.1816 55.0362 58.0887C55.0362 56.2896 54.2698 55.3901 52.737 55.3901C52.1106 55.3901 51.6842 55.4232 51.4577 55.49C51.3512 55.5166 51.2979 55.59 51.2979 55.71L51.2578 57.6291V59.968C51.2578 60.1012 51.6576 60.1679 52.4572 60.1679C52.9504 60.1679 53.3235 60.1278 53.5767 60.0479ZM66.4509 54.4106L70.6487 64.8856C70.8486 65.419 71.0485 65.9052 71.2484 66.3451C71.3287 66.545 71.5417 66.7048 71.8883 66.8248C72.2348 66.9448 72.488 67.0046 72.6481 67.0046C72.7014 67.0046 72.728 67.1247 72.728 67.3647C72.728 67.5245 72.7145 67.6244 72.6879 67.6645C71.0887 67.5846 70.2489 67.5445 70.1691 67.5445C70.0757 67.5445 69.2097 67.5846 67.5704 67.6645C67.5171 67.6113 67.4905 67.4913 67.4905 67.3045C67.4905 67.1046 67.5171 67.0046 67.5704 67.0046C67.7301 67.0046 67.9501 66.9649 68.2299 66.8846C68.5097 66.8047 68.6764 66.7117 68.7296 66.6048C68.7698 66.525 68.7898 66.4385 68.7898 66.3451C68.7898 66.0785 68.6632 65.6188 68.4097 64.9655L67.7101 63.1066C67.6568 63.0533 67.6101 63.0267 67.5704 63.0267C67.1439 63.0001 66.5709 62.9866 65.8512 62.9866C65.1314 62.9866 64.3716 63.0067 63.572 63.0464C63.4921 63.0464 63.452 63.073 63.452 63.1267L62.6925 64.9856C62.4394 65.6787 62.3128 66.1117 62.3128 66.2849C62.3128 66.4582 62.3861 66.5917 62.5328 66.6847C62.6524 66.765 62.8592 66.8383 63.1522 66.9047C63.4589 66.9714 63.6654 67.0046 63.7719 67.0046C63.812 67.0181 63.8321 67.1115 63.8321 67.2848C63.8321 67.4577 63.8186 67.5846 63.792 67.6645C63.7252 67.6645 63.4122 67.6445 62.8523 67.6043C62.2927 67.5646 61.8397 67.5445 61.4931 67.5445C61.1466 67.5445 60.7333 67.5646 60.2536 67.6043C59.7871 67.631 59.454 67.651 59.2541 67.6645C59.2009 67.6113 59.1742 67.5113 59.1742 67.3647C59.1742 67.1247 59.1874 67.0046 59.214 67.0046C59.3741 67.0046 59.6273 66.9514 59.9738 66.8449C60.3335 66.7249 60.56 66.5917 60.6534 66.4451C60.9066 66.0453 61.1597 65.5255 61.4132 64.8856L65.1314 55.8898C65.4379 55.0902 65.6845 54.6105 65.8712 54.4504C65.9777 54.3574 66.0908 54.3107 66.2108 54.3107C66.3042 54.3107 66.3841 54.3439 66.4509 54.4106ZM64.0521 61.847C64.5183 61.8872 64.9979 61.9072 65.4911 61.9072C65.9577 61.9072 66.5041 61.8872 67.1304 61.847L67.1706 61.7671L65.6513 57.7691L64.0119 61.7671C64.0119 61.8204 64.0251 61.847 64.0521 61.847Z" fill="black"/>
<path d="M15.3453 60.3805L53.557 98.5923L91.7688 60.3805L53.557 22.1688L15.3453 60.3805Z" stroke="black" stroke-width="1.87059"/>
<path d="M51.1445 19.3684L38.5996 6.82349L-0.000142978 45.4232L12.5448 57.9681L51.1445 19.3684Z" fill="black"/>
<path d="M107.114 75.3381L94.5692 62.7932L55.9695 101.393L68.5144 113.938L107.114 75.3381Z" fill="black"/>
<path d="M38.5998 113.938L51.1447 101.393L12.545 62.793L0.000110688 75.3379L38.5998 113.938Z" fill="black"/>
<path d="M94.5694 57.968L107.114 45.4231L68.5146 6.8234L55.9697 19.3683L94.5694 57.968Z" fill="black"/>
<path d="M53.805 18.239L44.8679 9.48425H62.7421L53.805 18.239Z" fill="#D00000"/>
<path d="M11.3082 60.3711L2.55346 51.434V69.3082L11.3082 60.3711Z" fill="#D00000"/>
<path d="M95.9371 60.3711L104.692 51.434V69.3082L95.9371 60.3711Z" fill="#D00000"/>
</g>
<defs>
<clipPath id="clip0_15_137">
<rect width="322.101" height="116" fill="white"/>
</clipPath>
</defs>
</svg>
