<svg width="19" height="20" viewBox="0 0 19 20" fill="none" xmlns="http://www.w3.org/2000/svg">
<path d="M14.3752 0C14.2094 0 14.0504 0.0658481 13.9332 0.183058C13.816 0.300269 13.7502 0.45924 13.7502 0.625C13.7502 0.79076 13.816 0.949731 13.9332 1.06694C14.0504 1.18415 14.2094 1.25 14.3752 1.25H16.6164L10.6252 7.24125L7.31766 3.9325C7.2596 3.8743 7.19063 3.82812 7.1147 3.79661C7.03877 3.7651 6.95736 3.74888 6.87516 3.74888C6.79295 3.74888 6.71155 3.7651 6.63561 3.79661C6.55968 3.82812 6.49071 3.8743 6.43266 3.9325L0.182656 10.1825C0.0652978 10.2999 -0.000633244 10.459 -0.00063324 10.625C-0.000633236 10.791 0.0652978 10.9501 0.182656 11.0675C0.300014 11.1849 0.459186 11.2508 0.625156 11.2508C0.791126 11.2508 0.950298 11.1849 1.06766 11.0675L6.87516 5.25875L10.1827 8.5675C10.2407 8.6257 10.3097 8.67188 10.3856 8.70339C10.4615 8.7349 10.5429 8.75112 10.6252 8.75112C10.7074 8.75112 10.7888 8.7349 10.8647 8.70339C10.9406 8.67188 11.0096 8.6257 11.0677 8.5675L17.5002 2.13375V4.375C17.5002 4.54076 17.566 4.69973 17.6832 4.81694C17.8004 4.93415 17.9594 5 18.1252 5C18.2909 5 18.4499 4.93415 18.5671 4.81694C18.6843 4.69973 18.7502 4.54076 18.7502 4.375V0.625C18.7502 0.45924 18.6843 0.300269 18.5671 0.183058C18.4499 0.0658481 18.2909 0 18.1252 0H14.3752ZM15.6252 8.75C15.4594 8.75 15.3004 8.81585 15.1832 8.93306C15.066 9.05027 15.0002 9.20924 15.0002 9.375V19.375C15.0002 19.5408 15.066 19.6997 15.1832 19.8169C15.3004 19.9342 15.4594 20 15.6252 20C15.7909 20 15.9499 19.9342 16.0671 19.8169C16.1843 19.6997 16.2502 19.5408 16.2502 19.375V9.375C16.2502 9.20924 16.1843 9.05027 16.0671 8.93306C15.9499 8.81585 15.7909 8.75 15.6252 8.75ZM5.62516 11.25C5.4594 11.25 5.30042 11.3158 5.18321 11.4331C5.066 11.5503 5.00016 11.7092 5.00016 11.875V19.375C5.00016 19.5408 5.066 19.6997 5.18321 19.8169C5.30042 19.9342 5.4594 20 5.62516 20C5.79092 20 5.94989 19.9342 6.0671 19.8169C6.18431 19.6997 6.25016 19.5408 6.25016 19.375V11.875C6.25016 11.7092 6.18431 11.5503 6.0671 11.4331C5.94989 11.3158 5.79092 11.25 5.62516 11.25ZM10.0002 14.375C10.0002 14.2092 10.066 14.0503 10.1832 13.9331C10.3004 13.8158 10.4594 13.75 10.6252 13.75C10.7909 13.75 10.9499 13.8158 11.0671 13.9331C11.1843 14.0503 11.2502 14.2092 11.2502 14.375V19.375C11.2502 19.5408 11.1843 19.6997 11.0671 19.8169C10.9499 19.9342 10.7909 20 10.6252 20C10.4594 20 10.3004 19.9342 10.1832 19.8169C10.066 19.6997 10.0002 19.5408 10.0002 19.375V14.375ZM0.000156224 15.625C0.000156224 15.4592 0.0660044 15.3003 0.183215 15.1831C0.300425 15.0658 0.459396 15 0.625156 15C0.790916 15 0.949888 15.0658 1.0671 15.1831C1.18431 15.3003 1.25016 15.4592 1.25016 15.625V19.375C1.25016 19.5408 1.18431 19.6997 1.0671 19.8169C0.949888 19.9342 0.790916 20 0.625156 20C0.459396 20 0.300425 19.9342 0.183215 19.8169C0.0660044 19.6997 0.000156224 19.5408 0.000156224 19.375V15.625Z" fill="#d0091c"/>
</svg>
