<svg width="519" height="362" viewBox="0 0 519 362" fill="none" xmlns="http://www.w3.org/2000/svg">
<path d="M361.23 184.51H127.8C125.127 184.51 122.96 186.677 122.96 189.35V189.78C122.96 192.453 125.127 194.62 127.8 194.62H361.23C363.903 194.62 366.07 192.453 366.07 189.78V189.35C366.07 186.677 363.903 184.51 361.23 184.51Z" stroke="#E0B9B9" stroke-width="2" stroke-miterlimit="10"/>
<path d="M359.57 12.86H129.46C125.87 12.86 122.96 15.7702 122.96 19.36V19.95C122.96 23.5399 125.87 26.45 129.46 26.45H359.57C363.16 26.45 366.07 23.5399 366.07 19.95V19.36C366.07 15.7702 363.16 12.86 359.57 12.86Z" stroke="#E0B9B9" stroke-width="2" stroke-miterlimit="10"/>
<path d="M357.14 26.45H131.88V184.51H357.14V26.45Z" stroke="#E0B9B9" stroke-width="2" stroke-miterlimit="10"/>
<path d="M340.47 72.6001L315.09 72.06C315.09 72.06 321.36 56.6001 317.28 45.3801L341.68 44.86C342.816 47.9767 343.545 51.2268 343.85 54.53C344.37 59.82 343.96 66.4801 340.47 72.6001Z" stroke="#E0B9B9" stroke-linecap="round" stroke-linejoin="round"/>
<path d="M323.51 53.7H339.51" stroke="#E0B9B9" stroke-linecap="round" stroke-linejoin="round"/>
<path d="M322.72 62.94H338.72" stroke="#E0B9B9" stroke-linecap="round" stroke-linejoin="round"/>
<path d="M326.3 58.19L338.89 58.44" stroke="#E0B9B9" stroke-linecap="round" stroke-linejoin="round"/>
<path d="M148.92 49.73H173.72C173.72 49.73 172.36 68.98 180.06 75.55L152.55 76.23C152.55 76.23 147.11 67.17 148.92 49.73Z" stroke="#E0B9B9" stroke-linecap="round" stroke-linejoin="round"/>
<path d="M165.3 57.7401H169.32" stroke="#E0B9B9" stroke-linecap="round" stroke-linejoin="round"/>
<path d="M153.35 57.7401H163.29" stroke="#E0B9B9" stroke-linecap="round" stroke-linejoin="round"/>
<path d="M154.15 63.56H164.31" stroke="#E0B9B9" stroke-linecap="round" stroke-linejoin="round"/>
<path d="M155.19 68.44C155.39 68.24 170.3 68.08 170.3 68.08" stroke="#E0B9B9" stroke-linecap="round" stroke-linejoin="round"/>
<path d="M263.369 117H288.169C288.169 117 286.809 136.25 294.509 142.82L266.999 143.5C266.999 143.5 261.559 134.44 263.369 117Z" stroke="#E0B9B9" stroke-linecap="round" stroke-linejoin="round"/>
<path d="M279.749 125.01H283.769" stroke="#E0B9B9" stroke-linecap="round" stroke-linejoin="round"/>
<path d="M267.799 125.01H277.739" stroke="#E0B9B9" stroke-linecap="round" stroke-linejoin="round"/>
<path d="M268.599 130.83H278.759" stroke="#E0B9B9" stroke-linecap="round" stroke-linejoin="round"/>
<path d="M269.639 135.71C269.839 135.51 284.749 135.35 284.749 135.35" stroke="#E0B9B9" stroke-linecap="round" stroke-linejoin="round"/>
<path d="M152.644 135H195.933C195.933 135 193.559 163.33 207 172.999L158.98 174C158.98 174 149.484 160.666 152.644 135Z" stroke="#E0B9B9" stroke-linecap="round" stroke-linejoin="round"/>
<path d="M181.235 146.788H188.252" stroke="#E0B9B9" stroke-linecap="round" stroke-linejoin="round"/>
<path d="M160.376 146.788H177.727" stroke="#E0B9B9" stroke-linecap="round" stroke-linejoin="round"/>
<path d="M161.772 155.354H179.507" stroke="#E0B9B9" stroke-linecap="round" stroke-linejoin="round"/>
<path d="M163.588 162.535C163.937 162.241 189.963 162.006 189.963 162.006" stroke="#E0B9B9" stroke-linecap="round" stroke-linejoin="round"/>
<path d="M224.643 39.213L246.672 44.9547C246.672 44.9547 238.319 72.0541 242.72 83.1933L218.031 77.7926C218.031 77.7926 216.562 63.6306 224.643 39.213Z" stroke="#E0B9B9" stroke-linecap="round" stroke-linejoin="round"/>
<path d="M236.22 54.4124L239.791 55.3431" stroke="#E0B9B9" stroke-linecap="round" stroke-linejoin="round"/>
<path d="M225.605 51.6458L234.434 53.9471" stroke="#E0B9B9" stroke-linecap="round" stroke-linejoin="round"/>
<path d="M224.155 60.1193L233.18 62.4715" stroke="#E0B9B9" stroke-linecap="round" stroke-linejoin="round"/>
<path d="M223.267 67.3098C223.519 67.0713 236.823 70.2954 236.823 70.2954" stroke="#E0B9B9" stroke-linecap="round" stroke-linejoin="round"/>
<path d="M190.66 134.86L208.21 134.19L220.34 99.87L261.13 95.93L280.67 63.56" stroke="#E0B9B9" stroke-width="2" stroke-linecap="round" stroke-linejoin="round"/>
<path d="M281.71 61.78L269.55 70.46L279.69 76.59L281.71 61.78Z" fill="#E0B9B9" stroke="#E0B9B9" stroke-width="2" stroke-linecap="round" stroke-linejoin="round"/>
<path d="M67.9401 71.29C87.0657 71.29 102.57 55.7856 102.57 36.66C102.57 17.5344 87.0657 2.03003 67.9401 2.03003C48.8144 2.03003 33.3101 17.5344 33.3101 36.66C33.3101 55.7856 48.8144 71.29 67.9401 71.29Z" stroke="#E0B9B9" stroke-width="2" stroke-linecap="round" stroke-linejoin="round"/>
<path d="M51.2402 18.58L67.9402 36.66L81.8402 29.1" stroke="#E0B9B9" stroke-width="2" stroke-linecap="round" stroke-linejoin="round"/>
<path d="M328.88 302.69H270.06C263.974 302.69 259.04 307.624 259.04 313.71V314.71C259.04 320.796 263.974 325.73 270.06 325.73H328.88C334.966 325.73 339.9 320.796 339.9 314.71V313.71C339.9 307.624 334.966 302.69 328.88 302.69Z" stroke="#E0B9B9" stroke-miterlimit="10"/>
<path d="M94.7201 137.64H61.9501C54.0137 137.64 47.5801 144.074 47.5801 152.01V153.31C47.5801 161.246 54.0137 167.68 61.9501 167.68H94.7201C102.656 167.68 109.09 161.246 109.09 153.31V152.01C109.09 144.074 102.656 137.64 94.7201 137.64Z" stroke="#E0B9B9" stroke-miterlimit="10"/>
<path d="M468.58 44.51H421.54C418.779 44.51 416.54 46.7486 416.54 49.51V49.96C416.54 52.7214 418.779 54.96 421.54 54.96H468.58C471.342 54.96 473.58 52.7214 473.58 49.96V49.51C473.58 46.7486 471.342 44.51 468.58 44.51Z" stroke="#E0B9B9" stroke-miterlimit="10"/>
<path d="M94.0283 200.238L127.418 189.468L151.788 203.908L156.378 348.368H112.378L94.0283 200.238Z" fill="#FED81D"/>
<path d="M123.878 343.658H45.5985L49.3985 235.658C48.2531 233.294 47.2513 230.863 46.3985 228.378C37.2785 201.378 56.2185 189.468 68.8385 186.458C77.4785 184.408 89.9185 184.788 97.1385 185.098C99.3285 185.188 101.038 185.268 102.018 185.268C107.818 204.03 112.493 223.12 116.018 242.438C116.532 245.165 117.005 247.858 117.438 250.518C117.443 250.542 117.443 250.565 117.438 250.588C126.648 305.238 123.878 343.658 123.878 343.658Z" fill="#A7CAF0"/>
<path d="M195.419 306.398C183.209 313.548 166.839 309.118 166.839 309.118L165.019 345.248L149.019 346.248C149.019 346.248 151.599 314.188 150.599 283.518C150.229 272.688 149.149 260.748 147.679 248.878C147.299 245.878 146.909 242.928 146.489 239.978C143.849 221.368 140.389 203.658 137.349 191.538C140.21 189.898 143.311 188.717 146.539 188.038C153.814 186.596 161.349 187.262 168.259 189.958C168.959 194.388 169.949 203.378 170.939 213.418C172.939 233.678 175.009 258.228 175.009 258.228C177.139 227.928 206.419 226.298 209.769 272.138C209.969 293.758 204.739 300.958 195.419 306.398Z" fill="#A7CAF0"/>
<path d="M194.818 270.498L158.688 279.058L162.598 215.378L163.438 201.748L168.268 189.958C168.268 189.958 185.608 200.138 189.338 210.818C190.386 214.517 191.099 218.302 191.468 222.128C193.748 240.278 194.818 270.498 194.818 270.498Z" fill="#A7CAF0"/>
<path d="M191.469 222.138C186.119 218.798 178.109 214.488 170.949 213.428L162.599 215.378L163.439 201.748L168.269 189.958C168.269 189.958 185.609 200.138 189.339 210.818C190.387 214.52 191.1 218.309 191.469 222.138Z" fill="#C3DCF8"/>
<path d="M102.048 185.268C107.848 204.03 112.523 223.12 116.048 242.438C112.378 239.956 109.156 236.869 106.518 233.308C85.7485 206.308 62.4285 209.688 46.3985 228.378C37.2785 201.378 56.2185 189.468 68.8385 186.458C77.4785 184.408 89.9185 184.788 97.1385 185.098C99.3585 185.188 101.068 185.268 102.048 185.268Z" fill="#C3DCF8"/>
<path d="M170.948 213.428C168.238 214.878 166.278 216.638 165.408 218.428C163.148 223.168 155.968 233.298 146.478 239.948C143.838 221.338 140.378 203.628 137.338 191.508C140.2 189.868 143.301 188.687 146.528 188.008C153.812 186.564 161.358 187.24 168.268 189.958C168.968 194.398 169.958 203.388 170.948 213.428Z" fill="#C3DCF8"/>
<path d="M117.498 250.518C114.848 237.958 96.8184 220.228 96.8184 220.228L100.768 209.528L92.8784 205.818L97.1684 185.098C99.3584 185.188 101.068 185.268 102.048 185.268C108.672 206.643 113.834 228.443 117.498 250.518Z" fill="#83ADDF"/>
<path d="M158.688 217.808C153.71 227.653 150.013 238.095 147.688 248.878C145.324 229.586 141.876 210.443 137.358 191.538C140.22 189.898 143.321 188.717 146.548 188.038L157.258 204.958L150.698 212.468L158.688 217.808Z" fill="#83ADDF"/>
<path d="M107.019 179.498C105.08 181.172 103.395 183.119 102.019 185.278L103.779 209.528C103.779 209.528 111.779 198.528 125.179 199.318L107.019 179.498Z" fill="white"/>
<path d="M135.839 182.958C135.839 183.178 131.389 199.088 131.389 199.088C131.389 199.088 140.119 202.998 146.139 209.578C146.139 209.578 143.209 191.758 142.139 188.778C141.069 185.798 135.839 182.958 135.839 182.958Z" fill="white"/>
<path d="M166.889 223.678C167.269 234.528 167.369 298.568 166.889 309.118" stroke="#83ADDF" stroke-width="0.75" stroke-linecap="round" stroke-linejoin="round"/>
<path d="M140.379 167.258L137.979 171.988L137.499 172.988C137.499 172.988 136.619 177.418 136.089 181.148C135.824 182.667 135.697 184.207 135.709 185.748C135.939 188.248 137.499 201.478 124.619 200.158C111.739 198.838 106.619 182.048 106.619 182.048C107.099 177.878 111.809 156.818 111.809 156.818C111.809 156.818 116.729 145.068 131.599 147.158C141.599 148.558 140.819 159.738 139.229 166.918L140.379 167.258Z" fill="#FEBD9D"/>
<path d="M140.378 167.258L137.978 171.988L137.498 172.988C137.498 172.988 136.618 177.418 136.088 181.148C129.688 179.478 121.618 173.868 122.968 161.788L139.238 166.918L140.378 167.258Z" fill="#F4A789"/>
<path d="M111.158 148.448C97.3884 136.908 100.038 121.758 111.158 124.198C111.158 124.198 107.028 118.258 115.288 110.848C120.118 106.508 128.388 105.458 134.038 109.678C137.738 112.458 144.938 109.448 146.218 107.248C153.058 113.808 149.958 125.298 141.068 126.358L111.158 148.448Z" fill="#BF8228"/>
<path d="M112.598 148.038C104.928 140.038 104.598 129.758 111.548 125.908C111.548 125.908 110.138 114.378 123.628 113.158C138.268 111.838 142.818 122.828 136.788 130.998L112.598 148.038Z" fill="#B57724"/>
<path d="M121.338 127.728C122.338 119.578 128.038 114.788 134.078 115.458C140.118 116.128 145.178 114.328 145.898 110.988" stroke="#9B621F" stroke-width="0.75" stroke-linecap="round" stroke-linejoin="round"/>
<path d="M130.438 121.248C130.968 121.248 145.028 126.428 147.578 115.688" stroke="#9B621F" stroke-width="0.75" stroke-linecap="round" stroke-linejoin="round"/>
<path d="M110.599 144.448C110.599 144.218 115.379 137.448 114.539 130.758" stroke="#9B621F" stroke-width="0.75" stroke-linecap="round" stroke-linejoin="round"/>
<path d="M110.758 147.808C107.428 142.978 103.478 130.928 111.158 128.048" stroke="#9B621F" stroke-width="0.75" stroke-linecap="round" stroke-linejoin="round"/>
<path d="M111.158 124.198C111.911 124.164 112.661 124.3 113.354 124.596C114.047 124.892 114.663 125.34 115.158 125.908" stroke="#9B621F" stroke-width="0.75" stroke-linecap="round" stroke-linejoin="round"/>
<path d="M114.599 120.528C115.489 112.888 126.769 107.118 133.769 109.528" stroke="#9B621F" stroke-width="0.75" stroke-linecap="round" stroke-linejoin="round"/>
<path d="M148.088 152.118L147.658 152.958L140.378 167.258L137.978 171.988L137.488 172.988L125.078 162.458L117.078 155.638C115.371 156.191 113.617 156.586 111.838 156.818C110.338 156.774 108.892 156.244 107.719 155.308C106.545 154.372 105.706 153.081 105.328 151.628C103.618 146.088 107.828 142.298 112.328 143.098C112.966 143.201 113.585 143.393 114.168 143.668C120.298 139.478 120.278 131.248 116.978 128.788C115.788 122.238 130.028 115.278 132.358 120.328C135.628 127.438 141.068 126.328 141.068 126.328C143.273 131.465 145.079 136.764 146.468 142.178C146.548 142.498 146.628 142.828 146.698 143.128C147.476 146.068 147.942 149.081 148.088 152.118Z" fill="#FEBD9D"/>
<path d="M127.868 162.198C132.281 162.198 135.858 158.621 135.858 154.208C135.858 149.796 132.281 146.218 127.868 146.218C123.456 146.218 119.878 149.796 119.878 154.208C119.878 158.621 123.456 162.198 127.868 162.198Z" fill="#F4AF90"/>
<path d="M148.088 152.118L147.658 152.958C146.817 152.373 146.111 151.613 145.587 150.732C145.063 149.851 144.733 148.868 144.621 147.849C144.508 146.83 144.615 145.798 144.933 144.824C145.252 143.849 145.775 142.954 146.468 142.198C146.548 142.518 146.628 142.848 146.698 143.148C147.474 146.082 147.94 149.088 148.088 152.118Z" fill="#F4AF90"/>
<path d="M140.379 167.258L137.979 171.988L137.489 172.988L125.079 162.458L140.379 167.258Z" fill="#F4A789"/>
<path d="M132.728 141.728C133.468 141.728 134.068 141.129 134.068 140.388C134.068 139.648 133.468 139.048 132.728 139.048C131.988 139.048 131.388 139.648 131.388 140.388C131.388 141.129 131.988 141.728 132.728 141.728Z" fill="#683F1D"/>
<path d="M142.028 139.038C142.769 139.038 143.368 138.439 143.368 137.698C143.368 136.958 142.769 136.358 142.028 136.358C141.288 136.358 140.688 136.958 140.688 137.698C140.688 138.439 141.288 139.038 142.028 139.038Z" fill="#683F1D"/>
<path d="M136.128 127.408C136.018 129.578 142.128 129.238 142.538 128.588C143.098 127.728 136.318 123.788 136.128 127.408Z" fill="#BF8228"/>
<path d="M123.938 133.148C123.558 135.538 130.018 131.898 130.388 130.508C130.456 130.212 130.454 129.904 130.384 129.608C130.314 129.311 130.177 129.035 129.984 128.8C129.792 128.565 129.548 128.377 129.271 128.25C128.994 128.123 128.693 128.061 128.388 128.068C126.978 128.248 124.198 131.498 123.938 133.148Z" fill="#BF8228"/>
<path d="M152.598 159.258C152.59 160.436 152.456 161.609 152.198 162.758C149.708 173.548 136.698 177.228 125.008 166.758C115.138 157.928 112.328 143.118 112.328 143.118C112.325 143.099 112.325 143.078 112.328 143.058C112.965 143.161 113.585 143.353 114.168 143.628C114.168 143.628 116.688 150.398 121.758 154.518C123.998 156.348 126.088 157.318 128.158 157.338C130.758 157.338 133.328 155.888 136.158 152.738C141.158 147.098 144.938 147.608 146.328 147.928C146.731 146.359 146.863 144.732 146.718 143.118C148.788 145.488 152.678 152.298 152.598 159.258Z" fill="#BF8228"/>
<path d="M136.758 133.148C137.628 139.598 139.878 140.788 142.998 141.738C144.938 142.338 142.998 146.038 142.998 146.038" stroke="#EF8A66" stroke-width="0.75" stroke-linecap="round" stroke-linejoin="round"/>
<path d="M145.759 150.458C145.179 157.298 138.339 157.798 136.999 154.128C136.999 154.128 142.779 153.178 145.759 150.458Z" fill="white" stroke="#EF8A66" stroke-width="0.75" stroke-linecap="round" stroke-linejoin="round"/>
<path d="M111.798 156.798C112.97 156.737 114.124 156.477 115.208 156.028" stroke="#EF8A66" stroke-width="0.75" stroke-linecap="round" stroke-linejoin="round"/>
<path d="M108.539 149.098C109.329 147.868 112.949 146.288 114.489 150.458" stroke="#EF8A66" stroke-width="0.75" stroke-linecap="round" stroke-linejoin="round"/>
<path d="M113.788 149.108C110.308 148.618 110.108 153.918 114.348 152.908" stroke="#EF8A66" stroke-width="0.75" stroke-linecap="round" stroke-linejoin="round"/>
<path d="M134.373 136.469L125.432 139.56C124.743 139.798 124.378 140.55 124.616 141.239L126.161 145.709C126.399 146.398 127.151 146.764 127.84 146.526L136.781 143.435C137.47 143.197 137.835 142.445 137.597 141.756L136.052 137.286C135.814 136.597 135.062 136.231 134.373 136.469Z" stroke="#683F1D" stroke-linecap="round" stroke-linejoin="round"/>
<path d="M141.168 134.468L148.998 131.758C149.314 131.65 149.66 131.671 149.96 131.818C150.26 131.964 150.489 132.223 150.598 132.538L152.178 137.128C152.287 137.443 152.267 137.787 152.123 138.087C151.979 138.387 151.722 138.617 151.408 138.728L145.018 140.928" stroke="#683F1D" stroke-linecap="round" stroke-linejoin="round"/>
<path d="M152.598 159.258C152.59 160.436 152.456 161.609 152.198 162.758C149.708 173.548 136.698 177.228 125.008 166.758C115.138 157.928 112.328 143.118 112.328 143.118C112.325 143.099 112.325 143.078 112.328 143.058C112.965 143.161 113.585 143.353 114.168 143.628C114.168 143.628 116.688 150.398 121.758 154.518C123.998 156.348 126.088 157.318 128.158 157.338C133.568 163.448 137.638 165.338 142.578 164.658C146.458 164.12 150.015 162.203 152.598 159.258Z" fill="#B57724"/>
<path d="M131.838 171.298C139.588 167.488 145.678 166.878 149.748 168.028" stroke="#9B621F" stroke-width="0.75" stroke-linecap="round" stroke-linejoin="round"/>
<path d="M125.668 167.358C132.238 163.798 144.668 162.978 151.788 164.148" stroke="#9B621F" stroke-width="0.75" stroke-linecap="round" stroke-linejoin="round"/>
<path d="M116.188 154.468C122.948 164.758 140.898 160.698 144.938 158.308C148.768 156.028 148.488 150.088 146.528 146.898" stroke="#9B621F" stroke-width="0.75" stroke-linecap="round" stroke-linejoin="round"/>
<path d="M136.599 138.728L139.399 137.728" stroke="#683F1D" stroke-linecap="round" stroke-linejoin="round"/>
<path d="M149.659 130.548C148.519 131.848 151.239 134.488 155.359 135.898C157.81 136.739 160.017 138.167 161.789 140.058C161.789 140.058 160.839 145.718 164.159 147.728C164.159 147.728 162.689 149.488 161.739 148.248C160.789 147.008 158.819 140.508 155.139 140.928C152.599 141.218 156.439 148.548 156.989 151.418C157.539 154.288 159.209 158.318 162.689 159.998C166.169 161.678 169.799 171.788 169.799 171.788C169.799 171.788 183.859 166.678 183.909 166.558C183.959 166.438 182.019 161.558 182.019 161.558C182.019 161.558 182.409 154.448 182.359 149.168C182.309 143.888 180.519 139.958 176.279 139.828C176.279 139.828 176.709 137.208 173.399 136.958C173.399 136.958 173.179 132.958 166.399 135.028C166.419 135.048 152.099 127.758 149.659 130.548Z" fill="#FEBD9D"/>
<path d="M168.268 176.678C168.068 176.388 167.028 170.228 167.028 170.228L184.218 164.678L187.218 171.678L168.268 176.678Z" fill="white"/>
<path d="M176.278 139.848C176.278 139.848 176.709 137.228 173.399 136.978C173.399 136.978 173.179 132.978 166.399 135.048C166.399 135.048 152.078 127.758 149.638 130.548C148.498 131.848 151.219 134.488 155.339 135.898C157.79 136.739 159.997 138.167 161.768 140.058C161.768 140.058 160.818 145.718 164.138 147.728C164.138 147.728 162.668 149.488 161.718 148.248C160.768 147.008 158.799 140.508 155.119 140.928C152.579 141.218 156.418 148.548 156.968 151.418C157.518 154.288 159.189 158.318 162.669 159.998" stroke="#EF8A66" stroke-width="0.75" stroke-linecap="round" stroke-linejoin="round"/>
<path d="M161.929 148.448C163.299 149.328 170.629 150.028 170.999 155.618" stroke="#EF8A66" stroke-width="0.75" stroke-linecap="round" stroke-linejoin="round"/>
<path d="M164.159 147.728C164.551 147.915 164.982 148.003 165.416 147.985C165.85 147.968 166.273 147.846 166.649 147.628" stroke="#EF8A66" stroke-width="0.75" stroke-linecap="round" stroke-linejoin="round"/>
<path d="M161.789 140.058C162.157 138.942 162.761 137.917 163.56 137.055C164.358 136.192 165.333 135.511 166.419 135.058" stroke="#EF8A66" stroke-width="0.75" stroke-linecap="round" stroke-linejoin="round"/>
<path d="M173.228 136.958C167.158 139.088 166.148 143.549 166.418 146.089C166.688 148.629 167.788 149.638 169.228 149.418C169.6 149.327 169.941 149.138 170.215 148.871C170.489 148.603 170.687 148.268 170.788 147.898" stroke="#EF8A66" stroke-width="0.75" stroke-linecap="round" stroke-linejoin="round"/>
<path d="M176.278 139.849C174.793 139.998 173.41 140.676 172.382 141.758C171.355 142.841 170.75 144.257 170.678 145.749C170.358 149.389 172.318 150.218 173.678 149.398C175.178 148.448 176.678 144.978 176.678 144.978" stroke="#EF8A66" stroke-width="0.75" stroke-linecap="round" stroke-linejoin="round"/>
<path d="M209.778 272.148C207.928 300.148 177.718 295.298 175.018 258.238C175.018 258.238 172.948 233.688 170.948 213.428C169.948 203.428 168.948 194.428 168.268 189.968L166.188 175.798L193.078 167.798C193.078 167.798 198.368 188.918 202.998 214.478C204.918 225.098 206.728 236.478 207.998 247.418C209.027 255.625 209.622 263.88 209.778 272.148Z" fill="#A7CAF0"/>
<path d="M175.019 258.238C175.019 258.238 172.949 233.688 170.949 213.428C169.949 203.428 168.949 194.429 168.269 189.969" stroke="#83ADDF" stroke-width="0.75" stroke-linecap="round" stroke-linejoin="round"/>
<path d="M216.198 254.958C216.268 254.728 221.278 247.058 225.988 245.078C230.698 243.098 236.848 240.078 238.828 237.288C240.808 234.498 244.828 234.448 242.318 239.998C239.808 245.549 236.928 246.599 236.928 246.599C236.928 246.599 249.758 242.808 257.278 241.288C264.798 239.768 267.148 243.108 259.408 245.998C255.094 247.552 250.924 249.483 246.948 251.768C246.948 251.768 260.008 250.098 265.398 250.168C270.788 250.238 272.398 253.168 265.098 254.958C270.038 255.028 270.798 257.839 264.948 259.129C259.098 260.419 249.228 262.958 249.228 262.958C249.228 262.958 259.638 262.278 263.848 262.958C268.058 263.638 265.848 266.958 260.168 267.588C254.488 268.218 224.168 273.658 219.458 272.978L216.198 254.958Z" fill="#FEBD9D"/>
<path d="M232.028 242.218C235.028 240.658 237.648 238.908 238.828 237.218C240.828 234.458 244.828 234.378 242.318 239.928C239.808 245.478 236.928 246.528 236.928 246.528C236.928 246.528 249.758 242.738 257.278 241.218C264.798 239.698 267.148 243.038 259.408 245.928C255.094 247.482 250.924 249.413 246.948 251.698C246.948 251.698 260.008 250.029 265.398 250.099C270.788 250.169 272.398 253.098 265.098 254.888C270.038 254.958 270.798 257.768 264.948 259.058C259.098 260.348 249.228 262.958 249.228 262.958C249.228 262.958 259.638 262.278 263.848 262.958C268.058 263.638 265.848 266.958 260.168 267.588" stroke="#EF8A66" stroke-width="0.75" stroke-linecap="round" stroke-linejoin="round"/>
<path d="M207.999 252.568L217.109 250.138L222.729 275.578L215.359 278.008L207.999 252.568Z" fill="white"/>
<path d="M232.139 248.168L236.929 246.568" stroke="#EF8A66" stroke-width="0.75" stroke-linecap="round" stroke-linejoin="round"/>
<path d="M247.758 257.428L265.098 254.928" stroke="#EF8A66" stroke-width="0.75" stroke-linecap="round" stroke-linejoin="round"/>
<path d="M219.138 280.058C219.138 280.058 192.338 291.168 169.728 301.258C164.168 303.748 158.868 306.168 154.268 308.338C130.998 319.388 121.118 324.338 105.178 318.458C93.8784 314.278 82.1784 296.028 68.0484 270.398C62.2684 259.898 56.1084 248.168 49.3984 235.658C46.0584 222.868 67.0184 213.658 81.5784 215.938C81.6484 215.938 86.0284 215.938 90.7184 220.938C96.3084 226.858 124.268 274.588 124.268 274.588C133.268 270.228 211.388 247.468 211.388 247.468L219.138 280.058Z" fill="#A7CAF0"/>
<path d="M169.728 301.258C164.168 303.748 158.868 306.168 154.268 308.338C130.998 319.388 121.118 324.338 105.178 318.458C93.8783 314.278 82.1783 296.028 68.0483 270.398C75.4183 268.658 84.1483 269.668 87.7183 281.658C94.5583 304.658 110.718 316.138 127.268 301.378C140.188 289.878 161.668 287.508 169.728 301.258Z" fill="#93BEE5"/>
<path d="M81.5985 215.958C81.5985 215.958 86.0185 215.958 90.7385 220.958C96.3285 226.888 124.288 274.618 124.288 274.618C133.288 270.248 211.408 247.499 211.408 247.499L219.158 280.089C219.158 280.089 177.558 297.328 154.288 308.368C131.018 319.408 121.148 324.368 105.208 318.478C91.7885 313.538 77.7785 288.768 59.9185 255.358" stroke="#83ADDF" stroke-width="0.75" stroke-linecap="round" stroke-linejoin="round"/>
<path d="M114.148 283.518C114.148 283.518 118.348 276.869 124.268 274.589" stroke="#83ADDF" stroke-width="0.75" stroke-linecap="round" stroke-linejoin="round"/>
<path d="M404.27 312.1C404.626 322.108 404.335 332.129 403.4 342.1C401.86 359 400.75 373.24 402.9 384.1H517.13C517.13 384.1 521.55 368.1 515.48 335.63C509.41 303.16 501.13 286.72 498.48 281.09L404.27 312.1Z" fill="#FFE05C"/>
<path d="M498.34 281.27C495.73 284.63 485.2 296.36 459.45 305.05L458.25 305.45C452.127 307.474 445.906 309.187 439.61 310.58C414.78 316.04 402.91 312.58 402.91 312.58C402.58 304.7 399.18 297.22 396.52 292.5C395.552 290.772 394.484 289.102 393.32 287.5C392.775 292.055 391.815 296.55 390.45 300.93C387.92 309.03 382.65 315.78 382.92 316.05C369.59 336.27 345.34 304.45 351.21 275.48C351.21 275.48 357.95 247.95 363.21 226.89C363.95 223.89 364.71 221.34 365.5 219.1C370.34 205.41 376.28 203.93 385.19 199.84C390.08 197.73 401.74 195.78 401.74 195.78C402.497 194.07 403.588 192.528 404.948 191.243C406.308 189.959 407.909 188.959 409.66 188.3L409.37 186.3C411.02 186.09 412.75 185.86 414.53 185.6L417.62 185.14L417.98 185.08L419.47 184.85C421.28 184.56 423.13 184.24 424.97 183.9L426.7 183.58L428 183.32C434.582 182.126 441.042 180.336 447.3 177.97C448.11 177.64 448.92 177.34 449.71 177.08L450.43 176.84L450.97 176.68L451.86 176.43C452.16 176.34 452.46 176.27 452.76 176.2L453.22 176.09L454.22 175.89L454.56 175.82L455.56 175.66L456 175.6H456.17C456.51 175.547 456.843 175.507 457.17 175.48L458.24 175.4H458.54H459.72C469.13 175.4 477.09 180.48 482 190.73C483.852 194.725 485.176 198.943 485.94 203.28C490.53 227.71 487.43 252.68 487.43 252.68L498.6 279.27C498.738 279.596 498.786 279.954 498.74 280.305C498.695 280.657 498.557 280.989 498.34 281.27Z" fill="#C3DCF8"/>
<path d="M481.98 190.66C462.9 188.54 445.1 203.14 437.07 218.66C426.67 238.76 401.59 240.36 392.91 231.16C387.07 224.96 377.38 216.75 365.51 219.05C370.35 205.36 376.29 203.88 385.2 199.79C390 197.72 401.31 195.79 401.74 195.74C402.497 194.03 403.588 192.488 404.948 191.204C406.307 189.919 407.909 188.919 409.66 188.26L409.37 186.26C411.02 186.05 412.75 185.82 414.53 185.56L417.62 185.1L417.98 185.04L419.47 184.81C421.28 184.52 423.13 184.2 424.97 183.86L426.7 183.54L428 183.28C433.676 182.214 439.269 180.751 444.74 178.9C445.63 178.59 446.48 178.26 447.3 177.9C448.12 177.54 448.92 177.27 449.71 177.01L450.43 176.77L450.97 176.61L451.86 176.36C452.16 176.27 452.46 176.2 452.76 176.13L453.22 176.02L454.22 175.82L454.56 175.75L455.56 175.59L456 175.53H456.17C456.51 175.477 456.843 175.437 457.17 175.41L458.24 175.33H458.54H459.72C469.11 175.33 477.07 180.41 481.98 190.66Z" fill="#D0E5F7"/>
<path d="M393.32 287.44C393.2 288.44 393.07 289.44 392.91 290.34C392.42 289.79 377.24 272.57 358.2 271.18C361.76 269.04 366.78 266.62 370.27 267.45C376.27 268.87 369.27 240.45 381.88 232.62C380.32 239.1 377.68 249.39 378.27 258.39C379.19 271.92 387.39 279.92 393.32 287.44Z" fill="#A7CAF0"/>
<path d="M460.19 299.66C460.088 301.457 459.84 303.243 459.45 305L458.25 305.4C452.127 307.424 445.906 309.137 439.61 310.53L438.86 309.89C425.69 298.36 438.86 290.33 435.52 271.11C431.75 249.43 437.87 237.27 442.32 231.6C441.055 242.572 440.387 253.605 440.32 264.65C440.52 281.26 441.77 287.28 444.32 288.97C447.64 290.87 452.94 292.32 458.97 292.97L460.19 299.66Z" fill="#A7CAF0"/>
<path d="M445.05 185.15C444.791 193.67 441.593 201.838 436 208.27C433.67 204.74 429.33 199.94 426.41 200.21C418.41 200.94 417.14 214.37 417.14 214.37C417.14 214.37 414.14 200.37 410.48 201.59C405.3 203.3 400.64 214.84 400.64 214.84C399.186 208.484 399.568 201.847 401.74 195.7C402.497 193.99 403.588 192.448 404.948 191.163C406.307 189.879 407.909 188.879 409.66 188.22L409.37 186.22C411.02 186.01 412.75 185.78 414.53 185.52L417.62 185.06L417.98 185L419.47 184.77C421.28 184.48 423.13 184.16 424.97 183.82L426.7 183.5L428 183.24C433.675 182.174 439.269 180.71 444.74 178.86C444.977 180.948 445.08 183.049 445.05 185.15Z" fill="#83ADDF"/>
<path d="M481.94 291.52C478.048 305.552 473.07 319.26 467.05 332.52C456.87 355.13 436.38 392.68 436.38 392.68L417.28 390.01C417.28 390.01 427.6 360.86 431.28 342.28C433.18 332.66 436.19 320.36 438.85 309.87C441.34 300.1 443.53 291.87 444.26 288.95C447.58 290.85 452.88 292.3 458.91 292.95C466.608 293.912 474.419 293.427 481.94 291.52Z" fill="#B25E47"/>
<path d="M481.94 291.52C484.94 288.36 487.41 252.61 487.41 252.61" stroke="#83ADDF" stroke-width="0.75" stroke-linecap="round" stroke-linejoin="round"/>
<path d="M446.33 205.27C446.33 205.27 445.33 213.14 444.27 217.61C443.82 219.42 443.06 224.76 442.27 231.61C441.005 242.582 440.337 253.615 440.27 264.66C440.47 281.27 441.72 287.29 444.27 288.98" stroke="#83ADDF" stroke-width="0.75" stroke-linecap="round" stroke-linejoin="round"/>
<path d="M440.69 275.72C450.284 280.352 461.109 281.793 471.58 279.83" stroke="#83ADDF" stroke-width="0.75" stroke-linecap="round" stroke-linejoin="round"/>
<path d="M472.4 293.2C472.66 286.32 474.98 273.2 478.75 268.41C482.93 263.1 486.15 267.33 486.15 267.33" stroke="#83ADDF" stroke-width="0.75" stroke-linecap="round" stroke-linejoin="round"/>
<path d="M478.9 275.36C478.898 275.794 479.025 276.219 479.265 276.58C479.505 276.942 479.847 277.224 480.247 277.391C480.648 277.558 481.089 277.602 481.515 277.518C481.94 277.434 482.332 277.225 482.638 276.918C482.945 276.612 483.154 276.22 483.238 275.795C483.322 275.369 483.278 274.928 483.111 274.527C482.944 274.127 482.662 273.785 482.3 273.545C481.939 273.305 481.514 273.178 481.08 273.18C480.503 273.183 479.95 273.413 479.541 273.821C479.133 274.23 478.903 274.783 478.9 275.36Z" fill="#83ADDF"/>
<path d="M417.29 206.9C417.93 211.45 417.69 212.8 415.96 218.82C414.23 224.84 409.9 244.18 413.07 257.92C416.45 272.59 424.57 289.92 424.32 294.92C424.07 299.92 422.41 309.62 431.65 312.07" stroke="#83ADDF" stroke-width="0.75" stroke-linecap="round" stroke-linejoin="round"/>
<path d="M392.91 290.35C392.42 289.8 377.24 272.58 358.2 271.19C357.77 271.19 357.35 271.13 356.93 271.12" stroke="#83ADDF" stroke-width="0.75" stroke-linecap="round" stroke-linejoin="round"/>
<path d="M382.58 222.51C382.804 223.97 382.938 225.443 382.98 226.92C382.786 228.849 382.418 230.757 381.88 232.62C380.32 239.1 377.68 249.39 378.27 258.39C379.16 271.92 387.39 279.92 393.27 287.44" stroke="#83ADDF" stroke-width="0.75" stroke-linecap="round" stroke-linejoin="round"/>
<path d="M296.31 251.66C291.36 251.9 289.66 251.17 285.52 248.74C281.38 246.31 275.71 238.74 274.57 227L287.96 220.1C287.96 220.1 306.77 243.8 296.31 251.66Z" fill="#B25E47"/>
<path d="M269.79 228.92C270.79 235.56 272.14 238.41 273.7 238.24C275.26 238.07 276.62 234.24 274.57 227L269.79 228.92Z" fill="#B25E47" stroke="#934735" stroke-miterlimit="10"/>
<path d="M274.86 227.45C275.86 234.09 277.2 236.94 278.76 236.77C280.32 236.6 281.68 232.77 279.64 225.53L274.86 227.45Z" fill="#B25E47" stroke="#934735" stroke-miterlimit="10"/>
<path d="M223.24 152.45L280.67 129.25L317.3 208.29L265.34 234.34L223.24 152.45Z" fill="#EDEDED" stroke="#EDEDED" stroke-width="2" stroke-linecap="round" stroke-linejoin="round"/>
<path d="M230.73 152.45L288.17 129.25L317.3 208.29L269.35 227.57L230.73 152.45Z" fill="#F9F9F9" stroke="#E0B9B9" stroke-width="2" stroke-linecap="round" stroke-linejoin="round"/>
<path d="M289.03 225.98C281.75 219.77 277.03 209.27 279.83 207.88C281.97 206.82 287.32 212.81 292.03 215.06C296.012 217.069 299.321 220.197 301.55 224.06C302.62 226.31 307.76 235.83 310.11 237.33C312.46 238.83 345.42 262.16 351.2 265.69C356.98 269.22 383.74 286.45 385.2 304.86C386.66 323.27 366.39 329.27 354.1 320.59C344.79 314.04 298.77 254.87 296.31 251.66C296.31 251.66 299.58 244.29 293.14 240C289.35 237.47 287.85 232.27 289.03 225.98Z" fill="#B25E47"/>
<path d="M293.19 240C289.4 237.47 287.9 232.29 289.08 226C281.8 219.79 277.08 209.29 279.88 207.9C282.02 206.84 287.37 212.83 292.08 215.08C296.062 217.089 299.371 220.217 301.6 224.08C302.18 225.29 303.93 228.6 305.79 231.64" stroke="#934735" stroke-width="0.75" stroke-linecap="round" stroke-linejoin="round"/>
<path d="M409.67 188.27C409.88 189.161 409.88 190.089 409.67 190.98C409.67 190.98 408.82 192.2 411.11 195.63C412.883 198.18 415.27 200.244 418.05 201.63C418.73 201.78 432.83 193.93 435.05 184.33C435.05 184.33 428.88 166.65 433.53 163.45C438.18 160.25 444.96 137.23 424.46 143.18C424.46 143.18 420.56 124.66 407.8 125.95C395.04 127.24 390.38 139.51 388.19 151.7C386 163.89 391.77 184.24 401.38 183.4L409.67 188.27Z" fill="#B25E47"/>
<path d="M395.1 154.78C394.1 156.78 391.24 157.31 388.76 156.02C386.28 154.73 385.09 152.09 386.11 150.12C387.13 148.15 389.98 147.59 392.46 148.88C394.94 150.17 396.13 152.81 395.1 154.78Z" fill="#A0503D"/>
<path d="M408.4 179.73C410.784 179.09 412.892 177.684 414.4 175.73C414.4 175.73 418.69 183.18 408.05 186.4C408.08 186.4 405.67 180.27 408.4 179.73Z" fill="#914839"/>
<path d="M458.91 171.99C458.67 173.81 452.01 175.83 453.83 178.64C455.83 181.72 453.54 185.78 448.15 183.04C443.5 180.69 441.51 181.54 439.75 185.16C437.99 188.78 434.32 185.23 430.88 185.41C427.44 185.59 423.65 184.62 423.88 180.81C424.11 177 430.18 175.81 427.7 172.23C425.22 168.65 423.7 165.64 427.94 159.67C427.94 159.67 435.56 157.67 435.44 151.09C435.32 144.51 427.34 144.26 424.62 148.91C424.62 148.91 419.73 144.26 418.52 139.48C417.52 135.48 416.29 131.84 414.74 130.15C414.474 129.846 414.156 129.592 413.8 129.4C413.8 129.4 402.87 124.51 397.62 134.72C392.37 144.93 389.62 163.6 393.09 171.2C394.374 174.095 396.565 176.493 399.332 178.032C402.1 179.571 405.293 180.167 408.43 179.73L408.97 183.38L409.7 188.24C407.949 188.899 406.347 189.899 404.988 191.184C403.628 192.468 402.537 194.01 401.78 195.72C401.78 195.72 390.09 197.67 385.19 199.78C385.19 199.78 383.8 195.44 379.63 194.17C375.46 192.9 370.21 191.57 369.73 185.65C369.25 179.73 360.61 181.27 358.68 175.27C356.75 169.27 360.85 165.37 363.51 163.67C366.17 161.97 369.13 158.54 367.14 154.55C365.15 150.56 367.08 146.82 371.55 143.86C376.02 140.9 375.33 137.66 375.45 134.3C375.59 130.09 378.45 128.89 381.27 126.76C384.35 124.46 380.01 117.63 388.77 116.43C393.61 115.76 394.29 114.68 397.89 111.71C400.61 109.48 405.14 113.29 409.89 110.81C414.64 108.33 417.14 107.31 421.5 111.96C425.86 116.61 432.23 114.29 433.01 120.87C433.77 127.2 430.78 128.51 430.56 128.69C430.8 128.69 439.22 128.75 441.19 136.37C443.16 143.99 439.68 145.49 444.51 150.37C449.34 155.25 451.45 157.66 449.19 161.54C447.92 163.71 448.44 166.68 453.09 167.54C457.74 168.4 459.19 170.18 458.91 171.99Z" fill="#604730"/>
<path d="M397.59 134.72C392.33 144.93 389.59 163.6 393.06 171.2C394.343 174.095 396.535 176.493 399.302 178.032C402.07 179.571 405.263 180.167 408.4 179.73L408.94 183.38C405.38 190.61 395.85 192.57 390.08 191.07C382.46 189.07 388.08 184.65 380.67 181.78C371.9 178.39 380.37 170.29 378.8 168.61C377.23 166.93 374.72 164.12 377.44 160.26C380.16 156.4 386.44 156.18 385.9 151.48C385.36 146.78 386.53 145.21 389.77 143.33C395.77 139.86 394.77 134.24 393.63 131C392.49 127.76 395.19 120.27 403.24 119.51C409.97 118.9 413.24 122.75 414.71 130.15C414.444 129.846 414.125 129.592 413.77 129.4C413.77 129.4 402.84 124.51 397.59 134.72Z" fill="#473526"/>
<path d="M414.71 130.15C413.27 122.75 409.97 118.9 403.24 119.51C395.24 120.25 392.49 127.77 393.63 131C394.77 134.23 395.75 139.86 389.77 143.33C386.53 145.21 385.38 146.78 385.9 151.48C386.42 156.18 380.3 156.48 377.44 160.26C375.524 162.647 374.303 165.515 373.91 168.55" stroke="#896442" stroke-width="0.75" stroke-linecap="round" stroke-linejoin="round"/>
<path d="M391.58 164.27C388.76 165.27 386.58 167.69 386.98 170.06C387.46 173 386.56 173.91 384.75 174.45C382.94 174.99 381.14 174.81 380.23 178C379.964 179.087 379.787 180.194 379.7 181.31C379.52 182.91 379.27 184.18 377.7 185.11" stroke="#896442" stroke-width="0.75" stroke-linecap="round" stroke-linejoin="round"/>
<path d="M420.04 129.91C422.578 129.192 425.187 128.749 427.82 128.59" stroke="#896442" stroke-width="0.75" stroke-linecap="round" stroke-linejoin="round"/>
<path d="M386.93 186.4C388.06 183 391.99 185.18 392.25 181.51C392.325 180.223 392.88 179.012 393.806 178.115C394.732 177.219 395.961 176.703 397.25 176.67" stroke="#896442" stroke-width="0.75" stroke-linecap="round" stroke-linejoin="round"/>
<path d="M426.92 153.89C428.04 150.54 431.39 149.82 432.22 150.32" stroke="#934735" stroke-width="0.75" stroke-linecap="round" stroke-linejoin="round"/>
<path d="M427.54 152.6C430.79 151.6 431.48 156.25 428.17 155.94" stroke="#934735" stroke-width="0.75" stroke-linecap="round" stroke-linejoin="round"/>
<path d="M405.74 137.1C405.3 138.62 407.58 139.25 409.04 138.9C410.5 138.55 411.25 139.68 411.9 139.06C412.55 138.44 411 136.42 409.24 135.77C408.923 135.625 408.581 135.545 408.233 135.533C407.885 135.522 407.538 135.579 407.212 135.703C406.886 135.827 406.588 136.014 406.336 136.254C406.083 136.494 405.881 136.781 405.74 137.1Z" fill="#604730"/>
<path d="M401.62 137.6C402.2 138.84 400.34 139.68 399.04 139.6C397.74 139.52 397.26 140.6 396.63 140.12C396 139.64 397.03 137.75 398.45 136.96C398.699 136.792 398.98 136.675 399.275 136.616C399.57 136.557 399.874 136.557 400.169 136.616C400.464 136.676 400.744 136.794 400.993 136.962C401.242 137.131 401.455 137.348 401.62 137.6Z" fill="#604730"/>
<path d="M406.44 148.62C407.18 148.62 407.78 148.02 407.78 147.28C407.78 146.54 407.18 145.94 406.44 145.94C405.7 145.94 405.1 146.54 405.1 147.28C405.1 148.02 405.7 148.62 406.44 148.62Z" fill="#683F1D"/>
<path d="M397.26 147.9C398 147.9 398.6 147.3 398.6 146.56C398.6 145.82 398 145.22 397.26 145.22C396.52 145.22 395.92 145.82 395.92 146.56C395.92 147.3 396.52 147.9 397.26 147.9Z" fill="#683F1D"/>
<path d="M399.79 156.37C397.79 155.16 395.79 152.45 398.45 151.63C401.11 150.81 401.96 149.63 402.04 142.85" stroke="#934735" stroke-width="0.75" stroke-linecap="round" stroke-linejoin="round"/>
<path d="M403.72 163.48C406.72 162.58 406.72 157.54 406.72 157.54C404.301 158.957 401.773 160.177 399.16 161.19C399.16 161.19 400.44 164.46 403.72 163.48Z" fill="white" stroke="#934735" stroke-width="0.75" stroke-linecap="round" stroke-linejoin="round"/>
<path d="M427.91 159.67C426.751 159.74 425.589 159.74 424.43 159.67" stroke="#934735" stroke-width="0.75" stroke-linecap="round" stroke-linejoin="round"/>
<path d="M408.36 154.98C409.36 156.98 412.22 157.51 414.7 156.22C417.18 154.93 418.37 152.29 417.35 150.32C416.33 148.35 413.48 147.79 411 149.08C408.52 150.37 407.33 153.01 408.36 154.98Z" fill="#A0503D"/>
<path d="M537.89 341.95H-117.52C-123.479 341.95 -128.31 346.781 -128.31 352.74V353.73C-128.31 359.689 -123.479 364.52 -117.52 364.52H537.89C543.849 364.52 548.68 359.689 548.68 353.73V352.74C548.68 346.781 543.849 341.95 537.89 341.95Z" fill="#E0B9B9"/>
<path d="M-32.8101 341.95C-20.4001 355.9 -11.8101 357.64 -7.62006 354.05C-3.20006 350.23 1.37994 349.2 6.04994 353.23C11.4799 357.9 19.0499 348.43 23.3099 341.95" fill="#E0B9B9"/>
<path d="M-32.8101 341.95C-20.4001 355.9 -11.8101 357.64 -7.62006 354.05C-3.20006 350.23 1.37994 349.2 6.04994 353.23C11.4799 357.9 19.0499 348.43 23.3099 341.95" stroke="#E0B9B9" stroke-width="0.75" stroke-linecap="round" stroke-linejoin="round"/>
<path d="M15.5801 364.52C20.5801 359.89 29.5801 354.17 43.4501 353.23C59.9501 352.12 80.9301 359.76 92.1701 364.52" fill="#E0B9B9"/>
<path d="M15.5801 364.52C20.5801 359.89 29.5801 354.17 43.4501 353.23C59.9501 352.12 80.9301 359.76 92.1701 364.52" stroke="#E0B9B9" stroke-width="0.75" stroke-linecap="round" stroke-linejoin="round"/>
<path d="M70.4502 341.95C89.8102 352.1 110.97 358.05 128.06 353.23C144.75 348.54 184.59 354.37 199.06 341.95" fill="#E0B9B9"/>
<path d="M70.4502 341.95C89.8102 352.1 110.97 358.05 128.06 353.23C144.75 348.54 184.59 354.37 199.06 341.95" stroke="#E0B9B9" stroke-width="0.75" stroke-linecap="round" stroke-linejoin="round"/>
<path d="M143.88 364.52C156.28 357.45 175.6 353.14 190.66 364.52Z" fill="#E0B9B9"/>
<path d="M143.88 364.52C156.28 357.45 175.6 353.14 190.66 364.52" stroke="#E0B9B9" stroke-width="0.75" stroke-linecap="round" stroke-linejoin="round"/>
<path d="M211.98 364.52C234.98 346.59 281.05 343.32 319.48 353.12C364.95 364.72 385.36 351.34 393.63 341.95" fill="#E0B9B9"/>
<path d="M211.98 364.52C234.98 346.59 281.05 343.32 319.48 353.12C364.95 364.72 385.36 351.34 393.63 341.95" stroke="#E0B9B9" stroke-width="0.75" stroke-linecap="round" stroke-linejoin="round"/>
<path d="M253.41 364.52C270.1 357.01 292.58 355.47 316.26 364.52Z" fill="#E0B9B9"/>
<path d="M253.41 364.52C270.1 357.01 292.58 355.47 316.26 364.52" stroke="#E0B9B9" stroke-width="0.75" stroke-linecap="round" stroke-linejoin="round"/>
<path d="M398.93 364.52C426.87 351.52 449.24 353.01 469.93 364.52Z" fill="#E0B9B9"/>
<path d="M398.93 364.52C426.87 351.52 449.24 353.01 469.93 364.52" stroke="#E0B9B9" stroke-width="0.75" stroke-linecap="round" stroke-linejoin="round"/>
<path d="M438.34 341.95C484.39 357.41 522.5 369.39 547.6 348.4Z" fill="#E0B9B9"/>
<path d="M438.34 341.95C484.39 357.41 522.5 369.39 547.6 348.4" stroke="#E0B9B9" stroke-width="0.75" stroke-linecap="round" stroke-linejoin="round"/>
<path d="M475.08 341.95C498.45 355.67 525.75 354.64 542.54 343.19Z" fill="#E0B9B9"/>
<path d="M475.08 341.95C498.45 355.67 525.75 354.64 542.54 343.19" stroke="#E0B9B9" stroke-width="0.75" stroke-linecap="round" stroke-linejoin="round"/>
</svg>
