<svg width="454" height="500" viewBox="0 0 454 500" fill="none" xmlns="http://www.w3.org/2000/svg">
<g clip-path="url(#clip0_77_13)">
<path d="M272.539 283.584C272.769 287.584 273.231 291.918 273.949 296.405C279.385 331.661 298.846 382.302 320.436 413.2C324.763 419.583 329.757 425.488 335.333 430.815C352.333 446.43 379.359 449.379 398.231 438.507C403.928 435.226 408.782 430.663 412.409 425.18C416.037 419.697 418.337 413.444 419.128 406.918C419.948 401.259 420.017 395.517 419.333 389.841C415.718 357.815 393.897 302.943 367.564 263.354C364.564 258.789 361.487 254.43 358.359 250.354C343.487 230.866 327.744 217.277 313.359 215.789C310.385 215.451 307.373 215.686 304.487 216.482C280.667 223.251 270.41 241.995 272.539 283.584Z" fill="#FED81D"/>
<path d="M316.179 302.692C323.414 327.549 326.311 353.467 324.744 379.307C323.933 390.711 322.495 402.062 320.436 413.307C324.763 419.691 329.756 425.596 335.333 430.923C352.333 446.538 379.359 449.487 398.231 438.615C403.94 435.324 408.803 430.745 412.431 425.243C416.059 419.741 418.352 413.468 419.128 406.923C402.359 424.872 384.82 428.743 370.923 424.205C350.897 417.743 338.308 393.949 346.051 369.564C359.615 326.743 329 302.256 314.385 295.205C314.872 297.615 315.538 300.154 316.179 302.692Z" fill="#FCC71F"/>
<path d="M272.538 283.59C272.769 287.59 273.231 291.923 273.949 296.41C276.461 292.71 278.527 288.725 280.103 284.538C287.513 264.769 300.846 253.641 315.641 248.821C329.634 244.46 344.691 244.966 358.359 250.256C343.487 230.769 327.744 217.18 313.359 215.692C310.385 215.354 307.373 215.589 304.487 216.385C280.667 223.256 270.41 242 272.538 283.59Z" fill="#FFE05C"/>
<path d="M215.744 249.641C242.692 252.923 248.487 231.333 248.667 200.487C248.667 193.231 248.436 185.462 248.026 177.41C247.811 172.639 247.297 167.886 246.487 163.18C237.308 110.641 193.821 117.026 191.59 147.949C190.718 159.667 182.436 245.59 215.744 249.641Z" fill="#B25E47"/>
<path d="M216.385 168.103C217.821 188.846 232.744 199.513 248.641 200.487C248.641 193.231 248.41 185.462 248 177.41C247.785 172.639 247.272 167.886 246.462 163.18C237.718 159.385 215.256 151.282 216.385 168.103Z" fill="#914839"/>
<path d="M112.052 372.461C113.463 377.209 114.585 382.039 115.411 386.923C115.641 388.256 115.872 389.487 116.077 390.897C124.334 442.384 125.359 490.102 125.923 495.051C126.487 500 172.59 498.307 206.872 496.641C220.231 495.974 237.487 496.154 253.795 496.282C279.436 496.487 302.513 496.538 304.359 492.923C305.59 490.589 308.897 476.872 312.487 459.282C313.051 456.564 313.641 453.743 314.205 450.872C314.487 449.436 314.795 447.974 315.051 446.513C315.308 445.051 315.692 443.154 316.026 441.384C316.359 439.615 316.692 437.795 317.051 435.974C317.769 431.974 318.513 427.897 319.205 423.872C319.897 419.846 320.538 415.872 321.154 411.974C323.076 400.71 324.402 389.352 325.128 377.949C326.4 352.087 323.225 326.199 315.744 301.41C315.538 300.769 315.359 300.154 315.205 299.513C314.923 298.436 314.667 297.359 314.41 296.282C314.256 295.718 314.154 295.154 314.026 294.59C313.897 294.026 313.795 293.461 313.692 292.897C313.59 292.333 313.461 291.769 313.359 291.205C313.256 290.641 313.179 290.103 313.103 289.538C312.923 288.436 312.769 287.333 312.641 286.256C312.333 283.692 312.102 280.949 312 278.385C312 278.026 312 277.667 312 277.333C312 275.513 312 273.718 312 271.949C312.193 263.782 313.103 255.648 314.718 247.641C317.282 233.974 320.897 223.718 320.026 219C319.615 216.667 317.179 215.282 312.974 214.667C312.684 214.643 312.393 214.643 312.103 214.667C301.846 213.436 281.692 216.385 254.462 222.026C253.867 215.904 252.856 209.83 251.436 203.846C251.168 202.913 250.596 202.096 249.811 201.525C249.026 200.953 248.073 200.66 247.103 200.692C243.463 200.804 239.838 201.19 236.256 201.846C229.718 202.462 207.436 198.385 195.975 192.359C193.665 191.036 191.123 190.166 188.487 189.795C183 189.308 181.103 193.641 180.385 199.539V200.308C180.385 200.59 180.385 200.872 180.385 201.154C180.385 201.436 180.385 202.231 180.257 202.795C180.128 203.359 180.257 203.641 180.257 204.077V205.821C180.257 206.513 180.257 207.205 180.257 207.923V209.949C180.257 210.282 180.257 210.615 180.257 210.974C180.257 211.333 180.257 211.564 180.257 211.846C180.257 212.128 180.257 212.641 180.257 213.051C180.257 213.462 180.257 214.051 180.257 214.538C180.257 215.026 180.257 215.513 180.257 216V216.949C180.257 221.231 180.257 224.462 180.257 224.462C159.564 216.615 128.334 208.615 104.693 223.154C96.9914 228.032 90.6215 234.746 86.1542 242.692C84.9355 244.745 83.8229 246.859 82.8209 249.026C62.6158 291 98.5644 326.692 112.052 372.461Z" fill="#FED81D"/>
<path d="M85.4103 242.692C105.385 245.128 127.718 258.077 148.718 283.026C151.974 286.897 155.18 291.026 158.385 295.487C192.103 342.692 250.846 330.179 273.462 295.743C275.921 292.017 277.934 288.016 279.461 283.82C286.692 263.949 299.974 252.692 314.641 247.718C317.205 234.051 320.82 223.795 319.949 219.077C319.538 216.744 317.103 215.359 312.897 214.744C312.607 214.72 312.316 214.72 312.026 214.744C301.769 213.513 281.615 216.462 254.385 222.103C253.819 215.957 252.834 209.857 251.436 203.846C251.168 202.913 250.596 202.096 249.811 201.525C249.026 200.953 248.073 200.66 247.103 200.692C243.463 200.804 239.838 201.19 236.256 201.846C229.718 202.462 207.436 198.385 195.974 192.359C193.664 191.036 191.123 190.166 188.487 189.795C183 189.308 181.103 193.641 180.385 199.539V200.308C180.385 200.59 180.385 200.872 180.385 201.154C180.385 201.436 180.385 202.231 180.256 202.795C180.128 203.359 180.256 203.641 180.256 204.077V205.821C180.256 206.513 180.256 207.205 180.256 207.923V209.949C180.256 210.282 180.256 210.615 180.256 210.974C180.256 211.333 180.256 211.564 180.256 211.846C180.256 212.128 180.256 212.641 180.256 213.051C180.256 213.462 180.256 214.051 180.256 214.538C180.256 215.026 180.256 215.513 180.256 216V216.949C180.256 221.231 180.256 224.462 180.256 224.462C159.564 216.615 128.333 208.615 104.692 223.154C96.719 227.935 90.0856 234.656 85.4103 242.692Z" fill="#FFE05C"/>
<path d="M312.615 277.487C312.679 283.408 313.272 289.312 314.385 295.128C314.872 297.692 315.461 300.256 316.179 302.82C323.414 327.677 326.311 353.595 324.744 379.436C323.933 390.839 322.495 402.19 320.436 413.436C319.795 417.333 319.103 421.307 318.359 425.307C316.154 437.359 313.641 449.718 311.282 460.589C307.487 478.128 304.051 491.795 302.795 494.128" stroke="#F7AD2B" stroke-width="0.55" stroke-linecap="round" stroke-linejoin="round"/>
<path d="M115.539 390C123.231 441.564 123.77 489.307 124.282 494.256C124.795 499.205 170.898 498 205.205 496.82C218.564 496.282 235.846 496.666 252.128 496.82C238.744 485.666 211.103 467.359 184.487 478.872C147.641 494.948 130.257 444.205 152.77 439.666C175.282 435.128 176.334 409.564 180.821 388.82L162.411 381.384L115.539 390Z" fill="#FCC71F"/>
<path d="M255.667 222.538C255.885 226.535 255.885 230.541 255.667 234.538" stroke="#F7AD2B" stroke-width="0.55" stroke-linecap="round" stroke-linejoin="round"/>
<path d="M180.872 223.462C181.154 231.308 181.539 236.436 181.539 236.436" stroke="#F7AD2B" stroke-width="0.55" stroke-linecap="round" stroke-linejoin="round"/>
<path d="M237.795 235.59C227.539 238.487 212.154 238.667 203.205 235.59" stroke="#F7AD2B" stroke-width="0.55" stroke-linecap="round" stroke-linejoin="round"/>
<path d="M18.8459 420.328C29.2305 433.584 57.7432 436.148 80.8714 417.763C87.3149 412.542 92.8361 406.275 97.2047 399.225C99.7688 395.199 103.025 388.969 106.692 381.789C108.307 378.584 110.025 375.148 111.82 371.533C121.564 351.635 132.666 327.482 139.82 313.687C143.361 306.712 146.014 299.321 147.717 291.687C148.435 288.661 148.999 285.584 149.435 282.507C154.769 245.328 141.435 206.302 105.41 222.097H105.282C98.1021 225.277 90.4611 232.097 82.7945 241.097C64.1791 262.892 45.4869 297.507 33.5638 323.584C30.8715 329.507 28.4356 334.969 26.5894 339.764C12.5895 374.353 5.84588 403.635 18.8459 420.328Z" fill="#FED81D"/>
<path d="M73.5634 361.538C74.3583 374.513 89.6147 379.872 106.692 381.641C108.307 378.436 110.025 375 111.82 371.384C121.563 351.487 132.666 327.333 139.82 313.538C143.361 306.564 146.014 299.173 147.717 291.538C133.025 291.846 117.127 297.205 115.666 322.308C114.563 339.59 71.6917 331.872 73.5634 361.538Z" fill="#FCC71F"/>
<path d="M82.7217 241.026C83.9834 241.082 85.2414 241.202 86.491 241.385C106.414 243.949 128.645 257.231 149.363 282.41C154.696 245.231 141.363 206.205 105.337 222H105.209C98.0294 225.308 90.3884 232.128 82.7217 241.026Z" fill="#FFE05C"/>
<path d="M97.2046 399.154C99.7686 395.128 103.025 388.897 106.692 381.718C108.307 378.513 110.025 375.077 111.82 371.461C121.563 351.564 132.666 327.41 139.82 313.615C143.361 306.641 146.014 299.25 147.717 291.615C148.435 288.59 148.999 285.513 149.435 282.436" stroke="#F7AD2B" stroke-width="0.55" stroke-linecap="round" stroke-linejoin="round"/>
<path d="M18.8458 420.333C29.2304 433.59 57.7432 436.154 80.8713 417.769C75.1715 415.94 69.1301 415.431 63.2047 416.282C39.6406 419.718 16.4099 410.077 34.5124 382.59C49.1534 360.359 38.6919 332.462 33.4868 323.615C30.7945 329.538 28.3586 335 26.5124 339.795C12.5894 374.359 5.84577 403.641 18.8458 420.333Z" fill="#FCC71F"/>
<path d="M170.103 68.8976C174.513 72.0258 177.231 72.5386 177.128 77.3335C177.026 82.1283 179.077 83.436 181.128 84.2309C183.18 85.0258 180.898 88.4873 181.539 91.9232C182.18 95.3591 190.872 98.5642 190.872 98.5642L248.667 71.3848C253.487 65.5386 251.385 62.2822 249.846 59.154C249.695 58.856 249.617 58.5266 249.617 58.1925C249.617 57.8584 249.695 57.529 249.846 57.2309C250.641 55.0514 254.18 53.154 253.256 50.7181C252.103 47.6156 248.974 47.0771 245.359 46.9489C241.744 46.8207 242.436 36.4361 244.154 33.6925C245.872 30.9489 244.564 24.0771 238.744 24.4874C232.923 24.8976 230.667 23.7182 230.154 20.9746C229.801 20.0212 229.256 19.1508 228.552 18.418C227.847 17.6851 226.999 17.1056 226.06 16.7157C225.122 16.3257 224.112 16.1338 223.096 16.1519C222.08 16.17 221.078 16.3977 220.154 16.8207C215.616 19.1797 211.718 16.5643 208.974 13.9746C208.821 13.8097 208.649 13.6634 208.462 13.5387C205.462 11.2054 199.205 9.92331 196.641 13.9746C195.484 15.9599 193.814 17.5975 191.807 18.7162C189.799 19.8349 187.528 20.3935 185.231 20.3336C179.769 20.7182 178.205 25.2566 179.385 29.7951C180.564 34.3335 178.872 35.9233 175.334 38.0002C173.492 39.4622 172.137 41.4476 171.446 43.6948C170.755 45.942 170.76 48.3459 171.462 50.5899C172.172 51.9079 172.428 53.4227 172.192 54.9009C171.955 56.3791 171.239 57.7384 170.154 58.7694C168.436 60.4617 165.693 65.7694 170.103 68.8976Z" fill="#473526"/>
<path d="M192.103 143.18C196.679 145.109 201.63 145.986 206.59 145.744C226.436 144.821 274.897 162.744 274.897 162.744C283.026 163.744 288 166.564 284.308 170.616C280.615 174.667 277.18 186.385 286.59 187.359C288.441 187.523 290.303 187.523 292.154 187.359C297.667 186.872 300.128 184.539 299.436 182.385C298.538 179.59 292.564 180.205 291.436 179.077C290.308 177.949 290.026 175.385 293.718 171.949C297.41 168.513 300.077 163.18 296.282 157.769C292.487 152.359 284.974 147.513 289.538 143.59C294.103 139.667 297.82 136.333 295.897 131.744C293.974 127.154 283.077 120.692 288.205 115.103C293.333 109.513 297.59 102.282 287.923 93.4873C278.256 84.6925 268.487 86.3591 269.974 78.8463C271.462 71.3335 270.231 64.1027 259.718 65.872C249.205 67.6412 247.769 66.8976 243.18 64.3592C238.59 61.8207 232.513 63.2053 226.641 68.2822C220.769 73.3592 215.205 67.6412 208.103 69.0515C201 70.4617 208.103 77.3079 199.077 78.8463C190.051 80.3848 186.975 80.7694 185.949 89.4104C184.923 98.0514 178.949 98.154 177.693 100.846C175.128 106.334 179.205 110.154 180.385 113.333C181.564 116.513 179 118.462 176.975 121.846C173.59 127.462 180.41 138.205 192.103 143.18Z" fill="#604730"/>
<path d="M188.974 127.898C189.63 133.097 190.676 138.24 192.103 143.282C196.678 145.212 201.63 146.088 206.59 145.846C226.436 144.923 274.897 162.846 274.897 162.846C283.026 163.846 288 166.667 284.308 170.718C280.615 174.769 277.18 186.487 286.59 187.462C288.441 187.626 290.303 187.626 292.154 187.462C285.103 186.308 283.231 181.282 286.846 174.641C291.974 165.487 290.051 160.077 285.026 154.821C280 149.564 288.231 137.205 285.026 130.693C281.821 124.18 276.41 121.846 278.59 112C280.769 102.154 279.641 97.4361 271.949 91.9746C264.256 86.513 257.615 85.4618 253.462 78.9233C249.308 72.3848 238.436 68.2823 234.744 76.0771C231.051 83.872 229.846 89.2053 219.359 86.0259C208.872 82.8464 202 86.7438 205.692 95.6669C209.385 104.59 207.641 113.077 201.128 114.18C194.615 115.282 187.718 115.385 188.974 127.898Z" fill="#473526"/>
<path d="M196.436 157.769C235.487 186.179 252.308 195.513 270.974 179.82C279.692 172.513 281.231 157.59 279.462 142.385C278.836 136.951 277.859 131.564 276.538 126.256C274.584 117.622 271.597 109.254 267.641 101.333C259.205 86.2052 239.974 85.4617 238.026 86.2052C236.077 86.9488 235.462 88.077 237.359 92.5642C239.256 97.0514 237.154 100.256 231.744 100.41C226.333 100.564 220.154 104.333 220.718 109.744C221.079 112.382 220.651 115.069 219.487 117.464C218.324 119.86 216.477 121.858 214.18 123.205C209.051 126.385 210.077 131.231 209.333 134.231C208.59 137.231 202.41 140.59 200.718 136.462C199.026 132.333 189.333 123.641 181.487 131.615C173.641 139.59 180.564 158.333 196.436 157.769Z" fill="#B25E47"/>
<path d="M243.231 137.462C241.359 141.359 234.59 142 228.128 138.898C221.667 135.795 217.872 130.077 219.846 126.077C221.821 122.077 228.487 121.539 234.949 124.667C241.41 127.795 245.128 133.564 243.231 137.462Z" fill="#A0503D"/>
<path d="M269.564 140.872C271.333 143.436 275.282 143.821 279.462 142.385C278.836 136.951 277.859 131.564 276.538 126.257L275.513 126.923C269.692 131.103 267.026 137.359 269.564 140.872Z" fill="#A0503D"/>
<path d="M270.308 122C270.308 122.507 270.157 123.003 269.876 123.425C269.594 123.846 269.193 124.175 268.725 124.369C268.256 124.563 267.741 124.614 267.243 124.515C266.746 124.416 266.289 124.172 265.931 123.813C265.572 123.455 265.328 122.998 265.229 122.5C265.13 122.003 265.181 121.487 265.375 121.019C265.569 120.55 265.897 120.15 266.319 119.868C266.741 119.586 267.237 119.436 267.744 119.436C268.424 119.436 269.076 119.706 269.557 120.187C270.038 120.668 270.308 121.32 270.308 122Z" fill="#683F1D"/>
<path d="M254 123.41C254 124.118 253.719 124.796 253.219 125.296C252.719 125.796 252.041 126.077 251.333 126.077C250.626 126.077 249.948 125.796 249.448 125.296C248.948 124.796 248.667 124.118 248.667 123.41C248.667 122.703 248.948 122.025 249.448 121.525C249.948 121.025 250.626 120.744 251.333 120.744C252.041 120.744 252.719 121.025 253.219 121.525C253.719 122.025 254 122.703 254 123.41Z" fill="#683F1D"/>
<path d="M197.872 145.795C197.333 140.052 190.769 132.128 183.692 138.103" stroke="#934735" stroke-width="0.55" stroke-linecap="round" stroke-linejoin="round"/>
<path d="M197.59 144.385C192.667 135.923 182.795 147.513 194.333 149.795" stroke="#934735" stroke-width="0.55" stroke-linecap="round" stroke-linejoin="round"/>
<path d="M262.667 139.128C265.59 137.769 266.769 135.103 266.513 134.436C266.256 133.769 257.103 127.051 258.821 116.667" stroke="#934735" stroke-width="0.55" stroke-linecap="round" stroke-linejoin="round"/>
<path d="M251.436 103.667C252.256 109.077 239.103 114.385 237.077 110.949C235.257 108.026 250.103 95.7182 251.436 103.667Z" fill="#604730"/>
<path d="M273.41 107.231C273.41 108.795 259.154 108.487 259.359 103.026C259.564 97.5643 273.769 102.564 273.41 107.231Z" fill="#604730"/>
<path d="M261.308 144.59C256.411 143.285 251.634 141.57 247.026 139.462C247.026 139.462 245.564 148.487 251.333 150.154C252.354 150.447 253.422 150.535 254.476 150.414C255.531 150.293 256.551 149.964 257.478 149.447C258.405 148.93 259.221 148.234 259.878 147.401C260.535 146.567 261.021 145.612 261.308 144.59Z" fill="white" stroke="#934735" stroke-width="0.55" stroke-linecap="round" stroke-linejoin="round"/>
<path d="M186.975 46.9489C189.154 53.6925 197 46.7181 197.616 56.3335C198.231 65.9489 217.462 63.2566 223.257 53.8976C228.077 46.2053 241.718 49.1028 249.744 57.231C250.539 55.0515 254.077 53.154 253.154 50.7181C252 47.6156 248.872 47.0771 245.257 46.9489C241.641 46.8207 242.333 36.4361 244.051 33.6925C245.769 30.9489 244.462 24.0771 238.641 24.4874C232.821 24.8977 230.564 23.7182 230.051 20.9746C229.699 20.0212 229.153 19.1508 228.449 18.418C227.745 17.6851 226.897 17.1056 225.958 16.7157C225.019 16.3257 224.01 16.1338 222.994 16.1519C221.977 16.17 220.976 16.3977 220.051 16.8207C215.513 19.1797 211.616 16.5643 208.872 13.9746C208.719 13.8097 208.547 13.6634 208.359 13.5387C206.128 19.8977 204.487 28.5643 195.846 29.3079C183.718 30.4105 184.77 40.1797 186.975 46.9489Z" fill="#604730"/>
<path d="M436.948 231.949C435.872 225.051 416.436 219.897 405.205 217.744L400.897 245.59C400.897 245.59 431.897 241.154 436.948 231.949Z" fill="#FCC71F"/>
<path d="M418.923 246.769C421.128 216.59 421.128 191.231 421.769 181.616C422.41 172 421.923 161.769 410.615 157.103C410.615 157.103 410.615 148.205 397.795 146.564C397.795 146.564 399.41 138.59 388.641 138.872C388.664 138.123 388.512 137.379 388.199 136.698C387.885 136.018 387.418 135.419 386.834 134.949C386.25 134.48 385.565 134.152 384.833 133.992C384.101 133.831 383.342 133.843 382.615 134.026C380.747 134.213 378.943 134.809 377.33 135.77C375.717 136.732 374.335 138.036 373.282 139.59C363.923 137.59 358.692 147.282 359.154 155.308C359.615 163.333 360.231 172.103 364.077 180.128C367.923 188.154 372.872 201.539 372.872 201.539L372.564 218.487C372.564 218.487 379.641 272.923 418.923 246.769Z" fill="#B25E47"/>
<path d="M421.769 181.615C422.436 172 421.923 161.769 410.615 157.103C410.615 157.103 410.615 148.205 397.795 146.564C397.795 146.564 399.41 138.59 388.641 138.872C388.664 138.123 388.512 137.379 388.199 136.698C387.885 136.018 387.418 135.419 386.834 134.949C386.25 134.48 385.565 134.152 384.833 133.992C384.101 133.831 383.342 133.843 382.615 134.026C380.747 134.213 378.943 134.809 377.33 135.77C375.717 136.732 374.335 138.036 373.282 139.59C363.923 137.59 358.692 147.282 359.154 155.308" stroke="#934735" stroke-width="0.55" stroke-linecap="round" stroke-linejoin="round"/>
<path d="M373.205 139.539C382.846 144.282 389.923 153.18 387.025 157.487C384.128 161.795 373.205 156.359 371.641 154.923" stroke="#934735" stroke-width="0.55" stroke-linecap="round" stroke-linejoin="round"/>
<path d="M389.384 138.821C385.595 139.844 381.957 141.361 378.564 143.333" stroke="#934735" stroke-width="0.55" stroke-linecap="round" stroke-linejoin="round"/>
<path d="M397.59 146.564C393.363 146.737 389.221 147.803 385.436 149.692" stroke="#934735" stroke-width="0.55" stroke-linecap="round" stroke-linejoin="round"/>
<path d="M387.333 169.949C384.102 167.385 381.307 163.205 382.205 159.205" stroke="#934735" stroke-width="0.55" stroke-linecap="round" stroke-linejoin="round"/>
<path d="M410.615 157.103C402.923 153.949 395.231 150.359 392.667 155.616C390.102 160.872 389.077 177.026 392.667 179.205C396.256 181.385 402.308 179.59 403.333 175.359C404.359 171.128 405.128 165.359 405.128 165.359" stroke="#934735" stroke-width="0.55" stroke-linecap="round" stroke-linejoin="round"/>
<path d="M396.333 180.128C393.102 184.128 394.154 198.282 397.718 203" stroke="#934735" stroke-width="0.55" stroke-linecap="round" stroke-linejoin="round"/>
<path d="M370.923 424.205C377.231 436.102 386.308 442.59 398.231 438.538C420.949 430.846 429.974 409.077 433.282 387.82C436.743 365.641 434.025 343.974 434.128 339.385C434.359 330.359 436.846 232 436.846 232C432.897 233.564 426.949 233.59 419.718 232.257C414.217 231.168 408.821 229.607 403.59 227.59C392.62 223.408 382.187 217.933 372.513 211.282L372.077 211C372.077 211 370.128 235.385 367.462 263.41C365.205 287.41 362.333 314.077 360 330.41C356.154 356.718 358.487 400.846 370.923 424.205Z" fill="#FED81D"/>
<path d="M370.923 424.205C377.231 436.102 386.307 442.589 398.231 438.538C420.948 430.846 429.974 409.077 433.282 387.82C429.232 394.684 424.462 401.097 419.051 406.948C402.359 424.871 384.769 428.743 370.923 424.205Z" fill="#FCC71F"/>
<path d="M372.179 210.949C372.179 210.949 365.41 295 360.102 330.359C357.206 352.849 357.916 375.656 362.205 397.923" stroke="#F7AD2B" stroke-width="0.55" stroke-linecap="round" stroke-linejoin="round"/>
<path d="M132.26 312.07L212.941 278.371C219.304 275.713 226.618 278.717 229.276 285.08L277.187 399.784C279.845 406.148 276.841 413.461 270.477 416.119L189.797 449.819C183.433 452.477 176.12 449.473 173.462 443.109L125.551 328.406C122.892 322.042 125.896 314.728 132.26 312.07Z" fill="#EDEDED"/>
<path d="M141.313 308.273L212.931 278.358C219.295 275.7 226.609 278.704 229.267 285.067L277.178 399.771C279.836 406.135 276.832 413.448 270.468 416.106L198.849 446.021C192.486 448.679 185.172 445.675 182.514 439.311L134.603 324.608C131.945 318.244 134.949 310.931 141.313 308.273Z" fill="#F9F9F9" stroke="#DDDDDD" stroke-width="0.74" stroke-linecap="round" stroke-linejoin="round"/>
<path d="M208.205 297.436C208.21 298.51 208.534 299.559 209.134 300.449C209.734 301.34 210.585 302.033 211.579 302.44C212.572 302.848 213.665 302.952 214.717 302.739C215.77 302.526 216.736 302.007 217.494 301.245C218.252 300.484 218.767 299.516 218.975 298.462C219.182 297.408 219.073 296.316 218.661 295.325C218.249 294.333 217.552 293.485 216.659 292.889C215.765 292.293 214.715 291.975 213.641 291.975C212.925 291.975 212.216 292.116 211.555 292.391C210.894 292.666 210.294 293.068 209.788 293.576C209.283 294.083 208.883 294.686 208.612 295.348C208.34 296.011 208.202 296.72 208.205 297.436Z" fill="#EDEDED"/>
<path d="M199.231 302.898C199.231 303.435 199.391 303.961 199.689 304.408C199.988 304.855 200.412 305.203 200.909 305.409C201.406 305.615 201.952 305.668 202.479 305.564C203.007 305.459 203.491 305.2 203.871 304.82C204.251 304.44 204.51 303.955 204.615 303.428C204.72 302.901 204.666 302.354 204.46 301.858C204.254 301.361 203.906 300.937 203.459 300.638C203.012 300.339 202.487 300.18 201.949 300.18C201.591 300.177 201.236 300.244 200.905 300.38C200.574 300.515 200.273 300.715 200.02 300.968C199.766 301.221 199.566 301.522 199.431 301.854C199.296 302.185 199.228 302.54 199.231 302.898Z" fill="#EDEDED"/>
<path d="M203.206 393C208.539 391.154 211.308 380.847 212.026 371.975L191.103 374.539C191.103 374.539 190.949 394.359 203.206 393Z" fill="#FCC71F"/>
<path d="M196.18 387.77C202.111 383.526 208.256 379.59 214.59 375.975C216.975 374.667 230.487 373.154 239.923 367.975C246.258 364.383 252.364 360.401 258.205 356.052L261.923 362.975C261.923 362.975 269.231 355.077 270.333 347.949C271.436 340.821 268.487 340.59 266.744 339.077C265 337.565 266.103 335.283 266.205 331.59C266.308 327.898 263.18 327.154 262.205 325.872C261.231 324.59 262.205 321.206 262.205 316.667C262.205 312.129 257.077 311.898 256.154 309.308C255.231 306.718 254.539 298.359 247.18 300.539C239.821 302.718 207.769 326.513 205.616 327.59C202.502 328.713 199.315 329.621 196.077 330.308C196.077 330.308 170 371.308 196.18 387.77Z" fill="#B25E47"/>
<path d="M258.205 356.052L261.923 362.975C261.923 362.975 269.231 355.077 270.333 347.949C271.436 340.821 268.487 340.59 266.744 339.077C265 337.565 266.103 335.283 266.205 331.59C266.308 327.898 263.18 327.154 262.205 325.872C261.231 324.59 262.205 321.206 262.205 316.667C262.205 312.129 257.077 311.898 256.154 309.308C255.231 306.718 254.539 298.359 247.18 300.539" stroke="#934735" stroke-width="0.55" stroke-linecap="round" stroke-linejoin="round"/>
<path d="M258.205 356.052C261.872 353.001 262.641 352.488 262.641 352.488" stroke="#934735" stroke-width="0.55" stroke-linecap="round" stroke-linejoin="round"/>
<path d="M14.7699 414.821C21.4879 435.334 46.5134 453.693 103.59 432.129L106.693 430.923C165.975 407.462 203.231 393 203.231 393C198.098 371.308 198.098 348.718 203.231 327.026C169.154 336.564 79.0518 355.052 47.0519 364.436C44.9493 365.052 42.9237 365.718 41.0263 366.436C14.1802 376.411 8.28275 394.872 14.7699 414.821Z" fill="#FED81D"/>
<path d="M106.693 430.924C165.975 407.462 203.205 393 203.205 393" stroke="#F7AD2B" stroke-width="0.55" stroke-linecap="round" stroke-linejoin="round"/>
<path d="M203.205 327.026C172.308 335.667 95.2055 351.693 57.3337 361.616" stroke="#F7AD2B" stroke-width="0.55" stroke-linecap="round" stroke-linejoin="round"/>
<path d="M14.7697 414.821C21.4876 435.334 46.5132 453.693 103.59 432.129C103.59 432.129 86.7696 412.795 63.2055 416.205C39.6415 419.616 16.4107 410 34.5132 382.513C37.7301 377.64 39.9441 372.175 41.0261 366.436C14.18 376.411 8.28252 394.872 14.7697 414.821Z" fill="#FCC71F"/>
</g>
<defs>
<clipPath id="clip0_77_13">
<rect width="453.845" height="500" fill="white" transform="matrix(-1 0 0 1 454 -0.000183105)"/>
</clipPath>
</defs>
</svg>
