<svg width="652" height="441" viewBox="0 0 652 441" fill="none" xmlns="http://www.w3.org/2000/svg">
<g clip-path="url(#clip0_78_79)">
<path d="M289.43 75.36C289.432 75.9261 289.266 76.48 288.953 76.9517C288.64 77.4233 288.194 77.7914 287.671 78.0094C287.149 78.2274 286.574 78.2855 286.018 78.1763C285.463 78.067 284.952 77.7955 284.551 77.3959C284.15 76.9963 283.877 76.4867 283.766 75.9317C283.654 75.3766 283.711 74.801 283.927 74.2779C284.143 73.7547 284.509 73.3074 284.98 72.9927C285.451 72.678 286.004 72.51 286.57 72.51C287.327 72.51 288.053 72.81 288.589 73.3441C289.125 73.8783 289.427 74.6032 289.43 75.36Z" fill="#E0B9B9"/>
<path d="M302.68 75.36H358.2" stroke="#BEADAD" stroke-width="2" stroke-linecap="round" stroke-linejoin="round"/>
<path d="M289.43 88.59C289.43 89.1557 289.262 89.7086 288.948 90.1789C288.634 90.6493 288.187 91.0158 287.664 91.2323C287.142 91.4488 286.567 91.5054 286.012 91.3951C285.457 91.2847 284.948 91.0123 284.548 90.6123C284.148 90.2123 283.875 89.7028 283.765 89.148C283.655 88.5932 283.711 88.0181 283.928 87.4955C284.144 86.9729 284.511 86.5263 284.981 86.212C285.451 85.8977 286.004 85.73 286.57 85.73C286.946 85.7287 287.318 85.8017 287.666 85.945C288.014 86.0883 288.329 86.2989 288.595 86.5647C288.861 86.8306 289.072 87.1464 289.215 87.494C289.358 87.8415 289.431 88.214 289.43 88.59Z" fill="#E0B9B9"/>
<path d="M302.68 88.59H324.08" stroke="#BEADAD" stroke-width="2" stroke-linecap="round" stroke-linejoin="round"/>
<path d="M125.31 75.36C125.312 75.9261 125.146 76.48 124.833 76.9517C124.52 77.4233 124.074 77.7914 123.551 78.0094C123.029 78.2274 122.454 78.2855 121.898 78.1763C121.343 78.067 120.832 77.7955 120.431 77.3959C120.03 76.9963 119.757 76.4867 119.646 75.9317C119.534 75.3766 119.591 74.801 119.807 74.2779C120.023 73.7547 120.389 73.3074 120.86 72.9927C121.331 72.678 121.884 72.51 122.45 72.51C123.207 72.51 123.933 72.81 124.469 73.3441C125.005 73.8783 125.307 74.6032 125.31 75.36Z" fill="#E0B9B9"/>
<path d="M138.57 75.36H212.54" stroke="#BEADAD" stroke-width="2" stroke-linecap="round" stroke-linejoin="round"/>
<path d="M122.45 91.45C124.03 91.45 125.31 90.1695 125.31 88.59C125.31 87.0104 124.03 85.73 122.45 85.73C120.87 85.73 119.59 87.0104 119.59 88.59C119.59 90.1695 120.87 91.45 122.45 91.45Z" fill="#E0B9B9"/>
<path d="M138.57 88.59H174.38" stroke="#BEADAD" stroke-width="2" stroke-linecap="round" stroke-linejoin="round"/>
<path d="M125.31 102.06C125.312 102.626 125.146 103.18 124.833 103.652C124.52 104.123 124.074 104.491 123.551 104.709C123.029 104.927 122.454 104.985 121.898 104.876C121.343 104.767 120.832 104.495 120.431 104.096C120.03 103.696 119.757 103.187 119.646 102.632C119.534 102.077 119.591 101.501 119.807 100.978C120.023 100.455 120.389 100.007 120.86 99.6927C121.331 99.378 121.884 99.21 122.45 99.21C123.207 99.21 123.933 99.5099 124.469 100.044C125.005 100.578 125.307 101.303 125.31 102.06Z" fill="#E0B9B9"/>
<path d="M138.57 102.06H185.19" stroke="#BEADAD" stroke-width="2" stroke-linecap="round" stroke-linejoin="round"/>
<path d="M401.13 44.2H278.59V59.19H401.13V44.2Z" stroke="#E0B9B9" stroke-linecap="round" stroke-linejoin="round"/>
<path d="M240.15 44.2H117.61V59.19H240.15V44.2Z" stroke="#E0B9B9" stroke-linecap="round" stroke-linejoin="round"/>
<path d="M563.17 15.52H66V332.52H563.17V15.52Z" stroke="#BEADAD" stroke-width="2" stroke-linecap="round" stroke-linejoin="round"/>
<path d="M571.44 332.92H57.72V346.78H571.44V332.92Z" stroke="#E0B9B9" stroke-width="2" stroke-linecap="round" stroke-linejoin="round"/>
<path d="M571.44 1.66H57.72V15.52H571.44V1.66Z" stroke="#E0B9B9" stroke-width="2" stroke-linecap="round" stroke-linejoin="round"/>
<path d="M491.39 61.18C468.16 51.68 456.64 78.31 465.39 95.04C467.45 98.96 467.15 102.15 465.2 106.91C463.25 111.67 463.2 115.07 468.47 117.21C473.74 119.35 476.07 116.91 478.02 112.15C479.97 107.39 482.02 104.91 486.2 103.55C504.18 97.75 514.63 70.68 491.39 61.18Z" fill="#F9F9F9" stroke="#E0B9B9" stroke-linecap="round" stroke-linejoin="round"/>
<path d="M471.08 112.08C469.73 106.41 470.18 102.47 474.24 101.51C478.3 100.55 481.56 98.25 479.78 95.28C478 92.31 470.62 91.62 472.64 95.22C474.66 98.82 485.29 97.53 482.8 94.01C480.31 90.49 474.37 87.57 476.8 87.01C479.23 86.45 486.66 89.81 484.26 87.19C479.44 81.94 485.07 80.83 486.62 75.19" stroke="#E0B9B9" stroke-linecap="round" stroke-linejoin="round"/>
<path d="M481 110.42C480.179 111.808 479.47 113.259 478.88 114.76C478.435 115.898 477.9 116.998 477.28 118.05C475.06 121.78 472.09 123.27 466.84 121.13C461.59 118.99 460.54 115.84 461.57 111.63C461.86 110.44 462.248 109.276 462.73 108.15C463.352 106.666 463.863 105.139 464.26 103.58C469.372 106.87 475.047 109.189 481 110.42Z" fill="#F9F9F9" stroke="#BEADAD" stroke-linecap="round" stroke-linejoin="round"/>
<path d="M481 110.42C480.262 111.661 479.624 112.959 479.09 114.3C479.01 114.45 478.95 114.61 478.88 114.76C478.435 115.898 477.9 116.998 477.28 118.05C475.13 118.53 472.37 118.13 468.69 116.62C465.01 115.11 462.76 113.47 461.57 111.62C461.86 110.43 462.248 109.266 462.73 108.14L462.91 107.67C463.456 106.337 463.907 104.967 464.26 103.57C469.371 106.863 475.046 109.185 481 110.42Z" fill="#F9F9F9" stroke="#BEADAD" stroke-linecap="round" stroke-linejoin="round"/>
<path d="M481 110.42C480.262 111.661 479.624 112.959 479.09 114.3C473.304 113.212 467.799 110.959 462.91 107.68C463.456 106.347 463.907 104.977 464.26 103.58C469.372 106.87 475.047 109.189 481 110.42Z" fill="#F9F9F9" stroke="#BEADAD" stroke-linecap="round" stroke-linejoin="round"/>
<path d="M495.34 54.95L499.73 44.2" stroke="#E0B9B9" stroke-width="2" stroke-linecap="round" stroke-linejoin="round"/>
<path d="M512.4 71.45L522.97 69.93" stroke="#E0B9B9" stroke-width="2" stroke-linecap="round" stroke-linejoin="round"/>
<path d="M465.36 56.8L455.91 46.67" stroke="#E0B9B9" stroke-width="2" stroke-linecap="round" stroke-linejoin="round"/>
<path d="M480.47 52.55V45.41" stroke="#BEADAD" stroke-linecap="round" stroke-linejoin="round"/>
<path d="M455.88 73.83L447.95 74.97" stroke="#BEADAD" stroke-linecap="round" stroke-linejoin="round"/>
<path d="M508.32 93.6L511.24 98.61" stroke="#BEADAD" stroke-linecap="round" stroke-linejoin="round"/>
<path d="M506.26 63.1L511.97 60.39" stroke="#BEADAD" stroke-linecap="round" stroke-linejoin="round"/>
<path d="M106.6 110.72H83.1799C81.1615 119.545 81.738 128.765 84.8399 137.27L109.39 136.88C109.39 136.88 102.77 122.5 106.6 110.72Z" fill="#E0B9B9" stroke="#E0B9B9" stroke-miterlimit="10"/>
<path d="M101.32 117.34H89.4" stroke="#F9F9F9" stroke-linecap="round" stroke-linejoin="round"/>
<path d="M100.56 122.51H91.55" stroke="#F9F9F9" stroke-linecap="round" stroke-linejoin="round"/>
<path d="M101.14 127.44H88.65" stroke="#F9F9F9" stroke-linecap="round" stroke-linejoin="round"/>
<path d="M88.8 71.6H111.34C113.1 79.51 111.693 87.7947 107.42 94.68L83.03 93.68C83.03 93.68 90.47 83 88.8 71.6Z" stroke="#E0B9B9" stroke-linecap="round" stroke-linejoin="round"/>
<path d="M92.92 76.99H107.64" stroke="#E0B9B9" stroke-linecap="round" stroke-linejoin="round"/>
<path d="M93.13 81.93H104.88" stroke="#E0B9B9" stroke-linecap="round" stroke-linejoin="round"/>
<path d="M92.92 88.39H98.47" stroke="#E0B9B9" stroke-linecap="round" stroke-linejoin="round"/>
<path d="M99.73 88.39H103.42" stroke="#E0B9B9" stroke-linecap="round" stroke-linejoin="round"/>
<path d="M144.33 145.56L166.88 145.61C168.649 153.512 167.257 161.792 163 168.68L138.62 167.68C138.62 167.68 146 156.94 144.33 145.56Z" stroke="#BEADAD" stroke-linecap="round" stroke-linejoin="round"/>
<path d="M148.45 150.96H163.17" stroke="#BEADAD" stroke-linecap="round" stroke-linejoin="round"/>
<path d="M148.66 155.89H160.41" stroke="#BEADAD" stroke-linecap="round" stroke-linejoin="round"/>
<path d="M148.45 162.35H154" stroke="#BEADAD" stroke-linecap="round" stroke-linejoin="round"/>
<path d="M155.26 162.35H158.95" stroke="#BEADAD" stroke-linecap="round" stroke-linejoin="round"/>
<path d="M332 157.12H354.54C356.297 165.027 354.89 173.307 350.62 180.19L326.23 179.19C326.23 179.19 333.66 168.5 332 157.12Z" stroke="#BEADAD" stroke-linecap="round" stroke-linejoin="round"/>
<path d="M336.11 162.52H350.83" stroke="#BEADAD" stroke-linecap="round" stroke-linejoin="round"/>
<path d="M336.32 167.45H348.07" stroke="#BEADAD" stroke-linecap="round" stroke-linejoin="round"/>
<path d="M336.11 173.91H341.66" stroke="#BEADAD" stroke-linecap="round" stroke-linejoin="round"/>
<path d="M342.92 173.91H346.61" stroke="#BEADAD" stroke-linecap="round" stroke-linejoin="round"/>
<path d="M408 69.47L385.46 69.52C383.703 77.4268 385.11 85.7074 389.38 92.59L413.77 91.59C413.77 91.59 406.35 80.85 408 69.47Z" stroke="#E0B9B9" stroke-linecap="round" stroke-linejoin="round"/>
<path d="M403.9 74.87H389.18" stroke="#E0B9B9" stroke-linecap="round" stroke-linejoin="round"/>
<path d="M403.69 79.8H391.95" stroke="#E0B9B9" stroke-linecap="round" stroke-linejoin="round"/>
<path d="M403.9 86.26H398.35" stroke="#E0B9B9" stroke-linecap="round" stroke-linejoin="round"/>
<path d="M397.09 86.26H393.4" stroke="#E0B9B9" stroke-linecap="round" stroke-linejoin="round"/>
<path d="M259.99 41.44V277.45" stroke="#BEADAD" stroke-linecap="round" stroke-linejoin="round"/>
<path d="M377.69 100.9C372.22 84.7 369.81 78.9 366.69 75.39C363.57 71.88 354.74 68.15 354.74 68.15C354.74 68.15 351.06 53.89 346.35 54.35C341.64 54.81 349.45 73.78 349.45 73.78L345.31 92.4C346.652 94.5852 347.698 96.9391 348.42 99.4C351.64 109.98 360.47 110.98 362.9 119.86C362.75 119.35 377.64 110.43 377.69 100.9Z" fill="#FEBD9D"/>
<path d="M377.69 100.9C372.22 84.7 369.81 78.9 366.69 75.39C363.57 71.88 354.74 68.15 354.74 68.15C354.74 68.15 351.06 53.89 346.35 54.35C341.64 54.81 349.45 73.78 349.45 73.78L345.31 92.4C346.652 94.5852 347.698 96.9391 348.42 99.4C351.64 109.98 360.47 110.98 362.9 119.86C362.75 119.35 377.64 110.43 377.69 100.9Z" fill="#FEBD9D"/>
<path d="M366.7 75.39C363.6 71.82 354.75 68.15 354.75 68.15C354.75 68.15 351.07 53.89 346.36 54.35C341.65 54.81 349.46 73.78 349.46 73.78L345.32 92.4" stroke="#EF8A66" stroke-width="0.75" stroke-linecap="round" stroke-linejoin="round"/>
<path d="M340.64 85.11C344.53 82.03 351.2 93.31 347.17 96.39C344.28 98.6 336.94 88 340.64 85.11Z" fill="#FEBD9D" stroke="#EF8A66" stroke-miterlimit="10"/>
<path d="M354.75 68.15C351.65 66.93 351.26 72.15 353.97 74.15C356.68 76.15 358.41 76.57 358.8 77.83C359.19 79.09 359.96 83.04 359.96 83.04C359.091 85.5357 358.758 88.1868 358.984 90.8198C359.21 93.4528 359.989 96.0086 361.27 98.32" stroke="#EF8A66" stroke-width="0.75" stroke-linecap="round" stroke-linejoin="round"/>
<path d="M343.55 78.66C347.44 75.58 355.68 89.66 351.65 92.72C348.77 94.92 339.85 81.58 343.55 78.66Z" fill="#FEBD9D" stroke="#EF8A66" stroke-miterlimit="10"/>
<path d="M346.93 74.1C350.82 71.02 359.07 85.1 355.04 88.16C352.16 90.36 343.24 77 346.93 74.1Z" fill="#FEBD9D" stroke="#EF8A66" stroke-miterlimit="10"/>
<path d="M363.45 130.12L358.2 119.87C358.2 119.87 371.04 111.08 377.69 100.87L382.1 108.26C382.1 108.26 376.83 131.43 363.45 130.12Z" fill="white"/>
<path d="M440.2 179.52C422.29 153.71 399.35 128.31 396.09 124.76C394.364 122.722 391.939 121.402 389.29 121.06L381.29 106.85C381.29 106.85 372.56 119.85 358.2 126.85L365.46 140.77C365.46 140.77 363.24 142.46 368.12 152.71C373 162.96 391.89 202.11 401.44 209.88C424.28 228.46 463.74 213.45 440.2 179.52Z" fill="#A7CAF0"/>
<path d="M377.09 132.83L369.01 119.87" stroke="#83ADDF" stroke-width="0.75" stroke-linecap="round" stroke-linejoin="round"/>
<path d="M372.27 136.05L364.33 123.32" stroke="#83ADDF" stroke-width="0.75" stroke-linecap="round" stroke-linejoin="round"/>
<path d="M377.69 111.44L386.21 125.11" stroke="#83ADDF" stroke-width="0.75" stroke-linecap="round" stroke-linejoin="round"/>
<path d="M373.42 115.75L381.95 129.42" stroke="#83ADDF" stroke-width="0.75" stroke-linecap="round" stroke-linejoin="round"/>
<path d="M440.2 179.52C422.29 153.71 399.35 128.31 396.09 124.76C394.364 122.722 391.939 121.402 389.29 121.06L381.29 106.85" stroke="#83ADDF" stroke-width="0.75" stroke-linecap="round" stroke-linejoin="round"/>
<path d="M607.19 424.08H508.31V346.17L596.74 344.94C603.55 373.67 607.19 424.08 607.19 424.08Z" fill="#683F1D"/>
<path d="M556.45 424.08C556.45 424.08 553.21 392.7 552.88 389.71C552.784 388.919 552.43 388.181 551.873 387.61C551.317 387.039 550.589 386.667 549.8 386.55C547.903 386.16 545.947 386.16 544.05 386.55" stroke="#91613D" stroke-width="0.75" stroke-linecap="round" stroke-linejoin="round"/>
<path d="M614.31 234.83C612.73 260.92 607.31 301.48 603.56 327.32C601.45 341.87 599.9 351.76 599.9 351.76C599.9 351.76 536.63 354.22 519.44 353.76C502.25 353.3 500.37 352.03 500.37 345.1C500.37 338.17 500.66 251.63 500.66 251.63C500.66 251.63 415.78 221.63 403.56 211.44C391.34 201.25 405.97 167.76 437.39 174.63C445.29 176.36 453.14 178.12 461.16 179.89C485 185.18 510.29 190.5 542 195C576.44 199.92 598 200.2 612.72 209.88C614.9 211.31 615.15 221.06 614.31 234.83Z" fill="#A7CAF0"/>
<path d="M591.46 261.06C578.09 269.54 578.06 281.47 583.29 290.71C595.35 311.98 560.29 298.16 558.78 324.54L609.54 312.48L591.46 261.06Z" fill="#93BEE5"/>
<path d="M632.87 243C627.072 239.478 620.83 236.744 614.31 234.87C603.52 231.87 593.11 232.5 586.2 239.62C584.964 240.889 583.887 242.303 582.99 243.83C565.68 272.83 517.28 267.54 508.31 236.96C500.68 210.96 488.91 194.8 461.16 179.96C485 185.18 510.29 190.5 542 195C576.44 199.92 598 200.2 612.72 209.88C619.54 212.76 626.65 225.94 632.87 243Z" fill="#C3DCF8"/>
<path d="M545.23 193.11C533.95 193.11 524.8 200.32 524.8 209.2C524.8 214.2 527.7 218.68 532.26 221.63C534.466 223.051 536.907 224.067 539.47 224.63C541.359 225.068 543.291 225.286 545.23 225.28C545.66 225.28 546.08 225.28 546.5 225.28C549.219 225.162 551.899 224.59 554.43 223.59C556.826 222.678 559.028 221.321 560.92 219.59C562.384 218.291 563.564 216.702 564.383 214.924C565.202 213.146 565.644 211.217 565.68 209.26C565.68 200.32 556.53 193.11 545.23 193.11ZM552 217C550.003 217.617 547.93 217.954 545.84 218H545.23C543.594 218.006 541.961 217.839 540.36 217.5C538.301 217.098 536.326 216.347 534.52 215.28C531.62 213.53 529.82 211.07 529.82 208.35C529.82 203.01 536.72 198.69 545.23 198.69C553.74 198.69 560.65 203.01 560.65 208.35C560.65 210.7 559.31 212.85 557.07 214.53C555.537 215.643 553.821 216.479 552 217Z" stroke="#83ADDF" stroke-width="0.75" stroke-linecap="round" stroke-linejoin="round"/>
<path d="M535.07 189C531.25 189.73 527 191 524.87 194.66C522.74 198.32 522.64 213.57 524.59 215.24C526.54 216.91 529.14 208.93 540.77 205.04L535.07 189Z" fill="white"/>
<path d="M550.55 205.76L562.42 187C562.42 187 568.72 190.34 569.74 196.37C570.76 202.4 568 222.17 563 217.16C559.45 213.66 560.25 210.77 550.55 205.76Z" fill="white"/>
<path d="M532.26 221.63L534.52 215.25" stroke="#83ADDF" stroke-width="0.75" stroke-linecap="round" stroke-linejoin="round"/>
<path d="M539.47 224.64L540.36 217.47" stroke="#83ADDF" stroke-width="0.75" stroke-linecap="round" stroke-linejoin="round"/>
<path d="M546.5 225.26L545.84 217.96" stroke="#83ADDF" stroke-width="0.75" stroke-linecap="round" stroke-linejoin="round"/>
<path d="M554.43 223.57L552 216.98" stroke="#83ADDF" stroke-width="0.75" stroke-linecap="round" stroke-linejoin="round"/>
<path d="M560.92 219.53L557.07 214.5" stroke="#83ADDF" stroke-width="0.75" stroke-linecap="round" stroke-linejoin="round"/>
<path d="M564.22 189.54C564.31 191.88 559.54 207.26 546.3 208.54C533.06 209.82 531.12 195.4 531.2 191.61C531.2 190.08 531.37 187.38 531.56 184C531.82 179.36 532.17 173.45 532.43 167.59L532.49 166.31C533.95 132.31 563.14 139.1 561.32 157.12C560.21 168.23 564.11 187.21 564.22 189.54Z" fill="#FEBD9D"/>
<path d="M531.56 184C531.82 179.36 532.17 173.45 532.43 167.59L548.6 165.09C549.19 175.4 544.21 184.27 531.56 184Z" fill="#F4A789"/>
<path d="M597 309.76C597 309.56 596.89 309.36 596.84 309.15C592.31 290.94 588.55 271.89 586.97 255.26" stroke="#83ADDF" stroke-width="0.75" stroke-linecap="round" stroke-linejoin="round"/>
<path d="M523 286.9C521.54 280.56 525.36 278.7 528.69 277.56C528.38 275.77 529.04 272.87 533.01 272.25C536.77 271.66 538.12 275.36 538.12 275.36C538.12 275.36 546.03 272.68 548.03 280.73L523 286.9Z" fill="#E0B9B9"/>
<path d="M503.79 288.67L563.54 274.86L586.2 370.87L525.93 383L503.79 288.67Z" fill="#F9F9F9" stroke="#E0B9B9" stroke-linecap="round" stroke-linejoin="round"/>
<path d="M531 277.12C530.998 277.652 531.154 278.174 531.449 278.617C531.743 279.061 532.162 279.407 532.654 279.612C533.145 279.817 533.686 279.872 534.209 279.77C534.731 279.667 535.211 279.411 535.589 279.036C535.966 278.66 536.223 278.181 536.328 277.658C536.432 277.136 536.38 276.595 536.176 276.103C535.973 275.611 535.628 275.19 535.186 274.894C534.743 274.598 534.222 274.44 533.69 274.44C532.978 274.44 532.296 274.722 531.791 275.224C531.287 275.727 531.003 276.408 531 277.12Z" fill="#F9F9F9" stroke="#E0B9B9" stroke-linecap="round" stroke-linejoin="round"/>
<path d="M651 329.33C651.019 331.233 650.932 333.136 650.74 335.03V335.31C650.677 335.695 650.59 336.076 650.48 336.45C648.04 344.45 632.6 352 618.26 343.7C617.003 342.971 615.799 342.152 614.66 341.25C610.015 337.415 606.229 332.645 603.55 327.25C600.694 321.694 598.496 315.825 597 309.76C597 309.56 596.89 309.36 596.84 309.15C590.84 284.87 586.12 259.09 586.16 239.58C586.16 216.06 593.09 201.64 612.72 209.9C619.5 212.76 626.61 225.9 632.83 242.96C638.094 257.743 642.34 272.868 645.54 288.23C649 304.2 651 319.18 651 329.33Z" fill="#A7CAF0"/>
<path d="M650.78 335.06V335.34C650.717 335.725 650.63 336.106 650.52 336.48C648.08 344.48 632.64 352.03 618.3 343.73C617.042 343.001 615.839 342.182 614.7 341.28C619.074 339.022 623.995 338.041 628.9 338.45C655.29 340.83 627.29 311.68 645.61 288.23C648.98 304.23 651.04 319.18 651.07 329.33C651.196 331.245 651.098 333.168 650.78 335.06Z" fill="#93BEE5"/>
<path d="M632.87 243C627.072 239.478 620.83 236.744 614.31 234.87C603.52 231.87 593.11 232.5 586.2 239.62C586.2 216.1 593.13 201.68 612.76 209.94C619.54 212.76 626.65 225.94 632.87 243Z" fill="#C3DCF8"/>
<path d="M533.07 329.76C531.44 328.76 521.79 323.18 518.99 323C516.19 322.82 510.22 326.95 510.22 326.95C510.22 326.95 498.37 327.65 497.06 329.76C495.75 331.87 498.41 334.84 500.45 335.9C502.49 336.96 500.57 339.14 500.83 340.9C501.09 342.66 503.29 343.9 503.55 345.11C503.81 346.32 502.67 349.62 505.39 350.43C508.11 351.24 506.39 352.91 507.76 355.28C509.13 357.65 517.5 357.21 538.76 353L533.07 329.76Z" fill="#FEBD9D"/>
<path d="M519 323C516.19 322.83 510.23 326.95 510.23 326.95C510.23 326.95 498.38 327.65 497.07 329.76C495.76 331.87 498.42 334.84 500.46 335.9C502.5 336.96 500.58 339.14 500.84 340.9C501.1 342.66 503.3 343.9 503.56 345.11C503.82 346.32 502.68 349.62 505.4 350.43C508.12 351.24 506.4 352.91 507.77 355.28C508.32 356.21 509.95 356.71 513.01 356.71" stroke="#EF8A66" stroke-width="0.75" stroke-linecap="round" stroke-linejoin="round"/>
<path d="M531.58 327.84L535.85 355.16L544.86 353.83L542.06 327.17L531.58 327.84Z" fill="white"/>
<path d="M650.75 335.34C650.67 335.72 650.59 336.11 650.49 336.48C648.11 345.85 638.07 351.91 610.55 353.83C608.15 354.003 605.773 354.157 603.42 354.29C570.78 356.23 542.55 355.67 542.55 355.67L538.3 326.48C553.1 322.09 577.69 313.77 597.04 309.76C605.04 308.11 612.09 307.18 617.24 307.56C623.106 307.878 628.92 308.834 634.58 310.41C636.086 310.844 637.562 311.375 639 312C645.62 315 650.07 319.72 650.91 327.42C650.98 328.06 651.03 328.7 651.08 329.31C651.21 331.326 651.099 333.35 650.75 335.34Z" fill="#A7CAF0"/>
<path d="M617.24 307.56C612.09 307.18 605.01 308.11 597.04 309.76C577.69 313.76 553.1 322.09 538.3 326.48L542.55 355.67" stroke="#83ADDF" stroke-width="0.75" stroke-linecap="round" stroke-linejoin="round"/>
<path d="M538.81 329.94L556.13 327.17" stroke="#83ADDF" stroke-width="0.75" stroke-linecap="round" stroke-linejoin="round"/>
<path d="M539.63 335.55L556.46 333.45" stroke="#83ADDF" stroke-width="0.75" stroke-linecap="round" stroke-linejoin="round"/>
<path d="M540.25 339.86L556.87 338.45" stroke="#83ADDF" stroke-width="0.75" stroke-linecap="round" stroke-linejoin="round"/>
<path d="M541.17 346.18L557.21 344.94" stroke="#83ADDF" stroke-width="0.75" stroke-linecap="round" stroke-linejoin="round"/>
<path d="M542.06 351.33L557.79 349.75" stroke="#83ADDF" stroke-width="0.75" stroke-linecap="round" stroke-linejoin="round"/>
<path d="M510.22 327C514.51 326.56 518.37 326.38 518.37 326.38" stroke="#EF8A66" stroke-width="0.75" stroke-linecap="round" stroke-linejoin="round"/>
<path d="M650.75 335.34C650.687 335.725 650.6 336.106 650.49 336.48C648.11 345.85 638.07 351.91 610.55 353.83C608.15 354.003 605.773 354.157 603.42 354.29C609.54 339.15 623.13 337.93 628.87 338.45C646.54 340.05 639.87 327.52 638.96 312.02C645.58 315.02 650.03 319.74 650.87 327.44C650.94 328.08 650.99 328.72 651.04 329.33C651.182 331.338 651.084 333.355 650.75 335.34Z" fill="#93BEE5"/>
<path d="M559.41 134.56C558.754 139.41 557.584 144.177 555.92 148.78C553.33 155.52 549.14 161.41 542.31 161.36C541.589 161.351 540.87 161.284 540.16 161.16L522 153.71C522 153.71 522.08 153.36 522.26 152.71C523.536 148.296 525.403 144.074 527.81 140.16C528.02 139.83 528.25 139.5 528.47 139.16C532.79 132.61 537.11 127.37 537.11 127.37C537.11 127.37 537.36 121.1 542.48 120.18C547.6 119.26 560.83 125 559.41 134.56Z" fill="#FEBD9D"/>
<path d="M555.92 148.78C553.33 155.52 549.14 161.41 542.31 161.36C541.075 160.572 540.038 159.51 539.277 158.258C538.517 157.006 538.054 155.596 537.923 154.136C537.793 152.677 538 151.207 538.527 149.84C539.054 148.473 539.887 147.245 540.963 146.251C542.039 145.256 543.329 144.522 544.733 144.104C546.137 143.686 547.618 143.595 549.063 143.84C550.508 144.084 551.877 144.656 553.066 145.513C554.254 146.369 555.231 147.487 555.92 148.78Z" fill="#F4AF90"/>
<path d="M529.14 144.63C529.14 146.574 528.452 148.455 527.198 149.941C525.945 151.427 524.206 152.422 522.29 152.75C523.566 148.336 525.433 144.114 527.84 140.2C528.691 141.521 529.142 143.059 529.14 144.63Z" fill="#F4AF90"/>
<path d="M571.15 135.85C570.33 138.19 567.54 145.4 566 149.37C565.37 150.98 564.94 152.06 564.94 152.06L560.52 150.45L557.35 149.3L556.23 148.9C556.23 148.9 556.23 149.37 556.11 150.19C555.791 153.235 555.205 156.247 554.36 159.19C553.359 162.853 551.725 166.312 549.53 169.41C543.53 177.41 527.95 176.59 520.76 170.41C515.76 166.07 516.76 158.13 521.11 149.87C523.172 146.055 525.651 142.48 528.5 139.21C528.5 139.21 524.99 147.44 524.42 149.21C523.73 151.42 526.32 151.21 527.32 149.33C528.32 147.45 530.25 146.15 535.85 147.65C541.45 149.15 543.73 152.05 542.69 156.1C542.08 158.49 546.52 159.32 549.79 156.17C550.07 155.902 550.331 155.615 550.57 155.31C551.019 154.755 551.405 154.151 551.72 153.51C554.72 147.4 556.47 138.05 556.64 134.37C553.29 134.58 550.4 132.03 552.3 128.86C548.37 130.51 545.45 127.69 546.12 123.93C544.42 126.6 540.6 126.43 540.12 123.27L537.12 127.37C536.542 125.817 536.27 124.166 536.32 122.51C536.54 117.51 540.79 115.69 544.15 116.84C544.67 113.23 553.15 112.51 553.77 117.67C555.59 114.31 561.62 115 561.77 120.19C562.554 119.764 563.453 119.6 564.337 119.722C565.221 119.844 566.042 120.246 566.681 120.868C567.32 121.491 567.744 122.301 567.889 123.181C568.035 124.061 567.895 124.965 567.49 125.76C570.24 125.16 572 128.76 569.63 131.34C569.66 131.39 572.32 132.56 571.15 135.85Z" fill="#BF8228"/>
<path d="M542 140C542 140.265 542.079 140.524 542.226 140.744C542.373 140.965 542.582 141.137 542.827 141.238C543.072 141.339 543.342 141.366 543.601 141.314C543.861 141.263 544.1 141.135 544.288 140.948C544.475 140.76 544.603 140.521 544.654 140.261C544.706 140.001 544.679 139.732 544.578 139.487C544.477 139.242 544.305 139.033 544.084 138.886C543.864 138.739 543.605 138.66 543.34 138.66C542.985 138.66 542.644 138.801 542.392 139.052C542.141 139.304 542 139.645 542 140Z" fill="#683F1D"/>
<path d="M533.43 137.13C533.428 137.396 533.505 137.656 533.652 137.878C533.798 138.1 534.007 138.273 534.253 138.376C534.498 138.479 534.768 138.506 535.029 138.455C535.29 138.403 535.529 138.275 535.717 138.087C535.905 137.899 536.033 137.66 536.085 137.399C536.136 137.138 536.109 136.868 536.006 136.623C535.903 136.377 535.73 136.168 535.508 136.022C535.286 135.875 535.026 135.798 534.76 135.8C534.408 135.803 534.071 135.944 533.822 136.192C533.574 136.441 533.433 136.778 533.43 137.13Z" fill="#683F1D"/>
<path d="M544.7 132.94C544.01 135.33 551.02 137.69 551.32 136.23C551.54 135.18 545.72 129.4 544.7 132.94Z" fill="#BF8228"/>
<path d="M534.76 129.77C534.35 131.05 540.24 133.26 540.93 131.11C541.75 128.55 535.12 128.67 534.76 129.77Z" fill="#BF8228"/>
<path d="M560.52 150.45L556.23 148.9C555.961 152.395 555.334 155.853 554.36 159.22C552.97 159.43 551.36 158.7 549.79 156.22C550.583 155.452 551.236 154.552 551.72 153.56C554.72 147.45 556.47 138.1 556.64 134.42C553.29 134.63 550.4 132.08 552.3 128.91C548.37 130.56 545.45 127.74 546.12 123.98C544.42 126.65 540.6 126.48 540.12 123.32L537.12 127.42C536.542 125.867 536.27 124.216 536.32 122.56C537.94 120.91 540.16 119.77 542.02 120.34C542.02 120.34 546.91 121.52 548.63 119.18C547.68 122.94 551.52 126.52 556.05 124.98C556.05 124.98 557.63 131.81 563.16 131.8C563.16 131.8 562.56 137.91 565.72 138.47C568.11 138.88 563.28 145.77 560.52 150.45Z" fill="#B57724"/>
<path d="M556.11 150.19C555.791 153.235 555.205 156.247 554.36 159.19C553.359 162.853 551.725 166.312 549.53 169.41C543.53 177.41 527.95 176.59 520.76 170.41C515.76 166.07 516.76 158.13 521.11 149.87C521.73 164.16 535.31 172.35 549.79 156.22L550.57 155.36C552.269 153.485 554.122 151.755 556.11 150.19Z" fill="#B57724"/>
<path d="M566 149.37C565.37 150.98 564.94 152.06 564.94 152.06L560.52 150.45L557.35 149.3C562.25 146.05 564.74 147.45 566 149.37Z" fill="#B57724"/>
<path d="M554.54 158.55C555.412 155.395 555.978 152.163 556.23 148.9C558.99 146.4 563.83 146.48 566.04 149.26C566.646 150.032 567.03 150.956 567.15 151.93C568 158 562.93 164.39 554.54 158.55Z" fill="#FEBD9D"/>
<path d="M560.89 160.85C558.583 160.775 556.36 159.97 554.54 158.55" stroke="#EF8A66" stroke-width="0.75" stroke-linecap="round" stroke-linejoin="round"/>
<path d="M531.19 143.19C531.63 140.65 533.04 140.65 535.7 140.19C538.36 139.73 540.42 137.36 540.13 134.96" stroke="#EF8A66" stroke-width="0.75" stroke-linecap="round" stroke-linejoin="round"/>
<path d="M558.05 153C558.48 152.523 559.017 152.154 559.616 151.924C560.216 151.694 560.862 151.609 561.501 151.676C562.14 151.743 562.754 151.961 563.292 152.311C563.831 152.661 564.279 153.134 564.6 153.69" stroke="#EF8A66" stroke-width="0.75" stroke-linecap="round" stroke-linejoin="round"/>
<path d="M559.32 152.1C563.86 151.67 563.17 158.49 558.78 157.23" stroke="#EF8A66" stroke-width="0.75" stroke-linecap="round" stroke-linejoin="round"/>
<path d="M518.37 167.22C522.65 164.35 528.37 165.8 532.98 169.92C539.11 175.4 549.13 169.92 549.13 169.92" stroke="#9B621F" stroke-width="0.75" stroke-linecap="round" stroke-linejoin="round"/>
<path d="M553.67 161.36C551.17 163.36 541.67 168.87 534.83 163.78C527.99 158.69 517.67 165.07 517.67 165.07" stroke="#9B621F" stroke-width="0.75" stroke-linecap="round" stroke-linejoin="round"/>
<path d="M517.86 158.34C520.07 156.34 528.12 152.07 533.36 157.77C538.6 163.47 545.43 158.26 545.43 158.26" stroke="#9B621F" stroke-width="0.75" stroke-linecap="round" stroke-linejoin="round"/>
<path d="M527 149.87C528.27 151.26 537.35 154.45 542.63 152.52" stroke="#9B621F" stroke-width="0.75" stroke-linecap="round" stroke-linejoin="round"/>
<path d="M540.1 123.32C539.54 120.45 542.1 117.08 544.17 116.89" stroke="#9B621F" stroke-width="0.75" stroke-linecap="round" stroke-linejoin="round"/>
<path d="M546.12 124C546.53 121.72 549.25 116.25 553.12 116" stroke="#9B621F" stroke-width="0.75" stroke-linecap="round" stroke-linejoin="round"/>
<path d="M552.3 128.91C553.3 124.47 556.23 119.69 560.89 117.72" stroke="#9B621F" stroke-width="0.75" stroke-linecap="round" stroke-linejoin="round"/>
<path d="M556.64 134.42C557.26 129.57 563.97 125.56 567.52 125.81" stroke="#9B621F" stroke-width="0.75" stroke-linecap="round" stroke-linejoin="round"/>
<path d="M555.58 141.56C559.93 137.82 567.47 134.51 571.45 134.24" stroke="#9B621F" stroke-width="0.75" stroke-linecap="round" stroke-linejoin="round"/>
<path d="M531.69 151.1C535.62 151.95 540.02 151.49 539.88 151.67C539.74 151.85 539.06 157.67 534.76 157.06C530.46 156.45 531.69 151.1 531.69 151.1Z" fill="white" stroke="#EF8A66" stroke-width="0.75" stroke-linecap="round" stroke-linejoin="round"/>
<path d="M419.14 169.93C421.84 162.4 425.4 154.76 427.06 155.77C429.87 157.48 424.3 172.12 424.3 172.12L419.14 169.93Z" fill="#B25E47" stroke="#934735" stroke-width="0.75" stroke-miterlimit="10"/>
<path d="M415.66 171.65C415.66 171.18 417.32 149.65 420.46 150.14C424.72 150.78 421.33 172.14 421.33 172.14L415.66 171.65Z" fill="#B25E47" stroke="#934735" stroke-width="0.75" stroke-miterlimit="10"/>
<path d="M410.52 174.69C410.4 153.12 410.82 147.57 413.44 147.56C417.06 147.56 417.53 172.41 417.53 172.41L410.52 174.69Z" fill="#B25E47" stroke="#934735" stroke-width="0.75" stroke-miterlimit="10"/>
<path d="M422.61 173.38C421.98 183.57 421.68 188.98 421.68 188.98C421.68 188.98 412.56 193.98 411.97 181.74C411.38 169.5 422.61 173.38 422.61 173.38Z" fill="#B25E47" stroke="#934735" stroke-width="0.75" stroke-miterlimit="10"/>
<path d="M370.47 236.77C358.42 254.64 343.7 279.48 355.59 287.45C367.48 295.42 383.32 292.17 392.79 270.25C402.26 248.33 413.94 210.17 416.28 206.41C418.62 202.65 424.06 198.23 427.57 190.97C431.08 183.71 432.76 183.31 431.57 181.24C430.38 179.17 427.42 179.94 425.86 182.24C424.3 184.54 420.15 188.99 417.81 187.69C415.47 186.39 414.48 183.77 414.44 180.56C414.4 177.35 416.31 173.9 419.98 175.02C423.65 176.14 425.34 180.95 428.45 179.26C431.56 177.57 424.95 171.09 422.61 169.01C420.27 166.93 418.46 168.36 414.61 169.66C410.76 170.96 409.55 171.09 407.61 175.66C405.67 180.23 398.27 195.19 397.1 197.91C395.93 200.63 381.76 220 370.47 236.77Z" fill="#B25E47"/>
<path d="M427.57 191C431.07 183.73 432.76 183.34 431.57 181.27C430.38 179.2 427.42 179.97 425.86 182.27C424.3 184.57 420.15 189.02 417.81 187.72C415.47 186.42 414.48 183.8 414.44 180.59C414.4 177.38 416.31 173.93 419.98 175.05C423.65 176.17 425.34 180.98 428.45 179.29C431.56 177.6 424.95 171.12 422.61 169.04C420.27 166.96 418.46 168.39 414.61 169.69C410.76 170.99 409.55 171.12 407.61 175.69" stroke="#934735" stroke-width="0.75" stroke-linecap="round" stroke-linejoin="round"/>
<path d="M367.49 241.26C365.42 244.44 363.34 247.76 361.39 251.11" stroke="#934735" stroke-width="0.75" stroke-linecap="round" stroke-linejoin="round"/>
<path d="M185.41 253.76C182.11 258.89 188.91 262.76 195.05 266.76C201.19 270.76 202.8 252.56 202.8 252.56C202.8 252.56 187.23 250.93 185.41 253.76Z" fill="#F7AD2B"/>
<path d="M369.1 231.53C371.18 233.09 368.1 238.28 362.19 244.05L357.34 237.79C357.34 237.79 364.25 229.74 369.1 231.53Z" fill="#F7AD2B"/>
<path d="M359.3 233.09C373.14 247.74 389.2 267.02 380.67 281.66C372.14 296.3 351.78 288.53 339.46 277.3C339.46 277.3 329.43 258 359.3 233.09Z" fill="#B25E47"/>
<path d="M194.93 253.35C189.61 265.16 174.22 291.54 190.53 302.42C206.84 313.3 226.68 275.13 226.68 275.13C226.68 275.13 220.62 252.31 194.93 253.35Z" fill="#B25E47"/>
<path d="M369.1 231.53C357.938 239.797 349.191 250.901 343.77 263.69C341.827 268.05 340.381 272.616 339.46 277.3C336.26 274.98 328.7 269.3 328.7 269.3C328.14 272.83 327.41 276.89 326.7 280.99C324.51 292.76 321.99 304.76 321.99 304.76H247.18L245.92 299.76L236.14 261L226.68 275.11C226.49 274.88 226.3 274.66 226.09 274.45C215.09 262.56 185.41 253.74 185.41 253.74C193.474 240.136 203.099 227.521 214.09 216.15C217.308 212.865 220.689 209.745 224.22 206.8C229.165 202.882 234.589 199.609 240.36 197.06C246.922 194.079 253.723 191.654 260.69 189.81C260.69 189.81 260.85 173.89 262.59 155.07C263.36 146.58 280.59 144.92 284.59 159.36C288.59 173.8 291.59 183.08 291.59 183.08C295.892 182.445 300.245 182.214 304.59 182.39C310.1 182.61 316.37 183.62 321.28 186.45C323.92 187.98 329.19 192.55 335.28 198.22C349.83 211.75 369.1 231.53 369.1 231.53Z" fill="#FED81D"/>
<path d="M343.77 263.69C341.827 268.05 340.381 272.616 339.46 277.3C336.26 274.98 328.7 269.3 328.7 269.3C330.939 258.342 332.045 247.184 332 236C331.974 231.076 330.796 226.227 328.56 221.84C335.5 225.75 341.26 230.01 337.89 239.29C334.7 247.89 335.19 262.25 343.77 263.69Z" fill="#FCC71F"/>
<path d="M271.2 302.72L245.92 299.72L236.14 261C238.828 256.589 241.169 251.975 243.14 247.2C253.24 259.2 231.96 273.2 265.07 280.5C281.59 284.16 271.2 302.72 271.2 302.72Z" fill="#FCC71F"/>
<path d="M335.31 198.24C326.54 199.04 318.02 205.72 312.67 223.57C303.03 255.74 267.79 251.96 255.67 229.7C246.18 212.26 234.49 210.3 214.07 216.17C217.288 212.885 220.669 209.765 224.2 206.82C229.145 202.902 234.569 199.629 240.34 197.08C246.902 194.099 253.703 191.674 260.67 189.83C260.67 189.83 260.83 173.91 262.57 155.09C263.34 146.6 280.57 144.94 284.57 159.38C288.57 173.82 291.57 183.1 291.57 183.1C295.872 182.465 300.225 182.234 304.57 182.41C310.08 182.63 316.35 183.64 321.26 186.47C323.94 188 329.21 192.57 335.31 198.24Z" fill="#FFE05C"/>
<path d="M304.61 182.41C304.77 193.2 295.42 200.41 284.69 202.1C273.96 203.79 256.16 202.53 240.36 197.1C246.922 194.119 253.723 191.694 260.69 189.85C260.69 189.85 260.85 173.93 262.59 155.11C263.36 146.62 280.59 144.96 284.59 159.4C285.5 162.65 286.36 165.64 287.13 168.32C288.78 173.97 290.07 178.26 290.83 180.72C291.31 182.28 291.58 183.12 291.58 183.12C295.892 182.476 300.254 182.238 304.61 182.41Z" fill="#B25E47"/>
<path d="M290.85 180.7C281.37 181.46 275.85 175.84 275.92 168.33C275.92 168.33 282.56 168.33 287.15 168.33C288.8 174 290.09 178.24 290.85 180.7Z" fill="#914839"/>
<path d="M330.41 424.08H228C228 424.08 223.85 373.22 230.08 346.17C232.598 335.301 235.941 324.64 240.08 314.28C241.884 309.638 243.92 305.089 246.18 300.65L322 304.77C322.76 307.83 323.45 311.01 324.09 314.28C333 360.34 330.41 424.08 330.41 424.08Z" fill="#A7CAF0"/>
<mask id="mask0_78_79" style="mask-type:luminance" maskUnits="userSpaceOnUse" x="226" y="300" width="105" height="125">
<path d="M330.41 424.08H228C228 424.08 223.85 373.22 230.08 346.17C232.598 335.301 235.941 324.64 240.08 314.28C241.884 309.638 243.92 305.089 246.18 300.65L322 304.77C322.76 307.83 323.45 311.01 324.09 314.28C333 360.34 330.41 424.08 330.41 424.08Z" fill="white"/>
</mask>
<g mask="url(#mask0_78_79)">
<path d="M252.779 360.916C256.327 357.043 256.063 351.027 252.19 347.479C248.317 343.932 242.301 344.195 238.754 348.068C235.206 351.941 235.47 357.957 239.343 361.505C243.216 365.052 249.231 364.789 252.779 360.916Z" stroke="white" stroke-miterlimit="10"/>
<path d="M262.007 425.735C265.721 422.021 265.721 415.999 262.007 412.286C258.293 408.572 252.272 408.572 248.558 412.286C244.844 415.999 244.844 422.021 248.558 425.735C252.272 429.449 258.293 429.449 262.007 425.735Z" stroke="white" stroke-miterlimit="10"/>
<path d="M301.227 363.019C304.941 359.305 304.941 353.284 301.227 349.57C297.513 345.856 291.492 345.856 287.778 349.57C284.064 353.284 284.064 359.305 287.778 363.019C291.492 366.733 297.513 366.733 301.227 363.019Z" stroke="white" stroke-miterlimit="10"/>
<path d="M304.632 431.005C309.745 429.802 312.915 424.683 311.713 419.57C310.511 414.458 305.392 411.287 300.279 412.489C295.166 413.691 291.996 418.811 293.198 423.923C294.4 429.036 299.519 432.207 304.632 431.005Z" stroke="white" stroke-miterlimit="10"/>
<path d="M291.702 328.089C296.812 326.877 299.973 321.751 298.761 316.641C297.549 311.53 292.424 308.37 287.313 309.582C282.203 310.794 279.042 315.919 280.254 321.029C281.466 326.14 286.591 329.3 291.702 328.089Z" stroke="white" stroke-miterlimit="10"/>
<path d="M275.89 392.87C279.093 392.87 281.69 390.273 281.69 387.07C281.69 383.867 279.093 381.27 275.89 381.27C272.687 381.27 270.09 383.867 270.09 387.07C270.09 390.273 272.687 392.87 275.89 392.87Z" stroke="white" stroke-miterlimit="10"/>
<path d="M329.84 378.3C333.043 378.3 335.64 375.703 335.64 372.5C335.64 369.297 333.043 366.7 329.84 366.7C326.637 366.7 324.04 369.297 324.04 372.5C324.04 375.703 326.637 378.3 329.84 378.3Z" stroke="white" stroke-miterlimit="10"/>
<path d="M331.3 331.52C331.3 332.667 330.96 333.789 330.322 334.742C329.685 335.696 328.779 336.44 327.72 336.879C326.66 337.318 325.494 337.432 324.368 337.209C323.243 336.985 322.21 336.432 321.399 335.621C320.588 334.81 320.035 333.777 319.811 332.652C319.588 331.526 319.702 330.36 320.141 329.3C320.58 328.241 321.324 327.335 322.278 326.697C323.231 326.06 324.353 325.72 325.5 325.72C327.038 325.72 328.513 326.331 329.601 327.419C330.689 328.507 331.3 329.982 331.3 331.52Z" stroke="white" stroke-miterlimit="10"/>
<path d="M235 390.11C235 391.257 234.66 392.379 234.022 393.332C233.385 394.286 232.479 395.03 231.419 395.469C230.36 395.908 229.193 396.022 228.068 395.799C226.943 395.575 225.91 395.022 225.099 394.211C224.288 393.4 223.735 392.367 223.511 391.242C223.288 390.116 223.402 388.95 223.841 387.89C224.28 386.831 225.024 385.925 225.978 385.287C226.931 384.65 228.053 384.31 229.2 384.31C230.737 384.313 232.211 384.925 233.298 386.012C234.385 387.099 234.997 388.573 235 390.11Z" stroke="white" stroke-miterlimit="10"/>
<path d="M255.28 331.52C258.483 331.52 261.08 328.923 261.08 325.72C261.08 322.517 258.483 319.92 255.28 319.92C252.077 319.92 249.48 322.517 249.48 325.72C249.48 328.923 252.077 331.52 255.28 331.52Z" stroke="white" stroke-miterlimit="10"/>
</g>
<path d="M259 190.27C259 190.27 271.52 211.89 286.78 221.14C286.78 221.14 295.26 208.74 293.87 182.8" stroke="#683F1D" stroke-miterlimit="10"/>
<path d="M282.64 221.8C282.64 222.668 282.897 223.517 283.38 224.239C283.862 224.961 284.548 225.524 285.35 225.856C286.152 226.188 287.035 226.275 287.886 226.106C288.738 225.936 289.52 225.518 290.134 224.904C290.748 224.29 291.166 223.508 291.336 222.656C291.505 221.805 291.418 220.922 291.086 220.12C290.754 219.318 290.191 218.632 289.469 218.15C288.747 217.667 287.898 217.41 287.03 217.41C285.866 217.41 284.749 217.873 283.926 218.696C283.103 219.519 282.64 220.636 282.64 221.8Z" fill="white"/>
<path d="M328.7 269.31C330.939 258.349 332.045 247.187 332 236C331.974 231.076 330.796 226.227 328.56 221.84C326.7 217.84 324.69 214.17 324.27 209.24" stroke="#F7AD2B" stroke-width="0.75" stroke-linecap="round" stroke-linejoin="round"/>
<path d="M244.42 244.13C244.42 244.13 243.95 245.35 243.15 247.22C241.179 251.995 238.838 256.609 236.15 261.02" stroke="#F7AD2B" stroke-width="0.75" stroke-linecap="round" stroke-linejoin="round"/>
<path d="M324 314.28H240C241.805 309.638 243.84 305.089 246.1 300.65L322 304.77C322.71 307.83 323.4 311 324 314.28Z" fill="#83ADDF"/>
<path d="M290.63 314.28V337.15" stroke="#83ADDF" stroke-width="0.75" stroke-linecap="round" stroke-linejoin="round"/>
<path d="M292.39 338.69C294.77 337.38 296.14 336.76 296.39 335.32C296.64 333.88 297.83 318 297.83 318" stroke="#83ADDF" stroke-width="0.75" stroke-linecap="round" stroke-linejoin="round"/>
<path d="M289.5 424.08C289.5 424.08 290.1 360.31 290.6 357.41C290.597 357.38 290.597 357.35 290.6 357.32C291.11 356.37 292.14 354.96 297.8 351.65" stroke="#83ADDF" stroke-width="0.75" stroke-linecap="round" stroke-linejoin="round"/>
<path d="M165.5 192.85C170.56 190.91 176.07 191.3 183.11 194.66C191.35 198.6 198.49 208.73 195.01 222.66C194.44 224.91 185.68 229.59 184.23 228.56C182.78 227.53 194.26 199 165.5 192.85Z" fill="white"/>
<path d="M256.35 155.38C251.87 154.95 249.05 156.79 246.96 160.6C244.87 164.41 242.23 168.21 242.23 168.21C242.23 168.21 247.67 170.43 252.98 164.4C257.92 158.78 256.35 155.38 256.35 155.38Z" fill="#FED81D"/>
<path d="M259.62 157.12C254.56 158.47 252.19 160.51 251.28 166.64C250.37 172.77 250.69 175.58 250.04 177.89C250.04 177.89 256.52 176.39 259.62 170.57C262.57 165 261.82 161.43 259.62 157.12Z" fill="#FED81D"/>
<path d="M266 124.4C266 124.4 261.12 135 261 143.89C260.924 145.901 261.223 147.908 261.88 149.81L256.47 150.44C251.84 154.89 243.47 153.36 246.47 147.68C241.47 150.8 234.92 146.53 238.17 142.02C234.28 142.94 232.3 136.65 237.31 135.02C233.14 134.57 232.31 127.13 237.96 126.7C237.467 126.189 237.129 125.548 236.984 124.853C236.839 124.157 236.894 123.435 237.141 122.77C237.389 122.104 237.82 121.522 238.384 121.09C238.948 120.658 239.623 120.395 240.33 120.33C240.919 120.313 241.504 120.43 242.042 120.672C242.579 120.915 243.054 121.277 243.43 121.73C241.01 113.01 251.24 110.23 254.38 114.81C254.93 111.12 261.85 110.74 262.88 115.5C268.1 112.62 271.5 119.62 266 124.4Z" fill="#604730"/>
<path d="M261.92 149.81L256.51 150.44C251.88 154.89 243.51 153.36 246.51 147.68C241.51 150.8 234.96 146.53 238.21 142.02C234.32 142.94 232.34 136.65 237.35 135.02C233.18 134.57 232.35 127.13 238 126.7C237.507 126.188 237.169 125.548 237.024 124.853C236.879 124.157 236.934 123.435 237.181 122.77C237.429 122.104 237.86 121.522 238.424 121.09C238.988 120.658 239.663 120.395 240.37 120.33C240.01 123.41 241.37 127.77 244.37 128.07C240.27 129.58 240.3 134.44 244.37 136.15C241.82 138.98 245.64 142.96 248.83 140.72C248.71 143.84 253.4 148.92 260.98 143.84C260.918 145.871 261.236 147.896 261.92 149.81Z" fill="#473526"/>
<path d="M291.81 173.35C277.28 175.35 264.6 158.99 264.6 158.99C257.97 161.31 252.83 156.16 254.9 150.99C255.274 150.03 255.908 149.192 256.73 148.57C257.395 148.072 258.164 147.73 258.98 147.57C259.606 147.452 260.247 147.428 260.88 147.5C262.095 147.639 263.255 148.083 264.251 148.791C265.248 149.499 266.049 150.449 266.58 151.55C267.04 152.35 270.13 152.21 268.75 148.69C267.54 145.63 266.22 145.86 266.22 145.86C268.22 145.23 266.63 140.75 264.22 141.39C266.22 140.53 266.92 136.74 264.68 135.39C267.09 135.26 269.73 134.3 268.75 130.63C269.193 131.166 269.783 131.561 270.446 131.769C271.11 131.976 271.82 131.986 272.489 131.797C273.159 131.609 273.759 131.23 274.217 130.707C274.675 130.183 274.971 129.538 275.07 128.85C275.515 129.284 276.076 129.58 276.686 129.701C277.295 129.822 277.927 129.764 278.504 129.533C279.081 129.302 279.579 128.909 279.937 128.401C280.295 127.892 280.497 127.291 280.52 126.67C280.82 128.02 282.4 128.42 283.65 127.67C286.471 130.75 288.983 134.1 291.15 137.67L291.23 137.8C292.45 139.7 293.6 141.62 294.64 143.53C302.53 158 304.6 171.58 291.81 173.35Z" fill="#B25E47"/>
<path d="M274.25 146.05C273.72 147.84 270.47 148.45 267 147.42C263.53 146.39 261.13 144.1 261.66 142.31C262.19 140.52 265.44 139.92 268.91 140.95C272.38 141.98 274.78 144.27 274.25 146.05Z" fill="#A0503D"/>
<path d="M294.7 143.6C293.27 144.6 291.86 144.92 290.94 144.28C289.55 143.34 289.75 140.6 291.29 137.87C292.51 139.77 293.66 141.69 294.7 143.6Z" fill="#A0503D"/>
<path d="M260.89 147.56C260.257 147.488 259.616 147.512 258.99 147.63C258.174 147.79 257.405 148.132 256.74 148.63C252.12 135.05 264.3 128.14 264.3 128.14C259.66 134.89 260.38 144 260.89 147.56Z" fill="white"/>
<path d="M284.64 137.53C284.638 137.795 284.714 138.054 284.86 138.275C285.005 138.496 285.212 138.67 285.456 138.773C285.699 138.877 285.968 138.906 286.228 138.857C286.488 138.808 286.728 138.683 286.917 138.498C287.106 138.313 287.236 138.076 287.291 137.817C287.346 137.558 287.323 137.289 287.224 137.043C287.126 136.798 286.958 136.586 286.74 136.436C286.522 136.286 286.264 136.204 286 136.2C285.823 136.196 285.647 136.227 285.482 136.292C285.317 136.358 285.167 136.455 285.04 136.579C284.913 136.703 284.813 136.851 284.744 137.014C284.675 137.177 284.64 137.353 284.64 137.53Z" fill="#683F1D"/>
<path d="M275.92 140.36C275.92 140.625 275.999 140.884 276.146 141.104C276.293 141.325 276.502 141.497 276.747 141.598C276.992 141.699 277.261 141.726 277.521 141.674C277.781 141.623 278.02 141.495 278.207 141.308C278.395 141.12 278.522 140.881 278.574 140.621C278.626 140.361 278.599 140.092 278.498 139.847C278.396 139.602 278.225 139.393 278.004 139.246C277.784 139.099 277.525 139.02 277.26 139.02C277.084 139.02 276.91 139.055 276.747 139.122C276.585 139.189 276.437 139.288 276.312 139.412C276.188 139.537 276.089 139.685 276.022 139.847C275.955 140.01 275.92 140.184 275.92 140.36Z" fill="#683F1D"/>
<path d="M284.84 126.4C284.594 126.934 284.202 127.388 283.71 127.71C282.46 128.5 280.88 128.1 280.58 126.71C280.557 127.331 280.355 127.932 279.997 128.441C279.639 128.949 279.141 129.342 278.564 129.573C277.987 129.804 277.355 129.862 276.746 129.741C276.136 129.62 275.575 129.324 275.13 128.89C275.032 129.578 274.735 130.223 274.277 130.747C273.819 131.27 273.219 131.649 272.549 131.837C271.88 132.026 271.17 132.016 270.506 131.809C269.843 131.601 269.253 131.206 268.81 130.67C269.81 134.34 267.15 135.3 264.74 135.43C266.98 136.76 266.23 140.55 264.28 141.43C266.64 140.79 268.28 145.27 266.28 145.9C266.28 145.9 267.6 145.67 268.81 148.73C270.19 152.25 267.1 152.39 266.64 151.59C265.979 150.189 264.88 149.041 263.509 148.32C262.138 147.598 260.569 147.342 259.04 147.59C258.381 144.833 258.248 141.976 258.65 139.17C259.274 134.948 261.274 131.05 264.34 128.08C262.18 124.66 266.25 120.19 269.65 122.77C269.21 119.66 274.57 117.69 276.6 121.41C277.77 118.07 282.74 120.11 282.18 122.58C283.8 121.7 286 124 284.84 126.4Z" fill="#604730"/>
<path d="M279.87 136.2C283.16 143.25 288.15 139.39 289.41 144.71" stroke="#934735" stroke-width="0.75" stroke-linecap="round" stroke-linejoin="round"/>
<path d="M277.09 148C282.79 149.61 286.77 148.56 287.71 148C287.71 148 288.27 153.06 283.17 152.65C281.795 152.618 280.465 152.15 279.373 151.315C278.28 150.479 277.481 149.319 277.09 148Z" fill="white" stroke="#934735" stroke-width="0.75" stroke-linecap="round" stroke-linejoin="round"/>
<path d="M257.89 153.79C258.6 150.2 264.2 150.24 265.24 155.38" stroke="#934735" stroke-width="0.75" stroke-linecap="round" stroke-linejoin="round"/>
<path d="M262.4 157.12C259.27 156.31 260.75 151.57 264.17 152.93" stroke="#934735" stroke-width="0.75" stroke-linecap="round" stroke-linejoin="round"/>
<path d="M271.24 137.18C270.99 138.85 277.24 135.24 275.95 133.18C274.66 131.12 271.47 135.56 271.24 137.18Z" fill="#604730"/>
<path d="M287.15 131.05C288.45 132.13 281.38 133.64 281 131.27C280.62 128.9 285.89 130 287.15 131.05Z" fill="#604730"/>
<path d="M226.18 276.13C221.09 275.118 215.949 274.384 210.78 273.93" stroke="#934735" stroke-width="0.75" stroke-linecap="round" stroke-linejoin="round"/>
<path d="M210.78 273.93C192.42 272.31 178.92 287.65 187.11 299.41C197.47 314.28 263.79 310.48 270.6 310.31C274.92 310.21 274.6 313.39 281.21 314.01C285.21 314.4 291.33 314.42 292.62 313.77C293.589 313.119 294.372 312.226 294.89 311.18C294.89 311.18 298.67 312.69 300.18 308.37C300.18 308.37 304.03 309.24 304.66 303.83C304.66 303.83 306.99 306.73 309.14 305.67C311.6 304.46 311.95 302.67 310.22 300.38C308.49 298.09 301.37 290 299 289.15C296.63 288.3 278.83 291.45 275.79 290.77C260.52 287.36 239.62 276.47 210.78 273.93Z" fill="#B25E47"/>
<path d="M288.47 314.27C289.871 314.321 291.271 314.153 292.62 313.77C293.589 313.119 294.372 312.226 294.89 311.18C294.89 311.18 298.67 312.69 300.18 308.37C300.18 308.37 304.03 309.24 304.66 303.83C304.66 303.83 306.99 306.73 309.14 305.67C311.6 304.46 311.95 302.67 310.22 300.38C308.49 298.09 301.37 290 299 289.15" stroke="#934735" stroke-width="0.75" stroke-linecap="round" stroke-linejoin="round"/>
<path d="M305.15 304.37L299.73 298.43" stroke="#934735" stroke-width="0.75" stroke-linecap="round" stroke-linejoin="round"/>
<path d="M300.18 308.37L294.5 304.77" stroke="#934735" stroke-width="0.75" stroke-linecap="round" stroke-linejoin="round"/>
<path d="M294.89 311.18L291.01 309.99" stroke="#934735" stroke-width="0.75" stroke-linecap="round" stroke-linejoin="round"/>
<path d="M194.09 99.4L190.01 99.82L185.19 100.34L188.46 96.92L191.48 93.77L194.09 99.4Z" fill="white"/>
<path d="M178.14 221.14C190.8 229.14 202.33 220.3 205.51 204.2C210.2 180.43 214.23 120.38 214.23 120.38C214.23 120.38 220.66 106.46 222.71 101.43C224.76 96.4 224.43 91.93 221.45 90.64C221.45 90.64 218.45 81.34 213.83 81.05C212.942 80.5758 212.015 80.1777 211.06 79.86C208.75 79.39 204.5 81.52 203.38 82.7C202.26 83.88 205.98 85.12 208.1 84.77C210.22 84.42 211.77 89.77 210.82 92.03C209.87 94.29 205.82 98.83 204.38 97.65C202.94 96.47 202.49 92.39 203.08 89.2C203.67 86.01 203.26 84.41 201.13 85.65C199 86.89 194.87 97.23 195.34 99.12C195.81 101.01 198.53 108.81 198.71 110.12C198.89 111.43 178.11 179.82 174.01 191.69C169.91 203.56 169.19 215.49 178.14 221.14Z" fill="#FEBD9D"/>
<path d="M221.45 90.64C221.693 92.2327 221.833 93.8393 221.87 95.45" stroke="#EF8A66" stroke-width="0.75" stroke-linecap="round" stroke-linejoin="round"/>
<path d="M216 88C216.599 90.1992 216.935 92.4617 217 94.74" stroke="#EF8A66" stroke-width="0.75" stroke-linecap="round" stroke-linejoin="round"/>
<path d="M191.48 93.77L198.27 89.91C196.71 93.11 195.27 97.18 195.27 98.76L194.06 99.4C193.52 99.2007 193.025 98.8968 192.603 98.5057C192.181 98.1146 191.84 97.644 191.601 97.1209C191.361 96.5978 191.227 96.0325 191.206 95.4575C191.186 94.8824 191.279 94.309 191.48 93.77Z" fill="#683F1D"/>
<path d="M190.01 99.82L185.19 100.34L188.46 96.92L190.01 99.82Z" fill="#683F1D"/>
<path d="M195.34 99.13C194.87 97.24 199.01 86.89 201.13 85.66C202.7 84.74 203.34 85.36 203.33 87.04C203.312 87.7661 203.229 88.489 203.08 89.2C202.882 90.3153 202.795 91.4475 202.82 92.58C202.82 92.73 202.82 92.88 202.82 93.02V93.45C202.82 93.66 202.82 93.87 202.89 94.07L202.98 94.67C203.074 95.7949 203.551 96.8536 204.33 97.67C205.81 98.86 209.83 94.36 210.77 92.07C210.967 91.5494 211.066 90.9966 211.06 90.44" stroke="#EF8A66" stroke-width="0.75" stroke-linecap="round" stroke-linejoin="round"/>
<path d="M207.2 84.83C205.08 84.83 202.4 83.73 203.37 82.7C204.5 81.52 208.75 79.39 211.06 79.86C212.015 80.1753 212.941 80.57 213.83 81.04" stroke="#EF8A66" stroke-width="0.75" stroke-linecap="round" stroke-linejoin="round"/>
<path d="M219.41 86C220.202 87.4825 220.871 89.0277 221.41 90.62C223.35 91.46 224.17 93.62 223.93 96.47" stroke="#EF8A66" stroke-width="0.75" stroke-linecap="round" stroke-linejoin="round"/>
<path d="M223.71 83.76L219.41 86.02L211.11 90.41L203 94.67C202.703 92.8573 202.72 91.0069 203.05 89.2C203.199 88.489 203.282 87.7661 203.3 87.04L207.17 84.83L213.83 81.04L220.36 77.34L223.71 83.76Z" fill="#683F1D"/>
<path d="M219.15 77.34C218.78 79.03 219.98 83.97 223.09 84.96L225.09 83.72L221.24 76.21L219.15 77.34Z" fill="white"/>
<path d="M224.74 79C225.9 81.12 226.15 83.2 225.31 83.66C224.47 84.12 222.85 82.78 221.7 80.66C220.55 78.54 220.29 76.46 221.13 76C221.97 75.54 223.58 76.88 224.74 79Z" fill="#683F1D"/>
<path d="M195.34 99.13C194.87 97.24 199.01 86.89 201.13 85.66C202.7 84.74 203.34 85.36 203.33 87.04C203.312 87.7661 203.229 88.489 203.08 89.2C202.882 90.3153 202.795 91.4475 202.82 92.58C202.82 92.73 202.82 92.88 202.82 93.02V93.45C202.82 93.66 202.82 93.87 202.89 94.07L202.98 94.67C203.074 95.7949 203.551 96.8536 204.33 97.67C205.81 98.86 209.83 94.36 210.77 92.07C210.967 91.5494 211.066 90.9966 211.06 90.44" stroke="#EF8A66" stroke-width="0.75" stroke-linecap="round" stroke-linejoin="round"/>
<path d="M82.4201 202.63C79.4901 215.63 59.2201 211.47 58.0801 204.81C56.9401 198.15 58.7801 196.5 60.3401 184.3C61.6201 174.3 78.6001 174.11 81.6101 180.82C82.095 181.903 82.2075 183.116 81.9301 184.27C81.2977 187.676 81.2808 191.168 81.8801 194.58C82.3101 197.78 82.8901 200.5 82.4201 202.63Z" fill="#FEBD9D"/>
<path d="M81.93 184.27C81.2977 187.676 81.2807 191.168 81.88 194.58C73.22 192.08 71.71 182.36 71.71 182.36L81.61 180.82C82.0949 181.903 82.2075 183.116 81.93 184.27Z" fill="#F4A789"/>
<path d="M30.4 294.65L49.9 302.13C49.9 302.13 47.19 324.67 46.98 324.34C46.77 324.01 14.16 320.61 14.16 320.61L30.4 294.65Z" fill="#FEBD9D"/>
<path d="M2 307.77C4.72 317.6 11.54 321.18 18.07 320.96C24.6 320.74 33.64 317.31 37 307C39.57 299.11 34 289.65 34 289.65L2 307.77Z" fill="white"/>
<path d="M39.12 424.08C39.12 424.08 41.62 410.44 36.33 387.87C34.0685 379.055 33.0586 369.966 33.33 360.87C33.94 346.95 38.25 331.4 48.86 310.25L116.86 307.46C119.9 316.92 122.66 325.613 125.14 333.54C132.67 357.54 137.8 374.84 141.39 386.54C146.17 402.1 154.25 424.09 154.25 424.09L39.12 424.08Z" fill="#FED81D"/>
<path d="M125.18 333.55C118.01 354.39 107.81 363.83 81.43 354.12C57.71 345.4 49.0101 339.12 33.3701 360.88C33.9801 346.96 38.2901 331.41 48.9001 310.26L116.9 307.47C119.94 316.93 122.7 325.623 125.18 333.55Z" fill="#FFE05C"/>
<path d="M118.85 272.29C115.1 286.84 118.57 302.64 120.09 306.1C121.61 309.56 120.37 311.93 118.16 312.34C115.95 312.75 50.8 314.7 47.88 314.28C44.96 313.86 44.01 311.65 44.01 309.16C44.01 306.67 38.88 289.16 36.38 282.16C36.38 282.16 36.11 301.7 30.7 307.52C25.29 313.34 12.7 315.7 4.79003 311.41C3.31496 310.476 2.26617 309 1.87003 307.3C-1.12997 297.96 3.51003 276.63 6.73003 261.38C8.01003 255.26 9.86003 247.61 12.22 239.97C16.97 224.58 23.8 209.2 32.22 206.45C51 200.32 64.67 202.71 74.63 201.78C77.73 201.48 80.73 201.12 83.63 200.78H83.74C99.53 198.78 111.62 196.95 117.62 207.1C118.548 208.71 119.28 210.426 119.8 212.21C123.51 224.45 121.97 232.52 121.16 243.82C121.16 244.27 121.11 244.72 121.08 245.18C121.853 254.278 121.099 263.441 118.85 272.29Z" fill="#C3DCF8"/>
<path d="M36.3801 282.12C36.3801 282.12 36.1101 301.66 30.7001 307.48C25.2901 313.3 12.7001 315.66 4.79005 311.37C3.31499 310.436 2.2662 308.96 1.87006 307.26C27.3401 314.83 35.8201 287.73 29.0301 282.73C22.4201 277.86 22.5201 264.8 26.5601 258.01C29.2501 265.8 34.3101 275.72 36.3801 282.12Z" fill="#A7CAF0"/>
<path d="M117.61 207C110.4 212.5 104.36 219.54 101.93 228.67C100.29 234.81 97.63 239.6 94.04 243C84.31 252.26 67.73 251.28 46.28 239.21C31.43 230.87 21.28 232.64 12.22 239.9C16.97 224.51 23.8 209.13 32.22 206.38C51 200.25 64.67 202.64 74.63 201.71C77.73 201.41 80.73 201.05 83.63 200.71H83.74C99.52 198.75 111.61 196.89 117.61 207Z" fill="#D0E5F7"/>
<path d="M24.84 251.07C25.1348 253.447 25.7122 255.78 26.56 258.02C29.25 265.8 34.31 275.72 36.38 282.12" stroke="#83ADDF" stroke-width="0.75" stroke-linecap="round" stroke-linejoin="round"/>
<path d="M189.54 224.7C185.41 227.45 162.06 233.97 143.67 239.25C136.307 241.396 128.772 242.905 121.15 243.76C114.425 244.539 107.639 244.663 100.89 244.13C98.5671 243.936 96.2631 243.559 94 243C65.31 236.06 69.88 203.19 83.58 200.69H83.69C103.237 197.246 122.95 194.826 142.75 193.44C151.33 192.91 160.09 192.67 168.54 192.89C201.4 193.78 193.67 222 189.54 224.7Z" fill="#C3DCF8"/>
<path d="M189.54 224.7C185.41 227.45 162.06 233.97 143.67 239.25C136.306 241.396 128.772 242.905 121.15 243.76C114.425 244.539 107.639 244.663 100.89 244.13" stroke="#83ADDF" stroke-width="0.75" stroke-linecap="round" stroke-linejoin="round"/>
<path d="M142.79 193.47C135.24 196.6 125.69 200.86 117.61 207.04C110.4 212.54 104.36 219.58 101.93 228.71C100.29 234.85 97.63 239.64 94.04 243.04C65.35 236.1 69.92 203.23 83.62 200.73H83.73C103.277 197.282 122.99 194.859 142.79 193.47Z" fill="#D0E5F7"/>
<path d="M165.5 192.85C170.56 190.91 176.07 191.3 183.11 194.66C191.35 198.6 198.49 208.73 195.01 222.66C194.44 224.91 185.68 229.59 184.23 228.56C182.78 227.53 194.26 199 165.5 192.85Z" fill="white"/>
<path d="M63 185.44C80.37 189.55 89.14 187.78 91.38 178.63C93.62 169.48 84.29 155.57 84.29 155.57L85.03 150.57C82.9584 149.615 80.9358 148.557 78.97 147.4C78.03 146.65 74.97 138.9 72.15 138.15C69.33 137.4 49.56 147.58 55.44 164.38C61.32 181.18 63 185.44 63 185.44Z" fill="#FEBD9D"/>
<path d="M79.86 160.34C79.26 162.24 76.13 162.96 72.86 161.94C69.59 160.92 67.44 158.54 68.03 156.63C68.62 154.72 71.76 154 75.03 155.03C78.3 156.06 80.46 158.43 79.86 160.34Z" fill="#F4AF90"/>
<path d="M84.26 155.57L85 150.57C82.9283 149.615 80.9058 148.557 78.94 147.4" stroke="#EF8A66" stroke-width="0.75" stroke-linecap="round" stroke-linejoin="round"/>
<path d="M70.05 220.58C61.88 222.58 59.86 214.31 59.86 214.31C53.27 221.14 45.48 219.18 43.68 215.57C43.68 215.57 36.97 218.34 31.6 214.31C24.22 208.78 29.03 200.55 29.03 200.55C21.29 198.55 22.71 190.82 27.15 187.55L27.81 187.09C32.43 184.09 40.73 182.09 37.68 176.09C34.5 169.7 31.89 160.9 40.1 155.98C40.1 155.98 40.52 146.49 46.42 143.38C52.32 140.27 52.71 139.04 52.84 137.28C53.29 130.8 59.41 124.68 66.35 129.45C66.57 129.6 66.8 129.76 67.02 129.93C74.45 129.19 76.41 136.18 75.16 139.55C77.82 148.27 71.48 154.81 73.28 157.86C75.34 161.34 73.77 165.5 73.77 165.5C70.7 160.63 66.92 159.09 64.32 163.26C62.21 166.66 63.93 171.11 70.76 175.35C78.07 179.89 74.61 185.72 73.01 190.11C72.0764 192.68 71.7628 195.434 72.0947 198.149C72.4266 200.863 73.3946 203.461 74.92 205.73C78.45 210.76 78.22 218.62 70.05 220.58Z" fill="#7F542D"/>
<path d="M70.05 220.58C61.88 222.58 59.86 214.31 59.86 214.31C53.27 221.14 45.48 219.18 43.68 215.57C43.68 215.57 36.97 218.34 31.6 214.31C24.22 208.78 29.03 200.55 29.03 200.55C21.29 198.55 22.71 190.82 27.15 187.55L27.81 187.09C30.92 195.82 36.58 200.54 42.35 199.18C50.02 197.4 54.35 193.18 61.53 197.6C68.71 202.02 70.86 181.4 60.34 178.29C49.82 175.18 47.8 157.49 56.9 155.29C63.71 153.69 69.83 139.92 66.35 129.36C66.57 129.51 66.8 129.67 67.02 129.84C74.45 129.1 76.41 136.09 75.16 139.46C77.82 148.18 71.48 154.72 73.28 157.77C75.34 161.25 73.77 165.41 73.77 165.41C70.7 160.54 66.92 159 64.32 163.17C62.21 166.57 63.93 171.02 70.76 175.26C78.07 179.8 74.61 185.63 73.01 190.02C72.0764 192.59 71.7628 195.344 72.0947 198.059C72.4266 200.773 73.3946 203.371 74.92 205.64C78.45 210.76 78.22 218.62 70.05 220.58Z" fill="#704725"/>
<path d="M76.69 152.27C76.69 152.533 76.768 152.79 76.9141 153.009C77.0603 153.228 77.268 153.398 77.511 153.499C77.754 153.599 78.0214 153.626 78.2794 153.574C78.5374 153.523 78.7744 153.396 78.9604 153.21C79.1464 153.024 79.2731 152.787 79.3244 152.529C79.3757 152.271 79.3494 152.004 79.2487 151.761C79.1481 151.518 78.9776 151.31 78.7589 151.164C78.5402 151.018 78.283 150.94 78.02 150.94C77.845 150.939 77.6714 150.972 77.5094 151.039C77.3475 151.105 77.2003 151.203 77.0766 151.327C76.9528 151.45 76.8549 151.597 76.7885 151.759C76.7221 151.921 76.6886 152.095 76.69 152.27Z" fill="#683F1D"/>
<path d="M29 200.56C32.79 193.05 36.24 193.27 39.46 190.79C42.68 188.31 44.09 183.15 43.46 180.79" stroke="#A56F42" stroke-width="0.75" stroke-linecap="round" stroke-linejoin="round"/>
<path d="M43.68 215.57C42.6569 213.909 42.2013 211.96 42.3816 210.018C42.562 208.076 43.3686 206.244 44.68 204.8" stroke="#A56F42" stroke-width="0.75" stroke-linecap="round" stroke-linejoin="round"/>
<path d="M59.86 214.31C59.3709 213.04 59.1547 211.681 59.2253 210.321C59.2959 208.962 59.6519 207.633 60.27 206.42" stroke="#A56F42" stroke-width="0.75" stroke-linecap="round" stroke-linejoin="round"/>
<path d="M53.67 143.84C58.11 142.84 58.54 139.67 59.87 137.06C61.2 134.45 63.26 130.41 67.02 129.86" stroke="#A56F42" stroke-width="0.75" stroke-linecap="round" stroke-linejoin="round"/>
<path d="M75.16 139.48C73.81 136.48 69.53 132.89 65.56 136.48" stroke="#A56F42" stroke-width="0.75" stroke-linecap="round" stroke-linejoin="round"/>
<path d="M67.45 168.82C67.36 165.06 71.07 164.18 73.95 167.05" stroke="#EF8A66" stroke-width="0.75" stroke-linecap="round" stroke-linejoin="round"/>
<path d="M72.44 170.45C69.54 170.45 69.44 166.1 73.13 166.35" stroke="#EF8A66" stroke-width="0.75" stroke-linecap="round" stroke-linejoin="round"/>
<path d="M81.43 161.19C81.9644 161.868 82.6809 162.379 83.4957 162.665C84.3104 162.95 85.1895 162.997 86.03 162.8" stroke="#EF8A66" stroke-width="0.75" stroke-linecap="round" stroke-linejoin="round"/>
<path d="M67 172.45C69.2 174.22 73.17 173.97 73.17 173.97" stroke="#EF8A66" stroke-width="0.75" stroke-linecap="round" stroke-linejoin="round"/>
<path d="M75.54 176.09C77.0975 176.09 78.36 174.827 78.36 173.27C78.36 171.713 77.0975 170.45 75.54 170.45C73.9826 170.45 72.72 171.713 72.72 173.27C72.72 174.827 73.9826 176.09 75.54 176.09Z" fill="white"/>
<path d="M73.4 151C74.78 151.9 78.1 145.52 75.5 143.77C72.9 142.02 71.54 149.79 73.4 151Z" fill="#7F542D"/>
<path d="M633.41 419.01H13.24C7.77788 419.01 3.34998 423.438 3.34998 428.9V430.45C3.34998 435.912 7.77788 440.34 13.24 440.34H633.41C638.872 440.34 643.3 435.912 643.3 430.45V428.9C643.3 423.438 638.872 419.01 633.41 419.01Z" fill="#BEADAD"/>
<path d="M22.53 440.34C38.93 432.5 63.26 430.77 81.8 440.34" stroke="#E0B9B9" stroke-width="0.75" stroke-linecap="round" stroke-linejoin="round"/>
<path d="M16.87 419C33.04 428 43.79 427.27 63.74 427C78.6 426.81 96.49 434.38 108.4 440.33" stroke="#E0B9B9" stroke-width="0.75" stroke-linecap="round" stroke-linejoin="round"/>
<path d="M93.62 419C105.35 432.19 113.49 433.84 117.43 430.44C121.61 426.83 125.91 425.85 130.35 429.66C135.49 434.08 142.64 425.13 146.66 419" stroke="#E0B9B9" stroke-width="0.75" stroke-linecap="round" stroke-linejoin="round"/>
<path d="M139.36 440.34C144.1 435.97 152.55 430.57 165.71 429.67C181.31 428.67 201.13 435.85 211.71 440.34" stroke="#E0B9B9" stroke-width="0.75" stroke-linecap="round" stroke-linejoin="round"/>
<path d="M191.23 419C209.53 428.6 229.53 434.22 245.69 429.66C261.46 425.23 299.12 430.75 312.82 419" stroke="#E0B9B9" stroke-width="0.75" stroke-linecap="round" stroke-linejoin="round"/>
<path d="M260.64 440.34C272.36 433.67 290.64 429.59 304.86 440.34" stroke="#E0B9B9" stroke-width="0.75" stroke-linecap="round" stroke-linejoin="round"/>
<path d="M325 440.34C346.79 423.4 390.29 420.34 426.62 429.58C469.62 440.53 488.9 427.89 496.71 419.01" stroke="#E0B9B9" stroke-width="0.75" stroke-linecap="round" stroke-linejoin="round"/>
<path d="M364.18 440.34C379.96 433.25 401.18 431.79 423.59 440.34" stroke="#E0B9B9" stroke-width="0.75" stroke-linecap="round" stroke-linejoin="round"/>
<path d="M501.73 440.34C528.15 428.04 549.29 429.47 568.89 440.34" stroke="#E0B9B9" stroke-width="0.75" stroke-linecap="round" stroke-linejoin="round"/>
<path d="M539 419C582.53 433.62 618.55 444.94 642.28 425.1" stroke="#E0B9B9" stroke-width="0.75" stroke-linecap="round" stroke-linejoin="round"/>
<path d="M573.72 419C595.81 432 621.61 431 637.49 420.17" stroke="#E0B9B9" stroke-width="0.75" stroke-linecap="round" stroke-linejoin="round"/>
</g>
<defs>
<clipPath id="clip0_78_79">
<rect width="652" height="441" fill="white"/>
</clipPath>
</defs>
</svg>
