<svg width="98" height="98" viewBox="0 0 98 98" fill="none" xmlns="http://www.w3.org/2000/svg">
<path d="M41.3438 88.8125C41.3438 90.0308 41.8277 91.1993 42.6892 92.0608C43.5507 92.9223 44.7192 93.4062 45.9375 93.4062H52.0625C53.2808 93.4062 54.4492 92.9223 55.3107 92.0608C56.1722 91.1993 56.6562 90.0308 56.6562 88.8125V79.625H41.3438V88.8125Z" fill="#F7F7F7"/>
<path d="M86.0459 22.0822L90.8601 18.4715L85.3476 11.1215L80.5334 14.7322C80.0488 15.0951 79.4674 15.3063 78.8629 15.3391C78.2583 15.3718 77.6576 15.2245 77.1366 14.916C76.6157 14.6074 76.1979 14.1514 75.9361 13.6054C75.6742 13.0595 75.5801 12.4482 75.6655 11.8488L76.5154 5.89378L67.4197 4.59375L66.5699 10.5488C66.4845 11.1485 66.2231 11.7095 65.8188 12.1607C65.4145 12.6118 64.8855 12.933 64.2987 13.0835C63.7119 13.2339 63.0936 13.207 62.5221 13.006C61.9506 12.8051 61.4515 12.4391 61.088 11.9545L57.4789 7.14022L50.1289 12.6527L53.738 17.467C54.101 17.9516 54.3122 18.5329 54.3449 19.1375C54.3776 19.7421 54.2304 20.3428 53.9218 20.8637C53.6133 21.3847 53.1572 21.8024 52.6113 22.0643C52.0654 22.3261 51.4541 22.4203 50.8547 22.3348L44.8996 21.485L43.5996 30.5806L49.5562 31.4304C50.1558 31.5161 50.7166 31.7777 51.1676 32.182C51.6185 32.5864 51.9395 33.1155 52.0898 33.7022C52.2401 34.289 52.213 34.9072 52.0119 35.4786C51.8109 36.05 51.4449 36.5489 50.9603 36.9123L46.1476 40.523L51.6601 47.873L56.4728 44.2638C56.9574 43.9003 57.5389 43.6887 58.1438 43.6557C58.7486 43.6227 59.3497 43.7699 59.8709 44.0785C60.3922 44.3872 60.8102 44.8435 61.072 45.3897C61.3339 45.9359 61.428 46.5475 61.3422 47.1472L60.4847 53.1007L69.5803 54.4007L70.4378 48.4442C70.5235 47.8445 70.7851 47.2838 71.1894 46.8328C71.5938 46.3818 72.1229 46.0609 72.7096 45.9106C73.2964 45.7603 73.9146 45.7873 74.486 45.9884C75.0574 46.1894 75.5563 46.5554 75.9197 47.04L79.5304 51.8527L86.8804 46.3402L83.2682 41.5275C82.9047 41.0429 82.693 40.4614 82.6601 39.8566C82.6271 39.2517 82.7742 38.6506 83.0828 38.1294C83.3915 37.6082 83.8478 37.1902 84.394 36.9283C84.9402 36.6664 85.5519 36.5724 86.1515 36.6581L92.1065 37.5095L93.4066 28.4139L87.4515 27.5625C86.8522 27.4768 86.2916 27.2153 85.8408 26.8111C85.39 26.407 85.0691 25.8782 84.9186 25.2917C84.7682 24.7052 84.795 24.0873 84.9956 23.516C85.1963 22.9448 85.5617 22.4458 86.0459 22.0822ZM68.5039 40.2152C66.3839 40.2152 64.3115 39.5866 62.5488 38.4088C60.7861 37.231 59.4123 35.557 58.601 33.5984C57.7898 31.6398 57.5775 29.4846 57.9911 27.4053C58.4047 25.3261 59.4255 23.4162 60.9246 21.9172C62.4236 20.4181 64.3335 19.3973 66.4127 18.9837C68.492 18.5701 70.6472 18.7824 72.6057 19.5936C74.5643 20.4049 76.2384 21.7788 77.4162 23.5415C78.594 25.3041 79.2226 27.3765 79.2226 29.4965C79.2226 32.3393 78.0933 35.0656 76.0832 37.0758C74.073 39.0859 71.3466 40.2152 68.5039 40.2152Z" fill="#F30315"/>
<path d="M34.1289 61.4904C32.7893 60.6271 31.527 59.6497 30.3559 58.5689C29.9959 59.9524 29.2552 61.2071 28.2179 62.1908C27.1806 63.1744 25.8882 63.8475 24.4875 64.1334C23.0869 64.4195 21.6341 64.307 20.2942 63.8088C18.9543 63.3106 17.7809 62.4466 16.9074 61.315C16.0338 60.1834 15.4951 58.8295 15.3524 57.4072C15.2096 55.9848 15.4687 54.5508 16.1 53.2682C16.7313 51.9856 17.7096 50.9058 18.9239 50.1513C20.1381 49.3968 21.5396 48.998 22.9691 49C23.2034 49 23.4285 49.0491 23.6521 49.069C22.2005 45.6578 21.4526 41.9885 21.4532 38.2812H19.5039L18.4458 43.3145C18.394 43.5614 18.2819 43.7916 18.1196 43.9848C17.9574 44.178 17.7499 44.328 17.5156 44.4217C17.2814 44.5153 17.0276 44.5496 16.7769 44.5216C16.5261 44.4935 16.2863 44.4039 16.0785 44.2608L11.8477 41.3438L7.25391 45.9375L10.1633 50.1684C10.3064 50.3762 10.396 50.616 10.4241 50.8667C10.4521 51.1174 10.4178 51.3712 10.3242 51.6055C10.2305 51.8397 10.0805 52.0472 9.8873 52.2095C9.69414 52.3718 9.46387 52.4839 9.21697 52.5358L4.19141 53.5938V59.7188L9.22309 60.7768C9.46999 60.8287 9.70026 60.9408 9.89342 61.1031C10.0866 61.2654 10.2367 61.4729 10.3303 61.7071C10.4239 61.9414 10.4583 62.1952 10.4302 62.4459C10.4021 62.6966 10.3125 62.9364 10.1694 63.1442L7.25391 67.375L11.8477 71.9689L16.0785 69.0595C16.2863 68.916 16.5263 68.826 16.7772 68.7978C17.0281 68.7695 17.2822 68.8039 17.5166 68.8974C17.7511 68.9911 17.9588 69.1414 18.1212 69.3348C18.2836 69.5281 18.3956 69.7585 18.4473 70.0057L19.5039 75.0312H25.6289L26.6855 69.9981C26.7372 69.7509 26.8493 69.5205 27.0116 69.3271C27.174 69.1337 27.3817 68.9834 27.6162 68.8899C27.8507 68.7962 28.1047 68.7619 28.3556 68.7901C28.6065 68.8184 28.8465 68.9082 29.0543 69.0517L33.2852 71.9689L38.0918 67.1623C37.8425 66.0005 37.3635 64.9003 36.683 63.9262C36.0025 62.9522 35.1341 62.124 34.1289 61.4904Z" fill="white"/>
<path d="M93.6236 26.8979L87.6671 26.0481C87.3672 26.0054 87.0867 25.8747 86.8611 25.6725C86.6356 25.4704 86.475 25.2059 86.3997 24.9125C86.3245 24.6191 86.338 24.3099 86.4385 24.0242C86.5389 23.7384 86.7219 23.4889 86.9642 23.3071L91.7785 19.6965C92.1034 19.4528 92.3182 19.09 92.3756 18.688C92.433 18.286 92.3284 17.8776 92.0847 17.5527L86.5722 10.2027C86.3286 9.87781 85.9658 9.66303 85.5638 9.60559C85.1618 9.54816 84.7534 9.65279 84.4285 9.89645L79.6158 13.5071C79.3736 13.6909 79.0823 13.7984 78.7788 13.816C78.4753 13.8336 78.1735 13.7605 77.9117 13.6059C77.65 13.4514 77.4401 13.2225 77.3089 12.9483C77.1777 12.6741 77.1311 12.367 77.175 12.0662L78.0263 6.10967C78.0549 5.91048 78.0439 5.70761 77.994 5.51266C77.9442 5.31772 77.8563 5.13451 77.7356 4.97353C77.6149 4.81254 77.4636 4.67694 77.2904 4.57446C77.1172 4.47198 76.9255 4.40464 76.7263 4.3763L67.6368 3.0778C67.4377 3.04922 67.235 3.06013 67.0401 3.10992C66.8452 3.15971 66.6621 3.24741 66.5011 3.36799C66.3402 3.48857 66.2045 3.63968 66.102 3.81269C65.9994 3.98569 65.932 4.17721 65.9034 4.3763L65.0521 10.3329C65.0093 10.6327 64.8786 10.9132 64.6765 11.1388C64.4744 11.3644 64.2099 11.525 63.9164 11.6002C63.623 11.6754 63.3139 11.662 63.0281 11.5615C62.7424 11.461 62.4929 11.278 62.3111 11.0357L58.702 6.22145C58.4583 5.89656 58.0955 5.68178 57.6935 5.62434C57.2915 5.56691 56.8831 5.67154 56.5582 5.9152L51.9568 9.36817C49.8751 9.14689 47.7757 9.14689 45.694 9.36817C39.0783 10.1244 32.9221 13.1271 28.2534 17.875C23.5846 22.6228 20.6858 28.8286 20.041 35.4561C19.9996 35.8894 19.9843 36.3197 19.9629 36.75H19.5035C19.151 36.7506 18.8096 36.8728 18.5367 37.096C18.2639 37.3192 18.0764 37.6296 18.0059 37.975L16.9478 43.0067L12.7093 40.0835C12.4145 39.8801 12.0577 39.7865 11.701 39.8189C11.3443 39.8514 11.0103 40.0079 10.757 40.2611L6.16324 44.8549C5.91035 45.1081 5.75412 45.4418 5.72167 45.7982C5.68923 46.1545 5.78261 46.511 5.98561 46.8057L8.89499 51.0366L3.86177 52.0946C3.52012 52.1695 3.21438 52.359 2.99542 52.6318C2.77645 52.9045 2.65745 53.244 2.65821 53.5937V59.7187C2.65805 60.0702 2.7788 60.411 3.00018 60.684C3.22156 60.9569 3.5301 61.1454 3.87402 61.2178L8.90724 62.2759L5.99786 66.5068C5.79486 66.8014 5.70148 67.1579 5.73392 67.5143C5.76637 67.8707 5.9226 68.2044 6.17549 68.4576L10.7692 73.0513C11.0225 73.3046 11.3566 73.4611 11.7133 73.4935C12.07 73.526 12.4268 73.4324 12.7216 73.229L16.9524 70.3119L18.0105 75.3451C18.081 75.6905 18.2685 76.001 18.5413 76.2241C18.8141 76.4473 19.1556 76.5695 19.5081 76.5701H25.6331C25.9845 76.5703 26.3253 76.4496 26.5983 76.2282C26.8713 76.0068 27.0598 75.6982 27.1322 75.3543L28.1903 70.3211L32.4211 73.2305C32.7158 73.4335 33.0723 73.5269 33.4286 73.4944C33.785 73.462 34.1188 73.3057 34.3719 73.0529L36.75 70.6672V75.0312C36.7533 76.1016 37.0381 77.1522 37.5756 78.0778C38.1131 79.0034 38.8845 79.7714 39.8125 80.3049V88.8125C39.8125 90.4369 40.4578 91.9949 41.6064 93.1435C42.7551 94.2922 44.313 94.9375 45.9375 94.9375H52.0625C53.6869 94.9375 55.2448 94.2922 56.3935 93.1435C57.5421 91.9949 58.1875 90.4369 58.1875 88.8125V80.3049C59.1154 79.7714 59.8868 79.0034 60.4243 78.0778C60.9619 77.1522 61.2466 76.1016 61.25 75.0312V68.9706C61.2704 67.7156 61.6053 66.4858 62.2241 65.3938C62.8429 64.3018 63.7257 63.3825 64.7917 62.72C66.0625 61.8955 67.2676 60.974 68.3963 59.9637L66.3536 57.6822C65.344 58.5871 64.2653 59.4119 63.1273 60.149C61.631 61.0881 60.3946 62.388 59.5315 63.9293C58.6684 65.4707 58.2062 67.2041 58.1875 68.9706V75.0312C58.1875 75.8435 57.8648 76.6224 57.2905 77.1967C56.7161 77.7711 55.9372 78.0937 55.125 78.0937H42.875C42.0627 78.0937 41.2838 77.7711 40.7094 77.1967C40.1351 76.6224 39.8125 75.8435 39.8125 75.0312V68.8435C39.795 67.1107 39.3408 65.4103 38.4918 63.8996C37.6428 62.389 36.4264 61.1169 34.9553 60.2011C30.1949 57.2099 26.5345 52.7537 24.5248 47.503C22.5152 42.2522 22.2649 36.4909 23.8117 31.0856C25.3585 25.6804 28.6187 20.9236 33.1018 17.5309C37.585 14.1382 43.0486 12.293 48.6707 12.273C48.6479 12.3275 48.628 12.3832 48.611 12.4399C48.5542 12.8419 48.6594 13.25 48.9035 13.5745L52.5126 18.3872C52.6985 18.6278 52.8068 18.9192 52.8232 19.2228C52.8396 19.5263 52.7634 19.8277 52.6045 20.0869C52.4514 20.348 52.224 20.5576 51.9512 20.6888C51.6785 20.8199 51.3728 20.8668 51.0733 20.8235L45.1167 19.9721C44.9175 19.9435 44.7146 19.9545 44.5197 20.0044C44.3247 20.0543 44.1415 20.1421 43.9806 20.2628C43.8196 20.3836 43.684 20.5348 43.5815 20.708C43.479 20.8812 43.4117 21.0729 43.3833 21.2721L42.0833 30.3662C42.0547 30.5654 42.0657 30.7683 42.1156 30.9632C42.1655 31.1582 42.2533 31.3414 42.374 31.5023C42.4948 31.6633 42.6461 31.7989 42.8192 31.9014C42.9924 32.0039 43.1841 32.0712 43.3833 32.0996L49.3399 32.951C49.6398 32.9937 49.9202 33.1244 50.1458 33.3265C50.3714 33.5286 50.532 33.7931 50.6072 34.0866C50.6825 34.38 50.669 34.6891 50.5685 34.9749C50.468 35.2606 50.2851 35.5101 50.0427 35.6919L45.23 39.301C45.0691 39.4217 44.9336 39.5729 44.8312 39.7459C44.7287 39.9189 44.6614 40.1104 44.6329 40.3095C44.6045 40.5086 44.6155 40.7113 44.6654 40.9061C44.7153 41.1009 44.8031 41.2839 44.9238 41.4448L50.4363 48.7948C50.6799 49.1197 51.0427 49.3345 51.4447 49.3919C51.8468 49.4493 52.2551 49.3447 52.58 49.1011L57.3943 45.4919C57.6365 45.3107 57.927 45.2054 58.2291 45.1891C58.5312 45.1729 58.8313 45.2465 59.0915 45.4006C59.3518 45.5548 59.5606 45.7826 59.6916 46.0552C59.8226 46.3279 59.8698 46.6333 59.8274 46.9328L58.9776 52.8894C58.949 53.0884 58.9599 53.2912 59.0097 53.4861C59.0595 53.6809 59.1472 53.8641 59.2678 54.025C59.3884 54.186 59.5395 54.3216 59.7125 54.4242C59.8855 54.5267 60.077 54.5942 60.2761 54.6227L69.3717 55.9228C69.4433 55.9319 69.5154 55.9365 69.5876 55.9365C69.9564 55.937 70.3129 55.8043 70.5916 55.563C70.8704 55.3216 71.0527 54.9877 71.1051 54.6227L71.9549 48.6662C71.9976 48.3663 72.1283 48.0858 72.3305 47.8602C72.5326 47.6346 72.7971 47.4741 73.0905 47.3988C73.3839 47.3236 73.6931 47.3371 73.9788 47.4375C74.2646 47.538 74.5141 47.721 74.6959 47.9633L78.3065 52.776C78.5502 53.1009 78.913 53.3157 79.315 53.3732C79.717 53.4306 80.1254 53.326 80.4503 53.0823L87.8003 47.5698C88.1252 47.3261 88.34 46.9634 88.3974 46.5614C88.4548 46.1593 88.3502 45.7509 88.1066 45.426L84.4974 40.6133C84.3123 40.3724 84.2045 40.0811 84.1881 39.7777C84.1717 39.4744 84.2475 39.1731 84.4055 38.9136C84.5552 38.6494 84.7821 38.4374 85.0559 38.306C85.3296 38.1746 85.637 38.1301 85.9368 38.1786L91.8933 39.0285C92.0924 39.0571 92.2952 39.0462 92.49 38.9964C92.6849 38.9466 92.868 38.8589 93.029 38.7383C93.19 38.6177 93.3256 38.4666 93.4282 38.2936C93.5307 38.1206 93.5982 37.9291 93.6267 37.73L94.9252 28.6344C94.9538 28.4353 94.9429 28.2325 94.8931 28.0377C94.8433 27.8428 94.7556 27.6597 94.635 27.4987C94.5144 27.3377 94.3633 27.2021 94.1903 27.0995C94.0173 26.997 93.8258 26.9295 93.6267 26.901L93.6236 26.8979ZM22.6226 50.5312C24.0307 53.5675 25.9538 56.3371 28.3066 58.7173C27.9274 59.7715 27.2659 60.7012 26.3943 61.4051C25.5226 62.109 24.4744 62.5599 23.364 62.7087C22.2536 62.8575 21.1237 62.6984 20.0975 62.2488C19.0714 61.7991 18.1884 61.0763 17.5451 60.1591C16.9017 59.2419 16.5226 58.1657 16.4492 57.0477C16.3758 55.9298 16.6109 54.8132 17.1288 53.8198C17.6467 52.8263 18.4276 51.9943 19.3861 51.4143C20.3447 50.8344 21.4441 50.5289 22.5645 50.5312H22.6226ZM52.0625 91.875H45.9375C45.1252 91.875 44.3463 91.5523 43.7719 90.978C43.1976 90.4037 42.875 89.6247 42.875 88.8125V87.2812H55.125V88.8125C55.125 89.6247 54.8023 90.4037 54.228 90.978C53.6536 91.5523 52.8747 91.875 52.0625 91.875ZM55.125 81.1562V84.2187H42.875V81.1562H55.125ZM36.3871 66.6997L33.1025 69.9781L29.9221 67.7854C29.5067 67.4991 29.027 67.3199 28.5257 67.2637C28.0244 67.2074 27.5169 67.2759 27.0484 67.4631C26.5799 67.6502 26.1649 67.9501 25.8402 68.3363C25.5156 68.7224 25.2914 69.1828 25.1875 69.6765L24.3851 73.5H20.7453L19.943 69.6826C19.8391 69.1889 19.6148 68.7286 19.2902 68.3424C18.9656 67.9563 18.5505 67.6563 18.082 67.4692C17.6136 67.2821 17.1061 67.2136 16.6048 67.2698C16.1034 67.326 15.6237 67.5052 15.2083 67.7915L12.0264 69.9781L9.23646 67.1943L11.4277 64.0154C11.7143 63.6001 11.8938 63.1204 11.9503 62.619C12.0068 62.1175 11.9385 61.6099 11.7515 61.1412C11.5645 60.6725 11.2646 60.2573 10.8785 59.9325C10.4923 59.6076 10.0319 59.3832 9.53811 59.2793L5.72071 58.4754V54.8371L9.53811 54.0332C10.0306 53.9288 10.4897 53.7046 10.8748 53.3805C11.26 53.0563 11.5593 52.6422 11.7463 52.1749C11.9333 51.7075 12.0022 51.2012 11.9468 50.7008C11.8915 50.2005 11.7138 49.7215 11.4292 49.3062L9.23646 46.1182L12.0264 43.3344L15.2099 45.5271C15.6253 45.813 16.105 45.9919 16.6062 46.0479C17.1075 46.1038 17.6148 46.0351 18.0831 45.8479C18.5514 45.6606 18.9662 45.3606 19.2906 44.9744C19.6151 44.5883 19.8392 44.128 19.943 43.6345L20.2109 42.3605C20.4562 44.1248 20.8627 45.8629 21.4252 47.553C19.8508 47.7407 18.3517 48.3326 17.0738 49.2713C15.7959 50.21 14.7827 51.4634 14.1327 52.9097C13.4828 54.356 13.2182 55.9458 13.3646 57.5246C13.5111 59.1035 14.0637 60.6175 14.9687 61.9195C15.8736 63.2215 17.1002 64.2671 18.5289 64.9546C19.9577 65.6422 21.5401 65.9483 23.1222 65.8431C24.7043 65.7379 26.2323 65.2251 27.5575 64.3545C28.8827 63.4839 29.96 62.2851 30.6847 60.8748C31.5207 61.5586 32.3944 62.1951 33.3016 62.7812C34.7484 63.6956 35.8376 65.0788 36.3871 66.6997ZM90.8031 35.7761L86.3625 35.1422C85.463 35.0137 84.5457 35.1549 83.7265 35.5478C82.9073 35.9407 82.223 36.5677 81.7601 37.3495C81.2973 38.1313 81.0766 39.0328 81.1261 39.9401C81.1756 40.8473 81.493 41.7194 82.0382 42.4462L84.7286 46.034L79.8286 49.709L77.1367 46.1228C76.5916 45.3959 75.8433 44.8469 74.9863 44.5453C74.1292 44.2437 73.202 44.203 72.3219 44.4284C71.4417 44.6538 70.6482 45.1351 70.0415 45.8114C69.4349 46.4878 69.0425 47.3288 68.9139 48.2282L68.2937 52.675L62.2315 51.8083L62.8654 47.3677C62.9942 46.4681 62.8533 45.5506 62.4606 44.7311C62.0678 43.9116 61.4408 43.2271 60.6589 42.764C59.877 42.3009 58.9754 42.0802 58.068 42.1296C57.1606 42.1791 56.2883 42.4966 55.5614 43.0419L51.9737 45.7323L48.2986 40.8323L51.8848 38.1404C52.6117 37.5953 53.1607 36.847 53.4623 35.9899C53.7639 35.1329 53.8046 34.2057 53.5792 33.3256C53.3538 32.4454 52.8725 31.6518 52.1962 31.0452C51.5198 30.4386 50.6788 30.0462 49.7794 29.9175L45.3387 29.2836L46.2054 23.2214L50.646 23.8553C51.5456 23.9841 52.4632 23.8432 53.2826 23.4505C54.1021 23.0577 54.7867 22.4307 55.2497 21.6488C55.7128 20.8669 55.9336 19.9653 55.8841 19.0579C55.8346 18.1505 55.5172 17.2782 54.9718 16.5513L52.2722 12.9605L57.1722 9.28548L59.8642 12.8732C60.4092 13.6001 61.1576 14.1491 62.0146 14.4507C62.8716 14.7523 63.7988 14.7929 64.679 14.5676C65.5591 14.3422 66.3527 13.8609 66.9593 13.1846C67.5659 12.5082 67.9584 11.6671 68.087 10.7677L68.7209 6.32711L74.7831 7.19227L74.1492 11.6329C74.0208 12.5323 74.1619 13.4496 74.5548 14.2689C74.9477 15.0881 75.5747 15.7724 76.3566 16.2352C77.1384 16.6981 78.0399 16.9187 78.9471 16.8692C79.8543 16.8197 80.7265 16.5023 81.4533 15.9571L85.041 13.2667L88.716 18.1667L85.1283 20.8587C84.4014 21.4037 83.8524 22.1521 83.5508 23.0091C83.2492 23.8661 83.2085 24.7933 83.4339 25.6735C83.6593 26.5536 84.1406 27.3472 84.8169 27.9538C85.4933 28.5604 86.3344 28.9529 87.2337 29.0815L91.6744 29.7154L90.8031 35.7761Z" fill="#0F0F0F"/>
<path d="M68.502 17.248C66.0791 17.248 63.7107 17.9664 61.6962 19.3125C59.6817 20.6585 58.1116 22.5717 57.1844 24.8101C56.2573 27.0485 56.0147 29.5116 56.4873 31.8878C56.96 34.2641 58.1267 36.4468 59.8399 38.16C61.5531 39.8732 63.7358 41.0399 66.1121 41.5126C68.4884 41.9853 70.9514 41.7427 73.1898 40.8155C75.4282 39.8883 77.3414 38.3182 78.6875 36.3037C80.0335 34.2892 80.752 31.9208 80.752 29.498C80.7483 26.2502 79.4565 23.1365 77.16 20.84C74.8635 18.5434 71.7497 17.2516 68.502 17.248ZM68.502 38.6855C66.6848 38.6855 64.9085 38.1466 63.3977 37.1371C61.8868 36.1276 60.7092 34.6927 60.0138 33.0139C59.3184 31.3351 59.1365 29.4878 59.491 27.7056C59.8455 25.9234 60.7205 24.2863 62.0054 23.0014C63.2903 21.7165 64.9274 20.8415 66.7096 20.487C68.4918 20.1325 70.3391 20.3145 72.0179 21.0098C73.6967 21.7052 75.1316 22.8828 76.1411 24.3937C77.1506 25.9046 77.6895 27.6809 77.6895 29.498C77.6866 31.9338 76.7177 34.269 74.9954 35.9914C73.273 37.7139 70.9378 38.6826 68.502 38.6855Z" fill="black"/>
<path d="M47.4688 70.4375H50.5312V75.0312H47.4688V70.4375Z" fill="#0F0F0F"/>
<path d="M42.3027 55.3992C39.1342 54.1614 36.3716 52.0684 34.3223 49.3533C32.2731 46.6381 31.0178 43.4075 30.6962 40.021C30.3746 36.6346 30.9993 33.2254 32.5008 30.1731C34.0023 27.1207 36.3216 24.5451 39.2004 22.733L37.5635 20.1421C34.2062 22.2572 31.5017 25.2626 29.7513 28.8236C28.0009 32.3847 27.2732 36.3617 27.6492 40.3119C28.0253 44.2621 29.4903 48.0304 31.8811 51.1972C34.272 54.3641 37.4949 56.8052 41.191 58.2488C43.0378 58.9564 44.6266 60.2075 45.7475 61.8369C46.8684 63.4663 47.4687 65.3974 47.4692 67.3751H50.5317C50.534 64.7804 49.7485 62.2462 48.2791 60.1077C46.8097 57.9692 44.7257 56.3273 42.3027 55.3992Z" fill="#0F0F0F"/>
<path d="M78.0938 59.7188H88.8124V62.7812H78.0938V59.7188Z" fill="#0F0F0F"/>
<path d="M75.583 70.0836L77.5433 67.7307L86.7313 75.3858L84.7709 77.7387L75.583 70.0836Z" fill="#0F0F0F"/>
<path d="M68.9062 71.9688H71.9689V82.6874H68.9062V71.9688Z" fill="#0F0F0F"/>
<path d="M4.22266 29.1393L16.4724 26.0769L17.2147 29.0465L4.96504 32.1089L4.22266 29.1393Z" fill="#0F0F0F"/>
<path d="M6.76562 13.4967L8.5448 11.0059L19.2631 18.662L17.4839 21.1528L6.76562 13.4967Z" fill="#0F0F0F"/>
<path d="M19.8857 3.44058L22.8528 2.68213L25.9841 14.9318L23.017 15.6903L19.8857 3.44058Z" fill="#0F0F0F"/>
</svg>
