<svg width="98" height="84" viewBox="0 0 98 84" fill="none" xmlns="http://www.w3.org/2000/svg">
<path d="M43.4199 42.04V49.85C43.4199 51.49 48.1399 52.85 53.9699 52.85C59.7999 52.85 64.5299 51.52 64.5299 49.85V42.04H43.4199Z" fill="#827979" stroke="black" stroke-linecap="round" stroke-linejoin="round"/>
<path d="M43.4199 34.4297V42.2397C43.4199 43.8797 48.1399 45.2397 53.9699 45.2397C59.7999 45.2397 64.5299 43.9097 64.5299 42.2397V34.4297H43.4199Z" fill="#827979" stroke="black" stroke-linecap="round" stroke-linejoin="round"/>
<path d="M43.4199 26.8198V34.6298C43.4199 36.2698 48.1399 37.6298 53.9699 37.6298C59.7999 37.6298 64.5299 36.2998 64.5299 34.6298V26.8198H43.4199Z" fill="#827979" stroke="black" stroke-linecap="round" stroke-linejoin="round"/>
<path d="M43.4199 19.1699V26.9799C43.4199 28.6199 48.1399 29.9799 53.9699 29.9799C59.7999 29.9799 64.5299 28.6499 64.5299 26.9799V19.1699H43.4199Z" fill="#827979" stroke="black" stroke-linecap="round" stroke-linejoin="round"/>
<path d="M43.4199 11.6099V19.4199C43.4199 21.0599 48.1399 22.4199 53.9699 22.4199C59.7999 22.4199 64.5299 21.0899 64.5299 19.4199V11.6099H43.4199Z" fill="#827979" stroke="black" stroke-linecap="round" stroke-linejoin="round"/>
<path d="M43.4199 4V11.81C43.4199 13.45 48.1399 14.81 53.9699 14.81C59.7999 14.81 64.5299 13.48 64.5299 11.81V4H43.4199Z" fill="#827979" stroke="black" stroke-linecap="round" stroke-linejoin="round"/>
<path d="M64.5299 4C64.5299 5.64 59.7999 7 53.9699 7C48.1399 7 43.4199 5.67 43.4199 4C43.4199 2.33 48.1399 1 53.9699 1C59.7999 1 64.5299 2.36 64.5299 4Z" fill="#827979" stroke="black" stroke-linecap="round" stroke-linejoin="round"/>
<path d="M22 46.27V54.08C22 55.72 26.73 57.08 32.55 57.08C38.37 57.08 43.11 55.75 43.11 54.08V46.27H22Z" fill="#827979" stroke="black" stroke-linecap="round" stroke-linejoin="round"/>
<path d="M22 38.6597V46.4697C22 48.1097 26.73 49.4697 32.55 49.4697C38.37 49.4697 43.11 48.1397 43.11 46.4697V38.6597H22Z" fill="#827979" stroke="black" stroke-linecap="round" stroke-linejoin="round"/>
<path d="M22 31.0498V38.8598C22 40.4998 26.73 41.8598 32.55 41.8598C38.37 41.8598 43.11 40.5298 43.11 38.8598V31.0498H22Z" fill="#827979" stroke="black" stroke-linecap="round" stroke-linejoin="round"/>
<path d="M22 23.4399V31.2499C22 32.8899 26.73 34.2499 32.55 34.2499C38.37 34.2499 43.11 32.9199 43.11 31.2499V23.4399H22Z" fill="#827979" stroke="black" stroke-linecap="round" stroke-linejoin="round"/>
<path d="M75.4199 52.04V59.85C75.4199 61.49 80.1399 62.85 85.9699 62.85C91.7999 62.85 96.5299 61.52 96.5299 59.85V52.04H75.4199Z" fill="#827979" stroke="black" stroke-linecap="round" stroke-linejoin="round"/>
<path d="M75.4199 44.4297V52.2397C75.4199 53.8797 80.1399 55.2397 85.9699 55.2397C91.7999 55.2397 96.5299 53.9097 96.5299 52.2397V44.4297H75.4199Z" fill="#827979" stroke="black" stroke-linecap="round" stroke-linejoin="round"/>
<path d="M75.4199 36.8198V44.6298C75.4199 46.2698 80.1399 47.6298 85.9699 47.6298C91.7999 47.6298 96.5299 46.2998 96.5299 44.6298V36.8198H75.4199Z" fill="#827979" stroke="black" stroke-linecap="round" stroke-linejoin="round"/>
<path d="M75.4199 29.1699V36.9799C75.4199 38.6199 80.1399 39.9799 85.9699 39.9799C91.7999 39.9799 96.5299 38.6499 96.5299 36.9799V29.1699H75.4199Z" fill="#827979" stroke="black" stroke-linecap="round" stroke-linejoin="round"/>
<path d="M75.4199 21.6099V29.4199C75.4199 31.0599 80.1399 32.4199 85.9699 32.4199C91.7999 32.4199 96.5299 31.0899 96.5299 29.4199V21.6099H75.4199Z" fill="#827979" stroke="black" stroke-linecap="round" stroke-linejoin="round"/>
<path d="M75.4199 14V21.81C75.4199 23.45 80.1399 24.81 85.9699 24.81C91.7999 24.81 96.5299 23.48 96.5299 21.81V14H75.4199Z" fill="#827979" stroke="black" stroke-linecap="round" stroke-linejoin="round"/>
<path d="M96.5299 14C96.5299 15.64 91.7999 17 85.9699 17C80.1399 17 75.4199 15.67 75.4199 14C75.4199 12.33 80.1399 11 85.9699 11C91.7999 11 96.5299 12.36 96.5299 14Z" fill="#827979" stroke="black" stroke-linecap="round" stroke-linejoin="round"/>
<path d="M54 56.27V64.08C54 65.72 58.73 67.08 64.55 67.08C70.37 67.08 75.11 65.75 75.11 64.08V56.27H54Z" fill="#827979" stroke="black" stroke-linecap="round" stroke-linejoin="round"/>
<path d="M54 48.6597V56.4697C54 58.1097 58.73 59.4697 64.55 59.4697C70.37 59.4697 75.11 58.1397 75.11 56.4697V48.6597H54Z" fill="#827979" stroke="black" stroke-linecap="round" stroke-linejoin="round"/>
<path d="M54 41.0498V48.8598C54 50.4998 58.73 51.8598 64.55 51.8598C70.37 51.8598 75.11 50.5298 75.11 48.8598V41.0498H54Z" fill="#827979" stroke="black" stroke-linecap="round" stroke-linejoin="round"/>
<path d="M54 33.4399V41.2499C54 42.8899 58.73 44.2499 64.55 44.2499C70.37 44.2499 75.11 42.9199 75.11 41.2499V33.4399H54Z" fill="#827979" stroke="black" stroke-linecap="round" stroke-linejoin="round"/>
<path d="M1.41992 70.04V77.85C1.41992 79.49 6.13991 80.85 11.9699 80.85C17.7999 80.85 22.5299 79.52 22.5299 77.85V70.04H1.41992Z" fill="#827979" stroke="black" stroke-linecap="round" stroke-linejoin="round"/>
<path d="M1.41992 62.4297V70.2397C1.41992 71.8797 6.13991 73.2397 11.9699 73.2397C17.7999 73.2397 22.5299 71.9097 22.5299 70.2397V62.4297H1.41992Z" fill="#827979" stroke="black" stroke-linecap="round" stroke-linejoin="round"/>
<path d="M1.41992 54.8198V62.6298C1.41992 64.2698 6.13991 65.6298 11.9699 65.6298C17.7999 65.6298 22.5299 64.2998 22.5299 62.6298V54.8198H1.41992Z" fill="#827979" stroke="black" stroke-linecap="round" stroke-linejoin="round"/>
<path d="M1.41992 47.1699V54.9799C1.41992 56.6199 6.13991 57.9799 11.9699 57.9799C17.7999 57.9799 22.5299 56.6499 22.5299 54.9799V47.1699H1.41992Z" fill="#827979" stroke="black" stroke-linecap="round" stroke-linejoin="round"/>
<path d="M1.41992 39.6099V47.4199C1.41992 49.0599 6.13991 50.4199 11.9699 50.4199C17.7999 50.4199 22.5299 49.0899 22.5299 47.4199V39.6099H1.41992Z" fill="#827979" stroke="black" stroke-linecap="round" stroke-linejoin="round"/>
<path d="M1.41992 32V39.81C1.41992 41.45 6.13991 42.81 11.9699 42.81C17.7999 42.81 22.5299 41.48 22.5299 39.81V32H1.41992Z" fill="#827979" stroke="black" stroke-linecap="round" stroke-linejoin="round"/>
<path d="M22.5299 32C22.5299 33.64 17.7999 35 11.9699 35C6.13991 35 1.41992 33.67 1.41992 32C1.41992 30.33 6.13991 29 11.9699 29C17.7999 29 22.5299 30.36 22.5299 32Z" fill="#827979" stroke="black" stroke-linecap="round" stroke-linejoin="round"/>
<path d="M33.4199 66.1699V73.9799C33.4199 75.6199 38.1399 76.9799 43.9699 76.9799C49.7999 76.9799 54.5299 75.6499 54.5299 73.9799V66.1699H33.4199Z" fill="#827979" stroke="black" stroke-linecap="round" stroke-linejoin="round"/>
<path d="M33.4199 58.6099V66.4199C33.4199 68.0599 38.1399 69.4199 43.9699 69.4199C49.7999 69.4199 54.5299 68.0899 54.5299 66.4199V58.6099H33.4199Z" fill="#827979" stroke="black" stroke-linecap="round" stroke-linejoin="round"/>
<path d="M33.4199 51V58.81C33.4199 60.45 38.1399 61.81 43.9699 61.81C49.7999 61.81 54.5299 60.48 54.5299 58.81V51H33.4199Z" fill="#827979" stroke="black" stroke-linecap="round" stroke-linejoin="round"/>
<path d="M54.5299 51C54.5299 52.64 49.7999 54 43.9699 54C38.1399 54 33.4199 52.67 33.4199 51C33.4199 49.33 38.1399 48 43.9699 48C49.7999 48 54.5299 49.36 54.5299 51Z" fill="#827979" stroke="black" stroke-linecap="round" stroke-linejoin="round"/>
<path d="M15 72.1699V79.9799C15 81.6199 19.72 82.9799 25.55 82.9799C31.38 82.9799 36.11 81.6499 36.11 79.9799V72.1699H15Z" fill="#827979" stroke="black" stroke-linecap="round" stroke-linejoin="round"/>
<path d="M15 64.6099V72.4199C15 74.0599 19.72 75.4199 25.55 75.4199C31.38 75.4199 36.11 74.0899 36.11 72.4199V64.6099H15Z" fill="#827979" stroke="black" stroke-linecap="round" stroke-linejoin="round"/>
<path d="M15 57V64.81C15 66.45 19.72 67.81 25.55 67.81C31.38 67.81 36.11 66.48 36.11 64.81V57H15Z" fill="#827979" stroke="black" stroke-linecap="round" stroke-linejoin="round"/>
<path d="M36.11 57C36.11 58.64 31.38 60 25.55 60C19.72 60 15 58.67 15 57C15 55.33 19.72 54 25.55 54C31.38 54 36.11 55.36 36.11 57Z" fill="#827979" stroke="black" stroke-linecap="round" stroke-linejoin="round"/>
<path d="M65 69.1699V76.9799C65 78.6199 69.72 79.9799 75.55 79.9799C81.38 79.9799 86.11 78.6499 86.11 76.9799V69.1699H65Z" fill="#827979" stroke="black" stroke-linecap="round" stroke-linejoin="round"/>
<path d="M65 61.6099V69.4199C65 71.0599 69.72 72.4199 75.55 72.4199C81.38 72.4199 86.11 71.0899 86.11 69.4199V61.6099H65Z" fill="#827979" stroke="black" stroke-linecap="round" stroke-linejoin="round"/>
<path d="M65 54V61.81C65 63.45 69.72 64.81 75.55 64.81C81.38 64.81 86.11 63.48 86.11 61.81V54H65Z" fill="#827979" stroke="black" stroke-linecap="round" stroke-linejoin="round"/>
<path d="M86.11 54C86.11 55.64 81.38 57 75.55 57C69.72 57 65 55.67 65 54C65 52.33 69.72 51 75.55 51C81.38 51 86.11 52.36 86.11 54Z" fill="#827979" stroke="black" stroke-linecap="round" stroke-linejoin="round"/>
<path d="M75.11 34C75.11 35.64 70.38 37 64.55 37C58.72 37 54 35.67 54 34C54 32.33 58.72 31 64.55 31C70.38 31 75.11 32.36 75.11 34Z" fill="#827979" stroke="black" stroke-linecap="round" stroke-linejoin="round"/>
<path d="M43.11 25C43.11 26.64 38.38 28 32.55 28C26.72 28 22 26.67 22 25C22 23.33 26.72 22 32.55 22C38.38 22 43.11 23.36 43.11 25Z" fill="#827979" stroke="black" stroke-linecap="round" stroke-linejoin="round"/>
</svg>
