<svg width="68" height="67" viewBox="0 0 68 67" fill="none" xmlns="http://www.w3.org/2000/svg">
<path d="M18.81 4.1C17.984 1.3 14.016 1.3 13.19 4.1L12.99 4.78C12.8666 5.19919 12.6509 5.58544 12.3588 5.91042C12.0667 6.23541 11.7055 6.49089 11.3018 6.65813C10.8981 6.82537 10.4621 6.90012 10.0257 6.87691C9.58933 6.8537 9.16369 6.73312 8.78 6.524L8.16 6.184C5.594 4.788 2.788 7.594 4.186 10.158L4.524 10.78C5.416 12.42 4.57 14.462 2.78 14.99L2.1 15.19C-0.7 16.016 -0.7 19.984 2.1 20.81L2.78 21.01C3.19919 21.1334 3.58544 21.3491 3.91042 21.6412C4.23541 21.9333 4.49089 22.2945 4.65813 22.6982C4.82537 23.1019 4.90012 23.5379 4.87691 23.9743C4.8537 24.4107 4.73312 24.8363 4.524 25.22L4.184 25.84C2.788 28.406 5.594 31.212 8.158 29.814L8.78 29.476C9.16369 29.2669 9.58933 29.1463 10.0257 29.1231C10.4621 29.0999 10.8981 29.1746 11.3018 29.3419C11.7055 29.5091 12.0667 29.7646 12.3588 30.0896C12.6509 30.4146 12.8666 30.8008 12.99 31.22L13.19 31.9C14.016 34.7 17.984 34.7 18.81 31.9L19.01 31.22C19.1334 30.8008 19.3491 30.4146 19.6412 30.0896C19.9333 29.7646 20.2945 29.5091 20.6982 29.3419C21.1019 29.1746 21.5379 29.0999 21.9743 29.1231C22.4107 29.1463 22.8363 29.2669 23.22 29.476L23.84 29.816C26.406 31.212 29.212 28.406 27.814 25.842L27.476 25.22C27.2669 24.8363 27.1463 24.4107 27.1231 23.9743C27.0999 23.5379 27.1746 23.1019 27.3419 22.6982C27.5091 22.2945 27.7646 21.9333 28.0896 21.6412C28.4146 21.3491 28.8008 21.1334 29.22 21.01L29.9 20.81C32.7 19.984 32.7 16.016 29.9 15.19L29.22 14.99C28.8008 14.8666 28.4146 14.6509 28.0896 14.3588C27.7646 14.0667 27.5091 13.7055 27.3419 13.3018C27.1746 12.8981 27.0999 12.4621 27.1231 12.0257C27.1463 11.5893 27.2669 11.1637 27.476 10.78L27.816 10.16C29.212 7.594 26.406 4.788 23.842 6.186L23.22 6.524C22.8363 6.73312 22.4107 6.8537 21.9743 6.87691C21.5379 6.90012 21.1019 6.82537 20.6982 6.65813C20.2945 6.49089 19.9333 6.23541 19.6412 5.91042C19.3491 5.58544 19.1334 5.19919 19.01 4.78L18.81 4.1ZM16 23.86C14.4458 23.86 12.9553 23.2426 11.8564 22.1436C10.7574 21.0447 10.14 19.5542 10.14 18C10.14 16.4458 10.7574 14.9553 11.8564 13.8564C12.9553 12.7574 14.4458 12.14 16 12.14C17.5536 12.14 19.0436 12.7572 20.1422 13.8558C21.2408 14.9544 21.858 16.4444 21.858 17.998C21.858 19.5516 21.2408 21.0416 20.1422 22.1402C19.0436 23.2388 17.5536 23.856 16 23.856V23.86Z" fill="#F30315"/>
<path d="M42 11H54.6667V14H42V11ZM42 17H61V20H42V17ZM42 23H46.7342V26H42V23Z" fill="#555555"/>
<path d="M54.8 4.625L49.85 0V3.08333H38.3C37.4248 3.08333 36.5854 3.40818 35.9665 3.98642C35.3477 4.56466 35 5.34892 35 6.16667V30.8333C35 31.6511 35.3477 32.4353 35.9665 33.0136C36.5854 33.5918 37.4248 33.9167 38.3 33.9167H44.9V30.8333H38.3V6.16667H49.85V9.25L54.8 4.625ZM48.2 32.375L53.15 37V33.9167H64.7C65.5752 33.9167 66.4146 33.5918 67.0335 33.0136C67.6523 32.4353 68 31.6511 68 30.8333V6.16667C68 5.34892 67.6523 4.56466 67.0335 3.98642C66.4146 3.40818 65.5752 3.08333 64.7 3.08333H58.1V6.16667H64.7V30.8333H53.15V27.75L48.2 32.375Z" fill="#555555"/>
<path d="M50.3 42.1579H40.9C40.9 44.7053 38.785 46.7895 36.2 46.7895H26.8C24.215 46.7895 22.1 44.7053 22.1 42.1579H12.7L8 53.7368V58.3684C8 60.9158 10.115 63 12.7 63H50.3C52.885 63 55 60.9158 55 58.3684V53.7368M17.4 58.3684C15.3085 58.3684 14.251 55.8674 15.7315 54.4084C17.212 52.9495 19.75 53.9916 19.75 56.0526C19.75 57.3263 18.6925 58.3684 17.4 58.3684ZM26.8 58.3684C24.7085 58.3684 23.651 55.8674 25.1315 54.4084C26.612 52.9495 29.15 53.9916 29.15 56.0526C29.15 57.3263 28.0925 58.3684 26.8 58.3684ZM36.2 58.3684C34.1085 58.3684 33.051 55.8674 34.5315 54.4084C36.012 52.9495 38.55 53.9916 38.55 56.0526C38.55 57.3263 37.4925 58.3684 36.2 58.3684ZM45.6 58.3684C43.5085 58.3684 42.451 55.8674 43.9315 54.4084C45.412 52.9495 47.95 53.9916 47.95 56.0526C47.95 57.3263 46.8925 58.3684 45.6 58.3684ZM45.6 35.2105V19H17.4V35.2105H10.35V39.8421H52.65V35.2105M22.1 23.6316H40.9V25.9474H22.1M22.1 28.2632H36.2V30.5789H22.1" fill="#555555" fill-opacity="0.8"/>
<path d="M43.4221 35.5004C42.921 33.4999 40.0811 33.4999 39.5779 35.5004L39.4314 36.0902C39.3458 36.433 39.1699 36.7466 38.9222 36.9985C38.6744 37.2504 38.3637 37.4314 38.0224 37.5227C37.6811 37.614 37.3216 37.6124 36.9811 37.5179C36.6406 37.4234 36.3317 37.2395 36.0863 36.9853L35.6635 36.5501C34.2301 35.0673 31.7697 36.4883 32.3369 38.4702L32.5019 39.0559C32.5988 39.3953 32.6033 39.7544 32.5148 40.096C32.4264 40.4377 32.2482 40.7495 31.9987 40.9992C31.7493 41.2488 31.4376 41.4273 31.096 41.516C30.7544 41.6048 30.3953 41.6006 30.0559 41.5039L29.4702 41.3369C27.4903 40.7697 26.0673 43.2301 27.5501 44.6635L27.9853 45.0863C28.2395 45.3317 28.4234 45.6406 28.5179 45.9811C28.6124 46.3216 28.614 46.6811 28.5227 47.0224C28.4314 47.3637 28.2504 47.6744 27.9985 47.9222C27.7466 48.1699 27.433 48.3458 27.0902 48.4314L26.5004 48.5779C24.4999 49.079 24.4999 51.9189 26.5004 52.4221L27.0902 52.5686C27.433 52.6542 27.7466 52.8301 27.9985 53.0778C28.2504 53.3256 28.4314 53.6363 28.5227 53.9776C28.614 54.3189 28.6124 54.6785 28.5179 55.0189C28.4234 55.3594 28.2395 55.6683 27.9853 55.9137L27.5501 56.3365C26.0673 57.7699 27.4883 60.2303 29.4702 59.6631L30.0559 59.4981C30.3955 59.401 30.7548 59.3965 31.0967 59.485C31.4387 59.5735 31.7507 59.7519 32.0004 60.0017C32.2501 60.2514 32.4285 60.5634 32.5171 60.9053C32.6056 61.2472 32.6011 61.6066 32.5039 61.9462L32.3369 62.5298C31.7697 64.5097 34.2301 65.9327 35.6635 64.4499L36.0863 64.0147C36.3317 63.7605 36.6406 63.5766 36.9811 63.4821C37.3216 63.3876 37.6811 63.386 38.0224 63.4773C38.3637 63.5686 38.6744 63.7496 38.9222 64.0015C39.1699 64.2534 39.3458 64.567 39.4314 64.9098L39.5779 65.4996C40.079 67.5001 42.9189 67.5001 43.4221 65.4996L43.5686 64.9098C43.6542 64.567 43.8301 64.2534 44.0778 64.0015C44.3256 63.7496 44.6363 63.5686 44.9776 63.4773C45.3189 63.386 45.6785 63.3876 46.0189 63.4821C46.3594 63.5766 46.6683 63.7605 46.9137 64.0147L47.3365 64.4499C48.7699 65.9327 51.2303 64.5118 50.6631 62.5298L50.4981 61.9441C50.401 61.6045 50.3965 61.2452 50.485 60.9033C50.5735 60.5613 50.7519 60.2493 51.0017 59.9996C51.2514 59.7499 51.5634 59.5715 51.9053 59.4829C52.2472 59.3944 52.6066 59.3989 52.9462 59.4961L53.5298 59.6631C55.5097 60.2303 56.9327 57.7699 55.4499 56.3365L55.0147 55.9137C54.7605 55.6683 54.5766 55.3594 54.4821 55.0189C54.3876 54.6785 54.386 54.3189 54.4773 53.9776C54.5686 53.6363 54.7496 53.3256 55.0015 53.0778C55.2534 52.8301 55.567 52.6542 55.9098 52.5686L56.4996 52.4221C58.5001 51.921 58.5001 49.0811 56.4996 48.5779L55.9098 48.4314C55.567 48.3458 55.2534 48.1699 55.0015 47.9222C54.7496 47.6744 54.5686 47.3637 54.4773 47.0224C54.386 46.6811 54.3876 46.3216 54.4821 45.9811C54.5766 45.6406 54.7605 45.3317 55.0147 45.0863L55.4499 44.6635C56.9327 43.2301 55.5118 40.7697 53.5298 41.3369L52.9441 41.5019C52.6047 41.5988 52.2456 41.6033 51.904 41.5148C51.5623 41.4264 51.2505 41.2482 51.0008 40.9987C50.7512 40.7493 50.5727 40.4376 50.484 40.096C50.3952 39.7544 50.3994 39.3953 50.4961 39.0559L50.6631 38.4702C51.2303 36.4903 48.7699 35.0673 47.3365 36.5501L46.9137 36.9853C46.6683 37.2395 46.3594 37.4234 46.0189 37.5179C45.6785 37.6124 45.3189 37.614 44.9776 37.5227C44.6363 37.4314 44.3256 37.2504 44.0778 36.9985C43.8301 36.7466 43.6542 36.433 43.5686 36.0902L43.4221 35.5004ZM41.5 60.8057C40.1342 60.825 38.7783 60.5727 37.5109 60.0634C36.2435 59.5541 35.0899 58.798 34.1173 57.839C33.1446 56.88 32.3723 55.7373 31.8451 54.4772C31.3179 53.2171 31.0465 51.8649 31.0465 50.499C31.0465 49.1331 31.3179 47.7808 31.8451 46.5207C32.3723 45.2607 33.1446 44.1179 34.1173 43.1589C35.0899 42.2 36.2435 41.4438 37.5109 40.9346C38.7783 40.4253 40.1342 40.1729 41.5 40.1923C44.2338 40.1923 46.8556 41.2783 48.7887 43.2113C50.7217 45.1444 51.8077 47.7662 51.8077 50.5C51.8077 53.2338 50.7217 55.8556 48.7887 57.7887C46.8556 59.7217 44.2338 60.8077 41.5 60.8077V60.8057Z" fill="#F30315"/>
</svg>
