<svg width="93" height="93" viewBox="0 0 93 93" fill="none" xmlns="http://www.w3.org/2000/svg">
<g clip-path="url(#clip0_115_3949)">
<path d="M85.9872 41.923C85.2928 40.8266 84.9609 39.5394 85.0387 38.2439C85.1165 36.9484 85.5999 35.7101 86.4206 34.7047C89.7562 30.6159 91.3309 25.3696 90.7984 20.1198C90.2658 14.87 87.6696 10.0467 83.5809 6.71114C79.4921 3.37553 74.2458 1.80079 68.996 2.33334C63.7462 2.86588 58.9229 5.4621 55.5873 9.5508C54.0915 11.4521 52.0762 12.8785 49.7857 13.6572C47.4953 14.4359 45.0282 14.5334 42.6835 13.9379C37.6306 12.5359 32.2719 12.6937 27.3103 14.3905C22.3486 16.0873 18.0156 19.244 14.8794 23.4466C11.7432 27.6492 9.95023 32.7014 9.73573 37.9408C9.52113 43.1802 10.8949 48.3622 13.677 52.8071H23.1708C27.4463 52.8055 31.6937 52.1158 35.75 50.7644L52.5937 45.1509V54.3384H54.125C55.3433 54.3384 56.5118 54.8224 57.3733 55.6839C58.2348 56.5453 58.7187 57.7138 58.7187 58.9321V65.0571C58.7187 66.2755 58.2348 67.4439 57.3733 68.3054C56.5118 69.1669 55.3433 69.6509 54.125 69.6509H52.5937V78.8384L35.75 73.2248C33.6284 72.5219 31.4514 71.9984 29.2422 71.6599C30.9911 75.7249 33.561 79.3847 36.7908 82.4099C40.0207 85.435 43.8407 87.7602 48.0113 89.2397C52.182 90.7192 56.6133 91.321 61.0275 91.0074C65.4416 90.6938 69.7434 89.4716 73.663 87.4174C77.5826 85.3631 81.0356 82.5212 83.8053 79.0699C86.575 75.6185 88.6017 71.6321 89.7584 67.3607C90.9151 63.0892 91.1768 58.6249 90.527 54.2475C89.8773 49.8702 88.3302 45.6743 85.9827 41.923H85.9872Z" fill="#ED5757"/>
<path d="M11.25 71.1821L13.0339 89.5571C13.0339 89.9632 13.1952 90.3527 13.4824 90.6399C13.7696 90.9271 14.159 91.0884 14.5652 91.0884H23.5C23.7207 91.0883 23.9388 91.0405 24.1393 90.9483C24.3398 90.856 24.5181 90.7215 24.6617 90.554C24.8054 90.3864 24.9112 90.1898 24.9718 89.9776C25.0324 89.7654 25.0464 89.5425 25.0129 89.3244L20.4375 71.1821H11.25Z" fill="#E0B9B9"/>
<path d="M54.125 69.6509C55.3433 69.6509 56.5118 69.1669 57.3733 68.3054C58.2348 67.4439 58.7188 66.2755 58.7188 65.0571V58.9321C58.7188 57.7138 58.2348 56.5454 57.3733 55.6839C56.5118 54.8224 55.3433 54.3384 54.125 54.3384H52.5938V69.6509H54.125Z" fill="#E0B9B9"/>
<path d="M11.25 71.1821V52.8071C8.8133 52.8071 6.47645 53.7751 4.75346 55.4981C3.03047 57.2211 2.0625 59.558 2.0625 61.9946C2.0625 64.4313 3.03047 66.7682 4.75346 68.4912C6.47645 70.2142 8.8133 71.1821 11.25 71.1821Z" fill="#E0B9B9"/>
<path d="M17.375 71.1821V52.8071H13.677H11.25V71.1821H17.375Z" fill="#E0B9B9"/>
<path d="M35.75 50.7644C31.6917 52.1165 27.4422 52.8062 23.1647 52.8071H17.375V71.1821H23.1647C27.4411 71.1965 31.6885 71.8859 35.75 73.2248L52.5938 78.8384V45.1509L35.75 50.7644Z" fill="#E0B9B9"/>
<path d="M9.85 72.6107L11.5023 89.557C11.5023 90.3692 11.8249 91.1482 12.3992 91.7225C12.9736 92.2969 13.7525 92.6195 14.5648 92.6195H23.4996C23.9414 92.6191 24.378 92.5231 24.7792 92.3381C25.1804 92.153 25.5368 91.8834 25.824 91.5476C26.1227 91.1911 26.3382 90.7724 26.4547 90.3221C26.5713 89.8718 26.586 89.4012 26.4978 88.9445L22.4032 72.7133H23.1689C24.8625 72.7225 26.5537 72.8443 28.2312 73.0777C30.9226 78.9126 35.2295 83.8542 40.6421 87.3175C46.0547 90.7808 52.3462 92.6207 58.7719 92.6195C59.7826 92.6195 60.8034 92.5741 61.8344 92.4832C69.7085 91.7059 77.0633 88.2016 82.6275 82.5762C88.1916 76.9509 91.6152 69.5581 92.3063 61.676C92.9067 54.4597 91.1479 47.2436 87.2945 41.1128C86.773 40.2866 86.5237 39.3175 86.5816 38.3422C86.6396 37.3668 87.0019 36.4341 87.6176 35.6754C89.4962 33.3783 90.8736 30.7137 91.6616 27.8528C92.4495 24.9919 92.6305 21.9978 92.193 19.0628C91.5907 14.9524 89.807 11.1055 87.0588 7.99004C84.3107 4.87457 80.7165 2.62468 76.7134 1.514C72.7103 0.403321 68.4707 0.479711 64.5102 1.73388C60.5497 2.98804 57.0389 5.36594 54.4048 8.57844C53.0971 10.2488 51.3335 11.5046 49.3272 12.194C47.3209 12.8834 45.1579 12.9769 43.0996 12.4632C39.5639 11.4808 35.8673 11.2163 32.2277 11.6853C26.2389 12.4939 20.6768 15.2324 16.384 19.4859C12.0913 23.7394 9.3018 29.2762 8.4382 35.2573C7.6765 40.7436 8.5959 46.3319 11.075 51.2849C8.3684 51.324 5.77692 52.3867 3.82215 54.2593C1.86738 56.1318 0.69436 58.6753 0.53912 61.3778C0.38388 64.0803 1.25795 66.7413 2.98544 68.8254C4.71293 70.9095 7.1656 72.2619 9.85 72.6107ZM12.7809 69.6508V54.3383H15.8434V69.6508H12.7809ZM23.4996 89.557L14.5571 89.4039L12.934 72.7133H19.2412L23.4996 89.557ZM18.9059 69.6508V54.3383H23.1643C27.6081 54.3398 32.0229 53.6231 36.2381 52.2159L43.4059 49.8272V74.1618L36.2381 71.7731C32.0229 70.3659 27.6081 69.6492 23.1643 69.6508H18.9059ZM51.0621 47.2746V76.7144L46.4684 75.1832V48.8059L51.0621 47.2746ZM11.4732 35.657C11.9508 32.1995 13.1621 28.8841 15.0259 25.9331C16.8896 22.9821 19.3628 20.4636 22.2795 18.5466C25.1962 16.6296 28.4891 15.3583 31.9373 14.818C35.3855 14.2777 38.9094 14.4809 42.2727 15.4139C44.9034 16.0885 47.6733 15.9856 50.2466 15.1175C52.8199 14.2494 55.0862 12.6534 56.7706 10.5231C59.8491 6.74869 64.301 4.35182 69.1467 3.85976C71.5461 3.61612 73.97 3.84745 76.28 4.54056C78.5899 5.23367 80.7408 6.37497 82.6097 7.89934C84.4786 9.42364 86.0289 11.3011 87.1722 13.4246C88.3155 15.5481 89.0294 17.876 89.273 20.2754C89.5167 22.6748 89.2853 25.0987 88.5922 27.4086C87.8991 29.7186 86.7578 31.8695 85.2335 33.7383C84.2142 34.9933 83.6136 36.536 83.5161 38.1498C83.4186 39.7636 83.8291 41.3674 84.6899 42.736C88.1918 48.3097 89.7899 54.8696 89.2438 61.4295C88.7175 67.9796 86.0949 74.1859 81.7647 79.1287C77.4345 84.0715 71.6271 87.4877 65.2031 88.8711C58.7792 90.2546 52.0804 89.5316 46.0995 86.8093C40.1186 84.0871 35.1739 79.5104 31.998 73.7576C33.0975 74.0194 34.1908 74.318 35.2703 74.6763L52.1141 80.2899C52.2686 80.3415 52.4304 80.3684 52.5933 80.3695C52.9995 80.3695 53.3889 80.2082 53.6761 79.921C53.9633 79.6338 54.1246 79.2444 54.1246 78.8383V71.182C55.7491 71.182 57.307 70.5367 58.4556 69.388C59.6043 68.2394 60.2496 66.6815 60.2496 65.057V58.932C60.2496 57.3076 59.6043 55.7496 58.4556 54.601C57.307 53.4523 55.7491 52.807 54.1246 52.807V45.1508C54.1247 44.9081 54.0671 44.669 53.9565 44.453C53.846 44.2369 53.6858 44.0503 53.489 43.9084C53.2922 43.7665 53.0645 43.6734 52.8246 43.6367C52.5848 43.6001 52.3397 43.6209 52.1095 43.6976L35.2657 49.3112C31.3639 50.6128 27.2775 51.2762 23.1643 51.2758H14.5648C11.8118 46.5635 10.7229 41.0626 11.4732 35.657ZM54.1246 55.8695C54.9368 55.8695 55.7158 56.1922 56.2901 56.7665C56.8644 57.3408 57.1871 58.1198 57.1871 58.932V65.057C57.1871 65.8692 56.8644 66.6482 56.2901 67.2225C55.7158 67.7969 54.9368 68.1195 54.1246 68.1195V55.8695ZM9.7184 54.4914V69.4976C7.9876 69.1462 6.43157 68.2072 5.3139 66.8398C4.19624 65.4724 3.58568 63.7606 3.58568 61.9945C3.58568 60.2284 4.19624 58.5167 5.3139 57.1492C6.43157 55.7818 7.9876 54.8428 9.7184 54.4914Z" fill="#0F0F0F"/>
<path d="M21.9688 63.5259H28.0938V66.5884H21.9688V63.5259Z" fill="#0F0F0F"/>
<path d="M21.9688 57.4009H28.0938V60.4634H21.9688V57.4009Z" fill="#0F0F0F"/>
<path d="M26.8085 41.132C27.053 41.2629 27.3284 41.3248 27.6054 41.3114C27.8824 41.2979 28.1505 41.2094 28.3811 41.0555L37.5686 34.9305C37.7783 34.7906 37.9503 34.6012 38.0692 34.3789C38.1881 34.1567 38.2503 33.9085 38.2503 33.6565C38.2503 33.4044 38.1881 33.1562 38.0692 32.934C37.9503 32.7118 37.7783 32.5223 37.5686 32.3825L28.3811 26.2575C28.1505 26.1036 27.8824 26.0152 27.6055 26.0018C27.3286 25.9883 27.0533 26.0503 26.8089 26.1811C26.5644 26.3119 26.3601 26.5066 26.2176 26.7444C26.0752 26.9822 26 27.2543 26 27.5315V39.7815C25.9999 40.0587 26.075 40.3307 26.2174 40.5686C26.3598 40.8065 26.5641 41.0012 26.8085 41.132ZM29.0625 30.3934L33.9625 33.6565L29.0625 36.9196V30.3934Z" fill="#0F0F0F"/>
<path d="M30.7813 47.5625C33.5069 47.5625 36.1714 46.7542 38.4377 45.2399C40.704 43.7256 42.4704 41.5733 43.5135 39.0551C44.5565 36.5369 44.8295 33.7659 44.2977 31.0926C43.7659 28.4193 42.4534 25.9638 40.5261 24.0364C38.5987 22.1091 36.1431 20.7965 33.4698 20.2648C30.7965 19.733 28.0256 20.006 25.5074 21.049C22.9892 22.0921 20.8369 23.8585 19.3226 26.1248C17.8083 28.3911 17 31.0556 17 33.7812C17.0041 37.435 18.4573 40.938 21.0409 43.5216C23.6245 46.1052 27.1275 47.5584 30.7813 47.5625ZM30.7813 23.0625C32.9012 23.0625 34.9736 23.6911 36.7363 24.8689C38.499 26.0467 39.8728 27.7208 40.6841 29.6793C41.4954 31.6379 41.7076 33.7931 41.294 35.8724C40.8805 37.9516 39.8596 39.8615 38.3606 41.3605C36.8615 42.8596 34.9516 43.8804 32.8724 44.294C30.7931 44.7076 28.638 44.4953 26.6794 43.6841C24.7208 42.8728 23.0467 41.4989 21.8689 39.7363C20.6911 37.9736 20.0625 35.9012 20.0625 33.7812C20.0657 30.9394 21.1961 28.215 23.2055 26.2055C25.215 24.1961 27.9395 23.0657 30.7813 23.0625Z" fill="#0F0F0F"/>
<path d="M59.5312 36.0937H65.6562C66.0624 36.0937 66.4518 35.9324 66.739 35.6452C67.0262 35.3581 67.1875 34.9686 67.1875 34.5625H80.9688C82.1871 34.5625 83.3555 34.0785 84.217 33.217C85.0785 32.3555 85.5625 31.1871 85.5625 29.9687V22.3125C85.5625 21.0941 85.0785 19.9257 84.217 19.0642C83.3555 18.2027 82.1871 17.7187 80.9688 17.7187H79.4375C79.0314 17.7187 78.6419 17.5574 78.3547 17.2702C78.0676 16.9831 77.9062 16.5936 77.9062 16.1875V11.5937C77.9062 10.3754 77.4223 9.207 76.5608 8.3455C75.6993 7.484 74.5308 7 73.3125 7C72.0942 7 70.9257 7.484 70.0642 8.3455C69.2027 9.207 68.7188 10.3754 68.7188 11.5937V16.1875C68.7188 16.5936 68.5574 16.9831 68.2703 17.2702C67.9831 17.5574 67.5936 17.7187 67.1875 17.7187C67.1875 17.3126 67.0262 16.9231 66.739 16.636C66.4518 16.3488 66.0624 16.1875 65.6562 16.1875H59.5312C59.1251 16.1875 58.7357 16.3488 58.4485 16.636C58.1613 16.9231 58 17.3126 58 17.7187V34.5625C58 34.9686 58.1613 35.3581 58.4485 35.6452C58.7357 35.9324 59.1251 36.0937 59.5312 36.0937ZM71.7812 16.1875V11.5937C71.7812 11.1876 71.9426 10.7981 72.2297 10.511C72.5169 10.2238 72.9064 10.0625 73.3125 10.0625C73.7186 10.0625 74.1081 10.2238 74.3953 10.511C74.6824 10.7981 74.8438 11.1876 74.8438 11.5937V16.1875C74.8438 17.4058 75.3277 18.5743 76.1892 19.4358C77.0507 20.2972 78.2192 20.7812 79.4375 20.7812H80.9688C81.3749 20.7812 81.7643 20.9426 82.0515 21.2297C82.3387 21.5169 82.5 21.9064 82.5 22.3125V29.9687C82.5 30.3748 82.3387 30.7643 82.0515 31.0515C81.7643 31.3387 81.3749 31.5 80.9688 31.5H67.1875V20.7812C68.4058 20.7812 69.5743 20.2972 70.4358 19.4358C71.2973 18.5743 71.7812 17.4058 71.7812 16.1875ZM61.0625 19.25H64.125V33.0312H61.0625V19.25Z" fill="#0F0F0F"/>
<path d="M37.1067 55.7678L35.4514 56.8719L33.7962 55.7678C32.9119 55.1813 31.8523 54.918 30.7963 55.0223C29.7403 55.1267 28.7528 55.5923 28.0004 56.3405L27.345 56.9959C26.4838 57.8573 26 59.0256 26 60.2437C26 61.4618 26.4838 62.63 27.345 63.4914L34.3673 70.5122C34.6545 70.7993 35.0439 70.9606 35.4499 70.9606C35.8559 70.9606 36.2453 70.7993 36.5325 70.5122L43.5548 63.4914C44.416 62.63 44.8998 61.4618 44.8998 60.2437C44.8998 59.0256 44.416 57.8573 43.5548 56.9959L42.9025 56.3405C42.1498 55.5928 41.1623 55.1275 40.1065 55.0232C39.0507 54.9189 37.9912 55.1819 37.1067 55.7678ZM40.7388 58.5057L41.3912 59.1595C41.5335 59.3018 41.6465 59.4706 41.7235 59.6565C41.8006 59.8424 41.8402 60.0417 41.8402 60.2429C41.8402 60.4441 41.8006 60.6434 41.7235 60.8293C41.6465 61.0152 41.5335 61.1841 41.3912 61.3263L35.4514 67.2644L29.5132 61.3324C29.2262 61.0452 29.0649 60.6558 29.0649 60.2498C29.0649 59.8438 29.2262 59.4544 29.5132 59.1672L30.1671 58.5134C30.4174 58.263 30.7468 58.107 31.0991 58.0721C31.4514 58.0373 31.805 58.1255 32.0995 58.3219L34.6031 59.991C34.8547 60.1589 35.1505 60.2485 35.453 60.2485C35.7555 60.2485 36.0512 60.1589 36.3028 59.991L38.8079 58.3219C39.1022 58.1257 39.4553 58.0374 39.8073 58.072C40.1593 58.1067 40.4884 58.262 40.7388 58.5118V58.5057Z" fill="#0F0F0F"/>
<path d="M58.7646 47.8428L60.2973 41.7183L63.2667 42.4614L61.7341 48.5859L58.7646 47.8428Z" fill="#0F0F0F"/>
<path d="M62.6289 49.9062L68.7537 46.8438L70.1233 49.583L63.9985 52.6454L62.6289 49.9062Z" fill="#0F0F0F"/>
<path d="M58.7637 77.6789L61.7333 76.9365L63.2644 83.0614L60.2949 83.8037L58.7637 77.6789Z" fill="#0F0F0F"/>
<path d="M62.6289 75.6136L63.9985 72.8745L70.1233 75.9369L68.7537 78.676L62.6289 75.6136Z" fill="#0F0F0F"/>
<path d="M2.0625 42.0884H5.125C5.125 21.3093 17.447 8.4009 37.2812 8.4009V5.33838C15.5574 5.33838 2.0625 19.4259 2.0625 42.0884Z" fill="#0F0F0F"/>
</g>
<defs>
<clipPath id="clip0_115_3949">
<rect width="93" height="93" fill="white"/>
</clipPath>
</defs>
</svg>
