<svg width="30" height="18" viewBox="0 0 30 18" fill="none" xmlns="http://www.w3.org/2000/svg">
<path d="M27.5 0H11.25C9.875 0 8.75 1.24615 8.75 2.76923V15.2308C8.75 15.9652 9.01339 16.6696 9.48223 17.1889C9.95107 17.7082 10.587 18 11.25 18H27.5C28.8875 18 30 16.7677 30 15.2308V2.76923C30 2.03479 29.7366 1.33042 29.2678 0.811089C28.7989 0.291757 28.163 0 27.5 0ZM27.5 15.2308H11.25V5.08154L19.375 9.69231L27.5 5.08154V15.2308ZM19.375 7.35231L11.25 2.76923H27.5L19.375 7.35231ZM6.25 15.2308C6.25 15.4662 6.2875 15.6877 6.3125 15.9231H1.25C0.56 15.9231 0 15.3 0 14.5385C0 13.7769 0.56 13.1538 1.25 13.1538H6.25V15.2308ZM3.75 2.07692H6.3125C6.2875 2.31231 6.25 2.53385 6.25 2.76923V4.84615H3.75C3.0625 4.84615 2.5 4.22308 2.5 3.46154C2.5 2.7 3.0625 2.07692 3.75 2.07692ZM1.25 9C1.25 8.23846 1.8125 7.61538 2.5 7.61538H6.25V10.3846H2.5C1.8125 10.3846 1.25 9.76154 1.25 9Z" fill="black"/>
</svg>
