<svg width="16" height="16" viewBox="0 0 16 16" fill="none" xmlns="http://www.w3.org/2000/svg">
<path d="M15.8926 14.9999C14.7587 12.9491 12.9437 11.4099 10.7955 10.6774C11.8251 10.0346 12.6253 9.05464 13.073 7.88809C13.5208 6.72154 13.5913 5.43293 13.2738 4.22021C12.9563 3.0075 12.2683 1.93776 11.3156 1.17534C10.3628 0.412926 9.19797 0 8 0C6.80203 0 5.63719 0.412926 4.68443 1.17534C3.73167 1.93776 3.04369 3.0075 2.72619 4.22021C2.40869 5.43293 2.47922 6.72154 2.92695 7.88809C3.37469 9.05464 4.17485 10.0346 5.20453 10.6774C3.05634 11.4099 1.24129 12.9491 0.107353 14.9999C0.0597913 15.0723 0.0270148 15.1543 0.011083 15.2407C-0.00484892 15.3271 -0.00359188 15.416 0.014775 15.5018C0.0331419 15.5877 0.0682218 15.6686 0.11781 15.7395C0.167399 15.8104 0.230424 15.8698 0.302926 15.914C0.375427 15.9581 0.455838 15.986 0.539106 15.9959C0.622374 16.0059 0.706698 15.9976 0.786781 15.9717C0.866863 15.9457 0.940973 15.9027 1.00445 15.8453C1.06793 15.7878 1.11941 15.7172 1.15565 15.6379C1.85025 14.3778 2.84827 13.3317 4.04958 12.6044C5.25089 11.8771 6.61325 11.4942 8 11.4942C9.38675 11.4942 10.7491 11.8771 11.9504 12.6044C13.1517 13.3317 14.1497 14.3778 14.8443 15.6379C14.8806 15.7172 14.9321 15.7878 14.9955 15.8453C15.059 15.9027 15.1331 15.9457 15.2132 15.9717C15.2933 15.9976 15.3776 16.0059 15.4609 15.9959C15.5442 15.986 15.6246 15.9581 15.6971 15.914C15.7696 15.8698 15.8326 15.8104 15.8822 15.7395C15.9318 15.6686 15.9669 15.5877 15.9852 15.5018C16.0036 15.416 16.0048 15.3271 15.9889 15.2407C15.973 15.1543 15.9402 15.0723 15.8926 14.9999ZM3.74602 5.74883C3.74602 4.86553 3.99551 4.00207 4.46295 3.26763C4.93038 2.5332 5.59476 1.96077 6.37207 1.62275C7.14939 1.28473 8.00472 1.19628 8.82991 1.36861C9.6551 1.54093 10.4131 1.96628 11.008 2.59087C11.6029 3.21545 12.0081 4.01122 12.1722 4.87755C12.3364 5.74388 12.2521 6.64185 11.9302 7.45791C11.6082 8.27397 11.0629 8.97147 10.3634 9.4622C9.66382 9.95294 8.84136 10.2149 8 10.2149C6.87177 10.2149 5.78976 9.74434 4.99198 8.90679C4.19421 8.06925 3.74602 6.9333 3.74602 5.74883Z" fill="black"/>
</svg>
