<svg width="20" height="21" viewBox="0 0 20 21" fill="none" xmlns="http://www.w3.org/2000/svg">
<path fill-rule="evenodd" clip-rule="evenodd" d="M13 1V2H15V1H13ZM7 2V1H5V2H7ZM12 1H8C8 0.447715 7.55228 0 7 0H5C4.44772 0 4 0.447715 4 1H3C1.34315 1 0 2.34315 0 4V18C0 19.6569 1.34315 21 3 21H17C18.6569 21 20 19.6569 20 18V4C20 2.34315 18.6569 1 17 1H16C16 0.447715 15.5523 0 15 0H13C12.4477 0 12 0.447715 12 1ZM2 18C2 18.5523 2.44772 19 3 19H17C17.5523 19 18 18.5523 18 18V7H2V18ZM5.5 11V10H4.5V11H5.5ZM5.5 16V15H4.5V16H5.5ZM10.5 10H9.5V11H10.5V10ZM10.5 15H9.5V16H10.5V15ZM15.5 11V10H14.5V11H15.5ZM15.5 16V15H14.5V16H15.5ZM2 4C2 3.44772 2.44772 3 3 3H17C17.5523 3 18 3.44772 18 4V5H2V4ZM4.5 9C3.94772 9 3.5 9.44771 3.5 10V11C3.5 11.5523 3.94772 12 4.5 12H5.5C6.05228 12 6.5 11.5523 6.5 11V10C6.5 9.44772 6.05228 9 5.5 9H4.5ZM4.5 14C3.94772 14 3.5 14.4477 3.5 15V16C3.5 16.5523 3.94772 17 4.5 17H5.5C6.05228 17 6.5 16.5523 6.5 16V15C6.5 14.4477 6.05228 14 5.5 14H4.5ZM9.5 9C8.94772 9 8.5 9.44771 8.5 10V11C8.5 11.5523 8.94772 12 9.5 12H10.5C11.0523 12 11.5 11.5523 11.5 11V10C11.5 9.44772 11.0523 9 10.5 9H9.5ZM9.5 14C8.94772 14 8.5 14.4477 8.5 15V16C8.5 16.5523 8.94772 17 9.5 17H10.5C11.0523 17 11.5 16.5523 11.5 16V15C11.5 14.4477 11.0523 14 10.5 14H9.5ZM14.5 9C13.9477 9 13.5 9.44771 13.5 10V11C13.5 11.5523 13.9477 12 14.5 12H15.5C16.0523 12 16.5 11.5523 16.5 11V10C16.5 9.44772 16.0523 9 15.5 9H14.5ZM14.5 14C13.9477 14 13.5 14.4477 13.5 15V16C13.5 16.5523 13.9477 17 14.5 17H15.5C16.0523 17 16.5 16.5523 16.5 16V15C16.5 14.4477 16.0523 14 15.5 14H14.5Z" fill="black"/>
</svg>
