<svg width="115" height="83" viewBox="0 0 115 83" fill="none" xmlns="http://www.w3.org/2000/svg">
<path fill-rule="evenodd" clip-rule="evenodd" d="M3.19231 81.4167C3.19231 80.5422 2.47769 79.8333 1.59615 79.8333C0.714623 79.8333 1.07433e-07 80.5422 6.92097e-08 81.4167C3.09862e-08 82.2911 0.714622 83 1.59615 83C2.47769 83 3.19231 82.2911 3.19231 81.4167ZM19.1538 81.4167C19.1538 80.5422 18.4392 79.8333 17.5577 79.8333C16.6762 79.8333 15.9615 80.5422 15.9615 81.4167C15.9615 82.2911 16.6762 83 17.5577 83C18.4392 83 19.1538 82.2911 19.1538 81.4167ZM33.5192 79.8333C34.4008 79.8333 35.1154 80.5422 35.1154 81.4167C35.1154 82.2911 34.4008 83 33.5192 83C32.6377 83 31.9231 82.2911 31.9231 81.4167C31.9231 80.5422 32.6377 79.8333 33.5192 79.8333ZM51.0769 81.4167C51.0769 80.5422 50.3623 79.8333 49.4808 79.8333C48.5992 79.8333 47.8846 80.5422 47.8846 81.4167C47.8846 82.2911 48.5992 83 49.4808 83C50.3623 83 51.0769 82.2911 51.0769 81.4167ZM65.4423 79.8333C66.3238 79.8333 67.0385 80.5422 67.0385 81.4167C67.0385 82.2911 66.3238 83 65.4423 83C64.5608 83 63.8462 82.2911 63.8462 81.4167C63.8462 80.5422 64.5608 79.8333 65.4423 79.8333ZM83 81.4167C83 80.5422 82.2854 79.8333 81.4038 79.8333C80.5223 79.8333 79.8077 80.5422 79.8077 81.4167C79.8077 82.2911 80.5223 83 81.4038 83C82.2854 83 83 82.2911 83 81.4167ZM1.59615 64C2.47769 64 3.19231 64.7089 3.19231 65.5833C3.19231 66.4578 2.47769 67.1667 1.59615 67.1667C0.714623 67.1667 7.23083e-07 66.4578 7.61307e-07 65.5833C7.9953e-07 64.7089 0.714623 64 1.59615 64ZM19.1538 65.5833C19.1538 64.7089 18.4392 64 17.5577 64C16.6762 64 15.9615 64.7089 15.9615 65.5833C15.9615 66.4578 16.6762 67.1667 17.5577 67.1667C18.4392 67.1667 19.1538 66.4578 19.1538 65.5833ZM33.5192 64C34.4008 64 35.1154 64.7089 35.1154 65.5833C35.1154 66.4578 34.4008 67.1667 33.5192 67.1667C32.6377 67.1667 31.9231 66.4578 31.9231 65.5833C31.9231 64.7089 32.6377 64 33.5192 64ZM51.0769 65.5833C51.0769 64.7089 50.3623 64 49.4808 64C48.5992 64 47.8846 64.7089 47.8846 65.5833C47.8846 66.4578 48.5992 67.1667 49.4808 67.1667C50.3623 67.1667 51.0769 66.4578 51.0769 65.5833ZM65.4423 64C66.3238 64 67.0385 64.7089 67.0385 65.5833C67.0385 66.4578 66.3238 67.1667 65.4423 67.1667C64.5608 67.1667 63.8462 66.4578 63.8462 65.5833C63.8462 64.7089 64.5608 64 65.4423 64ZM83 65.5833C83 64.7089 82.2854 64 81.4038 64C80.5223 64 79.8077 64.7089 79.8077 65.5833C79.8077 66.4578 80.5223 67.1667 81.4038 67.1667C82.2854 67.1667 83 66.4578 83 65.5833Z" fill="white"/>
<path fill-rule="evenodd" clip-rule="evenodd" d="M113.417 79.8077C112.542 79.8077 111.833 80.5223 111.833 81.4038C111.833 82.2854 112.542 83 113.417 83C114.291 83 115 82.2854 115 81.4038C115 80.5223 114.291 79.8077 113.417 79.8077ZM113.417 63.8462C112.542 63.8462 111.833 64.5608 111.833 65.4423C111.833 66.3238 112.542 67.0385 113.417 67.0385C114.291 67.0385 115 66.3238 115 65.4423C115 64.5608 114.291 63.8462 113.417 63.8462ZM111.833 49.4808C111.833 48.5992 112.542 47.8846 113.417 47.8846C114.291 47.8846 115 48.5992 115 49.4808C115 50.3623 114.291 51.0769 113.417 51.0769C112.542 51.0769 111.833 50.3623 111.833 49.4808ZM113.417 31.9231C112.542 31.9231 111.833 32.6377 111.833 33.5192C111.833 34.4008 112.542 35.1154 113.417 35.1154C114.291 35.1154 115 34.4008 115 33.5192C115 32.6377 114.291 31.9231 113.417 31.9231ZM111.833 17.5577C111.833 16.6762 112.542 15.9615 113.417 15.9615C114.291 15.9615 115 16.6762 115 17.5577C115 18.4392 114.291 19.1538 113.417 19.1538C112.542 19.1538 111.833 18.4392 111.833 17.5577ZM113.417 0C112.542 0 111.833 0.71463 111.833 1.59615C111.833 2.47769 112.542 3.19231 113.417 3.19231C114.291 3.19231 115 2.47769 115 1.59615C115 0.71463 114.291 0 113.417 0ZM96 81.4038C96 80.5223 96.7089 79.8077 97.5833 79.8077C98.4578 79.8077 99.1667 80.5223 99.1667 81.4038C99.1667 82.2854 98.4578 83 97.5833 83C96.7089 83 96 82.2854 96 81.4038ZM97.5833 63.8462C96.7089 63.8462 96 64.5608 96 65.4423C96 66.3238 96.7089 67.0385 97.5833 67.0385C98.4578 67.0385 99.1667 66.3238 99.1667 65.4423C99.1667 64.5608 98.4578 63.8462 97.5833 63.8462ZM96 49.4808C96 48.5992 96.7089 47.8846 97.5833 47.8846C98.4578 47.8846 99.1667 48.5992 99.1667 49.4808C99.1667 50.3623 98.4578 51.0769 97.5833 51.0769C96.7089 51.0769 96 50.3623 96 49.4808ZM97.5833 31.9231C96.7089 31.9231 96 32.6377 96 33.5192C96 34.4008 96.7089 35.1154 97.5833 35.1154C98.4578 35.1154 99.1667 34.4008 99.1667 33.5192C99.1667 32.6377 98.4578 31.9231 97.5833 31.9231ZM96 17.5577C96 16.6762 96.7089 15.9615 97.5833 15.9615C98.4578 15.9615 99.1667 16.6762 99.1667 17.5577C99.1667 18.4392 98.4578 19.1538 97.5833 19.1538C96.7089 19.1538 96 18.4392 96 17.5577ZM97.5833 0C96.7089 0 96 0.71463 96 1.59615C96 2.47769 96.7089 3.19231 97.5833 3.19231C98.4578 3.19231 99.1667 2.47769 99.1667 1.59615C99.1667 0.71463 98.4578 0 97.5833 0Z" fill="white"/>
<path fill-rule="evenodd" clip-rule="evenodd" d="M81.4167 79.8077C80.5422 79.8077 79.8333 80.5223 79.8333 81.4038C79.8333 82.2854 80.5422 83 81.4167 83C82.2911 83 83 82.2854 83 81.4038C83 80.5223 82.2911 79.8077 81.4167 79.8077ZM81.4167 63.8462C80.5422 63.8462 79.8333 64.5608 79.8333 65.4423C79.8333 66.3238 80.5422 67.0385 81.4167 67.0385C82.2911 67.0385 83 66.3238 83 65.4423C83 64.5608 82.2911 63.8462 81.4167 63.8462ZM79.8333 49.4808C79.8333 48.5992 80.5422 47.8846 81.4167 47.8846C82.2911 47.8846 83 48.5992 83 49.4808C83 50.3623 82.2911 51.0769 81.4167 51.0769C80.5422 51.0769 79.8333 50.3623 79.8333 49.4808ZM81.4167 31.9231C80.5422 31.9231 79.8333 32.6377 79.8333 33.5192C79.8333 34.4008 80.5422 35.1154 81.4167 35.1154C82.2911 35.1154 83 34.4008 83 33.5192C83 32.6377 82.2911 31.9231 81.4167 31.9231ZM79.8333 17.5577C79.8333 16.6762 80.5422 15.9615 81.4167 15.9615C82.2911 15.9615 83 16.6762 83 17.5577C83 18.4392 82.2911 19.1538 81.4167 19.1538C80.5422 19.1538 79.8333 18.4392 79.8333 17.5577ZM81.4167 1.07288e-06C80.5422 1.07288e-06 79.8333 0.714627 79.8333 1.59615C79.8333 2.47769 80.5422 3.19231 81.4167 3.19231C82.2911 3.19231 83 2.47769 83 1.59615C83 0.714627 82.2911 1.07288e-06 81.4167 1.07288e-06ZM64 81.4038C64 80.5223 64.7089 79.8077 65.5833 79.8077C66.4578 79.8077 67.1667 80.5223 67.1667 81.4038C67.1667 82.2854 66.4578 83 65.5833 83C64.7089 83 64 82.2854 64 81.4038ZM65.5833 63.8462C64.7089 63.8462 64 64.5608 64 65.4423C64 66.3238 64.7089 67.0385 65.5833 67.0385C66.4578 67.0385 67.1667 66.3238 67.1667 65.4423C67.1667 64.5608 66.4578 63.8462 65.5833 63.8462ZM64 49.4808C64 48.5992 64.7089 47.8846 65.5833 47.8846C66.4578 47.8846 67.1667 48.5992 67.1667 49.4808C67.1667 50.3623 66.4578 51.0769 65.5833 51.0769C64.7089 51.0769 64 50.3623 64 49.4808ZM65.5833 31.9231C64.7089 31.9231 64 32.6377 64 33.5192C64 34.4008 64.7089 35.1154 65.5833 35.1154C66.4578 35.1154 67.1667 34.4008 67.1667 33.5192C67.1667 32.6377 66.4578 31.9231 65.5833 31.9231ZM64 17.5577C64 16.6762 64.7089 15.9615 65.5833 15.9615C66.4578 15.9615 67.1667 16.6762 67.1667 17.5577C67.1667 18.4392 66.4578 19.1538 65.5833 19.1538C64.7089 19.1538 64 18.4392 64 17.5577ZM65.5833 1.07288e-06C64.7089 1.07288e-06 64 0.714627 64 1.59615C64 2.47769 64.7089 3.19231 65.5833 3.19231C66.4578 3.19231 67.1667 2.47769 67.1667 1.59615C67.1667 0.714627 66.4578 1.07288e-06 65.5833 1.07288e-06Z" fill="white"/>
<path fill-rule="evenodd" clip-rule="evenodd" d="M49.4167 79.8077C48.5422 79.8077 47.8333 80.5223 47.8333 81.4038C47.8333 82.2854 48.5422 83 49.4167 83C50.2911 83 51 82.2854 51 81.4038C51 80.5223 50.2911 79.8077 49.4167 79.8077ZM49.4167 63.8462C48.5422 63.8462 47.8333 64.5608 47.8333 65.4423C47.8333 66.3238 48.5422 67.0385 49.4167 67.0385C50.2911 67.0385 51 66.3238 51 65.4423C51 64.5608 50.2911 63.8462 49.4167 63.8462ZM47.8333 49.4808C47.8333 48.5992 48.5422 47.8846 49.4167 47.8846C50.2911 47.8846 51 48.5992 51 49.4808C51 50.3623 50.2911 51.0769 49.4167 51.0769C48.5422 51.0769 47.8333 50.3623 47.8333 49.4808ZM49.4167 31.9231C48.5422 31.9231 47.8333 32.6377 47.8333 33.5192C47.8333 34.4008 48.5422 35.1154 49.4167 35.1154C50.2911 35.1154 51 34.4008 51 33.5192C51 32.6377 50.2911 31.9231 49.4167 31.9231ZM47.8333 17.5577C47.8333 16.6762 48.5422 15.9615 49.4167 15.9615C50.2911 15.9615 51 16.6762 51 17.5577C51 18.4392 50.2911 19.1538 49.4167 19.1538C48.5422 19.1538 47.8333 18.4392 47.8333 17.5577ZM49.4167 1.07288e-06C48.5422 1.07288e-06 47.8333 0.714627 47.8333 1.59615C47.8333 2.47769 48.5422 3.19231 49.4167 3.19231C50.2911 3.19231 51 2.47769 51 1.59615C51 0.714627 50.2911 1.07288e-06 49.4167 1.07288e-06ZM32 81.4038C32 80.5223 32.7089 79.8077 33.5833 79.8077C34.4578 79.8077 35.1667 80.5223 35.1667 81.4038C35.1667 82.2854 34.4578 83 33.5833 83C32.7089 83 32 82.2854 32 81.4038ZM33.5833 63.8462C32.7089 63.8462 32 64.5608 32 65.4423C32 66.3238 32.7089 67.0385 33.5833 67.0385C34.4578 67.0385 35.1667 66.3238 35.1667 65.4423C35.1667 64.5608 34.4578 63.8462 33.5833 63.8462ZM32 49.4808C32 48.5992 32.7089 47.8846 33.5833 47.8846C34.4578 47.8846 35.1667 48.5992 35.1667 49.4808C35.1667 50.3623 34.4578 51.0769 33.5833 51.0769C32.7089 51.0769 32 50.3623 32 49.4808ZM33.5833 31.9231C32.7089 31.9231 32 32.6377 32 33.5192C32 34.4008 32.7089 35.1154 33.5833 35.1154C34.4578 35.1154 35.1667 34.4008 35.1667 33.5192C35.1667 32.6377 34.4578 31.9231 33.5833 31.9231ZM32 17.5577C32 16.6762 32.7089 15.9615 33.5833 15.9615C34.4578 15.9615 35.1667 16.6762 35.1667 17.5577C35.1667 18.4392 34.4578 19.1538 33.5833 19.1538C32.7089 19.1538 32 18.4392 32 17.5577ZM33.5833 1.07288e-06C32.7089 1.07288e-06 32 0.714627 32 1.59615C32 2.47769 32.7089 3.19231 33.5833 3.19231C34.4578 3.19231 35.1667 2.47769 35.1667 1.59615C35.1667 0.714627 34.4578 1.07288e-06 33.5833 1.07288e-06Z" fill="white"/>
<path fill-rule="evenodd" clip-rule="evenodd" d="M17.4167 79.8077C16.5422 79.8077 15.8333 80.5223 15.8333 81.4038C15.8333 82.2854 16.5422 83 17.4167 83C18.2911 83 19 82.2854 19 81.4038C19 80.5223 18.2911 79.8077 17.4167 79.8077ZM17.4167 63.8462C16.5422 63.8462 15.8333 64.5608 15.8333 65.4423C15.8333 66.3238 16.5422 67.0385 17.4167 67.0385C18.2911 67.0385 19 66.3238 19 65.4423C19 64.5608 18.2911 63.8462 17.4167 63.8462ZM15.8333 49.4808C15.8333 48.5992 16.5422 47.8846 17.4167 47.8846C18.2911 47.8846 19 48.5992 19 49.4808C19 50.3623 18.2911 51.0769 17.4167 51.0769C16.5422 51.0769 15.8333 50.3623 15.8333 49.4808ZM17.4167 31.9231C16.5422 31.9231 15.8333 32.6377 15.8333 33.5192C15.8333 34.4008 16.5422 35.1154 17.4167 35.1154C18.2911 35.1154 19 34.4008 19 33.5192C19 32.6377 18.2911 31.9231 17.4167 31.9231ZM15.8333 17.5577C15.8333 16.6762 16.5422 15.9615 17.4167 15.9615C18.2911 15.9615 19 16.6762 19 17.5577C19 18.4392 18.2911 19.1538 17.4167 19.1538C16.5422 19.1538 15.8333 18.4392 15.8333 17.5577ZM17.4167 1.07288e-06C16.5422 1.07288e-06 15.8333 0.714627 15.8333 1.59615C15.8333 2.47769 16.5422 3.19231 17.4167 3.19231C18.2911 3.19231 19 2.47769 19 1.59615C19 0.714627 18.2911 1.07288e-06 17.4167 1.07288e-06ZM2.38419e-07 81.4038C2.38419e-07 80.5223 0.708882 79.8077 1.58333 79.8077C2.45778 79.8077 3.16667 80.5223 3.16667 81.4038C3.16667 82.2854 2.45778 83 1.58333 83C0.708882 83 2.38419e-07 82.2854 2.38419e-07 81.4038ZM1.58333 63.8462C0.708882 63.8462 2.38419e-07 64.5608 2.38419e-07 65.4423C2.38419e-07 66.3238 0.708882 67.0385 1.58333 67.0385C2.45778 67.0385 3.16667 66.3238 3.16667 65.4423C3.16667 64.5608 2.45778 63.8462 1.58333 63.8462ZM2.38419e-07 49.4808C2.38419e-07 48.5992 0.708882 47.8846 1.58333 47.8846C2.45778 47.8846 3.16667 48.5992 3.16667 49.4808C3.16667 50.3623 2.45778 51.0769 1.58333 51.0769C0.708882 51.0769 2.38419e-07 50.3623 2.38419e-07 49.4808ZM1.58333 31.9231C0.708882 31.9231 2.38419e-07 32.6377 2.38419e-07 33.5192C2.38419e-07 34.4008 0.708882 35.1154 1.58333 35.1154C2.45778 35.1154 3.16667 34.4008 3.16667 33.5192C3.16667 32.6377 2.45778 31.9231 1.58333 31.9231ZM2.38419e-07 17.5577C2.38419e-07 16.6762 0.708882 15.9615 1.58333 15.9615C2.45778 15.9615 3.16667 16.6762 3.16667 17.5577C3.16667 18.4392 2.45778 19.1538 1.58333 19.1538C0.708882 19.1538 2.38419e-07 18.4392 2.38419e-07 17.5577ZM1.58333 1.07288e-06C0.708882 1.07288e-06 2.38419e-07 0.714627 2.38419e-07 1.59615C2.38419e-07 2.47769 0.708882 3.19231 1.58333 3.19231C2.45778 3.19231 3.16667 2.47769 3.16667 1.59615C3.16667 0.714627 2.45778 1.07288e-06 1.58333 1.07288e-06Z" fill="white"/>
</svg>
