<svg width="179" height="189" viewBox="0 0 179 189" fill="none" xmlns="http://www.w3.org/2000/svg">
<path d="M149.278 143.307V186.515H46.1719V32.4673" stroke="#f1f0f0" stroke-linecap="round" stroke-linejoin="round"/>
<path d="M149.274 34.3027V58.441" stroke="#f1f0f0" stroke-linecap="round" stroke-linejoin="round"/>
<path d="M64.3262 12.6865H143.417" stroke="#f1f0f0" stroke-linecap="round" stroke-linejoin="round"/>
<path d="M102.663 33.2935H123.984" stroke="#f1f0f0" stroke-linecap="round" stroke-linejoin="round"/>
<path d="M102.663 43.8833H119.913" stroke="#f1f0f0" stroke-linecap="round" stroke-linejoin="round"/>
<path d="M63.8691 96.4131H79.5948" stroke="#f1f0f0" stroke-linecap="round" stroke-linejoin="round"/>
<path d="M63.8691 110.974H72.3415" stroke="#f1f0f0" stroke-linecap="round" stroke-linejoin="round"/>
<path d="M167.951 58.4424H115.569V143.308H167.951V58.4424Z" stroke="#f1f0f0" stroke-linecap="round" stroke-linejoin="round"/>
<path d="M134.768 73.0273H149.274" stroke="#f1f0f0" stroke-linecap="round" stroke-linejoin="round"/>
<path d="M140.957 84.4009H149.271" stroke="#f1f0f0" stroke-linecap="round" stroke-linejoin="round"/>
<path d="M157.379 142.284C160.476 149.951 141.885 164.263 131.365 157.617C125.355 167.068 107.265 160.578 111.58 155.032C100.304 156.079 87.6016 149.86 92.7337 139.582C78.7514 133.828 85.4195 120.667 99.3044 120.356C87.309 102.256 96.8663 88.5901 116.493 89.9348C116.286 67.9557 141.824 68.8994 143.836 91.6155C158.806 85.9785 171.228 102.321 161.244 115.185C174.933 122.179 169.228 137.591 157.379 142.284Z" stroke="#f1f0f0" stroke-linecap="round" stroke-linejoin="round"/>
<path d="M113.083 101.794H147.594C147.594 101.794 152.836 122.196 145.156 143.283L108.987 142.688C108.987 142.688 118.74 120.205 113.083 101.794Z" stroke="#f1f0f0" stroke-linecap="round" stroke-linejoin="round"/>
<path d="M120.853 112.131H138.419" stroke="#f1f0f0" stroke-linecap="round" stroke-linejoin="round"/>
<path d="M121.976 120.211H135.251" stroke="#f1f0f0" stroke-linecap="round" stroke-linejoin="round"/>
<path d="M121.112 127.933H139.532" stroke="#f1f0f0" stroke-linecap="round" stroke-linejoin="round"/>
<path d="M11.411 2L101.778 3.29289C101.778 3.29289 108.483 42.8035 94.6469 94.17H2C2 94.17 17.433 49.6688 11.411 2Z" stroke="#f1f0f0" stroke-linecap="round" stroke-linejoin="round"/>
<path d="M61.5391 38.2388L87.6996 39.0924" stroke="#f1f0f0" stroke-linecap="round" stroke-linejoin="round"/>
<path d="M72.7412 30.896L88.7716 31.4263" stroke="#f1f0f0" stroke-linecap="round" stroke-linejoin="round"/>
<path d="M84.8984 24.0176L89.9818 24.187" stroke="#f1f0f0" stroke-linecap="round" stroke-linejoin="round"/>
<path d="M80.998 15.2617L89.9824 15.5614" stroke="#f1f0f0" stroke-linecap="round" stroke-linejoin="round"/>
<path d="M30.3018 99.356H52.7199" stroke="#f1f0f0" stroke-linecap="round" stroke-linejoin="round"/>
<path d="M25.4824 109.826H47.9005" stroke="#f1f0f0" stroke-linecap="round" stroke-linejoin="round"/>
<path d="M22.1045 121.089H44.5226" stroke="#f1f0f0" stroke-linecap="round" stroke-linejoin="round"/>
<path d="M63.3283 125.963C67.4243 139.758 47.6759 148.951 38.5209 134.91C29.1222 152.015 -7.8025 141.284 8.64232 121.244C-2.97511 120.107 -1.02465 96.2139 12.2994 98.2308C5.32653 76.6655 33.5107 68.7659 41.215 87.655C44.8709 84.508 49.4284 82.7753 54.1368 82.742C62.9992 82.923 69.9843 90.4994 67.3999 102.924C67.2293 103.777 67.0098 104.644 66.7416 105.51C78.2615 110.384 71.7519 125.2 63.3283 125.963Z" stroke="#f1f0f0" stroke-linecap="round" stroke-linejoin="round"/>
<path d="M12.4414 0.881836H32.2264" stroke="#f1f0f0" stroke-linecap="round" stroke-linejoin="round"/>
<path d="M80.8887 134.618L97.9796 153.895L103.721 146.151L87.3374 128.904L80.8887 134.618Z" fill="#f1f0f0" stroke="#f1f0f0" stroke-miterlimit="10"/>
<path d="M36.8271 144.393L53.979 125L60.5862 131.49L43.7391 152.616L36.8271 144.393Z" fill="#f1f0f0" stroke="#f1f0f0" stroke-miterlimit="10"/>
<path d="M45.6662 137.995L91.2094 138.099C91.2094 138.099 97.8288 161.875 83.2857 187.564L34 185.444C34 185.444 49.0307 162.366 45.6662 137.995Z" stroke="#f1f0f0" stroke-linecap="round" stroke-linejoin="round"/>
<path d="M53.9756 149.563H83.7201" stroke="#f1f0f0" stroke-linecap="round" stroke-linejoin="round"/>
<path d="M54.4043 160.142H78.139" stroke="#f1f0f0" stroke-linecap="round" stroke-linejoin="round"/>
<path d="M53.9756 173.987H65.1907" stroke="#f1f0f0" stroke-linecap="round" stroke-linejoin="round"/>
<path d="M67.7246 173.987H75.1851" stroke="#f1f0f0" stroke-linecap="round" stroke-linejoin="round"/>
<path d="M106.029 64.2466L112.673 70.3102C112.673 70.3102 128.911 51.99 128.606 51.99C128.301 51.99 121.219 46.3789 121.219 46.3789L106.029 64.2466Z" fill="#f1f0f0" stroke="#f1f0f0" stroke-miterlimit="10"/>
<path d="M153.488 53.8671L160.778 47.2476L178.162 66.7831L170.14 74.075L153.488 53.8671Z" fill="#f1f0f0" stroke="#f1f0f0" stroke-miterlimit="10"/>
<path d="M134.836 4.44515L140.931 10.0175C141.141 10.2094 141.391 10.3439 141.661 10.4092C141.931 10.4746 142.212 10.4688 142.479 10.3924L150.257 8.24625C150.567 8.1592 150.894 8.16614 151.201 8.26628C151.508 8.36642 151.783 8.55576 151.993 8.81283C152.204 9.0699 152.342 9.38443 152.393 9.72075C152.444 10.0571 152.405 10.4017 152.28 10.7157L149.16 18.5764C149.053 18.8481 149.011 19.1431 149.037 19.436C149.062 19.7289 149.155 20.0107 149.306 20.2572L153.633 27.4456C153.804 27.7314 153.896 28.0619 153.9 28.4001C153.903 28.7383 153.818 29.071 153.654 29.3608C153.489 29.6506 153.252 29.8861 152.969 30.0411C152.685 30.1961 152.367 30.2643 152.049 30.2383L144.04 29.5272C143.761 29.4997 143.481 29.5455 143.224 29.6605C142.967 29.7755 142.74 29.9563 142.565 30.1866L137.469 36.7674C137.264 37.0283 136.995 37.2239 136.691 37.3323C136.388 37.4406 136.062 37.4576 135.75 37.3812C135.438 37.3048 135.152 37.1381 134.924 36.8996C134.696 36.6612 134.534 36.3603 134.458 36.0304L132.629 27.7301C132.566 27.4407 132.438 27.1719 132.255 26.9467C132.073 26.7215 131.841 26.5467 131.581 26.4372L124.096 23.3343C123.797 23.2109 123.536 23.0013 123.344 22.729C123.151 22.4568 123.034 22.1327 123.007 21.7937C122.979 21.4546 123.041 21.114 123.186 20.8105C123.331 20.507 123.553 20.2526 123.828 20.0762L130.703 15.6674C130.943 15.514 131.144 15.3007 131.289 15.0461C131.433 14.7914 131.517 14.5032 131.532 14.2065L131.995 5.69925C132.017 5.3611 132.127 5.03606 132.314 4.76063C132.5 4.4852 132.755 4.27028 133.05 4.14002C133.345 4.00976 133.668 3.9693 133.984 4.0232C134.299 4.0771 134.594 4.22322 134.836 4.44515Z" fill="#f1f0f0" stroke="#f1f0f0" stroke-miterlimit="10"/>
</svg>
