<svg width="77" height="80" viewBox="0 0 77 80" fill="none" xmlns="http://www.w3.org/2000/svg">
<path d="M32.58 17.98C55.81 8.47998 67.33 35.11 58.58 51.84C56.52 55.76 56.82 58.95 58.77 63.71C60.72 68.47 60.77 71.87 55.5 74.01C50.23 76.15 47.9 73.71 45.95 68.95C44 64.19 41.95 61.71 37.77 60.35C19.79 54.55 9.33997 27.48 32.58 17.98Z" fill="#F9F9F9" stroke="#CC6363" stroke-linecap="round" stroke-linejoin="round"/>
<path d="M52.8899 68.88C54.2399 63.21 53.79 59.27 49.73 58.31C45.67 57.35 42.4099 55.05 44.1899 52.08C45.9699 49.11 53.3499 48.42 51.3299 52.02C49.3099 55.62 38.68 54.33 41.17 50.81C43.66 47.29 49.6 44.37 47.17 43.81C44.74 43.25 37.31 46.61 39.71 43.99C44.53 38.74 38.9 37.63 37.35 31.99" stroke="#CC6363" stroke-linecap="round" stroke-linejoin="round"/>
<path d="M42.97 67.22C43.791 68.608 44.4999 70.0592 45.09 71.56C45.5349 72.6975 46.0699 73.7977 46.69 74.85C48.91 78.58 51.88 80.07 57.13 77.93C62.38 75.79 63.43 72.64 62.4 68.43C62.1102 67.2399 61.7222 66.0759 61.24 64.95C60.6182 63.4664 60.1068 61.9389 59.71 60.38C54.598 63.6698 48.9231 65.9886 42.97 67.22Z" fill="#F9F9F9" stroke="#CC6363" stroke-linecap="round" stroke-linejoin="round"/>
<path d="M42.97 67.22C43.7075 68.4612 44.3461 69.7586 44.88 71.1C44.96 71.25 45.02 71.41 45.09 71.56C45.5349 72.6975 46.0699 73.7977 46.69 74.85C48.84 75.33 51.6 74.93 55.28 73.42C58.96 71.91 61.21 70.27 62.4 68.42C62.1102 67.2299 61.7222 66.0659 61.2401 64.94L61.0601 64.47C60.5138 63.1369 60.0626 61.7668 59.71 60.37C54.5987 63.6633 48.9238 65.9855 42.97 67.22Z" fill="#F9F9F9" stroke="#CC6363" stroke-linecap="round" stroke-linejoin="round"/>
<path d="M42.97 67.22C43.7075 68.4612 44.3461 69.7586 44.88 71.1C50.6659 70.0115 56.1705 67.7593 61.0601 64.48C60.5138 63.1469 60.0626 61.7768 59.71 60.38C54.598 63.6698 48.9231 65.9886 42.97 67.22Z" fill="#F9F9F9" stroke="#CC6363" stroke-linecap="round" stroke-linejoin="round"/>
<path d="M28.63 11.75L24.2401 1" stroke="#CC6363" stroke-width="2" stroke-linecap="round" stroke-linejoin="round"/>
<path d="M11.5699 28.25L1 26.73" stroke="#CC6363" stroke-width="2" stroke-linecap="round" stroke-linejoin="round"/>
<path d="M58.61 13.6L68.0601 3.46997" stroke="#CC6363" stroke-width="2" stroke-linecap="round" stroke-linejoin="round"/>
<path d="M43.5 9.34999V2.20999" stroke="#CC6363" stroke-linecap="round" stroke-linejoin="round"/>
<path d="M68.09 30.63L76.02 31.77" stroke="#CC6363" stroke-linecap="round" stroke-linejoin="round"/>
<path d="M15.65 50.4L12.73 55.41" stroke="#CC6363" stroke-linecap="round" stroke-linejoin="round"/>
<path d="M64.74 35.1L59.03 32.39" stroke="#CC6363" stroke-linecap="round" stroke-linejoin="round"/>
</svg>
