<svg width="173" height="229" viewBox="0 0 173 229" fill="none" xmlns="http://www.w3.org/2000/svg">
<path d="M72.6401 149.66H39.8701V227.96H72.6401V149.66Z" fill="#CC6363"/>
<path d="M158.71 64.2397H125.94V227.95H158.71V64.2397Z" fill="#CC6363"/>
<path d="M172.9 227.95H1V8" stroke="black" stroke-width="2" stroke-miterlimit="10"/>
<path d="M115.68 128.82H82.9102V227.95H115.68V128.82Z" stroke="black" stroke-linecap="round" stroke-linejoin="round"/>
<path d="M33.75 132.2L58.23 104.42L79.14 100.32L96.77 68.5698L123.08 58.2198L149.72 33.2998" stroke="black" stroke-linecap="round" stroke-linejoin="round"/>
<path d="M152.96 87.4411L143.81 74.8411C143.625 74.581 143.381 74.369 143.097 74.2227C142.814 74.0763 142.499 74 142.18 74C141.861 74 141.547 74.0763 141.263 74.2227C140.98 74.369 140.735 74.581 140.55 74.8411L131.4 87.4411C131.176 87.7402 131.04 88.0964 131.007 88.469C130.975 88.8416 131.048 89.2158 131.218 89.5491C131.388 89.8823 131.647 90.1613 131.968 90.3544C132.288 90.5474 132.656 90.6467 133.03 90.6411H135.03C135.561 90.6411 136.069 90.8518 136.444 91.2269C136.819 91.6019 137.03 92.1106 137.03 92.6411V103.941C137.03 104.472 137.241 104.98 137.616 105.355C137.991 105.73 138.5 105.941 139.03 105.941H145.23C145.761 105.941 146.269 105.73 146.644 105.355C147.019 104.98 147.23 104.472 147.23 103.941V92.6611C147.23 92.1306 147.441 91.6219 147.816 91.2469C148.191 90.8718 148.7 90.6611 149.23 90.6611H151.23C151.616 90.69 152.002 90.6064 152.341 90.4204C152.68 90.2344 152.958 89.954 153.142 89.6132C153.325 89.2724 153.405 88.8858 153.373 88.5003C153.341 88.1147 153.197 87.7468 152.96 87.4411Z" fill="black" stroke="black" stroke-miterlimit="10"/>
<path d="M99.2128 51.4813L84.4028 36.7013C83.8583 36.157 83.4295 35.5082 83.1421 34.794C82.8548 34.0797 82.7148 33.3148 82.7307 32.545C82.7466 31.7753 82.918 31.0168 83.2346 30.315C83.5511 29.6132 84.0063 28.9826 84.5728 28.4613L112.573 2.7613C113.6 1.82351 114.932 1.29049 116.323 1.2613L129.033 1.00129C129.801 0.98497 130.564 1.12402 131.277 1.4101C131.99 1.69618 132.637 2.12338 133.181 2.66604C133.725 3.20869 134.153 3.85561 134.44 4.56795C134.727 5.28029 134.868 6.04334 134.853 6.81128L134.613 19.5313C134.583 20.9243 134.038 22.2569 133.083 23.2713L107.433 51.2713C106.914 51.8374 106.287 52.2931 105.589 52.6113C104.89 52.9296 104.135 53.1037 103.367 53.1233C102.6 53.1429 101.837 53.0076 101.123 52.7255C100.409 52.4433 99.7594 52.0202 99.2128 51.4813Z" stroke="black" stroke-width="2" stroke-linecap="round" stroke-linejoin="round"/>
<path d="M111.883 32.8214C111.115 33.6646 110.106 34.2511 108.993 34.5014C107.881 34.6494 106.752 34.413 105.793 33.8314L103.353 36.2714C103.319 36.3063 103.279 36.3341 103.234 36.353C103.189 36.3719 103.141 36.3815 103.093 36.3814C103.046 36.3814 102.999 36.3716 102.956 36.3526C102.913 36.3337 102.875 36.3061 102.843 36.2714L99.6027 33.0314C99.5682 32.9996 99.5406 32.9609 99.5218 32.9179C99.5029 32.8749 99.4932 32.8284 99.4932 32.7814C99.4932 32.7345 99.5029 32.688 99.5218 32.645C99.5406 32.6019 99.5682 32.5633 99.6027 32.5314L101.783 30.3414C101.203 29.7114 100.693 29.1214 100.263 28.5714C100.213 28.4945 100.192 28.4024 100.203 28.3114C100.211 28.2162 100.253 28.1272 100.323 28.0614L103.183 25.7014C103.222 25.6667 103.268 25.6415 103.318 25.6276C103.369 25.6137 103.422 25.6116 103.473 25.6214C103.578 25.6418 103.672 25.7029 103.733 25.7914C103.883 26.0414 104.043 26.2814 104.213 26.5214C104.383 26.7614 104.623 27.0814 104.923 27.4514C105.187 27.8062 105.478 28.1405 105.793 28.4514C106.047 28.7371 106.357 28.9684 106.703 29.1314C106.942 29.2581 107.214 29.3071 107.483 29.2714C107.669 29.2438 107.851 29.19 108.023 29.1114C108.139 29.0535 108.247 28.9795 108.343 28.8914C108.443 28.7901 108.524 28.6715 108.583 28.5414C108.673 28.3468 108.741 28.142 108.783 27.9314C108.835 27.5971 108.811 27.2552 108.713 26.9314C108.592 26.474 108.4 26.0386 108.143 25.6414C107.817 25.116 107.578 24.5421 107.433 23.9414C107.279 23.3068 107.211 22.6542 107.233 22.0014C107.255 21.2748 107.425 20.5603 107.733 19.9014C108.069 19.1548 108.54 18.4767 109.123 17.9014C109.872 17.1029 110.863 16.5724 111.943 16.3914C113.04 16.2586 114.152 16.4608 115.133 16.9714L117.643 14.4514C117.676 14.4165 117.717 14.3888 117.762 14.3699C117.806 14.351 117.854 14.3413 117.903 14.3414C117.951 14.3374 117.999 14.3443 118.044 14.3617C118.089 14.379 118.13 14.4062 118.163 14.4414L121.403 17.6714C121.472 17.744 121.511 17.8408 121.511 17.9414C121.511 18.0421 121.472 18.1388 121.403 18.2114L119.233 20.3914C119.783 21.0014 120.313 21.6114 120.813 22.2414C120.864 22.3181 120.889 22.4094 120.883 22.5014C120.88 22.5485 120.867 22.5945 120.845 22.636C120.822 22.6775 120.791 22.7135 120.753 22.7414L117.893 25.1014C117.852 25.1332 117.805 25.1558 117.755 25.1679C117.705 25.18 117.653 25.1812 117.603 25.1714C117.553 25.169 117.505 25.154 117.463 25.1277C117.421 25.1014 117.387 25.0649 117.363 25.0214C116.742 24.0338 116.021 23.1123 115.213 22.2714C114.964 21.9903 114.662 21.7624 114.323 21.6014C114.077 21.4744 113.797 21.4255 113.523 21.4614C113.337 21.4887 113.156 21.5391 112.983 21.6114C112.861 21.669 112.749 21.7468 112.653 21.8414C112.557 21.9405 112.479 22.0555 112.423 22.1814C112.332 22.375 112.268 22.5803 112.233 22.7914C112.185 23.1266 112.213 23.468 112.313 23.7914C112.433 24.2488 112.626 24.6842 112.883 25.0814C113.189 25.614 113.421 26.186 113.573 26.7814C113.736 27.418 113.806 28.0747 113.783 28.7314C113.753 29.455 113.579 30.1654 113.273 30.8214C112.932 31.5657 112.462 32.243 111.883 32.8214Z" fill="#CC6363"/>
<path d="M51.1494 49.04V56.85C51.1494 58.49 55.8694 59.85 61.6994 59.85C67.5294 59.85 72.2594 58.52 72.2594 56.85V49.04H51.1494Z" fill="#CC6363" stroke="black" stroke-linecap="round" stroke-linejoin="round"/>
<path d="M51.1494 41.4297V49.2397C51.1494 50.8797 55.8694 52.2397 61.6994 52.2397C67.5294 52.2397 72.2594 50.9097 72.2594 49.2397V41.4297H51.1494Z" fill="#CC6363" stroke="black" stroke-linecap="round" stroke-linejoin="round"/>
<path d="M51.1494 33.8198V41.6298C51.1494 43.2698 55.8694 44.6298 61.6994 44.6298C67.5294 44.6298 72.2594 43.2998 72.2594 41.6298V33.8198H51.1494Z" fill="#CC6363" stroke="black" stroke-linecap="round" stroke-linejoin="round"/>
<path d="M51.1494 26.1699V33.9799C51.1494 35.6199 55.8694 36.9799 61.6994 36.9799C67.5294 36.9799 72.2594 35.6499 72.2594 33.9799V26.1699H51.1494Z" fill="#CC6363" stroke="black" stroke-linecap="round" stroke-linejoin="round"/>
<path d="M51.1494 18.6099V26.4199C51.1494 28.0599 55.8694 29.4199 61.6994 29.4199C67.5294 29.4199 72.2594 28.0899 72.2594 26.4199V18.6099H51.1494Z" fill="#CC6363" stroke="black" stroke-linecap="round" stroke-linejoin="round"/>
<path d="M51.1494 11V18.81C51.1494 20.45 55.8694 21.81 61.6994 21.81C67.5294 21.81 72.2594 20.48 72.2594 18.81V11H51.1494Z" fill="#CC6363" stroke="black" stroke-linecap="round" stroke-linejoin="round"/>
<path d="M72.2594 11C72.2594 12.64 67.5294 14 61.6994 14C55.8694 14 51.1494 12.67 51.1494 11C51.1494 9.33 55.8694 8 61.6994 8C67.5294 8 72.2594 9.36 72.2594 11Z" fill="#CC6363" stroke="black" stroke-linecap="round" stroke-linejoin="round"/>
<path d="M29.7295 53.27V61.08C29.7295 62.72 34.4595 64.08 40.2795 64.08C46.0995 64.08 50.8395 62.75 50.8395 61.08V53.27H29.7295Z" fill="#CC6363" stroke="black" stroke-linecap="round" stroke-linejoin="round"/>
<path d="M29.7295 45.6597V53.4697C29.7295 55.1097 34.4595 56.4697 40.2795 56.4697C46.0995 56.4697 50.8395 55.1397 50.8395 53.4697V45.6597H29.7295Z" fill="#CC6363" stroke="black" stroke-linecap="round" stroke-linejoin="round"/>
<path d="M29.7295 38.0498V45.8598C29.7295 47.4998 34.4595 48.8598 40.2795 48.8598C46.0995 48.8598 50.8395 47.5298 50.8395 45.8598V38.0498H29.7295Z" fill="#CC6363" stroke="black" stroke-linecap="round" stroke-linejoin="round"/>
<path d="M29.7295 30.4399V38.2499C29.7295 39.8899 34.4595 41.2499 40.2795 41.2499C46.0995 41.2499 50.8395 39.9199 50.8395 38.2499V30.4399H29.7295Z" fill="#CC6363" stroke="black" stroke-linecap="round" stroke-linejoin="round"/>
</svg>
