<svg width="462" height="314" viewBox="0 0 462 314" fill="none" xmlns="http://www.w3.org/2000/svg">
<path d="M64.3887 262.843H26.4013C24.3953 262.841 22.4721 262.108 21.0543 260.803C19.6364 259.499 18.84 257.73 18.84 255.886C18.84 254.043 19.6367 252.275 21.0547 250.972C22.4727 249.668 24.3959 248.936 26.4013 248.936H64.3887C66.3947 248.936 68.3187 249.668 69.7378 250.971C71.1569 252.275 71.9551 254.042 71.9569 255.886C71.9569 256.8 71.7612 257.705 71.3808 258.549C71.0005 259.393 70.443 260.16 69.7403 260.806C69.0375 261.452 68.2032 261.964 67.2849 262.314C66.3667 262.663 65.3826 262.843 64.3887 262.843Z" stroke="#DDDDDD" stroke-miterlimit="10"/>
<path d="M162.267 111.317H141.596C136.147 111.317 131.73 115.377 131.73 120.386V120.392C131.73 125.401 136.147 129.461 141.596 129.461H162.267C167.716 129.461 172.133 125.401 172.133 120.392V120.386C172.133 115.377 167.716 111.317 162.267 111.317Z" stroke="#DDDDDD" stroke-miterlimit="10"/>
<path d="M239.635 37.5952H201.647C199.642 37.5952 197.719 36.8629 196.301 35.5595C194.883 34.256 194.086 32.4882 194.086 30.6448C194.085 29.7315 194.28 28.827 194.66 27.983C195.039 27.139 195.596 26.3721 196.298 25.726C197.001 25.0799 197.834 24.5674 198.752 24.2177C199.67 23.868 200.654 23.688 201.647 23.688H239.635C240.629 23.6872 241.614 23.8665 242.533 24.2157C243.452 24.5649 244.287 25.0772 244.991 25.7233C245.694 26.3694 246.253 27.1366 246.633 27.9811C247.014 28.8255 247.21 29.7307 247.21 30.6448C247.209 31.5584 247.012 32.4628 246.631 33.3066C246.25 34.1503 245.692 34.9167 244.988 35.5621C244.285 36.2075 243.45 36.7193 242.532 37.0681C241.613 37.4169 240.629 37.596 239.635 37.5952Z" stroke="#DDDDDD" stroke-miterlimit="10"/>
<path d="M357.385 227.022H326.75C325.839 227.022 324.966 226.69 324.323 226.098C323.679 225.506 323.317 224.704 323.317 223.867C323.317 223.03 323.679 222.228 324.323 221.636C324.966 221.044 325.839 220.712 326.75 220.712H357.385C358.295 220.712 359.168 221.044 359.812 221.636C360.456 222.228 360.817 223.03 360.817 223.867C360.817 224.704 360.456 225.506 359.812 226.098C359.168 226.69 358.295 227.022 357.385 227.022Z" stroke="#DDDDDD" stroke-miterlimit="10"/>
<path d="M104.618 63.208H73.983C73.0726 63.208 72.1996 62.8756 71.5558 62.2839C70.9121 61.6921 70.5505 60.8896 70.5505 60.0528C70.5505 59.6384 70.6393 59.2282 70.8118 58.8453C70.9843 58.4625 71.2371 58.1147 71.5558 57.8217C71.8746 57.5287 72.253 57.2963 72.6694 57.1378C73.0859 56.9792 73.5322 56.8976 73.983 56.8976H104.618C105.069 56.8976 105.515 56.9792 105.932 57.1378C106.348 57.2963 106.726 57.5287 107.045 57.8217C107.364 58.1147 107.617 58.4625 107.789 58.8453C107.962 59.2282 108.051 59.6384 108.051 60.0528C108.051 60.8896 107.689 61.6921 107.045 62.2839C106.401 62.8756 105.528 63.208 104.618 63.208Z" stroke="#DDDDDD" stroke-miterlimit="10"/>
<path d="M407.236 13.1024C416.538 17.192 422.672 12.4624 428.061 10.0944C430.328 9.08979 432.904 8.84052 435.349 9.38923C437.794 9.93793 439.955 11.2505 441.464 13.1024L441.046 31.5216C441.046 31.5216 433.436 29.0384 429.105 31.5216C424.775 34.0048 419.595 40.1232 407.222 31.8608L407.236 13.1024Z" fill="#EDEDED" stroke="#DDDDDD" stroke-width="2" stroke-linecap="round" stroke-linejoin="round"/>
<path d="M443.044 89.5248C442.53 89.5248 442.037 89.3375 441.673 89.004C441.309 88.6705 441.104 88.218 441.102 87.7456V9.79996C441.102 9.56578 441.152 9.33389 441.25 9.11761C441.347 8.90133 441.491 8.70491 441.671 8.53961C441.852 8.37431 442.066 8.24339 442.301 8.15436C442.537 8.06532 442.789 8.01992 443.044 8.02076C443.299 8.01992 443.551 8.06532 443.787 8.15436C444.023 8.24339 444.237 8.37431 444.417 8.53961C444.598 8.70491 444.741 8.90133 444.839 9.11761C444.936 9.33389 444.987 9.56578 444.987 9.79996V87.7456C444.985 88.218 444.779 88.6705 444.415 89.004C444.051 89.3375 443.558 89.5248 443.044 89.5248Z" fill="#F9F9F9" stroke="#EDEDED" stroke-width="2" stroke-linecap="round" stroke-linejoin="round"/>
<path d="M428.402 90.1135H457.84" stroke="#DDDDDD" stroke-width="2" stroke-linecap="round" stroke-linejoin="round"/>
<path d="M405.537 120.385H393.708V143.502H363.602V170.178" stroke="#DDDDDD" stroke-width="2" stroke-linecap="round" stroke-linejoin="round"/>
<path d="M169.676 270.625H139.563V293.563H94.8009V308.609H3.16046" stroke="#DDDDDD" stroke-width="2" stroke-linecap="round" stroke-linejoin="round"/>
<path d="M288.595 192.603V211.694H250.817V232.264H213.129V252.885H175.538V270.626" stroke="#EDEDED" stroke-width="2" stroke-linecap="round" stroke-linejoin="round"/>
<path d="M355.087 170.581H323.568V192.603H299.756" stroke="#DDDDDD" stroke-width="2" stroke-linecap="round" stroke-linejoin="round"/>
<path d="M64.3887 262.843H26.4013C24.3953 262.841 22.4721 262.108 21.0543 260.803C19.6364 259.499 18.84 257.73 18.84 255.886C18.84 254.043 19.6367 252.275 21.0547 250.972C22.4727 249.668 24.3959 248.936 26.4013 248.936H64.3887C66.3947 248.936 68.3187 249.668 69.7378 250.971C71.1569 252.275 71.9551 254.042 71.9569 255.886C71.9569 256.8 71.7612 257.705 71.3808 258.549C71.0005 259.393 70.443 260.16 69.7403 260.806C69.0375 261.452 68.2032 261.964 67.2849 262.314C66.3667 262.663 65.3826 262.843 64.3887 262.843Z" stroke="#DDDDDD" stroke-miterlimit="10"/>
<path d="M162.267 111.317H141.596C136.147 111.317 131.73 115.377 131.73 120.386V120.392C131.73 125.401 136.147 129.461 141.596 129.461H162.267C167.716 129.461 172.133 125.401 172.133 120.392V120.386C172.133 115.377 167.716 111.317 162.267 111.317Z" stroke="#DDDDDD" stroke-miterlimit="10"/>
<path d="M239.635 37.5952H201.647C199.642 37.5952 197.719 36.8629 196.301 35.5595C194.883 34.256 194.086 32.4882 194.086 30.6448C194.085 29.7315 194.28 28.827 194.66 27.983C195.039 27.139 195.596 26.3721 196.298 25.726C197.001 25.0799 197.834 24.5674 198.752 24.2177C199.67 23.868 200.654 23.688 201.647 23.688H239.635C240.629 23.6872 241.614 23.8665 242.533 24.2157C243.452 24.5649 244.287 25.0772 244.991 25.7233C245.694 26.3694 246.253 27.1366 246.633 27.9811C247.014 28.8255 247.21 29.7307 247.21 30.6448C247.209 31.5584 247.012 32.4628 246.631 33.3066C246.25 34.1503 245.692 34.9167 244.988 35.5621C244.285 36.2075 243.45 36.7193 242.532 37.0681C241.613 37.4169 240.629 37.596 239.635 37.5952Z" stroke="#DDDDDD" stroke-miterlimit="10"/>
<path d="M357.385 227.022H326.75C325.839 227.022 324.966 226.69 324.323 226.098C323.679 225.506 323.317 224.704 323.317 223.867C323.317 223.03 323.679 222.228 324.323 221.636C324.966 221.044 325.839 220.712 326.75 220.712H357.385C358.295 220.712 359.168 221.044 359.812 221.636C360.456 222.228 360.817 223.03 360.817 223.867C360.817 224.704 360.456 225.506 359.812 226.098C359.168 226.69 358.295 227.022 357.385 227.022Z" stroke="#DDDDDD" stroke-miterlimit="10"/>
<path d="M104.618 63.208H73.983C73.0726 63.208 72.1996 62.8756 71.5558 62.2839C70.9121 61.6921 70.5505 60.8896 70.5505 60.0528C70.5505 59.6384 70.6393 59.2282 70.8118 58.8453C70.9843 58.4625 71.2371 58.1147 71.5558 57.8217C71.8746 57.5287 72.253 57.2963 72.6694 57.1378C73.0859 56.9792 73.5322 56.8976 73.983 56.8976H104.618C105.069 56.8976 105.515 56.9792 105.932 57.1378C106.348 57.2963 106.726 57.5287 107.045 57.8217C107.364 58.1147 107.617 58.4625 107.789 58.8453C107.962 59.2282 108.051 59.6384 108.051 60.0528C108.051 60.8896 107.689 61.6921 107.045 62.2839C106.401 62.8756 105.528 63.208 104.618 63.208Z" stroke="#DDDDDD" stroke-miterlimit="10"/>
<path d="M407.236 13.1024C416.538 17.192 422.672 12.4624 428.061 10.0944C430.328 9.08979 432.904 8.84052 435.349 9.38923C437.794 9.93793 439.955 11.2505 441.464 13.1024L441.046 31.5216C441.046 31.5216 433.436 29.0384 429.105 31.5216C424.775 34.0048 419.595 40.1232 407.222 31.8608L407.236 13.1024Z" fill="#EDEDED" stroke="#DDDDDD" stroke-width="2" stroke-linecap="round" stroke-linejoin="round"/>
<path d="M443.044 89.5248C442.53 89.5248 442.037 89.3375 441.673 89.004C441.309 88.6705 441.104 88.218 441.102 87.7456V9.79996C441.102 9.56578 441.152 9.33389 441.25 9.11761C441.347 8.90133 441.491 8.70491 441.671 8.53961C441.852 8.37431 442.066 8.24339 442.301 8.15436C442.537 8.06532 442.789 8.01992 443.044 8.02076C443.299 8.01992 443.551 8.06532 443.787 8.15436C444.023 8.24339 444.237 8.37431 444.417 8.53961C444.598 8.70491 444.741 8.90133 444.839 9.11761C444.936 9.33389 444.987 9.56578 444.987 9.79996V87.7456C444.985 88.218 444.779 88.6705 444.415 89.004C444.051 89.3375 443.558 89.5248 443.044 89.5248Z" fill="#F9F9F9" stroke="#EDEDED" stroke-width="2" stroke-linecap="round" stroke-linejoin="round"/>
<path d="M428.402 90.1135H457.84" stroke="#B09999" stroke-width="2" stroke-linecap="round" stroke-linejoin="round"/>
<path d="M405.537 120.385H393.708V143.502H363.602V170.178" stroke="#B09999" stroke-width="2" stroke-linecap="round" stroke-linejoin="round"/>
<path d="M169.676 270.625H139.563V293.563H94.8009V308.609H3.16046" stroke="#B09999" stroke-width="2" stroke-linecap="round" stroke-linejoin="round"/>
<path d="M288.595 192.603V211.694H250.817V232.264H213.129V252.885H175.538V270.626" stroke="#B09999" stroke-width="2" stroke-linecap="round" stroke-linejoin="round"/>
<path d="M355.087 170.581H323.568V192.603H299.756" stroke="#B09999" stroke-width="2" stroke-linecap="round" stroke-linejoin="round"/>
<path d="M340.25 24.5904C340.25 24.5904 340.111 24.8848 339.86 25.384C339.609 25.8832 339.366 26.3248 339.004 26.952C338.76 27.3872 338.488 27.8544 338.182 28.3472C338.001 28.648 337.806 28.9872 337.597 29.2752L337.395 29.576C336.936 30.2736 336.427 30.9968 335.87 31.7072C335.481 32.2064 335.07 32.7056 334.638 33.1856C331.254 36.9552 328.414 35.3744 328.414 35.3744C327.62 36.0086 326.962 36.7724 326.471 37.6272C325.783 38.7979 325.286 40.055 324.995 41.3584C317.009 46.7088 311.94 39.656 314.315 33.384C317.545 30.587 320.427 27.4681 322.906 24.0848C320.33 20.936 324.619 18.1904 326.589 19.9952L330.857 18.1776C339.853 15.9888 340.25 24.5904 340.25 24.5904Z" fill="#FEBD9D"/>
<path d="M324.055 20.7888C325.183 20.7888 326.144 21.2112 325.928 22.8048" stroke="#EF8A66" stroke-width="0.75" stroke-linecap="round" stroke-linejoin="round"/>
<path d="M325.19 23.56C323.554 22.6256 324.988 21.3968 325.886 22.1712" stroke="#EF8A66" stroke-width="0.75" stroke-linecap="round" stroke-linejoin="round"/>
<path d="M333.197 31.5216C332.02 31.1824 331.512 29.8128 331.804 28.6288C328.671 30.6384 331.011 33.0192 333.197 31.5216Z" fill="white" stroke="#EF8A66" stroke-width="0.75" stroke-linecap="round" stroke-linejoin="round"/>
<path d="M334.005 29.8512C335.063 29.8512 335.989 30.0176 336.239 28.1808C336.302 27.6578 336.501 27.1564 336.82 26.7195C337.138 26.2826 337.568 25.9232 338.071 25.672" stroke="#EF8A66" stroke-width="0.75" stroke-linecap="round" stroke-linejoin="round"/>
<path d="M322.906 24.0847C323.291 24.5792 323.83 24.9543 324.452 25.1599" stroke="#EF8A66" stroke-width="0.75" stroke-linecap="round" stroke-linejoin="round"/>
<path d="M333.921 26.4399C333.921 26.5665 333.962 26.6902 334.038 26.7955C334.115 26.9007 334.223 26.9828 334.351 27.0312C334.478 27.0797 334.618 27.0923 334.753 27.0676C334.888 27.0429 335.012 26.982 335.11 26.8925C335.207 26.803 335.273 26.6889 335.3 26.5648C335.327 26.4406 335.313 26.312 335.26 26.195C335.208 26.0781 335.118 25.9781 335.004 25.9078C334.889 25.8375 334.755 25.7999 334.617 25.7999C334.432 25.7999 334.255 25.8674 334.125 25.9874C333.994 26.1074 333.921 26.2702 333.921 26.4399Z" fill="#683F1D"/>
<path d="M338.182 28.36C338.001 28.6608 337.806 29 337.597 29.288H337.548C337.364 29.288 337.187 29.2206 337.056 29.1006C336.926 28.9806 336.852 28.8178 336.852 28.648C336.852 28.4783 336.926 28.3155 337.056 28.1955C337.187 28.0755 337.364 28.008 337.548 28.008C337.679 28.006 337.808 28.0379 337.92 28.1002C338.032 28.1625 338.123 28.2525 338.182 28.36Z" fill="#683F1D"/>
<path d="M344.379 23.9824C344.323 25.0256 343.278 26.0688 341.517 26.0944C339.881 26.0944 338.676 24.3984 338.948 22.728C338.948 22.728 336.163 23.3232 335.696 19.9888C335.696 19.9888 333.427 21.6912 332.215 18.9264C330.844 20.0401 329.59 21.27 328.469 22.6C327.077 24.392 326.381 24.1424 326.339 23.3808C326.297 22.6192 327.167 21.3584 327.272 21.2048C327.175 20.7471 326.933 20.3261 326.575 19.9952C327.888 18.293 329.314 16.6664 330.843 15.1248C333.51 12.4048 336.065 12.6032 335.655 14.664C338.398 13.1024 342.213 15.1184 340.41 18.248C342.951 17.608 345.722 20.424 343.063 22.1328C343.463 22.2789 343.804 22.535 344.039 22.8661C344.275 23.1972 344.393 23.587 344.379 23.9824Z" fill="#604730"/>
<path d="M333.656 23.2399C333.322 24.1679 336.441 25.1599 336.908 24.1999C337.374 23.2399 334.081 22.0303 333.656 23.2399Z" fill="#604730"/>
<path d="M339.86 25.384C339.651 25.7872 339.366 26.3248 339.004 26.952C338.384 26.312 337.813 25.4672 338.015 25.1408C338.335 24.6224 339.205 24.9872 339.86 25.384Z" fill="#604730"/>
<path d="M328.414 35.4C327.62 36.0343 326.962 36.7981 326.471 37.6528C322.433 34.856 325.002 31.6688 325.002 31.6688C325.706 33.199 326.895 34.499 328.414 35.4Z" fill="#F4A789"/>
<path d="M344.379 23.9824C344.323 25.0256 343.278 26.0688 341.517 26.0944C339.881 26.0944 338.676 24.3984 338.948 22.728C338.948 22.728 336.163 23.3232 335.696 19.9888C335.696 19.9888 333.427 21.6912 332.215 18.9264C330.844 20.0401 329.59 21.2701 328.469 22.6C327.077 24.392 326.381 24.1424 326.339 23.3808C326.297 22.6192 327.167 21.3584 327.272 21.2048C328.175 20.6966 328.93 19.9937 329.472 19.1568C331.24 16.7312 333.058 15.2336 334.624 17.0256C336.191 18.8176 338.001 17.0256 338.69 19.1952C339.345 21.2752 340.821 24.4816 344.379 23.9824Z" fill="#473526"/>
<path d="M334.241 14.0176C334.332 15.8928 332.528 18.1456 332.528 18.1456" stroke="#896442" stroke-width="0.75" stroke-linecap="round" stroke-linejoin="round"/>
<path d="M336.26 19.2656C336.631 18.6438 337.145 18.1043 337.767 17.6852C338.389 17.2661 339.103 16.9776 339.86 16.84" stroke="#896442" stroke-width="0.75" stroke-linecap="round" stroke-linejoin="round"/>
<path d="M339.296 22.1648C340.303 21.5996 341.474 21.3295 342.652 21.3904" stroke="#896442" stroke-width="0.75" stroke-linecap="round" stroke-linejoin="round"/>
<path d="M328.288 18.76C328.663 18.9099 328.992 19.1425 329.246 19.4372C329.5 19.7319 329.671 20.0797 329.743 20.4496" stroke="#896442" stroke-width="0.75" stroke-linecap="round" stroke-linejoin="round"/>
<path d="M331.247 27.4448C330.321 27.6816 329.312 26.9776 328.985 25.8832C328.657 24.7888 329.145 23.7072 330.071 23.4768C330.997 23.2464 332.013 23.944 332.334 25.0384C332.654 26.1328 332.152 27.2144 331.247 27.4448Z" fill="#F4AF90"/>
<path d="M337.395 29.5759C336.936 30.2735 336.427 30.9967 335.87 31.7071C335.809 31.5924 335.769 31.4691 335.752 31.3423C335.753 30.9164 335.919 30.5048 336.22 30.1811C336.521 29.8574 336.938 29.6429 337.395 29.5759Z" fill="#F4AF90"/>
<path d="M350.666 111.272C349.642 119.906 342.666 115.752 332.925 114.562L327.522 114.363L291.589 113.083L288.588 112.974L299.032 85.9025C322.126 92.2001 351.961 100.277 350.666 111.272Z" fill="#FED81D"/>
<path d="M327.522 114.363L291.589 113.083L292.661 105.864L297.57 94.28C297.57 94.28 305.855 93.8192 303.335 100.482C300.814 107.144 301.824 111.867 314.913 108.725C322.823 106.811 326.137 110.862 327.522 114.363Z" fill="#FCC71F"/>
<path d="M308.139 75.72C302.019 83.048 298.705 98.9264 297.939 108.456C297.389 115.317 296.268 132.987 293.462 147.765C283.777 166.856 270.43 157.838 271.182 144.386V144.315C272.484 134.459 271.878 126.024 270.688 122.498C269.072 117.813 265.083 102.197 264.421 95.7904C262.931 81.7104 266.378 69.704 271.384 62.8496L308.139 75.72Z" fill="#FED81D"/>
<path d="M297.57 113.282C297.716 111.362 297.841 109.742 297.939 108.482C298.428 102.969 299.392 97.5017 300.821 92.1296" stroke="#F7AD2B" stroke-width="0.75" stroke-linecap="round" stroke-linejoin="round"/>
<path d="M275.06 73.0385C269.42 107.906 280.268 121.038 278.618 140.571C278.023 145.955 276.95 151.285 275.408 156.507" stroke="#F7AD2B" stroke-width="0.75" stroke-linecap="round" stroke-linejoin="round"/>
<path d="M273.466 89.5248C277.594 85.4987 279.992 80.2315 280.212 74.7024" stroke="#F7AD2B" stroke-width="0.75" stroke-linecap="round" stroke-linejoin="round"/>
<path d="M298.113 80.9872C298.113 80.9872 296.344 88.4752 295.634 90.5872C295.634 90.5872 298.113 90.952 298.997 89.5184C299.881 88.0848 301.538 81.8384 301.538 81.8384" stroke="#F7AD2B" stroke-width="0.75" stroke-linecap="round" stroke-linejoin="round"/>
<path d="M339.303 66.2928L335.752 80.1808C334.777 84.7696 334.513 88.5008 333.963 91.2144C333.204 95.0032 331.874 96.9232 327.411 96.7056L327.23 96.6608L326.589 96.5008L326.165 96.3856L325.608 96.2128C325.364 96.1296 325.127 96.0464 324.912 95.9568C324.508 95.8075 324.113 95.6387 323.728 95.4512L323.31 95.24C322.692 94.9212 322.107 94.5506 321.563 94.1328C321.456 94.0571 321.353 93.9759 321.256 93.8896C320.45 93.242 319.758 92.4843 319.202 91.6432C319.048 91.4155 318.906 91.1805 318.778 90.9392C318.439 90.3271 318.173 89.6835 317.984 89.0192C317.949 88.904 317.921 88.7952 317.893 88.6864C317.865 88.5776 317.831 88.4304 317.81 88.3088C317.789 88.1872 317.768 88.0912 317.747 87.9824C317.65 87.4217 317.624 86.8526 317.671 86.2864C317.907 83.944 321.061 59.7776 321.061 59.7776L322.217 57.1536L323.763 53.64L339.303 66.2928Z" fill="#C3DCF8"/>
<path d="M333.963 91.2144C333.204 95.0032 331.874 96.9232 327.411 96.7056L327.216 96.6608L326.575 96.5008L326.151 96.3856L325.594 96.2128C325.35 96.1296 325.113 96.0464 324.898 95.9568C324.494 95.8074 324.098 95.6387 323.714 95.4512L323.296 95.24C322.678 94.9212 322.093 94.5505 321.549 94.1328C321.442 94.057 321.339 93.9758 321.242 93.8896C320.436 93.2419 319.744 92.4843 319.188 91.6432C319.033 91.4154 318.892 91.1805 318.764 90.9392C318.425 90.3271 318.159 89.6834 317.97 89.0192C317.935 88.904 317.907 88.7952 317.879 88.6864C317.851 88.5776 317.817 88.4304 317.796 88.3088C317.775 88.1872 317.754 88.0912 317.733 87.9824C317.636 87.4217 317.61 86.8525 317.656 86.2864C317.893 83.944 321.047 59.7776 321.047 59.7776L322.203 57.1536C324.703 61.5504 327.662 68.6736 324.215 73.5184C318.91 80.9808 319.69 93.0896 330.21 91.5152C331.451 91.3263 332.705 91.2257 333.963 91.2144Z" fill="#A7CAF0"/>
<path d="M328.991 55.291C328.063 55.9566 327.135 56.6734 326.206 57.4414C317.322 64.859 309.253 76.6414 306.976 77.9214C303.697 79.7262 296.01 78.6894 288.637 76.9678C283.088 75.7 277.652 74.0505 272.372 72.0334C267.909 70.1134 266.802 68.9294 267.547 67.4062C268.292 65.883 272.728 56.3662 272.728 56.3662L271.634 55.3742L259.541 44.4174C266.705 39.451 276.083 33.9022 284.696 30.8174C290.538 28.731 296.017 27.7838 300.215 28.8974L328.991 55.291Z" fill="#C3DCF8"/>
<path d="M328.991 55.2912C328.063 55.9568 327.135 56.6736 326.206 57.4416C316.863 57.5824 307.951 63.432 300.076 57.1472C290.329 49.3712 299.15 43.6112 293.114 36.0272C290.986 33.5116 288.047 31.6792 284.717 30.792C290.558 28.7056 296.038 27.7584 300.236 28.872L328.991 55.2912Z" fill="#D0E5F7"/>
<path d="M288.644 76.9552C283.095 75.6874 277.659 74.038 272.379 72.0208C267.916 70.1008 266.809 68.9168 267.554 67.3936C268.299 65.8704 272.734 56.3536 272.734 56.3536L271.641 55.3616C275.123 51.9952 279.948 47.3232 280.212 47.0416C280.637 46.5808 290.823 49.704 290.823 49.704C290.823 49.704 290.482 60.1808 281.159 61.1792C271.836 62.1776 273.5 69 281.765 69.928C287.077 70.5104 288.386 74.2992 288.644 76.9552Z" fill="#A7CAF0"/>
<path d="M260.209 43.9504C245.442 51.8288 257.967 78.7408 290.517 51.8672C293.949 36.744 275.457 34.8432 260.209 43.9504Z" fill="#A7CAF0"/>
<path d="M328.992 55.2913C326.289 57.2664 323.778 59.4527 321.486 61.8257" stroke="#83ADDF" stroke-width="0.75" stroke-linecap="round" stroke-linejoin="round"/>
<path d="M257.654 198.075C257.654 198.075 251.387 205.595 252.279 211.694H282.12C282.12 211.694 268.849 204.565 268.16 199.342L257.654 198.075Z" fill="#683F1D"/>
<path d="M293.761 146.152C293.664 146.702 293.566 147.246 293.462 147.784C292.376 153.544 291.032 158.83 289.368 162.894C283.415 177.422 273.354 200.149 273.354 200.149L254.172 198.683C255.565 195.246 262.527 180.648 269.205 154.478C270.058 151.14 270.706 147.759 271.147 144.354C271.182 144.11 271.21 143.861 271.238 143.618C272.679 135.688 290.941 128.053 293.761 146.152Z" fill="#FED81D"/>
<path d="M278.792 135.944C278.792 137.454 278.757 138.99 278.625 140.571C276.968 160.117 260.174 198.382 260.042 199.138" stroke="#F7AD2B" stroke-width="0.75" stroke-linecap="round" stroke-linejoin="round"/>
<path d="M330.621 156.955C330.621 156.955 327.78 164.482 328.636 170.581H355.094C355.094 170.581 341.83 163.451 341.169 158.222L330.621 156.955Z" fill="#683F1D"/>
<path d="M350.889 116.405C348.709 131.394 344.539 159.08 344.539 159.08H327.209L332.925 114.562C333.002 106.811 338.725 98.5616 344.574 102.171C352.629 107.176 351.313 113.48 350.889 116.405Z" fill="#FED81D"/>
<path d="M364.361 97.6209C364.361 97.6209 357.398 97.8513 349.231 97.8513C342.499 97.8513 334.958 97.6977 329.897 97.1217C329.507 97.0769 329.131 97.0257 328.762 96.9617C328.595 96.9617 328.427 96.9105 328.267 96.8785C328.107 96.8465 327.989 96.8337 327.85 96.8017C327.606 96.7569 327.369 96.6993 327.153 96.6481L326.457 96.4625L326.297 96.4177L325.705 96.2321L325.601 96.2001L324.904 95.9569C324.879 95.9514 324.855 95.9405 324.835 95.9249C316.939 91.3041 316.703 86.2289 321.012 83.1249C324.041 80.9105 329.326 79.6689 335.78 80.2129L363.156 85.2497L364.361 97.6209Z" fill="#C3DCF8"/>
<path d="M349.231 97.8513C342.499 97.8513 334.958 97.6977 329.897 97.1217C329.507 97.0769 329.131 97.0257 328.762 96.9617C328.595 96.9617 328.427 96.9105 328.267 96.8785C328.107 96.8465 327.989 96.8337 327.85 96.8017C327.606 96.7569 327.369 96.6993 327.153 96.6481L326.457 96.4625L326.297 96.4177L325.705 96.2321L325.601 96.2001L324.904 95.9569C324.879 95.9514 324.855 95.9404 324.835 95.9249C316.939 91.3041 316.703 86.2289 321.012 83.1249C320.943 88.2449 323.721 92.5137 330.217 91.5409C339.115 90.1713 346.809 93.4225 349.231 97.8513Z" fill="#A7CAF0"/>
<path d="M335.759 80.2001C333.914 79.9154 332.055 79.7167 330.189 79.6049" stroke="#83ADDF" stroke-width="0.75" stroke-linecap="round" stroke-linejoin="round"/>
<path d="M405.537 120.386L397.537 117.499L385.436 113.122C385.436 113.122 324.097 57.3072 294.715 30.4976C286.632 23.1184 280.964 17.9408 279.662 16.7248C275.331 12.6672 285.587 2.00483 291.067 6.44643C291.491 6.79843 297.18 11.8672 305.73 19.5152C335.105 45.7552 398.331 102.434 398.331 102.434L402.564 112.955L405.537 120.386Z" fill="#F9F9F9" stroke="#B09999" stroke-width="2" stroke-linecap="round" stroke-linejoin="round"/>
<path d="M310.778 31.1056L389.635 101.23" stroke="#B09999" stroke-opacity="0.5" stroke-linecap="round" stroke-linejoin="round"/>
<path d="M307.415 35.848L385.576 105.358" stroke="#B09999" stroke-opacity="0.5" stroke-linecap="round" stroke-linejoin="round"/>
<path d="M402.543 112.955C400.353 113.892 398.584 115.498 397.537 117.499L385.436 113.122C385.436 113.122 385.771 109.416 390.241 109.986C389.28 107.586 391.208 104.866 394.509 106.824C394.509 106.824 393.812 102.914 398.31 102.434L402.543 112.955Z" fill="#F9F9F9" stroke="#B09999" stroke-width="2" stroke-linecap="round" stroke-linejoin="round"/>
<path d="M405.537 120.386L397.537 117.499C398.584 115.498 400.353 113.892 402.543 112.955L405.537 120.386Z" fill="#B09999" stroke="#B09999" stroke-width="2" stroke-linecap="round" stroke-linejoin="round"/>
<path d="M305.73 19.5152C302.06 23.1696 298.036 27.1952 294.715 30.4976C286.632 23.1184 280.964 17.9408 279.662 16.7248C275.331 12.6672 285.587 2.00483 291.067 6.44643C291.491 6.79843 297.18 11.8672 305.73 19.5152Z" stroke="#B09999" stroke-width="2" stroke-linecap="round" stroke-linejoin="round"/>
<path d="M301.705 15.9185L290.433 26.5937" stroke="#B09999" stroke-width="2" stroke-linecap="round" stroke-linejoin="round"/>
<path d="M358.116 89.5248C364.194 84.84 365.572 84.8976 366.136 85.512C366.7 86.1264 364.18 88.8144 363.351 89.5248C363.351 89.5248 368.497 85.9792 369.987 86.8304C371.477 87.6816 369.52 89.5248 369.52 89.5248C369.52 89.5248 372.389 89.48 370.544 92.3152C370.544 92.3152 372.034 92.3152 371.163 93.7296C370.293 95.144 364.946 98.5168 362.996 97.6592C361.047 96.8016 355.177 91.7968 358.116 89.5248Z" fill="#FEBD9D"/>
<path d="M360.754 87.5792C364.626 84.872 365.628 85.0192 366.136 85.512C366.645 86.0048 364.18 88.8144 363.351 89.5248C363.351 89.5248 368.497 85.9792 369.987 86.8304C371.477 87.6816 369.52 89.5248 369.52 89.5248C369.52 89.5248 372.389 89.48 370.544 92.3152C370.544 92.3152 372.034 92.3152 371.163 93.7296" stroke="#EF8A66" stroke-width="0.75" stroke-linecap="round" stroke-linejoin="round"/>
<path d="M369.527 89.5248L364.096 92.7504" stroke="#EF8A66" stroke-width="0.75" stroke-linecap="round" stroke-linejoin="round"/>
<path d="M365.538 95.1824L370.551 92.3152" stroke="#EF8A66" stroke-width="0.75" stroke-linecap="round" stroke-linejoin="round"/>
<path d="M363.358 89.5248L361.785 90.7088" stroke="#EF8A66" stroke-width="0.75" stroke-linecap="round" stroke-linejoin="round"/>
<path d="M299.652 49.6656C300.309 47.0693 300.233 44.3614 299.429 41.8L293.295 44.488C293.295 44.488 295.53 50.12 299.652 49.6656Z" fill="#A7CAF0"/>
<path d="M293.211 34.6384C294.934 34.4794 296.643 34.2186 298.329 33.8576C298.698 33.6656 301.343 31.72 302.506 31.016C303.669 30.312 308.397 27.5024 308.842 27.7648C309.288 28.0272 309.448 29.3008 308.598 30.2352C308.598 30.2352 313.758 28.2192 315.986 27.976C317.803 27.7776 317.448 29.352 316.229 30.0752C318.179 29.2816 320.497 30.0752 317.859 31.8032C319.641 31.5216 320.567 32.7824 317.775 34.6384C319.321 33.8576 320.372 34.92 318.952 36.2448C316.64 38.408 311.885 40.0848 310.381 40.6096C308.877 41.1344 299.345 43.08 295.648 45C295.648 45 292.466 39.7456 293.211 34.6384Z" fill="#FEBD9D"/>
<path d="M302.513 31.016C303.69 30.312 308.403 27.5024 308.849 27.7648C309.295 28.0272 309.455 29.3008 308.605 30.2352C308.605 30.2352 313.764 28.2192 315.992 27.976C317.81 27.7776 317.455 29.352 316.236 30.0752C318.186 29.2816 320.504 30.0752 317.865 31.8032C319.648 31.5216 320.574 32.7824 317.782 34.6384C319.327 33.8576 320.379 34.92 318.958 36.2448" stroke="#EF8A66" stroke-width="0.75" stroke-linecap="round" stroke-linejoin="round"/>
<path d="M308.605 30.2352L305.939 31.4384" stroke="#EF8A66" stroke-width="0.75" stroke-linecap="round" stroke-linejoin="round"/>
<path d="M316.236 30.0752L310.778 32.4048" stroke="#EF8A66" stroke-width="0.75" stroke-linecap="round" stroke-linejoin="round"/>
<path d="M317.865 31.8032L311.94 34.6384" stroke="#EF8A66" stroke-width="0.75" stroke-linecap="round" stroke-linejoin="round"/>
<path d="M317.782 34.6384L313.138 37.064" stroke="#EF8A66" stroke-width="0.75" stroke-linecap="round" stroke-linejoin="round"/>
<path d="M295.947 32.8912C286.416 33.7808 269.218 36.4048 256.324 44.9808C251.332 48.296 251.408 62.2608 265.034 61.1024C278.66 59.944 299.672 49.6656 299.672 49.6656C299.672 49.6656 294.27 48.5712 295.947 32.8912Z" fill="#C3DCF8"/>
<path d="M273.466 59.5664C285.921 56.3664 299.652 49.6656 299.652 49.6656C299.652 49.6656 294.27 48.5712 295.927 32.8912C288.636 33.5397 281.436 34.8714 274.44 36.8656" stroke="#83ADDF" stroke-width="0.75" stroke-linecap="round" stroke-linejoin="round"/>
<path d="M204.516 171.221C204.516 171.221 184.763 212.098 174.967 228.987C158.647 239.56 156.106 228.68 158.703 219.925C159.831 217.762 163.145 208.098 166.612 197.186C169.55 187.931 172.593 177.787 174.508 170.581L196.85 171.054L204.516 171.221Z" fill="#93BEE5"/>
<path d="M197.449 173.64C195.486 186.581 178.288 179.093 176.624 186.581C175.796 190.325 172.642 194.069 166.612 197.211C169.55 187.957 172.593 177.813 174.508 170.606L196.85 171.08C197.403 171.83 197.618 172.747 197.449 173.64Z" fill="#83ADDF"/>
<path d="M182.911 180.219C181.094 180.987 182.215 181.928 182.73 183.323C183.246 184.718 180.551 184.379 180.642 186.267C180.732 188.155 181.728 187.099 180.642 189.941C179.59 192.686 167.67 220.27 163.583 226.299" stroke="#C3DCF8" stroke-width="0.75" stroke-linecap="round" stroke-linejoin="round"/>
<path d="M228.745 171.458C228.745 171.458 204.377 176.066 187.82 177.486C177.703 178.363 170.908 175.31 167.594 170.722C166.544 169.254 165.82 167.611 165.461 165.885C165.103 164.16 165.118 162.387 165.505 160.667C173.735 151.707 183.336 149.058 191.322 148.77C196.983 148.572 202.625 149.477 207.879 151.426C227.945 149.858 239.154 150.638 245.191 153.032C255.565 164.424 243.193 168.616 228.745 171.458Z" fill="#93BEE5"/>
<path d="M177.125 153.832C176.75 160.232 179.59 162.453 194.574 162.254C211.061 162.037 234.058 160.654 235.29 160.853C237.804 161.256 232.916 164.917 234.643 164.974C236.919 165.058 239.377 165.365 238.124 166.798C236.871 168.232 235.52 168.814 236.446 169.704" stroke="#C3DCF8" stroke-width="0.75" stroke-linecap="round" stroke-linejoin="round"/>
<path d="M172.969 175.208C176.638 177.077 181.602 178.024 187.82 177.493C194.455 176.923 202.337 175.842 209.404 174.747" stroke="#83ADDF" stroke-width="0.75" stroke-linecap="round" stroke-linejoin="round"/>
<path d="M234.281 143.56C233.8 145.326 232.463 146.984 229.818 148.322C229.504 148.411 229.184 148.494 228.864 148.571C228.544 148.648 228.272 148.693 227.973 148.744L227.416 148.814L227.033 148.853H226.845C226.524 148.853 226.204 148.885 225.884 148.885C220.711 148.885 215.127 145.845 210.942 137.576C210.942 137.576 208.311 142.171 207.586 145.122C207.48 145.514 207.417 145.915 207.398 146.318C207.368 148.037 207.54 149.754 207.914 151.438C207.914 151.438 197.602 151.541 190.73 153.397C183.858 155.253 176.151 158.69 165.54 160.68C165.54 160.68 166.062 156.2 167.858 153.883C167.183 153.656 166.61 153.228 166.232 152.666C165.853 152.105 165.69 151.442 165.77 150.786C166.006 148.955 167.984 148.136 170.49 144.584C171.301 143.424 172.022 142.214 172.649 140.962C176.603 133.134 175.705 131.138 175.19 130.382L170.448 135.067C161.933 143.47 144.82 160.334 143.65 161.365C142.076 162.741 139.626 163.285 138.734 162.734C138.191 162.402 134.557 165.064 131.772 167.214C129.955 168.622 128.492 169.813 128.492 169.813L118.104 164.053C118.104 164.053 121.029 161.826 124.05 159.464C127.246 156.974 130.553 154.344 130.658 154.024C130.881 153.384 130.205 151.803 131.695 150.37C133.025 149.09 158.348 122.939 167.107 113.672C168.241 112.469 169.105 111.554 169.592 111.01C173.86 106.28 176.429 103.97 182.57 102.568L212.558 103.163C212.558 103.163 221.184 101.71 223.001 106.677C223.259 107.406 223.531 108.405 223.809 109.589C225.424 116.539 227.102 129.762 227.102 129.762C227.102 129.762 235.952 137.326 234.281 143.56Z" fill="#FED81D"/>
<path d="M131.73 167.24C129.913 168.648 128.451 169.838 128.451 169.838L118.063 164.078C118.063 164.078 120.987 161.851 124.009 159.49C127.166 161.525 129.801 164.17 131.73 167.24Z" fill="#B25E47"/>
<path d="M182.779 122.786C182.779 126.056 180.941 130.747 178.797 132.501C176.179 134.626 180.119 142.338 175.74 144.558C174.951 145.015 174.037 145.257 173.105 145.257C172.172 145.257 171.259 145.015 170.469 144.558C171.28 143.399 172.001 142.188 172.628 140.936C176.582 133.109 175.684 131.112 175.169 130.357C178.156 127.522 180.948 124.674 182.779 122.786Z" fill="#FCC71F"/>
<path d="M234.281 143.56C233.8 145.326 232.463 146.984 229.818 148.322C229.504 148.411 229.184 148.494 228.864 148.571C228.544 148.648 228.272 148.693 227.973 148.744L227.416 148.814L227.033 148.853H226.845C226.524 148.853 226.204 148.885 225.884 148.885C220.711 148.885 215.127 145.845 210.942 137.576C215.572 128.296 215.781 123.675 214.702 119.272C215.82 119.515 216.847 120.031 217.673 120.765C218.499 121.5 219.094 122.425 219.395 123.445C221.212 129.058 212.328 135.842 217.035 139.995C221.212 143.65 228.558 137.96 231.203 142.19C231.478 142.701 231.929 143.112 232.486 143.36C233.044 143.608 233.675 143.679 234.281 143.56Z" fill="#FCC71F"/>
<path d="M223.746 109.57C220.885 109.358 217.243 109.915 215.224 113.41C211.555 119.81 199.364 128.13 190.821 118.28C184.144 110.6 178.107 110.037 167.065 113.627C168.2 112.424 169.063 111.509 169.55 110.965C173.818 106.235 176.387 103.925 182.528 102.523L212.516 103.118C212.516 103.118 221.142 101.666 222.96 106.632C223.196 107.387 223.468 108.36 223.746 109.57Z" fill="#FFE05C"/>
<path d="M126.313 161.102L132.621 156.258" stroke="#F7AD2B" stroke-width="0.75" stroke-linecap="round" stroke-linejoin="round"/>
<path d="M128.625 163.24L134.717 158.466" stroke="#F7AD2B" stroke-width="0.75" stroke-linecap="round" stroke-linejoin="round"/>
<path d="M130.449 165.352L135.894 161.589" stroke="#F7AD2B" stroke-width="0.75" stroke-linecap="round" stroke-linejoin="round"/>
<path d="M168.875 159.97L170.469 154.222" stroke="#F7AD2B" stroke-width="0.75" stroke-linecap="round" stroke-linejoin="round"/>
<path d="M171.757 159.272L173.213 153.352" stroke="#F7AD2B" stroke-width="0.75" stroke-linecap="round" stroke-linejoin="round"/>
<path d="M174.508 158.517L175.74 153.352" stroke="#F7AD2B" stroke-width="0.75" stroke-linecap="round" stroke-linejoin="round"/>
<path d="M177.78 157.531L178.79 152.962" stroke="#F7AD2B" stroke-width="0.75" stroke-linecap="round" stroke-linejoin="round"/>
<path d="M180.983 156.494L181.637 152.379" stroke="#F7AD2B" stroke-width="0.75" stroke-linecap="round" stroke-linejoin="round"/>
<path d="M183.9 155.515L184.165 152.77" stroke="#F7AD2B" stroke-width="0.75" stroke-linecap="round" stroke-linejoin="round"/>
<path d="M184.903 120.52C184.903 120.52 184.095 121.384 182.779 122.76C180.948 124.68 178.156 127.496 175.169 130.344" stroke="#F7AD2B" stroke-width="0.75" stroke-linecap="round" stroke-linejoin="round"/>
<path d="M210.928 137.57C215.559 128.29 215.767 123.669 214.688 119.266C214.243 117.39 213.553 115.566 212.885 113.435" stroke="#F7AD2B" stroke-width="0.75" stroke-linecap="round" stroke-linejoin="round"/>
<path d="M180.293 107.31L184.903 104.469" stroke="#F7AD2B" stroke-width="0.75" stroke-linecap="round" stroke-linejoin="round"/>
<path d="M185.299 109.768L187.785 105.998" stroke="#F7AD2B" stroke-width="0.75" stroke-linecap="round" stroke-linejoin="round"/>
<path d="M189.63 110.715L190.821 107.067" stroke="#F7AD2B" stroke-width="0.75" stroke-linecap="round" stroke-linejoin="round"/>
<path d="M192.52 111.093L193.376 107.63" stroke="#F7AD2B" stroke-width="0.75" stroke-linecap="round" stroke-linejoin="round"/>
<path d="M195.36 111.656L195.876 107.976" stroke="#F7AD2B" stroke-width="0.75" stroke-linecap="round" stroke-linejoin="round"/>
<path d="M200.137 111.656V108.232" stroke="#F7AD2B" stroke-width="0.75" stroke-linecap="round" stroke-linejoin="round"/>
<path d="M203.764 108.232L204.314 111.656" stroke="#F7AD2B" stroke-width="0.75" stroke-linecap="round" stroke-linejoin="round"/>
<path d="M206.34 107.81L207.273 111.656" stroke="#F7AD2B" stroke-width="0.75" stroke-linecap="round" stroke-linejoin="round"/>
<path d="M208.666 107.31L209.954 110.434" stroke="#F7AD2B" stroke-width="0.75" stroke-linecap="round" stroke-linejoin="round"/>
<path d="M210.539 106.453L212.224 109.768" stroke="#F7AD2B" stroke-width="0.75" stroke-linecap="round" stroke-linejoin="round"/>
<path d="M212.634 106.453L214.751 107.976" stroke="#F7AD2B" stroke-width="0.75" stroke-linecap="round" stroke-linejoin="round"/>
<path d="M213.693 104.693L216.296 105.89" stroke="#F7AD2B" stroke-width="0.75" stroke-linecap="round" stroke-linejoin="round"/>
<path d="M206.779 99.944C206.264 99.7264 205.7 99.5024 205.094 99.304C203.626 98.8005 202.064 98.5699 200.499 98.6256C195.124 98.6832 182.528 102.581 182.528 102.581C182.8 102.926 186.093 106.286 192.805 107.56C199.517 108.834 206.396 108.2 209.341 107.125C210.202 106.782 210.949 106.237 211.507 105.543C212.064 104.85 212.413 104.033 212.516 103.176C212.516 103.176 211.116 101.762 206.779 99.944Z" fill="#B25E47"/>
<path d="M238.89 221.518C242.629 219.054 246.103 222.574 237.497 224.622" stroke="#83ADDF" stroke-width="0.75" stroke-linecap="round" stroke-linejoin="round"/>
<path d="M235.374 223.56C237.135 219.643 239.725 216.353 240.944 217.198C242.434 218.241 236.725 223.88 236.725 223.88" stroke="#83ADDF" stroke-width="0.75" stroke-linecap="round" stroke-linejoin="round"/>
<path d="M243.492 232.264H219.987C219.896 229.314 223.517 222.709 223.914 220.558C223.914 220.514 223.914 220.469 223.914 220.411C224.352 218.024 225.585 209.205 225.585 209.205L238.194 209.934L234.803 220.514C236.006 222.129 237.357 223.647 238.841 225.051C241.529 227.656 246.813 228.027 247.308 229.858C247.802 231.688 244.933 232.264 243.492 232.264Z" fill="#C3DCF8"/>
<path d="M238.215 209.934L234.824 220.514C234.824 220.514 227.987 220.462 223.934 220.411C224.373 218.024 225.605 209.205 225.605 209.205L238.215 209.934Z" fill="#B25E47"/>
<path d="M251.422 164.622C249.988 174.581 240.087 211.694 240.087 211.694H223.851L228.725 171.541C228.733 171.514 228.733 171.485 228.725 171.457C228.634 170.939 225.696 154.005 241.563 151.938C242.801 152.211 244.012 152.577 245.184 153.032C251.388 155.477 252.139 159.598 251.422 164.622Z" fill="#93BEE5"/>
<path d="M229.581 161.006C232.818 160.865 234.942 160.795 235.29 160.853C237.804 161.256 232.916 164.917 234.643 164.974C236.919 165.057 239.377 165.365 238.124 166.798C236.731 168.347 235.429 168.853 236.557 169.806C238.695 171.605 235.047 173.313 234.796 175.381C234.545 177.448 230.451 208.558 230.451 208.558" stroke="#C3DCF8" stroke-width="0.75" stroke-linecap="round" stroke-linejoin="round"/>
<path d="M248.004 107.298C246.973 109.858 245.866 112.117 245.866 112.117L245.755 112.52L243.666 120.322C243.666 120.322 245.309 120.725 245.268 122.05C245.226 123.374 242.19 134.254 239.259 140.392C239.134 140.667 238.98 140.936 238.827 141.211C238.674 141.486 238.597 141.608 238.472 141.8C238.212 142.201 237.934 142.591 237.637 142.971C237.497 143.15 237.358 143.323 237.212 143.49C237.066 143.656 236.892 143.854 236.718 144.027C236.544 144.2 236.39 144.366 236.223 144.533C235.868 144.872 235.527 145.173 235.102 145.506L234.51 145.954C233.524 146.674 232.446 147.282 231.301 147.765H231.252L230.556 148.034C230.319 148.117 230.082 148.2 229.859 148.27C225.048 147.138 223.468 144.238 223.357 141.064C223.169 135.778 227.088 129.723 227.088 129.723C227.085 129.713 227.085 129.702 227.088 129.691C227.318 129.09 231.099 119.4 231.872 118.6C232.645 117.8 234.176 118.325 234.176 118.325L236.885 110.408L237.476 108.674C237.476 108.674 237.261 108.258 236.968 107.65C236.335 106.402 235.867 105.089 235.576 103.739C235.416 102.197 236.968 101.23 238.221 101.051C238.221 101.051 238.34 98.4016 239.301 97.3264C239.45 97.1099 239.663 96.9367 239.915 96.8269C240.167 96.7171 240.448 96.6752 240.725 96.706C241.001 96.7368 241.263 96.8391 241.479 97.001C241.696 97.1629 241.858 97.3778 241.946 97.6208C242.246 96.6992 244.439 96.5712 244.495 98.3888C244.579 98.0728 244.791 97.7981 245.087 97.6206C245.384 97.443 245.743 97.376 246.091 97.433C246.44 97.4901 246.752 97.6669 246.963 97.9277C247.175 98.1885 247.271 98.5135 247.231 98.8368C247.231 98.8368 248.839 97.4032 249.675 100.117C250.058 101.538 249.076 104.61 248.004 107.298Z" fill="#FED81D"/>
<path d="M238.897 111.656C238.897 111.656 236.676 118.427 236.676 118.306" stroke="#F7AD2B" stroke-width="0.75" stroke-linecap="round" stroke-linejoin="round"/>
<path d="M240.631 112.296L239.092 118.171" stroke="#F7AD2B" stroke-width="0.75" stroke-linecap="round" stroke-linejoin="round"/>
<path d="M243.22 112.648L241.849 118.722" stroke="#F7AD2B" stroke-width="0.75" stroke-linecap="round" stroke-linejoin="round"/>
<path d="M227.019 129.742C225.626 133.435 224.693 136.181 224.86 137.115" stroke="#F7AD2B" stroke-width="0.75" stroke-linecap="round" stroke-linejoin="round"/>
<path d="M238.855 141.211C238.744 141.41 238.625 141.608 238.5 141.8C238.24 142.201 237.962 142.591 237.664 142.971C237.525 143.15 237.386 143.323 237.24 143.49C237.094 143.656 236.92 143.854 236.745 144.027C236.571 144.2 236.418 144.366 236.251 144.533C235.896 144.872 235.555 145.173 235.13 145.506L234.538 145.954C233.554 146.677 232.476 147.285 231.329 147.765H231.28L230.584 148.034C230.347 148.117 230.11 148.2 229.887 148.27C225.076 147.138 223.496 144.238 223.384 141.064C226.566 140.603 229.72 139.694 231.266 142.165C232.972 145.032 236.62 142.92 238.855 141.211Z" fill="#FCC71F"/>
<path d="M245.866 112.117L245.755 112.52C244.34 112.725 242.897 112.71 241.487 112.475C239.779 112.161 238.184 111.457 236.85 110.427L237.442 108.693C237.442 108.693 235.687 105.301 235.527 103.758C235.367 102.216 236.919 101.249 238.173 101.07C238.173 101.07 238.291 98.4206 239.252 97.3454C239.401 97.1289 239.614 96.9558 239.866 96.846C240.118 96.7362 240.399 96.6942 240.676 96.725C240.953 96.7559 241.214 96.8581 241.431 97.02C241.647 97.1819 241.809 97.3968 241.898 97.6398C242.197 96.7182 244.39 96.5838 244.446 98.4078C244.53 98.0918 244.742 97.8171 245.039 97.6396C245.335 97.4621 245.694 97.395 246.043 97.4521C246.391 97.5091 246.703 97.686 246.915 97.9468C247.126 98.2075 247.222 98.5326 247.182 98.8558C247.182 98.8558 248.791 97.4222 249.626 100.136C250.462 102.849 245.866 112.117 245.866 112.117Z" fill="#B25E47"/>
<path d="M236.676 107.08C236.149 106.013 235.763 104.891 235.527 103.739C235.367 102.19 236.919 101.23 238.173 101.051C238.173 101.051 238.291 98.4016 239.252 97.3264C239.401 97.1099 239.614 96.9367 239.866 96.8269C240.118 96.7171 240.399 96.6752 240.676 96.706C240.953 96.7368 241.214 96.8391 241.431 97.001C241.647 97.1629 241.809 97.3778 241.898 97.6208C242.197 96.6992 244.39 96.5648 244.446 98.3888C244.53 98.0728 244.742 97.7981 245.039 97.6206C245.335 97.443 245.694 97.376 246.043 97.433C246.391 97.4901 246.703 97.6669 246.915 97.9277C247.126 98.1885 247.222 98.5135 247.182 98.8368C247.182 98.8368 248.791 97.4032 249.626 100.117" stroke="#934735" stroke-width="0.75" stroke-linecap="round" stroke-linejoin="round"/>
<path d="M238.159 101.07C240.352 100.706 242.225 100.898 242.288 101.582C242.35 102.267 239.739 103.24 239.739 103.24C239.739 103.24 243.074 103.65 241.946 107.31" stroke="#934735" stroke-width="0.75" stroke-linecap="round" stroke-linejoin="round"/>
<path d="M241.849 97.512C241.849 97.512 241.376 100.386 241.153 100.949" stroke="#934735" stroke-width="0.75" stroke-linecap="round" stroke-linejoin="round"/>
<path d="M242.413 101.595C243.255 101.806 244.063 101.019 244.502 98.1648" stroke="#934735" stroke-width="0.75" stroke-linecap="round" stroke-linejoin="round"/>
<path d="M243.45 101.23C243.526 101.578 243.736 101.889 244.042 102.104C244.348 102.32 244.73 102.425 245.114 102.402" stroke="#934735" stroke-width="0.75" stroke-linecap="round" stroke-linejoin="round"/>
<path d="M247.21 98.856C246.514 99.3488 244.704 102.35 245.664 103.093C246.785 103.95 247.683 101.813 247.683 101.813" stroke="#934735" stroke-width="0.75" stroke-linecap="round" stroke-linejoin="round"/>
<path d="M122.115 278.549C125.345 276.661 128.381 276.302 129.077 276.763C130.059 277.467 127.079 279.362 124.649 279.662" stroke="#83ADDF" stroke-width="0.75" stroke-linecap="round" stroke-linejoin="round"/>
<path d="M119.239 280.373C124.071 278.702 128.987 280.373 128.437 281.877C127.817 283.611 120.186 281.109 120.186 281.109" stroke="#83ADDF" stroke-width="0.75" stroke-linecap="round" stroke-linejoin="round"/>
<path d="M121.349 287.56C122.776 288.872 125.526 291.701 125.143 292.52C124.761 293.339 123.305 293.589 123.305 293.589H113.001C113.001 293.589 111.344 292.68 111.281 291.81C111.218 290.939 107.967 273.454 108.496 271.931C108.949 270.651 115.417 268.29 118.473 266.722C118.901 266.51 119.309 266.266 119.692 265.992C121.586 264.526 127.392 259.074 127.392 259.074L134.626 267.246C130.449 269.39 125.77 272.309 123.605 274.926C123.024 275.565 122.618 276.322 122.421 277.134C121.885 280.072 119.929 286.229 121.349 287.56Z" fill="#C3DCF8"/>
<path d="M134.626 267.221C130.449 269.365 125.77 272.283 123.605 274.901L118.473 266.696C118.901 266.485 119.309 266.241 119.692 265.966C121.586 264.501 127.392 259.048 127.392 259.048L134.626 267.221Z" fill="#B25E47"/>
<path d="M174.967 228.987C173.823 231.042 172.556 233.038 171.173 234.965C164.356 243.778 134.202 269.966 134.202 269.966L124.057 257.954L158.71 219.918C164.649 212.891 180.161 214.562 174.967 228.987Z" fill="#93BEE5"/>
<path d="M161.432 228.904C153.731 237.39 128.172 262.824 128.172 262.824" stroke="#C3DCF8" stroke-width="0.75" stroke-linecap="round" stroke-linejoin="round"/>
<path d="M169.056 215.976C167.451 219.507 165.634 222.954 163.611 226.299" stroke="#C3DCF8" stroke-width="0.75" stroke-linecap="round" stroke-linejoin="round"/>
<path d="M216.15 97.9216C213.741 97.2816 213.693 99.0096 214.827 99.7136C215.962 100.418 215.384 102.613 212.558 102.914C212.3 102.946 211.632 103.035 210.824 103.112C209.313 103.253 207.343 103.368 206.758 103.067C206.173 102.766 206.138 101.928 206.347 101.045C206.382 100.866 206.445 100.686 206.5 100.494C206.825 99.561 207.242 98.657 207.747 97.7936C209.088 97.7668 210.397 97.4134 211.541 96.7696C214.124 95.1888 214.194 92.0207 213.149 88.7183C212.888 87.8929 212.571 87.0829 212.203 86.2928C211.917 85.6528 211.597 85.0127 211.256 84.4175C208.109 78.7791 203.646 78.7855 203.646 78.7855C205.623 81.8959 203.743 84.0079 202.587 84.5455C201.432 85.0831 200.171 85.4479 200.234 87.5855C200.297 89.7231 199.252 90.0432 198.556 89.9344C196.363 89.5632 194.803 91.0928 195.771 92.7696C196.739 94.4464 199.454 93.9215 200.262 93.1279C200.262 93.1279 201.87 94.12 201.961 95.304C202.051 96.488 199.566 97.9088 200.742 99.752C200.966 100.076 201.088 100.45 201.095 100.834C201.102 101.218 200.993 101.596 200.782 101.927C200.57 102.257 200.264 102.528 199.895 102.709C199.527 102.89 199.112 102.974 198.695 102.952C197.676 102.84 196.644 102.986 195.708 103.374C195.483 103.475 195.269 103.595 195.068 103.733C194.925 103.831 194.79 103.938 194.664 104.053C193.606 105.038 192.819 106.248 190.299 105.717C187.778 105.186 187.333 101.96 187.333 101.96C183.761 102.107 181.373 102.504 181.143 99.8287C180.955 97.7039 183.545 96.9424 184.917 96.712C185.186 96.6787 185.438 96.5739 185.643 96.4106C185.848 96.2472 185.997 96.0322 186.071 95.7922C186.145 95.5522 186.141 95.2976 186.059 95.0596C185.978 94.8217 185.823 94.6107 185.613 94.4528C184.283 93.5184 185.279 92.0719 187.221 91.4575C189.164 90.8431 188.44 86.8752 188.614 84.9424C188.885 81.4864 192.366 78.4784 197.038 78.2736C197.038 78.2736 199.454 73.4672 205.303 74.2928C211.151 75.1184 213.804 80.3151 213.532 82.7087C213.261 85.1023 213.226 87.6496 216.046 87.7712C218.866 87.8928 220.453 89.4864 219.437 91.08C218.42 92.6736 217.696 93.8704 219.833 95.1824C221.971 96.4944 218.559 98.5424 216.15 97.9216Z" fill="#604730"/>
<path d="M203.639 78.7535C205.616 81.8639 203.736 83.9759 202.58 84.5135C201.425 85.0511 200.164 85.4159 200.227 87.5535C200.29 89.6911 199.245 90.0111 198.549 89.9023C196.356 89.5311 194.796 91.0607 195.764 92.7375C196.732 94.4143 199.447 93.8895 200.255 93.0959C200.255 93.0959 201.863 94.0879 201.954 95.2719C202.044 96.4559 199.559 97.8767 200.735 99.7199C200.959 100.044 201.081 100.418 201.088 100.802C201.095 101.186 200.986 101.564 200.775 101.894C200.563 102.225 200.257 102.496 199.888 102.677C199.52 102.858 199.105 102.942 198.688 102.92C197.669 102.808 196.637 102.954 195.701 103.342C195.476 103.443 195.262 103.563 195.061 103.701C191.426 102.229 188.662 99.9119 190.131 98.1071C192.053 95.7519 193.383 97.0447 192.283 93.2879C191.183 89.5311 192.248 87.1247 194.929 86.8879C197.609 86.6511 200.144 84.9679 198.807 82.4911C197.47 80.0143 201.731 74.6959 207.162 76.9231C210.016 78.0943 211.061 81.1727 211.297 84.3599C208.102 78.7471 203.639 78.7535 203.639 78.7535Z" fill="#473526"/>
<path d="M211.541 96.7504C211.27 98.632 210.002 100.469 206.347 101.032C206.382 100.853 206.445 100.674 206.5 100.482C206.825 99.5482 207.242 98.6442 207.747 97.7808C209.088 97.7521 210.398 97.3965 211.541 96.7504Z" fill="#473526"/>
<path d="M206.5 100.482C206.145 101.563 206.041 102.645 206.758 103.042C207.315 103.342 209.313 103.227 210.824 103.086C205.191 107.349 200.506 106.696 195.681 103.368C196.616 102.98 197.649 102.834 198.667 102.946C199.084 102.968 199.499 102.883 199.868 102.703C200.236 102.522 200.542 102.251 200.754 101.92C200.966 101.589 201.074 101.211 201.067 100.828C201.06 100.444 200.938 100.07 200.714 99.7456C199.538 97.9024 202.023 96.488 201.933 95.2976C201.842 94.1072 200.234 93.1216 200.234 93.1216C199.426 93.9152 196.69 94.44 195.743 92.7632C194.796 91.0864 196.356 89.5632 198.528 89.928C199.224 90.0368 200.276 89.7168 200.206 87.5792C200.137 85.4416 201.404 85.1152 202.56 84.5392C203.715 83.9632 205.595 81.864 203.618 78.7792C203.618 78.7792 208.088 78.7792 211.235 84.424C211.576 85.032 211.896 85.6592 212.182 86.2992C212.551 87.0893 212.867 87.8993 213.129 88.7248C214.521 93.2048 213.908 97.4352 207.726 97.8C207.221 98.6634 206.804 99.5674 206.479 100.501L206.5 100.482Z" fill="#B25E47"/>
<path d="M213.149 88.6991C212.885 88.7879 212.598 88.8044 212.324 88.7465C212.05 88.6885 211.799 88.5587 211.604 88.3727C211.144 87.8287 211.409 86.9071 212.203 86.2671C212.57 87.0598 212.887 87.8719 213.149 88.6991Z" fill="#A0503D"/>
<path d="M206.187 86.9328C206.187 87.0196 206.206 87.1055 206.243 87.1853C206.28 87.2651 206.335 87.3372 206.403 87.397C206.471 87.4569 206.552 87.5033 206.641 87.5336C206.729 87.5638 206.824 87.5771 206.918 87.5728C207.054 87.5665 207.185 87.5237 207.295 87.4497C207.405 87.3757 207.489 87.2737 207.536 87.1563C207.583 87.039 207.592 86.9114 207.562 86.7894C207.531 86.6675 207.462 86.5565 207.363 86.4701C207.265 86.3838 207.141 86.3259 207.007 86.3037C206.873 86.2815 206.735 86.2959 206.609 86.3452C206.484 86.3944 206.377 86.4763 206.302 86.5808C206.227 86.6852 206.187 86.8076 206.187 86.9328Z" fill="#683F1D"/>
<path d="M209.299 85.544C209.299 85.7137 209.373 85.8765 209.503 85.9965C209.634 86.1165 209.811 86.184 209.995 86.184C210.09 86.1841 210.183 86.1665 210.27 86.1324C210.357 86.0982 210.435 86.0482 210.501 85.9853C210.566 85.9225 210.616 85.8481 210.649 85.7667C210.682 85.6853 210.696 85.5986 210.692 85.5119C210.692 85.3422 210.618 85.1794 210.488 85.0594C210.357 84.9394 210.18 84.8719 209.995 84.8719C209.901 84.8718 209.808 84.8894 209.721 84.9235C209.634 84.9577 209.556 85.0077 209.49 85.0706C209.425 85.1334 209.375 85.2078 209.342 85.2892C209.309 85.3706 209.294 85.4573 209.299 85.544Z" fill="#683F1D"/>
<path d="M207.747 97.7743C207.242 98.6377 206.825 99.5418 206.5 100.475C205.757 100.242 205.123 99.7811 204.706 99.1692C204.288 98.5572 204.113 97.8318 204.21 97.1151C205.346 97.4964 206.538 97.7186 207.747 97.7743Z" fill="#914839"/>
<path d="M197.038 92.0591C197.519 90.9199 199.127 91.1311 199.823 91.7967" stroke="#934735" stroke-width="0.75" stroke-linecap="round" stroke-linejoin="round"/>
<path d="M198.208 92.6351C198.162 92.4924 198.154 92.3418 198.183 92.1955C198.212 92.0491 198.278 91.911 198.375 91.7922C198.472 91.6735 198.599 91.5773 198.744 91.5114C198.889 91.4455 199.049 91.4117 199.211 91.4127" stroke="#934735" stroke-width="0.75" stroke-linecap="round" stroke-linejoin="round"/>
<path d="M200.241 93.1215C200.482 92.8477 200.656 92.5288 200.749 92.1871" stroke="#934735" stroke-width="0.75" stroke-linecap="round" stroke-linejoin="round"/>
<path d="M206.828 90.1711C207.338 90.5678 207.965 90.8165 208.629 90.886C209.293 90.9555 209.965 90.8426 210.559 90.5615" stroke="#934735" stroke-width="0.75" stroke-linecap="round" stroke-linejoin="round"/>
<path d="M211.249 88.616C211.569 87.6688 211.36 86.9904 210.17 86.8112C209.596 86.691 209.088 86.3877 208.734 85.9553C208.381 85.5228 208.206 84.9893 208.241 84.4496" stroke="#934735" stroke-width="0.75" stroke-linecap="round" stroke-linejoin="round"/>
<path d="M203.604 84.68C203.604 85.4416 206.695 85.0896 206.953 84.2448C207.162 83.5792 203.583 83.2464 203.604 84.68Z" fill="#604730"/>
<path d="M209.661 81.1983C208.909 80.8719 207.879 83.6175 208.812 83.8287C209.271 83.9375 211.423 81.9727 209.661 81.1983Z" fill="#604730"/>
<path d="M196.996 78.2799C198.163 78.3574 199.302 78.6398 200.352 79.1119" stroke="#896442" stroke-width="0.75" stroke-linecap="round" stroke-linejoin="round"/>
<path d="M198.96 83.2272C196.648 84.0144 193.87 85.3456 193.787 87.8992C193.703 90.4528 194.894 92.7696 191.218 94.4336C187.541 96.0976 191.023 100.36 191.023 100.36" stroke="#896442" stroke-width="0.75" stroke-linecap="round" stroke-linejoin="round"/>
<path d="M195.117 101.058C197.359 99.3744 194.922 97.256 197.359 95.6752" stroke="#896442" stroke-width="0.75" stroke-linecap="round" stroke-linejoin="round"/>
<path d="M201.383 81.3775C197.623 80.0143 193.279 81.7295 192.332 83.1887" stroke="#896442" stroke-width="0.75" stroke-linecap="round" stroke-linejoin="round"/>
<path d="M206.173 89.16C206.02 89.8768 204.989 90.2864 203.889 90.0752C202.789 89.864 202.016 89.1216 202.17 88.4112C202.323 87.7008 203.353 87.2848 204.46 87.496C205.567 87.7072 206.333 88.4624 206.173 89.16Z" fill="#A0503D"/>
<path d="M27.9539 288.923C22.92 293.889 21.6877 297.845 20.88 300.443L32.1871 308.597H48.6743C48.6743 308.597 48.3819 304.936 45.1931 304.334C42.0042 303.733 40.0895 303.464 40.0895 303.464L36.9425 297.218L27.9539 288.923Z" fill="#FED81D"/>
<path d="M76.1483 220.277C76.6009 249.013 78.5782 254.971 72.1797 264.917C65.7812 274.862 36.9425 297.218 36.9425 297.218L24.779 288.84C24.779 288.84 39.4002 273.928 46.2305 265.979C53.0607 258.03 54.0702 254.798 53.8892 249.909C53.7082 245.019 48.6604 207.829 48.6604 207.829L76.1483 220.277Z" fill="#683F1D"/>
<path d="M156.092 259.886C156.092 259.886 166.905 265.934 169.049 266.965C171.193 267.995 171.493 270.626 171.493 270.626H145.383C145.383 270.626 144.144 264.616 144.806 261.026L156.092 259.886Z" fill="#FED81D"/>
<path d="M156.092 259.886L142.898 262.286L126.063 220.737C122.143 211.099 117.923 202.517 126.564 199.49C136.249 199.797 140.865 202.632 144.819 212.814C148.969 223.56 156.092 259.886 156.092 259.886Z" fill="#683F1D"/>
<path d="M126.063 220.738C126.063 220.738 87.4276 223.97 75.5147 224.379C63.6019 224.789 51.9954 223.56 46.69 206.363L77.0813 196.642L80.9734 199.458C98.3448 199.714 114.115 199.406 124.935 199.458C125.499 199.458 126.042 199.458 126.571 199.49C142.362 201.909 136.388 217.832 126.063 220.738Z" fill="#683F1D"/>
<path d="M73.5095 224.424C64.7925 224.565 56.4375 223.381 50.7839 215.24" stroke="#91613D" stroke-width="0.75" stroke-linecap="round" stroke-linejoin="round"/>
<path d="M99.1733 178.216L90.3936 185.122L83.0133 199.554C83.0133 199.554 71.9221 199.195 65.3286 203.56C58.7351 207.925 49.1686 209.806 45.4715 209.749C45.2053 202.741 45.735 195.727 47.052 188.821C49.2313 177.787 54.5785 160.968 54.5785 160.968C54.5158 160.443 54.488 159.918 54.4671 159.406C54.1677 150.626 59.2086 143.675 67.4382 144.13C76.1483 144.622 85.0534 147.586 85.0534 147.586C85.0534 147.586 94.6895 148.987 99.7651 151.592C102.07 152.776 103.643 154.792 103.998 158.267C104.43 162.44 103.086 168.725 99.1733 178.216Z" fill="#A7CAF0"/>
<path d="M79.7828 186.555L76.8585 182.843C79.0587 181.966 80.8898 181.173 81.6139 180.853C80.6531 176.782 79.7619 173.205 78.8916 170.165C80.4721 170.434 82.6931 171.778 83.3058 176.891C83.7653 180.789 89.955 174.568 92.2248 179.643C94.4945 184.718 79.7828 186.555 79.7828 186.555Z" fill="#93BEE5"/>
<path d="M98.3378 163.24C97.1333 164.398 95.4136 170.683 92.9349 178.133" stroke="#83ADDF" stroke-width="0.75" stroke-linecap="round" stroke-linejoin="round"/>
<path d="M132.364 169.006C132.259 171.246 127.935 170.683 127.935 170.683C129.035 172.462 125.847 173.621 124.273 173.704C123.217 173.73 122.165 173.569 121.175 173.23C121.175 173.23 105.697 185.883 99.9113 190.645C94.1255 195.406 83.4032 202.805 76.1553 201.896C68.9073 200.987 66.8951 194.216 63.6715 186.536C65.3874 186.41 67.0854 186.127 68.7402 185.691C73.0221 184.597 80.0264 181.563 81.6139 180.866C81.8158 181.736 82.0316 182.638 82.2405 183.56C95.2186 176.827 109.659 168.2 110.87 167.131C112.082 166.062 117.213 162.376 118.731 160.866C120.249 159.355 123.117 160.757 121.962 161.595C120.806 162.434 120.249 163.266 124.9 165.902C130.755 169.218 132.482 166.318 132.364 169.006Z" fill="#FEBD9D"/>
<path d="M103.998 158.28C101.589 156.885 98.6372 156.309 95.6433 158.536C88.5416 163.797 81.7183 163.547 72.1031 153.365C62.7525 143.47 54.9197 158.549 54.4741 159.419C54.1747 150.638 59.2155 143.688 67.4452 144.142C76.1553 144.635 85.0603 147.598 85.0603 147.598C85.0603 147.598 94.6964 149 99.7721 151.605C102.07 152.776 103.643 154.792 103.998 158.28Z" fill="#C3DCF8"/>
<path d="M82.9646 157.986C82.9646 158.253 83.0508 158.514 83.2122 158.736C83.3736 158.958 83.603 159.131 83.8715 159.233C84.1399 159.335 84.4353 159.362 84.7203 159.31C85.0053 159.258 85.267 159.129 85.4725 158.94C85.6779 158.752 85.8179 158.511 85.8745 158.249C85.9312 157.987 85.9021 157.716 85.7909 157.469C85.6798 157.222 85.4915 157.011 85.2499 156.863C85.0083 156.714 84.7242 156.635 84.4337 156.635C84.0441 156.635 83.6704 156.777 83.3949 157.031C83.1194 157.284 82.9646 157.627 82.9646 157.986Z" fill="white"/>
<path d="M54.4462 160.84C54.4462 160.84 59.6681 182.734 61.4087 186.44C62.154 186.535 62.9086 186.55 63.6576 186.485C65.3735 186.359 67.0715 186.076 68.7263 185.64C71.4946 184.853 74.2061 183.906 76.8446 182.805C79.0447 181.928 80.8759 181.134 81.6 180.814C80.6392 176.744 79.7479 173.166 78.8776 170.126C76.8864 163.17 74.9926 159.067 72.5348 158.427" stroke="#83ADDF" stroke-width="0.75" stroke-linecap="round" stroke-linejoin="round"/>
<path d="M82.2405 183.547C78.4668 185.755 77.868 187.56 77.868 187.56" stroke="#EF8A66" stroke-width="0.75" stroke-linecap="round" stroke-linejoin="round"/>
<path d="M127.928 170.683C125.143 170.459 123.848 170.274 123.848 170.274" stroke="#EF8A66" stroke-width="0.75" stroke-linecap="round" stroke-linejoin="round"/>
<path d="M121.189 173.224C122.181 173.566 123.235 173.729 124.294 173.704C125.881 173.621 129.056 172.469 127.949 170.683C127.949 170.683 132.28 171.24 132.384 169.006C132.503 166.318 130.769 169.218 124.921 165.89C120.27 163.253 120.827 162.434 121.982 161.589C123.138 160.744 120.277 159.342 118.752 160.853C117.972 161.627 116.252 162.978 114.574 164.245" stroke="#EF8A66" stroke-width="0.75" stroke-linecap="round" stroke-linejoin="round"/>
<path d="M113.286 162.478C114.971 160.315 117.283 161.838 117.332 163.65C117.38 165.461 113.439 167.81 112.319 166.85C111.198 165.89 112.339 163.688 113.286 162.478Z" fill="#B25E47"/>
<path d="M117.707 175.208C115.918 174.389 114.651 175.63 116.141 177.128C117.631 178.626 120.36 177.947 120.875 176.456L117.707 175.208Z" fill="#B25E47"/>
<path d="M117.707 175.208C115.918 174.389 114.651 175.63 116.141 177.128C117.631 178.626 120.36 177.947 120.875 176.456L117.707 175.208Z" stroke="#934735" stroke-width="0.75" stroke-linecap="round" stroke-linejoin="round"/>
<path d="M119.998 173.64C118.125 173.32 116.559 173.89 117.151 175.259C117.742 176.629 122.024 178.171 123.848 175.259L119.998 173.64Z" fill="#B25E47"/>
<path d="M119.998 173.64C118.125 173.32 116.559 173.89 117.151 175.259C117.742 176.629 122.024 178.171 123.848 175.259L119.998 173.64Z" stroke="#934735" stroke-width="0.75" stroke-linecap="round" stroke-linejoin="round"/>
<path d="M113.286 162.478C114.971 160.315 117.283 161.838 117.332 163.65C117.38 165.461 113.439 167.81 112.319 166.85C111.198 165.89 112.339 163.688 113.286 162.478Z" stroke="#934735" stroke-width="0.75" stroke-linecap="round" stroke-linejoin="round"/>
<path d="M119.915 174.28C118.661 173.128 119.399 171.464 121.098 171.861C122.797 172.258 123.145 173.186 126.069 173.346C128.012 173.422 123.277 177.378 119.915 174.28Z" fill="#B25E47"/>
<path d="M119.915 174.28C118.661 173.128 119.399 171.464 121.098 171.861C122.797 172.258 123.145 173.186 126.069 173.346C128.012 173.422 123.277 177.378 119.915 174.28Z" stroke="#934735" stroke-width="0.75" stroke-linecap="round" stroke-linejoin="round"/>
<path d="M90.7765 134.402L88.3675 135.24L84.6774 136.488C83.4758 135.378 82.4132 134.148 81.5094 132.821C80.0682 130.664 79.3441 128.373 81.7183 127.701C78.9681 127.701 78.6478 125.563 80.8967 125.141C77.7845 125.07 78.9612 122.248 82.1778 122.581C82.1778 122.581 80.1866 120.104 85.4432 119.592C89.1543 119.234 92.0437 120.085 93.7982 121.256L93.9375 121.358C94.6524 121.816 95.2142 122.447 95.5598 123.182C96.3256 125.038 90.7765 134.402 90.7765 134.402Z" fill="#D39933"/>
<path d="M90.7766 134.402L88.3675 135.24L84.6774 136.488C83.4758 135.378 82.4132 134.148 81.5095 132.821C82.8393 131.509 84.9907 131.752 85.3249 130.837C85.8123 129.557 82.1082 123.445 88.2004 123.586C91.6329 123.662 93.2204 122.434 93.9445 121.346C94.6594 121.803 95.2212 122.435 95.5667 123.17C96.3257 125.038 90.7766 134.402 90.7766 134.402Z" fill="#C4892A"/>
<path d="M82.1987 122.549C82.1987 122.549 87.156 122.747 88.6947 122.978C90.7835 123.291 91.0759 124.04 91.0759 124.04" stroke="#EDB65F" stroke-width="0.75" stroke-linecap="round" stroke-linejoin="round"/>
<path d="M87.0586 126.542L85.116 126.357" stroke="#EDB65F" stroke-width="0.75" stroke-linecap="round" stroke-linejoin="round"/>
<path d="M80.8967 125.077C82.3449 125.186 83.626 125.397 83.626 125.397" stroke="#EDB65F" stroke-width="0.75" stroke-linecap="round" stroke-linejoin="round"/>
<path d="M81.7183 127.669C82.4912 127.66 83.2638 127.703 84.0299 127.797" stroke="#EDB65F" stroke-width="0.75" stroke-linecap="round" stroke-linejoin="round"/>
<path d="M88.2631 130.818C85.9237 130.741 82.902 130.747 82.6304 130.318" stroke="#EDB65F" stroke-width="0.75" stroke-linecap="round" stroke-linejoin="round"/>
<path d="M93.3387 142.83C92.8795 144.091 92.4914 145.373 92.176 146.67C92.1203 146.896 92.0646 147.127 92.0089 147.362C90.9506 150.254 89.6556 153.691 85.3527 153.198C82.6234 152.891 79.4764 151.189 77.9098 147.016C77.3041 145.397 79.003 143.848 79.2188 143.554C80.8898 141.326 82.4494 139.016 82.9785 137.288C82.9785 137.288 81.6765 135.784 82.5747 134.21C82.7096 133.98 82.8732 133.765 83.0621 133.57C84.4894 132.11 87.1421 132.782 88.0263 133.909C88.2438 133.766 88.4424 133.601 88.6182 133.416C88.7829 133.286 88.9176 133.126 89.0141 132.947C89.1106 132.769 89.1671 132.574 89.18 132.374C89.193 132.175 89.1623 131.975 89.0897 131.787C89.0171 131.599 88.9041 131.426 88.7574 131.278C88.595 131.108 88.4348 130.948 88.277 130.798L88.2143 130.741C87.1143 129.672 86.1813 128.821 86.6547 127.355C86.7446 127.059 86.8856 126.778 87.0725 126.523C87.8035 125.576 89.1612 125.454 91.1943 125.704C93.7495 126.011 95.0306 125.339 95.5807 123.144C95.6503 123.24 96.2073 124.066 96.9732 125.378C97.196 125.755 97.4327 126.171 97.6694 126.626C98.2403 127.662 98.867 128.891 99.4518 130.222C99.6839 130.73 99.8997 131.248 100.099 131.778C100.318 132.326 100.502 132.886 100.649 133.454C101.903 138.126 101.109 143.797 93.3387 142.83Z" fill="#FEBD9D"/>
<path d="M92.5171 133.077C92.2038 133.909 90.8183 134.222 89.4049 133.781C89.1244 133.694 88.8557 133.578 88.6042 133.435C88.769 133.305 88.9036 133.146 89.0001 132.967C89.0967 132.788 89.1531 132.593 89.1661 132.393C89.1791 132.194 89.1484 131.994 89.0758 131.806C89.0032 131.618 88.8902 131.445 88.7435 131.297C88.5624 131.105 88.3814 130.926 88.2004 130.76C88.949 130.496 89.7772 130.496 90.5259 130.76C91.9462 131.214 92.8304 132.245 92.5171 133.077Z" fill="#F4AF90"/>
<path d="M92.0925 130.318C92.0925 130.445 92.1333 130.569 92.2098 130.674C92.2863 130.779 92.395 130.861 92.5223 130.91C92.6495 130.958 92.7895 130.971 92.9245 130.946C93.0596 130.921 93.1837 130.86 93.281 130.771C93.3784 130.681 93.4447 130.567 93.4716 130.443C93.4984 130.319 93.4847 130.19 93.432 130.073C93.3793 129.956 93.29 129.857 93.1755 129.786C93.061 129.716 92.9264 129.678 92.7887 129.678C92.6041 129.678 92.427 129.746 92.2964 129.866C92.1658 129.986 92.0925 130.149 92.0925 130.318Z" fill="#683F1D"/>
<path d="M97.1959 129.71C97.5882 129.71 97.9061 129.418 97.9061 129.058C97.9061 128.697 97.5882 128.405 97.1959 128.405C96.8037 128.405 96.4858 128.697 96.4858 129.058C96.4858 129.418 96.8037 129.71 97.1959 129.71Z" fill="#683F1D"/>
<path d="M93.3387 142.83C92.8794 144.091 92.4913 145.373 92.176 146.67C86.3414 145.563 88.7713 140.418 88.7713 140.418C88.7713 140.418 91.6329 142.414 93.3387 142.83Z" fill="#F4A789"/>
<path d="M82.9646 137.294C84.0299 138.67 86.7661 138.632 87.6921 137.934" stroke="#EF8A66" stroke-width="0.75" stroke-linecap="round" stroke-linejoin="round"/>
<path d="M84.0298 135.522C85.1647 134.293 86.7174 134.882 87.5807 136.334" stroke="#EF8A66" stroke-width="0.75" stroke-linecap="round" stroke-linejoin="round"/>
<path d="M86.5851 137.032C84.7331 136.987 85.3249 134.965 87.0586 135.637" stroke="#EF8A66" stroke-width="0.75" stroke-linecap="round" stroke-linejoin="round"/>
<path d="M93.4988 133.461C94.2299 134.613 95.0306 135.195 96.806 134.85" stroke="#EF8A66" stroke-width="0.75" stroke-linecap="round" stroke-linejoin="round"/>
<path d="M95.2883 127.387C95.0446 128.808 94.8844 130.043 96.5276 130.741C98.1707 131.438 97.8505 132.821 96.3118 133.243" stroke="#EF8A66" stroke-width="0.75" stroke-linecap="round" stroke-linejoin="round"/>
<path d="M89.5024 128.2C90.1221 128.968 93.3039 127.605 92.733 126.574C92.3779 125.928 88.4093 126.824 89.5024 128.2Z" fill="#D39933"/>
<path d="M97.6694 126.645C96.8339 126.965 95.142 126.734 95.142 126.267C95.142 125.8 96.1307 125.422 96.9662 125.397C97.189 125.774 97.4257 126.19 97.6694 126.645Z" fill="#D39933"/>
<path d="M100.649 133.474C100.388 133.634 100.081 133.722 99.7667 133.728C99.4522 133.733 99.1424 133.656 98.8739 133.506C98.122 132.974 98.2334 131.662 99.1385 130.568C99.2429 130.453 99.3474 130.338 99.4518 130.242C99.6839 130.749 99.8997 131.268 100.099 131.797C100.318 132.345 100.502 132.905 100.649 133.474Z" fill="#F4AF90"/>
<path d="M79.2048 143.56C77.4573 143.208 75.1945 143.97 74.9368 144.974C74.6792 145.979 74.3868 154.35 76.4198 154.376C78.4529 154.402 81.8436 150.594 83.6121 153.595C85.8053 157.314 86.4946 152.411 89.3144 154.926C90.31 155.816 91.5076 157.614 92.7399 156.206C93.9723 154.798 94.8914 149.806 94.5084 148.987C94.1255 148.168 93.1786 147.163 91.981 147.368C91.1734 147.502 89.8923 152.616 85.5686 152.827C84.6774 152.872 78.6618 147.067 78.2997 145.883C77.9377 144.699 79.2048 143.56 79.2048 143.56Z" fill="white"/>
</svg>
