<svg width="603" height="366" viewBox="0 0 603 366" fill="none" xmlns="http://www.w3.org/2000/svg">
<g clip-path="url(#clip0_106_3706)">
<path d="M382.56 170.95H349.79V249.25H382.56V170.95Z" fill="#E0B9B9"/>
<path d="M468.63 85.53H435.86V249.24H468.63V85.53Z" fill="#E0B9B9"/>
<path d="M482.82 249.24H310.92V29.29" stroke="#E0B9B9" stroke-width="2" stroke-miterlimit="10"/>
<path d="M425.6 150.11H392.83V249.24H425.6V150.11Z" stroke="#E0B9B9" stroke-linecap="round" stroke-linejoin="round"/>
<path d="M129.65 67.53C129.55 65.84 129.39 64.16 129.17 62.53M95.11 62.53C94.9 64.18 94.74 65.86 94.64 67.53" stroke="#E0B9B9" stroke-width="2" stroke-linecap="round" stroke-linejoin="round"/>
<path d="M155.39 58.83C146.753 60.7025 137.989 61.9326 129.17 62.51C127.17 46.68 120.23 33.06 112.17 33.06C104.11 33.06 97.17 46.68 95.17 62.51C86.3545 61.9318 77.5939 60.7018 68.96 58.83L67.64 171.99C77.64 174.92 86.28 178.34 100.64 179.6V179.77C104.84 180.01 108.64 180.11 112.22 180.1C115.8 180.09 119.6 180.01 123.81 179.77V179.6C138.15 178.34 146.81 174.92 156.81 171.99L155.39 58.83ZM112.14 39.44C117.77 39.44 122.49 49.9 123.14 61.15H101.12C101.79 49.9 106.52 39.44 112.14 39.44Z" stroke="#E0B9B9" stroke-width="2" stroke-linecap="round" stroke-linejoin="round"/>
<path d="M495 16H16V336H495V16Z" stroke="#E0B9B9" stroke-linecap="round" stroke-linejoin="round"/>
<path d="M510 337H1V353H510V337Z" stroke="#E0B9B9" stroke-width="2" stroke-miterlimit="10"/>
<path d="M510 1H1V16H510V1Z" stroke="#E0B9B9" stroke-width="2" stroke-miterlimit="10"/>
<path d="M343.67 153.49L368.15 125.71L389.06 121.61L406.69 89.86L433 79.51L459.64 54.59" stroke="#E0B9B9" stroke-linecap="round" stroke-linejoin="round"/>
<path d="M467.51 48.19L447.46 53.79L459.82 67.53L467.51 48.19Z" fill="#EDEDED"/>
<path d="M206.61 75.97L197.46 63.37C197.275 63.11 197.031 62.8979 196.747 62.7516C196.463 62.6053 196.149 62.5289 195.83 62.5289C195.511 62.5289 195.196 62.6053 194.913 62.7516C194.629 62.8979 194.385 63.11 194.2 63.37L185.05 75.97C184.825 76.2692 184.689 76.6253 184.657 76.9979C184.625 77.3705 184.698 77.7447 184.868 78.078C185.037 78.4113 185.297 78.6903 185.618 78.8833C185.938 79.0763 186.306 79.1756 186.68 79.17H188.68C189.21 79.17 189.719 79.3807 190.094 79.7558C190.469 80.1309 190.68 80.6396 190.68 81.17V92.47C190.68 93.0004 190.891 93.5091 191.266 93.8842C191.641 94.2593 192.15 94.47 192.68 94.47H198.88C199.41 94.47 199.919 94.2593 200.294 93.8842C200.669 93.5091 200.88 93.0004 200.88 92.47V81.19C200.88 80.6596 201.091 80.1509 201.466 79.7758C201.841 79.4007 202.35 79.19 202.88 79.19H204.88C205.266 79.2189 205.652 79.1353 205.991 78.9494C206.33 78.7634 206.608 78.483 206.791 78.1422C206.974 77.8014 207.055 77.4147 207.023 77.0292C206.99 76.6437 206.847 76.2757 206.61 75.97Z" fill="#E0B9B9" stroke="#E0B9B9" stroke-miterlimit="10"/>
<path d="M219.44 144.48L204.63 129.7C204.085 129.156 203.657 128.507 203.369 127.793C203.082 127.078 202.942 126.313 202.958 125.544C202.974 124.774 203.145 124.015 203.462 123.314C203.778 122.612 204.233 121.981 204.8 121.46L232.8 95.76C233.827 94.8222 235.16 94.2892 236.55 94.26L249.26 94C250.028 93.9837 250.791 94.1227 251.504 94.4088C252.217 94.6949 252.865 95.1221 253.408 95.6648C253.952 96.2074 254.38 96.8543 254.667 97.5667C254.955 98.279 255.095 99.0421 255.08 99.81L254.84 112.53C254.81 113.923 254.265 115.256 253.31 116.27L227.66 144.27C227.142 144.836 226.514 145.292 225.816 145.61C225.117 145.928 224.362 146.102 223.595 146.122C222.827 146.142 222.064 146.006 221.35 145.724C220.636 145.442 219.987 145.019 219.44 144.48Z" stroke="#E0B9B9" stroke-width="2" stroke-linecap="round" stroke-linejoin="round"/>
<path d="M232.11 125.82C231.342 126.663 230.333 127.25 229.22 127.5C228.108 127.648 226.979 127.412 226.02 126.83L223.58 129.27C223.546 129.305 223.506 129.333 223.461 129.352C223.417 129.37 223.369 129.38 223.32 129.38C223.273 129.38 223.227 129.37 223.184 129.351C223.14 129.332 223.102 129.305 223.07 129.27L219.83 126.03C219.795 125.998 219.768 125.96 219.749 125.916C219.73 125.873 219.72 125.827 219.72 125.78C219.72 125.733 219.73 125.687 219.749 125.644C219.768 125.601 219.795 125.562 219.83 125.53L222.01 123.34C221.43 122.71 220.92 122.12 220.49 121.57C220.44 121.493 220.419 121.401 220.43 121.31C220.438 121.215 220.481 121.126 220.55 121.06L223.41 118.7C223.449 118.665 223.495 118.64 223.546 118.626C223.596 118.612 223.649 118.61 223.7 118.62C223.806 118.64 223.899 118.701 223.96 118.79C224.11 119.04 224.27 119.28 224.44 119.52C224.61 119.76 224.85 120.08 225.15 120.45C225.414 120.805 225.705 121.139 226.02 121.45C226.274 121.736 226.584 121.967 226.93 122.13C227.169 122.257 227.442 122.306 227.71 122.27C227.897 122.242 228.078 122.189 228.25 122.11C228.367 122.052 228.474 121.978 228.57 121.89C228.67 121.789 228.752 121.67 228.81 121.54C228.901 121.345 228.968 121.141 229.01 120.93C229.063 120.596 229.039 120.254 228.94 119.93C228.819 119.473 228.627 119.037 228.37 118.64C228.045 118.115 227.805 117.541 227.66 116.94C227.506 116.305 227.439 115.653 227.46 115C227.483 114.273 227.653 113.559 227.96 112.9C228.296 112.153 228.767 111.475 229.35 110.9C230.099 110.101 231.09 109.571 232.17 109.39C233.268 109.257 234.38 109.459 235.36 109.97L237.87 107.45C237.904 107.415 237.944 107.387 237.989 107.368C238.033 107.35 238.082 107.34 238.13 107.34C238.178 107.336 238.226 107.343 238.271 107.36C238.317 107.378 238.357 107.405 238.39 107.44L241.63 110.67C241.7 110.743 241.739 110.839 241.739 110.94C241.739 111.041 241.7 111.137 241.63 111.21L239.46 113.39C240.01 114 240.54 114.61 241.04 115.24C241.091 115.317 241.116 115.408 241.11 115.5C241.107 115.547 241.094 115.593 241.072 115.635C241.049 115.676 241.018 115.712 240.98 115.74L238.12 118.1C238.079 118.132 238.033 118.154 237.983 118.166C237.933 118.179 237.881 118.18 237.83 118.17C237.781 118.168 237.733 118.153 237.69 118.126C237.648 118.1 237.614 118.063 237.59 118.02C236.969 117.032 236.249 116.111 235.44 115.27C235.192 114.989 234.889 114.761 234.55 114.6C234.304 114.473 234.025 114.424 233.75 114.46C233.564 114.487 233.383 114.538 233.21 114.61C233.088 114.668 232.976 114.745 232.88 114.84C232.784 114.939 232.706 115.054 232.65 115.18C232.559 115.374 232.495 115.579 232.46 115.79C232.413 116.125 232.44 116.467 232.54 116.79C232.661 117.247 232.853 117.683 233.11 118.08C233.416 118.613 233.649 119.185 233.8 119.78C233.963 120.417 234.034 121.073 234.01 121.73C233.98 122.454 233.807 123.164 233.5 123.82C233.16 124.564 232.689 125.242 232.11 125.82Z" fill="#E0B9B9"/>
<path d="M268.81 157.14V164.95C268.81 166.59 273.53 167.95 279.36 167.95C285.19 167.95 289.92 166.62 289.92 164.95V157.14H268.81Z" fill="#E0B9B9" stroke="#E0B9B9" stroke-linecap="round" stroke-linejoin="round"/>
<path d="M268.81 149.53V157.34C268.81 158.98 273.53 160.34 279.36 160.34C285.19 160.34 289.92 159.01 289.92 157.34V149.53H268.81Z" fill="#E0B9B9" stroke="#E0B9B9" stroke-linecap="round" stroke-linejoin="round"/>
<path d="M268.81 141.92V149.73C268.81 151.37 273.53 152.73 279.36 152.73C285.19 152.73 289.92 151.4 289.92 149.73V141.92H268.81Z" fill="#E0B9B9" stroke="#E0B9B9" stroke-linecap="round" stroke-linejoin="round"/>
<path d="M268.81 134.27V142.08C268.81 143.72 273.53 145.08 279.36 145.08C285.19 145.08 289.92 143.75 289.92 142.08V134.27H268.81Z" fill="#E0B9B9" stroke="#E0B9B9" stroke-linecap="round" stroke-linejoin="round"/>
<path d="M268.81 126.71V134.52C268.81 136.16 273.53 137.52 279.36 137.52C285.19 137.52 289.92 136.19 289.92 134.52V126.71H268.81Z" fill="#E0B9B9" stroke="#E0B9B9" stroke-linecap="round" stroke-linejoin="round"/>
<path d="M268.81 119.1V126.91C268.81 128.55 273.53 129.91 279.36 129.91C285.19 129.91 289.92 128.58 289.92 126.91V119.1H268.81Z" fill="#E0B9B9" stroke="#E0B9B9" stroke-linecap="round" stroke-linejoin="round"/>
<path d="M289.92 119.1C289.92 120.74 285.19 122.1 279.36 122.1C273.53 122.1 268.81 120.77 268.81 119.1C268.81 117.43 273.53 116.1 279.36 116.1C285.19 116.1 289.92 117.46 289.92 119.1Z" fill="#E0B9B9" stroke="#E0B9B9" stroke-linecap="round" stroke-linejoin="round"/>
<path d="M247.39 161.37V169.18C247.39 170.82 252.12 172.18 257.94 172.18C263.76 172.18 268.5 170.85 268.5 169.18V161.37H247.39Z" fill="#E0B9B9" stroke="#E0B9B9" stroke-linecap="round" stroke-linejoin="round"/>
<path d="M247.39 153.76V161.57C247.39 163.21 252.12 164.57 257.94 164.57C263.76 164.57 268.5 163.24 268.5 161.57V153.76H247.39Z" fill="#E0B9B9" stroke="#E0B9B9" stroke-linecap="round" stroke-linejoin="round"/>
<path d="M247.39 146.15V153.96C247.39 155.6 252.12 156.96 257.94 156.96C263.76 156.96 268.5 155.63 268.5 153.96V146.15H247.39Z" fill="#E0B9B9" stroke="#E0B9B9" stroke-linecap="round" stroke-linejoin="round"/>
<path d="M247.39 138.54V146.35C247.39 147.99 252.12 149.35 257.94 149.35C263.76 149.35 268.5 148.02 268.5 146.35V138.54H247.39Z" fill="#E0B9B9" stroke="#E0B9B9" stroke-linecap="round" stroke-linejoin="round"/>
<path d="M268.5 138.54C268.5 140.19 263.77 141.54 257.94 141.54C252.11 141.54 247.39 140.21 247.39 138.54C247.39 136.87 252.12 135.54 257.94 135.54C263.76 135.54 268.5 136.9 268.5 138.54Z" fill="#E0B9B9" stroke="#E0B9B9" stroke-linecap="round" stroke-linejoin="round"/>
<path d="M602.47 211.05C602.497 217.118 600.957 223.091 598 228.39C594.939 233.832 590.442 238.329 585 241.39C580.12 244.152 574.607 245.602 569 245.6C562.054 245.539 555.298 243.325 549.664 239.263C544.029 235.201 539.793 229.491 537.54 222.92C536.693 220.53 536.107 218.056 535.79 215.54C535.606 214.05 535.512 212.551 535.51 211.05C535.51 191.98 550.51 176.51 569 176.51C575.91 176.576 582.631 178.771 588.248 182.795C593.866 186.82 598.105 192.478 600.39 199C601.774 202.866 602.477 206.943 602.47 211.05Z" fill="#A7CAF0"/>
<path d="M600.39 199C599.496 198.52 598.578 198.086 597.64 197.7C595.33 196.719 592.914 196.007 590.44 195.58C581.6 194.01 572.5 196.08 562.96 200.23C554.3 203.99 545.28 209.47 535.77 215.5C535.586 214.01 535.492 212.511 535.49 211.01C535.49 191.94 550.49 176.47 568.98 176.47C575.898 176.535 582.628 178.733 588.249 182.766C593.871 186.798 598.111 192.468 600.39 199Z" fill="#C3DCF8"/>
<path d="M590.87 207C590.34 212.49 588.07 225.23 584.93 241.39C584.42 244.04 583.93 246.78 583.32 249.59C575.58 288.71 564.07 342.32 559.13 365.23H424L434.06 307.29C434.06 307.29 400.35 299.71 393.52 286.95C384.71 270.49 389.52 257.88 399.72 240.62C407.12 228.06 421.9 199.51 433.41 181.5C437.73 174.73 441.59 169.5 444.41 167.07C459.32 154.52 474.71 159.41 488.84 163.07C488.84 163.07 488.84 166.07 489 170.94C489.09 174.89 489.22 180.08 489.4 185.94C489.71 196.25 490.18 208.66 490.85 220.1C490.97 222.1 491.09 224.1 491.22 226.1C492.22 240.57 493.5 252.44 495.28 254.78C495.73 255.37 496.41 255.21 497.28 254.43C499.81 252.11 503.94 244.37 508.54 234.48C509.93 231.48 511.35 228.35 512.79 225.09C520.61 207.33 528.79 186.48 532.56 176.83C533.75 173.77 534.49 171.83 534.62 171.48C534.618 171.46 534.618 171.44 534.62 171.42L537.36 171.79L543.26 172.6C548.39 173.3 555.41 174.28 563.26 175.43C565.26 175.72 567.13 176.06 568.99 176.5C577.84 178.56 585.4 182.5 588.94 190.74C589.611 192.307 590.117 193.939 590.45 195.61C591.159 199.364 591.301 203.204 590.87 207Z" fill="#A7CAF0"/>
<path d="M590.44 195.62C581.6 194.05 572.5 196.12 562.96 200.27C554.3 204.03 545.28 209.51 535.77 215.54L532.77 217.45C525.54 222.06 518.86 224.4 512.77 225.1C523.07 201.72 534 173 534.61 171.49C534.608 171.47 534.608 171.45 534.61 171.43L543.25 172.61C548.38 173.31 555.4 174.29 563.25 175.44C565.25 175.73 567.12 176.07 568.98 176.51C577.83 178.57 585.39 182.51 588.93 190.75C589.601 192.317 590.107 193.949 590.44 195.62Z" fill="#C3DCF8"/>
<path d="M434.06 307.33C447.33 310.87 474.57 317.28 474.57 317.28" stroke="#83ADDF" stroke-width="0.75" stroke-linecap="round" stroke-linejoin="round"/>
<path d="M449.67 214.45L443 260C433.56 255.46 429.38 254.19 425.28 254.76C424.63 245.81 444.76 254.06 440.69 236C438.21 225 443.19 217 449.67 214.45Z" fill="#93BEE5"/>
<path d="M443 260L449.67 214.45L450.76 206.99" stroke="#83ADDF" stroke-width="0.75" stroke-linecap="round" stroke-linejoin="round"/>
<path d="M420.34 256.12C429.43 252.8 431.7 254.12 462.56 269.87" stroke="#83ADDF" stroke-width="0.75" stroke-linecap="round" stroke-linejoin="round"/>
<path d="M488.84 163.11C488.84 163.11 489.33 194.11 490.84 220.11C480.35 213.78 473.43 203.11 470.55 196.52C466.29 186.81 458.21 174.86 433.39 181.52C437.71 174.75 441.57 169.52 444.39 167.09C459.32 154.56 474.71 159.45 488.84 163.11Z" fill="#C3DCF8"/>
<path d="M542.63 201.4C541.81 202.54 524.08 213.11 524.41 214.58C524.74 216.05 527.66 222.06 527.66 223.2C527.66 223.92 516.76 237.49 507.94 246.56C502.85 251.82 498.45 255.56 497.27 254.44C494.56 251.86 518.6 189.75 526.34 170L534.63 171.43L543.27 172.61C542.53 186.87 543.35 200.4 542.63 201.4Z" fill="#83ADDF"/>
<path d="M534.63 171.43C534.628 171.45 534.628 171.47 534.63 171.49C534.12 173.49 521.52 222.56 507.96 246.56C503.72 254.08 499.39 259.14 495.3 259.56C477.89 261.21 488.86 163.15 488.86 163.15C495.32 164.6 515.02 168.07 526.36 170.04L534.63 171.43Z" fill="white"/>
<path d="M531.36 167.11C529.45 172.8 512.17 185.23 501.57 179.24C495.46 175.78 494.34 169.42 495.94 158.91C496.71 153.76 498.15 147.61 499.94 140.32C500.85 136.67 501.86 132.74 502.94 128.51C505.51 118.33 511.5 111.97 522.4 113.86C533.3 115.75 532.71 126.38 532.4 137.86C532.09 149.34 533.27 161.43 531.36 167.11Z" fill="#B25E47"/>
<path d="M517.45 138.5C516.63 149.17 511.93 160.77 495.94 158.91C496.71 153.76 498.15 147.61 499.94 140.32L517.45 138.5Z" fill="#914839"/>
<path d="M497.27 177.1C497.72 187.5 497.83 190.75 498.84 191.3C499.85 191.85 504.43 193.09 505.66 192.3C506.89 191.51 513.92 179.92 513.92 179.92C513.92 179.92 505.55 174.19 497.27 177.1Z" fill="#683F1D"/>
<path d="M505 187.37C506.45 205.42 509.51 248.37 509.95 251.71C510.39 255.05 496.7 269.18 495.32 267.43C493.94 265.68 486.95 252.79 486.95 248.97C486.95 245.15 499.61 186.64 499.61 186.64L505 187.37Z" fill="#683F1D"/>
<path d="M504.75 175.05C512.41 174.26 530 163.29 532.29 161.81C534.58 160.33 537.63 170.47 537.37 172.47C537.11 174.47 514.81 189.23 514.81 189.23C514.81 189.23 509.27 178.02 504.36 177.89C499.45 177.76 492.1 189.23 492.1 189.23C482.78 180.84 488.98 166.4 495.36 164.08C495.36 164.08 501.65 175.37 504.75 175.05Z" fill="#FED81D"/>
<path d="M485.34 326.07L478.5 365.27" stroke="#83ADDF" stroke-width="0.75" stroke-linecap="round" stroke-linejoin="round"/>
<path d="M541.74 97.85C540.497 99.7061 538.804 101.217 536.82 102.242C534.835 103.267 532.623 103.772 530.39 103.71C522.39 103.58 514.71 97.24 514.71 97.24C514.71 97.24 507.71 90.14 508.47 83.84C508.703 82.033 509.597 80.3764 510.98 79.19C516.98 73.79 526.34 78.82 529.79 84.6C533.24 90.38 534.28 90.34 538.24 90.39C541.68 90.43 543.19 94.35 541.74 97.85Z" fill="#604730"/>
<path d="M530.39 103.71C522.39 103.58 514.71 97.24 514.71 97.24C514.71 97.24 507.71 90.14 508.47 83.84C516.32 81.98 525.87 84.18 531.88 90.3C536.67 95.18 533.64 100.33 530.39 103.71Z" fill="#473526"/>
<path d="M519.22 92.39C514.44 86.24 515.28 79.22 520.35 77.39" stroke="#896442" stroke-width="0.75" stroke-linecap="round" stroke-linejoin="round"/>
<path d="M525.59 96C520.81 89.86 521.65 82.83 526.72 81" stroke="#896442" stroke-width="0.75" stroke-linecap="round" stroke-linejoin="round"/>
<path d="M536.46 110.93C535.22 113.678 533.818 116.349 532.26 118.93C530.143 122.539 527.713 125.955 525 129.14C520 134.92 513.48 139.99 505.89 140.64C487.67 142.2 488.52 129.33 489.1 125.43C489.1 125.34 489.1 125.26 489.1 125.18C489.1 125.1 493.05 117.05 497.44 109.04C499.64 104.911 502.063 100.905 504.7 97.04C510.55 88.88 518.62 87.2 526.6 90.57C534.58 93.94 535.48 98.78 536.46 110.93Z" fill="#B25E47"/>
<path d="M532.26 119C530.139 122.585 527.71 125.978 525 129.14H524.48C522.968 129.142 521.485 128.721 520.2 127.925C518.914 127.128 517.878 125.988 517.207 124.632C516.536 123.277 516.258 121.761 516.405 120.256C516.551 118.75 517.116 117.316 518.036 116.116C518.955 114.915 520.192 113.996 521.607 113.462C523.022 112.928 524.558 112.801 526.041 113.094C527.525 113.388 528.896 114.092 530 115.125C531.105 116.158 531.898 117.479 532.29 118.94L532.26 119Z" fill="#A0503D"/>
<path d="M500.26 115.86C500.26 118.428 499.24 120.891 497.425 122.708C495.61 124.525 493.148 125.547 490.58 125.55C490.074 125.551 489.569 125.51 489.07 125.43C489.07 125.34 489.07 125.26 489.07 125.18C489.07 125.1 493.02 117.05 497.41 109.04C499.226 110.846 500.252 113.299 500.26 115.86Z" fill="#A0503D"/>
<path d="M538.83 119.49L536.1 122C531.64 126.2 530.68 127.24 530.68 127.24C528.19 121 527.61 110.52 532.32 102.79C537.03 95.06 542.63 94.79 545.58 97.18C545.872 97.4148 546.108 97.7121 546.27 98.05C548.4 102 545.51 113.29 538.83 119.49Z" fill="#604730"/>
<path d="M546.27 98.08C540.77 99.6 536.13 108.61 536.1 122.03C531.64 126.23 530.68 127.27 530.68 127.27C528.19 121.03 527.61 110.55 532.32 102.82C537.03 95.09 542.63 94.82 545.58 97.21C545.872 97.4449 546.108 97.7421 546.27 98.08Z" fill="#473526"/>
<path d="M527.15 130C530.45 134.59 540.98 132 541.66 125.27C542.34 118.54 536.37 114.9 531.08 117.93C525.79 120.96 526.16 128.63 527.15 130Z" fill="#B25E47"/>
<path d="M537.88 97C538.88 102.39 543.25 106.74 546 107.48" stroke="#896442" stroke-width="0.75" stroke-linecap="round" stroke-linejoin="round"/>
<path d="M533.27 101.39C534.27 106.19 537.73 112.54 544.42 112.09" stroke="#896442" stroke-width="0.75" stroke-linecap="round" stroke-linejoin="round"/>
<path d="M504.9 104.39C504.9 104.669 504.983 104.941 505.138 105.173C505.292 105.405 505.513 105.586 505.77 105.693C506.028 105.799 506.311 105.827 506.585 105.773C506.858 105.718 507.11 105.584 507.307 105.387C507.504 105.19 507.638 104.939 507.693 104.665C507.747 104.392 507.719 104.108 507.613 103.85C507.506 103.593 507.325 103.373 507.093 103.218C506.861 103.063 506.589 102.98 506.31 102.98C505.936 102.98 505.577 103.129 505.313 103.393C505.048 103.657 504.9 104.016 504.9 104.39Z" fill="#683F1D"/>
<path d="M515.69 109.57C516.469 109.57 517.1 108.939 517.1 108.16C517.1 107.381 516.469 106.75 515.69 106.75C514.911 106.75 514.28 107.381 514.28 108.16C514.28 108.939 514.911 109.57 515.69 109.57Z" fill="#683F1D"/>
<path d="M531.88 120.35C531.98 121.89 527.67 127.51 527.3 129.26C526.01 135.44 525.94 138.52 519.06 143.09C511.52 148.09 497.06 152.58 489.76 146.8C486.93 144.57 485.36 140.27 485.36 135.24C485.436 131.341 486.287 127.496 487.865 123.93C489.443 120.364 491.715 117.148 494.55 114.47C493.657 117.745 492.561 120.961 491.27 124.1C492.727 122.132 494.3 120.252 495.98 118.47C497.965 117.54 500.152 117.124 502.34 117.26C503.59 117.6 510.92 120.64 511.21 122.03C511.5 123.42 510.34 128.2 511.88 128.54C513.42 128.88 520.17 128.15 521.88 127.05C523.59 125.95 528.2 118.71 528.63 117.6C528.9 116.91 530.04 117.54 530.89 118.49C531.405 118.992 531.751 119.642 531.88 120.35Z" fill="#604730"/>
<path d="M537.53 124.59C535.82 120.59 531.44 120.71 529.05 123.91" stroke="#934735" stroke-width="0.75" stroke-linecap="round" stroke-linejoin="round"/>
<path d="M530.2 122.72C534.92 121.55 537 128.53 530.7 128.52" stroke="#934735" stroke-width="0.75" stroke-linecap="round" stroke-linejoin="round"/>
<path d="M503.62 96.76C503.27 98.76 512.5 100.47 512.62 97.48C512.74 94.49 504 94.63 503.62 96.76Z" fill="#604730"/>
<path d="M526.36 100.9C526.29 102.9 516.91 102.74 517.36 99.78C517.81 96.82 526.44 98.75 526.36 100.9Z" fill="#604730"/>
<path d="M503.43 122.59C509.15 123.51 511.68 122.59 513.17 120.17" stroke="#934735" stroke-width="0.75" stroke-linecap="round" stroke-linejoin="round"/>
<path d="M502.1 113.87C504 110 506.52 108.6 509.01 108.32C510.189 108.156 511.286 107.623 512.143 106.796C513 105.97 513.573 104.893 513.78 103.72" stroke="#934735" stroke-width="0.75" stroke-linecap="round" stroke-linejoin="round"/>
<path d="M531.88 120.35C531.98 121.89 527.67 127.51 527.3 129.26C526.01 135.44 525.94 138.52 519.06 143.09C511.52 148.09 497.06 152.58 489.76 146.8C486.93 144.57 485.36 140.27 485.36 135.24C493.36 142.1 505.09 142.83 512.29 140.77C522.45 137.85 528.66 124.34 530.91 118.49C531.417 118.995 531.756 119.645 531.88 120.35Z" fill="#473526"/>
<path d="M486.62 127.27C497.19 136.27 511.75 129.15 512.62 128.52" stroke="#896442" stroke-width="0.75" stroke-linecap="round" stroke-linejoin="round"/>
<path d="M485.42 136.84C494.22 141.46 508.13 142.74 518.54 128.07" stroke="#896442" stroke-width="0.75" stroke-linecap="round" stroke-linejoin="round"/>
<path d="M496.36 149.37C498.53 146.25 504.23 144.89 510.21 143.23C521.85 139.98 523.64 135.16 524.77 123.75" stroke="#896442" stroke-width="0.75" stroke-linecap="round" stroke-linejoin="round"/>
<path d="M531.57 309.37C531.566 311.506 531.095 313.615 530.19 315.55C529.039 317.977 527.394 320.136 525.36 321.89C519.98 326.67 511.6 329.74 502.18 329.74C496.891 329.781 491.648 328.761 486.76 326.74C482.159 324.924 478.194 321.794 475.36 317.74C473.7 315.266 472.803 312.359 472.78 309.38C472.78 308.524 472.86 307.671 473.02 306.83C474.23 300.06 480.24 294.32 488.63 291.3C492.981 289.759 497.565 288.981 502.18 289C508.21 288.955 514.166 290.325 519.57 293C521.893 294.156 524.036 295.645 525.93 297.42C529.48 300.74 531.57 304.88 531.57 309.37Z" fill="#A7CAF0"/>
<path d="M530.19 315.55C529.039 317.977 527.394 320.136 525.36 321.89C519.98 326.67 511.6 329.74 502.18 329.74C496.891 329.781 491.648 328.761 486.76 326.74C482.159 324.924 478.194 321.794 475.36 317.74C496.34 323.21 519 318.6 530.19 315.55Z" fill="#93BEE5"/>
<path d="M596.64 230.71C592.12 238.11 576.79 258.63 561.7 278.22C548.97 294.73 536.41 310.57 530.65 317.3C529.117 319.076 527.335 320.622 525.36 321.89C521.811 324.138 517.846 325.651 513.701 326.338C509.556 327.025 505.315 326.873 501.23 325.89C495.39 324.42 490.33 321.07 487.57 315.76C486.374 313.431 485.647 310.889 485.43 308.28C484.99 303.52 486.18 297.73 488.63 291.28C493.26 279.14 502.35 264.73 513.28 250.63C514.62 248.9 516 247.17 517.39 245.45C519.53 242.783 521.723 240.17 523.97 237.61C524.75 236.7 525.53 235.81 526.33 234.91C526.95 234.21 527.57 233.51 528.2 232.82L530.35 230.45L530.47 230.32L532.66 227.97C534.15 226.38 535.66 224.81 537.15 223.28L539.15 221.28C539.88 220.54 540.62 219.8 541.36 219.08C541.391 219.044 541.424 219.011 541.46 218.98C543.02 217.44 544.577 215.947 546.13 214.5L546.34 214.31C551.602 209.343 557.134 204.669 562.91 200.31C569.01 195.79 574.52 192.52 578.98 190.95C586.5 188.31 593.38 191.51 597.59 197.78C603 205.69 604.05 218.59 596.64 230.71Z" fill="#A7CAF0"/>
<path d="M578.32 256.37C573.14 263.28 567.41 270.82 561.7 278.22C548.97 294.73 536.41 310.57 530.65 317.3C529.117 319.076 527.335 320.622 525.36 321.89" stroke="#83ADDF" stroke-width="0.75" stroke-linecap="round" stroke-linejoin="round"/>
<path d="M488.63 291.29C493.26 279.15 502.35 264.74 513.28 250.64C523.298 237.75 534.297 225.654 546.18 214.46" stroke="#83ADDF" stroke-width="0.75" stroke-linecap="round" stroke-linejoin="round"/>
<path d="M561.2 211.06C555.94 208.06 550.76 209.18 541.37 219.06" stroke="#83ADDF" stroke-width="0.75" stroke-linecap="round" stroke-linejoin="round"/>
<path d="M597.64 197.74C595.329 196.759 592.913 196.047 590.44 195.62C581.6 194.05 572.5 196.12 562.96 200.27C569.06 195.75 574.57 192.48 579.03 190.91C586.55 188.27 593.43 191.47 597.64 197.74Z" fill="#C3DCF8"/>
<path d="M561.7 278.22C548.97 294.73 536.41 310.57 530.65 317.3C529.117 319.076 527.335 320.622 525.36 321.89C521.811 324.138 517.846 325.651 513.701 326.338C509.556 327.025 505.315 326.873 501.23 325.89C495.39 324.42 490.33 321.07 487.57 315.76C496.95 319.41 506.27 319.42 512.93 316.06C516.639 314.263 519.554 311.162 521.12 307.35C522.509 303.918 524.116 300.578 525.93 297.35C536.77 278.27 551.59 271.31 561.7 278.22Z" fill="#93BEE5"/>
<path d="M454.56 196.34C454.08 193.65 463.11 190.78 470.13 189.98L471.45 201.85C471.45 201.85 456.22 205.68 454.56 196.34Z" fill="#93BEE5"/>
<path d="M468.67 189.23C465.02 175.6 464.93 153.54 466.18 150.42C467.43 147.3 469.95 148.47 471.45 148.56C472.95 148.65 473.65 144.64 478.72 144.64C478.72 144.64 479 139.58 482.51 139C482.51 139 481.17 131.63 487.08 132.81C488.42 133.08 487.08 141.26 490.48 152.81C490.67 153.46 497.83 148.33 499.48 147.16C502.13 145.25 507.26 144.62 503.92 150.23C501.92 153.64 498.59 159.03 496.27 162.41C491.661 169.317 489.271 177.467 489.42 185.77L468.67 189.23Z" fill="#B25E47"/>
<path d="M465.49 157.12C465.44 154.867 465.672 152.616 466.18 150.42C467.42 147.31 469.95 148.47 471.45 148.56C472.95 148.65 473.65 144.64 478.72 144.64C478.72 144.64 479 139.58 482.51 139C482.51 139 481.17 131.63 487.08 132.81C488.42 133.08 487.08 141.26 490.48 152.81C490.67 153.46 497.83 148.33 499.48 147.16C502.13 145.25 507.26 144.62 503.92 150.23C502.92 151.93 501.57 154.13 500.2 156.33" stroke="#934735" stroke-width="0.75" stroke-linecap="round" stroke-linejoin="round"/>
<path d="M478.72 144.64C478.699 145.58 478.756 146.52 478.89 147.45" stroke="#934735" stroke-width="0.75" stroke-linecap="round" stroke-linejoin="round"/>
<path d="M482.51 139C482.94 141.47 483.57 143.76 483.57 143.76" stroke="#934735" stroke-width="0.75" stroke-linecap="round" stroke-linejoin="round"/>
<path d="M462.25 183.6L463.84 206C463.84 206 492.97 201 492.53 200.35C492.09 199.7 491.33 181.35 491.33 181.35L462.25 183.6Z" fill="white"/>
<path d="M519.41 293C519.41 293.58 519.38 294.16 519.32 294.74C519.32 295.18 519.26 295.62 519.22 296.06C519.224 296.147 519.224 296.233 519.22 296.32C519.22 296.82 519.12 297.32 519.06 297.8C518.93 298.92 518.76 300.03 518.55 301.12C517.64 306.451 515.682 311.55 512.79 316.12C510.033 320.556 505.935 323.999 501.09 325.95C496.504 327.632 491.527 327.938 486.77 326.83H486.62C477.04 324.76 471.32 314.09 467.8 301.89C464.59 290.74 463.21 278.31 462.42 269.98C460.74 252.48 454.42 196.44 454.42 196.44C458.89 198.68 498.89 189.34 498.89 189.34C498.89 189.34 507.11 221.94 513.15 250.75C516.39 266.2 519.01 280.57 519.39 288.23C519.44 289.74 519.46 291.35 519.41 293Z" fill="#A7CAF0"/>
<path d="M467.78 301.78C464.57 290.63 463.19 278.2 462.4 269.87C460.72 252.37 454.4 196.33 454.4 196.33" stroke="#83ADDF" stroke-width="0.75" stroke-linecap="round" stroke-linejoin="round"/>
<path d="M498.86 189.23C498.86 189.23 507.08 221.83 513.12 250.64C516.36 266.09 518.98 280.46 519.36 288.12C519.44 289.74 519.46 291.35 519.36 292.95C519.263 295.872 518.929 298.782 518.36 301.65" stroke="#83ADDF" stroke-width="0.75" stroke-linecap="round" stroke-linejoin="round"/>
<path d="M512.77 316C510.013 320.436 505.915 323.879 501.07 325.83C496.484 327.512 491.507 327.818 486.75 326.71H486.6C477.02 324.64 471.3 313.97 467.78 301.77C469.358 303.55 471.055 305.22 472.86 306.77C477.16 310.56 482.082 313.577 487.41 315.69C496.79 319.39 506.11 319.4 512.77 316Z" fill="#93BEE5"/>
<path d="M233.75 318.16C229.62 315.711 225.865 312.68 222.6 309.16C211.7 297.91 201.23 280.53 193.49 265.83C188.17 255.73 184.15 246.89 182.16 242.16C182.05 241.91 181.94 241.64 181.83 241.36C181.55 240.67 181.24 239.9 180.93 239.07C174.26 221.65 160.52 174.18 189.53 166.71C201.18 163.71 207.29 168.71 219.86 188.28C222.31 192.09 225.01 196.45 228.04 201.41C246.67 231.92 270.9 282.23 273.17 296.01C275.44 309.79 252.39 328.53 233.75 318.16Z" fill="#FED81D"/>
<path d="M219.87 188.27C214.55 188.15 208.3 190.42 202.71 196.55C198.02 201.7 193.8 209.55 190.99 221.01C189.444 227.87 185.951 234.137 180.93 239.06C174.26 221.64 160.52 174.17 189.53 166.7C201.19 163.72 207.31 168.75 219.87 188.27Z" fill="#FFE05C"/>
<path d="M222.6 309.17C211.7 297.92 201.23 280.54 193.49 265.84C188.17 255.74 184.15 246.9 182.16 242.17C182.05 241.92 181.94 241.65 181.83 241.37L197.31 227.94C206.45 228.22 214.45 254.22 206.88 260.75C200.41 266.32 200.88 277.64 213.12 279.75C222.13 281.27 222.66 302.44 222.6 309.17Z" fill="#FCC71F"/>
<path d="M149.77 193.18C131.77 191.75 129.55 175.44 130.69 170.35C131.83 165.26 135.1 141.99 136.21 131.08C138.92 104.35 166.86 113.82 166.68 138.33C166.68 139.99 166.56 143.85 166.48 148.52C166.4 153.19 166.36 158.9 166.53 163.81C166.53 164.06 166.53 164.31 166.53 164.56C166.91 174.39 167.8 194.61 149.77 193.18Z" fill="#FEBD9D"/>
<path d="M166.53 163.81C148.93 164.23 148.64 152.33 149.72 143.87L166.48 148.52C166.4 153.27 166.36 158.9 166.53 163.81Z" fill="#F4A789"/>
<path d="M202.71 196.57C201.85 203.37 200.65 210.33 199.54 216.25C198.54 221.74 197.6 226.33 197.15 229.1C197.09 229.48 197.03 229.83 196.99 230.1C196.57 233.1 195.21 247.2 193.49 265.8C190.63 296.8 186.76 340.17 184.49 365.5H68.37C69.37 357.79 70.57 348.67 71.76 339.43C74.76 315.97 77.82 291.81 77.94 288.58C78.18 282.26 75.18 242.33 72.19 221.02C72.1 220.39 72.01 219.77 71.92 219.17C69.1 200.1 75.3 191.08 84.43 187.7C85.241 187.395 86.0691 187.138 86.91 186.93C95.57 184.75 109.59 180.32 125.45 175.57C128.71 174.57 132.05 173.57 135.45 172.57C136.78 172.19 138.26 171.81 139.88 171.44C140.52 171.9 141.2 172.36 141.88 172.82L143.02 173.52C143.24 173.66 143.46 173.79 143.68 173.91C144.98 174.68 146.38 175.42 147.86 176.11C148.4 176.37 148.96 176.62 149.53 176.86C150.08 177.1 150.64 177.33 151.22 177.55H151.27C151.73 177.73 152.21 177.9 152.69 178.07H152.77L153.47 178.31L154.92 178.78C156.06 179.14 157.23 179.46 158.44 179.78C159.71 178.35 160.78 177.01 161.69 175.78L162.49 174.65L162.99 173.9C163.29 173.43 163.57 172.99 163.82 172.56C164.07 172.13 164.37 171.56 164.6 171.14C165.056 170.266 165.457 169.364 165.8 168.44L166.02 167.79C167.83 167.64 169.69 167.5 171.6 167.38C173.98 167.22 176.43 167.09 178.95 166.97C182.337 166.81 185.843 166.697 189.47 166.63C192.097 166.57 194.783 166.54 197.53 166.54C204.75 166.61 204.64 181.19 202.71 196.57Z" fill="#FED81D"/>
<path d="M199.55 216.27C198.39 222.51 197.35 227.6 196.99 230.15C196.57 233.15 195.21 247.25 193.49 265.85" stroke="#F7AD2B" stroke-width="0.75" stroke-linecap="round" stroke-linejoin="round"/>
<path d="M202.71 196.57C198.02 201.72 193.8 209.57 190.99 221.03C189.947 225.378 188.171 229.517 185.74 233.27C184.362 235.37 182.748 237.306 180.93 239.04C176.986 242.8 172.066 245.378 166.73 246.48C164.357 246.975 161.933 247.186 159.51 247.11C152.77 246.91 145.51 244.61 138.11 239.86C134.291 237.364 130.736 234.486 127.5 231.27C121.56 225.41 115.96 221.07 110.5 218.22C98.2 211.83 86.37 212.88 72.23 221.05C72.14 220.42 72.05 219.8 71.96 219.2C69.14 200.13 75.34 191.11 84.47 187.73C85.281 187.425 86.1091 187.168 86.95 186.96C95.61 184.78 109.63 180.35 125.49 175.6C128.75 174.6 132.09 173.6 135.49 172.6C136.82 172.22 138.3 171.84 139.92 171.47C140.57 171.93 141.24 172.39 141.92 172.85C145.98 175.435 150.374 177.453 154.98 178.85C156.12 179.21 157.29 179.53 158.5 179.85C159.77 178.42 160.84 177.08 161.75 175.85C163.461 173.61 164.844 171.139 165.86 168.51C165.94 168.28 166.02 168.06 166.08 167.86C167.89 167.71 169.75 167.57 171.66 167.45C174.04 167.29 176.5 167.16 179.02 167.04C182.407 166.88 185.913 166.767 189.54 166.7C192.167 166.64 194.853 166.61 197.6 166.61C204.75 166.61 204.64 181.19 202.71 196.57Z" fill="#FFE05C"/>
<path d="M97.88 242.66C97.88 242.66 120.09 247.16 111.5 265.1C104.29 280.15 112.34 286.9 120.3 281.8C128.99 276.23 145.66 282.88 145.66 295.57C145.66 319.57 92.77 335.3 86.21 303.66C79.65 272.02 75.46 239.27 97.88 242.66Z" fill="#FCC71F"/>
<path d="M185.74 233.27L186.81 234.49L168.53 264.54L167.72 273.38L137.31 242.7L138.16 239.9L140.58 231.9L117.98 209.4C118.16 207.4 123.25 185.6 125.67 175.83L130.58 174.93L141.95 172.86C146.01 175.445 150.404 177.463 155.01 178.86C156.15 179.22 157.32 179.54 158.53 179.86C159.8 178.43 160.87 177.09 161.78 175.86C163.491 173.62 164.874 171.149 165.89 168.52L171.69 167.46C174.07 167.3 176.53 167.17 179.05 167.05L191.05 208.34L179.96 226.7L185.74 233.27Z" fill="#F7AD2B"/>
<path d="M174.66 173.84C174.03 184.96 172.31 201.24 170.5 216.55C169.16 227.91 167.76 238.73 166.73 246.55C165.73 253.79 165.13 258.41 165.13 258.41C163.04 254.779 161.163 251.03 159.51 247.18C157.51 242.61 155.13 237.06 152.51 230.62C147.13 217.62 140.44 200.91 132.22 181.32L130.57 175.01L141.94 172.94C146 175.525 150.394 177.543 155 178.94C156.14 179.3 157.31 179.62 158.52 179.94C159.79 178.51 160.86 177.17 161.77 175.94C163.481 173.7 164.865 171.229 165.88 168.6L171.68 167.54L174.66 173.84Z" fill="white"/>
<path d="M167.31 180.83C167.31 180.83 166.96 182.69 166.37 185.01C165.37 188.89 163.71 194.07 161.81 194.07C159.91 194.07 156.54 191.16 153.99 188.79C152.23 187.15 150.92 185.79 150.92 185.79L154.98 178.94C156.12 179.3 157.29 179.62 158.5 179.94C159.77 178.51 160.84 177.17 161.75 175.94L167.31 180.83Z" fill="#A7CAF0"/>
<path d="M170.5 216.55C167.91 238.46 165.13 258.38 165.13 258.38C162.13 253.45 157.98 243.93 152.47 230.59C153.95 223.11 156.97 205.41 159.09 190.42L163.62 189.42C165.56 195.66 168.62 208.48 170.5 216.55Z" fill="#A7CAF0"/>
<path d="M158.48 179.88L153.97 188.79L151.31 194.07C151.31 194.07 135.31 186.46 125.63 175.87C125.563 175.79 125.506 175.703 125.46 175.61C124.28 172.94 128.91 159.38 131.86 163.81C134.067 166.818 136.773 169.426 139.86 171.52C144.459 174.782 149.555 177.281 154.95 178.92C156.1 179.27 157.31 179.6 158.48 179.88Z" fill="#683F1D"/>
<path d="M169.37 186.97L166.37 184.97L158.5 179.84C159.77 178.41 160.84 177.07 161.75 175.84C163.613 173.423 165.075 170.722 166.08 167.84C166.387 166.992 166.559 166.101 166.59 165.2C168.511 165.246 170.336 166.047 171.67 167.43C172.566 168.459 173.161 169.715 173.39 171.06C174.53 177.04 169.37 186.97 169.37 186.97Z" fill="#683F1D"/>
<path d="M159.23 365.54L167.72 273.42L168.53 264.58L165.13 258.38" stroke="#F7AD2B" stroke-width="0.75" stroke-linecap="round" stroke-linejoin="round"/>
<path d="M333.53 164.12C330.53 160.12 327.77 158.56 325.25 158.35C325.49 157.81 325.72 157.25 325.95 156.67C327.95 151.61 326.05 149.67 324.33 150.18C322.61 150.69 313.97 160.27 312.98 162.18C310.33 167.34 302.98 187.86 302.32 189.77C303.82 201.96 319.91 205.87 319.91 205.87C321.6 200.79 324.86 197.66 328.45 195.18C332.04 192.7 333.73 188.67 337.45 180.77C340.12 175.21 339.78 172.59 333.53 164.12Z" fill="#FEBD9D"/>
<path d="M333.53 164.12C330.53 160.12 327.77 158.56 325.25 158.35C325.49 157.81 325.72 157.25 325.95 156.67C327.95 151.61 326.05 149.67 324.33 150.18C322.61 150.69 313.97 160.27 312.98 162.18" stroke="#EF8A66" stroke-width="0.75" stroke-linecap="round" stroke-linejoin="round"/>
<path d="M329.02 215.8C330.84 211.62 321.7 207.09 321.7 207.09L316.7 216.31C316.7 216.31 325.18 221.72 329.02 215.8Z" fill="#FCC71F"/>
<path d="M296.69 196.42C300.24 191.01 303.09 186.58 303.09 186.58C309.21 194.813 316.662 201.965 325.14 207.74L320.61 216.27C315.176 215.499 310.063 213.235 305.84 209.731C301.617 206.226 298.449 201.618 296.69 196.42Z" fill="#683F1D"/>
<path d="M233.76 318.16C243.76 328.16 267.29 330.27 289.15 288.16C311.01 246.05 328.99 215.98 328.99 215.98C328.99 215.98 318.07 218.49 298.48 191.85C298.48 191.85 278.32 218.85 257.96 243.55C234.5 272 215.92 300.27 233.76 318.16Z" fill="#FED81D"/>
<path d="M298.48 191.84C298.48 191.84 278.32 218.84 257.96 243.54C250.824 251.99 244.218 260.874 238.18 270.14" stroke="#F7AD2B" stroke-width="0.75" stroke-linecap="round" stroke-linejoin="round"/>
<path d="M321.8 183.54C321.8 183.54 326.19 173.35 320.33 165.92C320.33 165.92 324.54 160.04 325.25 158.35" stroke="#EF8A66" stroke-width="0.75" stroke-linecap="round" stroke-linejoin="round"/>
<path d="M321.8 166.48L368.15 59.99" stroke="#E0B9B9" stroke-width="3" stroke-linecap="round" stroke-linejoin="round"/>
<path d="M342.51 170.72C346.39 172.72 339.59 182.72 336.08 182.02C331.59 181.06 338.39 168.64 342.51 170.72Z" fill="#FEBD9D" stroke="#EF8A66" stroke-width="0.75" stroke-linecap="round" stroke-linejoin="round"/>
<path d="M339.31 163.14C344.11 165.65 335.59 178.79 331.25 177.81C326.91 176.83 334.21 160.47 339.31 163.14Z" fill="#FEBD9D" stroke="#EF8A66" stroke-width="0.75" stroke-linecap="round" stroke-linejoin="round"/>
<path d="M336.31 158.48C340.87 161.53 331.09 175.48 326.84 174.1C322.59 172.72 331.45 155.27 336.31 158.48Z" fill="#FEBD9D" stroke="#EF8A66" stroke-width="0.75" stroke-linecap="round" stroke-linejoin="round"/>
<path d="M333.31 148.43C338.38 150.52 331.54 166.09 327.11 165.62C322.68 165.15 327.89 146.2 333.31 148.43Z" fill="#FEBD9D" stroke="#EF8A66" stroke-width="0.75" stroke-linecap="round" stroke-linejoin="round"/>
<path d="M110.11 231.16C110 232.09 109.87 233.04 109.71 233.99C109.62 234.51 109.54 234.99 109.44 235.57C109.34 236.15 109.24 236.64 109.12 237.18C108.94 238.1 108.74 239.03 108.51 239.96C108.16 241.41 107.8 242.96 107.44 244.51C107.31 245.04 107.19 245.58 107.07 246.12C106.697 247.74 106.317 249.407 105.93 251.12C105.8 251.69 105.67 252.28 105.54 252.87C105.46 253.21 105.39 253.56 105.31 253.87C105.13 254.64 104.96 255.41 104.79 256.2C103.7 261.12 102.54 266.33 101.31 271.65C101.01 272.96 100.7 274.28 100.39 275.6C100.3 276 100.2 276.41 100.1 276.81L99.44 279.58C99.44 279.79 99.34 280.01 99.28 280.23C99.04 281.23 98.8 282.23 98.55 283.23C98.36 284.02 98.16 284.8 97.96 285.59C97.76 286.38 97.63 286.91 97.45 287.59C96.96 289.48 96.45 291.38 95.95 293.25L95.35 295.44C93.99 300.29 92.57 305 91.06 309.44C90.86 310.03 90.65 310.62 90.45 311.19C89.94 312.64 89.45 314.06 88.89 315.44C88.68 315.99 88.47 316.54 88.25 317.08C87.4767 319.02 86.6867 320.87 85.88 322.63C85.45 323.55 85.02 324.45 84.58 325.31C84.47 325.54 84.35 325.77 84.23 325.99C83.81 326.79 83.39 327.56 82.96 328.3C82.53 329.04 82.14 329.7 81.73 330.36V330.43C81.29 331.1 80.86 331.75 80.41 332.37C79.5112 333.623 78.5076 334.797 77.41 335.88C77.26 336.04 77.1 336.19 76.94 336.33C76.0364 337.195 75.0286 337.944 73.94 338.56L73.36 338.85H73.29C73.05 338.963 72.81 339.063 72.57 339.15C72.32 339.25 72.07 339.33 71.81 339.41C53.35 344.77 42.9 334.32 41.19 318.72C41.0449 317.281 40.9782 315.836 40.99 314.39C40.99 302.6 44.47 281.94 48.78 263.13C51.23 252.44 53.95 242.35 56.45 234.82L57.65 231.18C64.65 209.88 70.54 189.88 84.48 187.69C98.09 185.56 109.01 198.54 110.48 218.18C110.789 222.508 110.665 226.856 110.11 231.16Z" fill="#FED81D"/>
<path d="M71.76 339.47C72.0178 339.397 72.2715 339.31 72.52 339.21C72.76 339.123 73 339.023 73.24 338.91H73.31C73.5092 338.825 73.7029 338.729 73.89 338.62C74.9786 338.004 75.9864 337.255 76.89 336.39C77.05 336.25 77.2 336.1 77.36 335.94C78.4576 334.857 79.4612 333.683 80.36 332.43C80.81 331.82 81.25 331.17 81.68 330.49V330.42C82.1 329.76 82.51 329.08 82.91 328.36C83.3434 327.62 83.7633 326.85 84.17 326.05C84.29 325.83 84.41 325.6 84.52 325.37C84.96 324.51 85.39 323.61 85.82 322.69C86.6333 320.93 87.4234 319.08 88.19 317.14C88.41 316.6 88.62 316.05 88.83 315.5C89.36 314.12 89.83 312.7 90.39 311.25C90.59 310.67 90.8 310.09 91 309.5C92.51 305.06 93.93 300.35 95.29 295.5C95.49 294.78 95.69 294.05 95.89 293.31C96.4 291.44 96.89 289.54 97.39 287.65C97.57 286.98 97.73 286.32 97.9 285.65C98.07 284.98 98.3 284.08 98.49 283.29C98.74 282.29 98.98 281.29 99.22 280.29C99.28 280.07 99.33 279.85 99.38 279.64C99.6 278.71 99.83 277.79 100.04 276.87C100.14 276.47 100.24 276.06 100.33 275.66C100.64 274.34 100.95 273.02 101.25 271.71C102.48 266.39 103.64 261.18 104.73 256.26C104.91 255.48 105.08 254.7 105.25 253.93C105.33 253.58 105.4 253.23 105.48 252.93L105.87 251.18C106.257 249.447 106.637 247.78 107.01 246.18C107.13 245.64 107.25 245.1 107.38 244.57C107.74 242.99 108.1 241.47 108.45 240.02C108.68 239.09 108.88 238.16 109.06 237.24C109.18 236.7 109.29 236.16 109.38 235.63C109.47 235.1 109.57 234.57 109.65 234.05C109.81 233.05 109.94 232.15 110.05 231.22C110.05 231 110.11 230.78 110.13 230.56" stroke="#F7AD2B" stroke-width="0.75" stroke-linecap="round" stroke-linejoin="round"/>
<path d="M110.46 218.27C98.16 211.88 86.33 212.93 72.19 221.1C67.0774 224.118 62.2002 227.517 57.6 231.27C64.6 209.97 70.49 189.97 84.43 187.78C98.04 185.61 108.96 198.59 110.46 218.27Z" fill="#FFE05C"/>
<path d="M82.96 328.32C82.56 329.04 82.15 329.72 81.73 330.38V330.45C81.3 331.13 80.86 331.78 80.41 332.39C79.5112 333.643 78.5076 334.817 77.41 335.9C77.26 336.06 77.1 336.21 76.94 336.35C76.0364 337.215 75.0286 337.964 73.94 338.58L73.36 338.87H73.29C73.05 338.983 72.81 339.083 72.57 339.17C72.32 339.27 72.07 339.35 71.81 339.43C53.35 344.79 42.9 334.34 41.19 318.74C41.0449 317.301 40.9782 315.856 40.99 314.41C40.99 302.62 44.47 281.96 48.78 263.15C58.91 269.09 61.68 281.97 56.63 295.99C55.5097 299.078 54.1036 302.054 52.43 304.88C41.31 323.82 64.13 337.43 82.96 328.32Z" fill="#FCC71F"/>
<path d="M160.16 98.96C164.65 96.2 170.32 95.77 170.1 115.11L160.16 98.96Z" fill="#BF8228"/>
<path d="M164.56 97.53C163.231 100.499 161.491 103.266 159.39 105.75L160.61 127.88L136.61 128.68L132.87 128.81C130.68 121.06 130.35 115.81 128.33 114.48C127.822 114.056 127.467 113.477 127.323 112.831C127.178 112.185 127.251 111.51 127.53 110.91C128.28 108.79 125.8 109.98 124.2 107.32C123.31 105.84 123.05 99.69 129.74 100.44C127.55 96.16 130.94 92.73 138.85 93.03C137.04 92.16 136.54 89.18 140.93 88.97C146.239 88.655 151.561 88.655 156.87 88.97C158.934 89.1414 160.913 89.8746 162.59 91.09C163.618 91.7649 164.378 92.7781 164.738 93.9543C165.098 95.1304 165.035 96.3954 164.56 97.53Z" fill="#BF8228"/>
<path d="M164.56 97.53C163.231 100.499 161.491 103.266 159.39 105.75L160.61 127.88L136.61 128.68C137.39 115.92 135.61 111.63 134.76 107.68C133.91 103.73 135.51 98.52 140.54 99.68C145.57 100.84 153.87 97.89 152.48 95.14C151.48 93.14 155.65 88.79 162.59 91.07C163.623 91.7456 164.386 92.7624 164.746 93.9429C165.106 95.1235 165.04 96.3929 164.56 97.53Z" fill="#B57724"/>
<path d="M138.84 93.04L148.17 93.54" stroke="#9B621F" stroke-width="0.75" stroke-linecap="round" stroke-linejoin="round"/>
<path d="M129.73 100.44L139.84 101.44" stroke="#9B621F" stroke-width="0.75" stroke-linecap="round" stroke-linejoin="round"/>
<path d="M165.99 152.47C150.72 155.47 138.07 133.77 138.07 133.77C130.96 135.21 128.33 128.37 130.44 123.77C130.665 123.273 130.939 122.801 131.26 122.36C131.839 121.472 132.67 120.778 133.646 120.366C134.623 119.954 135.7 119.844 136.74 120.05C138.729 120.557 140.505 121.685 141.81 123.27C143.25 124.85 144.92 123.06 143.74 120.27C142.56 117.48 141.37 107.87 142.82 105.9C144.27 103.93 157.45 101.22 161.4 101.02C161.656 101.004 161.914 101.004 162.17 101.02C162.352 101.049 162.526 101.117 162.68 101.22C163.51 101.844 164.224 102.609 164.79 103.48C165.27 104.12 165.79 104.88 166.28 105.72C167.684 108.031 168.96 110.418 170.1 112.87C170.51 113.74 170.92 114.63 171.31 115.53C171.7 116.43 172.02 117.18 172.31 118.01C172.88 119.4 173.39 120.78 173.84 122.13C174.2 123.2 174.52 124.25 174.79 125.25C174.79 125.31 174.79 125.37 174.84 125.43C177.47 135.27 178.92 149.91 165.99 152.47Z" fill="#FEBD9D"/>
<path d="M156.71 126.86C159.85 127.41 164.58 127.08 166.5 125.21C166.5 125.21 167.22 131.99 163.16 132.55C158.46 133.2 156.71 126.86 156.71 126.86Z" fill="white" stroke="#EF8A66" stroke-width="0.75" stroke-linecap="round" stroke-linejoin="round"/>
<path d="M169.81 144.27C170.323 145.902 170.168 147.671 169.38 149.19" stroke="#EF8A66" stroke-width="0.75" stroke-linecap="round" stroke-linejoin="round"/>
<path d="M138.08 133.77C139.361 133.427 140.561 132.832 141.61 132.02" stroke="#EF8A66" stroke-width="0.75" stroke-linecap="round" stroke-linejoin="round"/>
<path d="M133.31 126.16C135.58 123.16 139.94 125.05 141.14 128.1" stroke="#EF8A66" stroke-width="0.75" stroke-linecap="round" stroke-linejoin="round"/>
<path d="M140.53 126.94C135.82 123.4 134.17 131.39 139.67 130.25" stroke="#EF8A66" stroke-width="0.75" stroke-linecap="round" stroke-linejoin="round"/>
<path d="M159.62 109.87C159.48 111.96 162.35 115.34 164.99 116.15C167.63 116.96 168.45 117.69 167.76 119.86" stroke="#EF8A66" stroke-width="0.75" stroke-linecap="round" stroke-linejoin="round"/>
<path d="M146.89 109.96C147.29 111.62 156.33 109.68 155.11 106.59C153.89 103.5 146.22 107.27 146.89 109.96Z" fill="#BF8228"/>
<path d="M159.07 104.61C158.95 106.61 166.9 106.55 166.87 105.06C166.84 103.57 159.31 100.98 159.07 104.61Z" fill="#BF8228"/>
<path d="M154.22 114.46C154.22 114.739 154.303 115.011 154.458 115.243C154.613 115.475 154.833 115.656 155.09 115.763C155.348 115.869 155.632 115.897 155.905 115.843C156.179 115.788 156.43 115.654 156.627 115.457C156.824 115.26 156.958 115.009 157.013 114.735C157.067 114.462 157.039 114.178 156.933 113.92C156.826 113.663 156.645 113.443 156.413 113.288C156.181 113.133 155.909 113.05 155.63 113.05C155.256 113.05 154.897 113.199 154.633 113.463C154.369 113.727 154.22 114.086 154.22 114.46Z" fill="#683F1D"/>
<path d="M165.13 113.82C165.909 113.82 166.54 113.189 166.54 112.41C166.54 111.631 165.909 111 165.13 111C164.351 111 163.72 111.631 163.72 112.41C163.72 113.189 164.351 113.82 165.13 113.82Z" fill="#683F1D"/>
<path d="M154.81 125.4C153.94 127.35 151.12 128 148.5 126.84C145.88 125.68 144.5 123.15 145.32 121.2C146.14 119.25 149.01 118.61 151.63 119.77C154.25 120.93 155.67 123.45 154.81 125.4Z" fill="#F4AF90"/>
<path d="M174.87 125.39C172.75 126.33 170.49 126.01 169.47 124.49C168.28 122.72 169.24 119.99 171.62 118.39C171.851 118.235 172.092 118.095 172.34 117.97C172.91 119.36 173.42 120.74 173.87 122.09C174.23 123.16 174.55 124.21 174.82 125.21C174.84 125.27 174.85 125.33 174.87 125.39Z" fill="#F4AF90"/>
<path d="M202.68 286.15C213.39 284.77 217.12 282.35 221.27 280.76C225.42 279.17 228.53 279.38 229.01 281.76C229.01 281.76 233.15 279.91 234.54 280.65C236.61 281.76 235.31 285.65 229.02 288.35C222.73 291.05 204.13 298.69 200.68 297.65C197.23 296.61 194.61 289.97 202.68 286.15Z" fill="#FEBD9D" stroke="#EF8A66" stroke-width="0.75" stroke-linecap="round" stroke-linejoin="round"/>
<path d="M175.41 318.7C175.41 318.7 199.97 307.58 206 304.2C212.03 300.82 230.63 292.27 232.43 289.27C234.23 286.27 231.3 285.98 227.7 287.27C224.1 288.56 209.9 293.33 208.54 293.27C207.18 293.21 199.54 293.27 199.54 293.27C200.16 287.27 210.1 283.16 211.54 280.27C213.14 277.16 208.61 277.27 205.75 278.12C202.89 278.97 191.32 283 188.46 284.59C185.6 286.18 183.05 289.82 177.09 290.71L175.41 318.7Z" fill="#FEBD9D"/>
<path d="M222.93 295.46C227.67 292.94 231.64 290.58 232.43 289.28C234.23 286.28 231.3 285.99 227.7 287.28C224.1 288.57 209.9 293.34 208.54 293.28C207.18 293.22 199.54 293.28 199.54 293.28C200.16 287.28 210.1 283.17 211.54 280.28C213.14 277.17 208.61 277.28 205.75 278.13C204.08 278.63 199.41 280.21 195.26 281.76" stroke="#EF8A66" stroke-width="0.75" stroke-linecap="round" stroke-linejoin="round"/>
<path d="M209.59 289.27C216.09 287.18 227.06 282.75 229.01 281.79" stroke="#EF8A66" stroke-width="0.75" stroke-linecap="round" stroke-linejoin="round"/>
<path d="M199.54 293.27C199.408 294.021 199.408 294.789 199.54 295.54" stroke="#EF8A66" stroke-width="0.75" stroke-linecap="round" stroke-linejoin="round"/>
<path d="M166.12 290.75H177.13V322.31L167.26 324.21L166.12 290.75Z" fill="#683F1D"/>
<path d="M170.5 326.67C170.77 326.93 151.03 331.6 127.93 336.23C102.62 341.3 73.28 346.33 61.82 345.46C45.82 344.25 38.4 327.89 40.94 314.46C41.7518 309.566 44.1729 305.083 47.82 301.72C50.4525 299.416 53.4027 297.503 56.58 296.04C60.0991 294.419 63.7888 293.198 67.58 292.4H67.68L68.94 292.14L70.61 291.83C71.31 291.71 72.01 291.6 72.72 291.5L73.17 291.44C73.6 291.37 74.02 291.32 74.45 291.27L75.83 291.11H75.89L77.22 290.98C77.68 290.93 78.15 290.89 78.61 290.86L79.99 290.76C80.92 290.69 81.84 290.64 82.76 290.61H83.76H84.34L86.98 290.55H88.21C89.27 290.55 90.32 290.55 91.35 290.55H93.16H93.26L96.7 290.63C98.7 290.63 100.64 290.73 102.46 290.78H104.46H108.58C123.87 290.6 168.5 289.31 168.5 289.31C168.5 289.31 169.94 326.12 170.5 326.67Z" fill="#FED81D"/>
<path d="M168.53 289.27C168.53 289.27 123.9 290.56 108.61 290.75C98.43 290.87 82.19 289.18 67.61 292.38" stroke="#F7AD2B" stroke-width="0.75" stroke-linecap="round" stroke-linejoin="round"/>
<path d="M127.93 336.27C102.62 341.34 73.28 346.37 61.82 345.5C45.82 344.29 38.4 327.93 40.94 314.5C41.7518 309.606 44.1729 305.123 47.82 301.76C50.4525 299.456 53.4027 297.543 56.58 296.08C55.4597 299.168 54.0536 302.144 52.38 304.97C41.29 323.88 64.13 337.49 82.96 328.38C83.7159 328.027 84.4535 327.637 85.17 327.21C100.71 317.95 120.85 330.96 127.93 336.27Z" fill="#FCC71F"/>
<path d="M169.14 327.13C164.3 328.44 147.3 332.35 127.93 336.23C102.62 341.3 73.2799 346.33 61.8199 345.46" stroke="#F7AD2B" stroke-width="0.75" stroke-linecap="round" stroke-linejoin="round"/>
</g>
<defs>
<clipPath id="clip0_106_3706">
<rect width="603" height="366" fill="white"/>
</clipPath>
</defs>
</svg>
