<svg width="735" height="476" viewBox="0 0 735 476" fill="none" xmlns="http://www.w3.org/2000/svg">
<g clip-path="url(#clip0_117_4000)">
<path d="M262.93 413V416.16L322.36 424.16L396.61 438.63C396.61 438.63 400.61 435.37 393.1 429.71C385.59 424.05 344.02 416.78 322.9 420.8C322.9 420.74 301.43 405.49 262.93 413Z" fill="#E0B9B9" stroke="#E0B9B9" stroke-linecap="round" stroke-linejoin="round"/>
<path d="M256.14 413.9C256.14 413.9 302.78 411.65 316.94 423.02C322.94 427.82 327.48 424.18 334.29 424.02C341.1 423.86 377.87 419.75 398.29 440.14L436.09 409.79C436.09 409.79 413.46 385.07 373.36 399.86C373.36 399.86 361.36 385.33 317.96 392.66C317.58 393.2 256.14 413.9 256.14 413.9Z" fill="#F9F9F9" stroke="#E0B9B9" stroke-linecap="round" stroke-linejoin="round"/>
<path d="M373.37 399.89L321.31 420.74" stroke="#E0B9B9" stroke-linecap="round" stroke-linejoin="round"/>
<path d="M696.08 119.87V416.64C644.85 401.73 576.08 391.99 501.08 386.23V119.87H696.08Z" fill="#F9F9F9" stroke="#E0B9B9" stroke-linecap="round" stroke-linejoin="round"/>
<path d="M696.08 200.98H681.83V251.56" stroke="#E0B9B9" stroke-linecap="round" stroke-linejoin="round"/>
<path d="M601.7 248.28V197.83L588.98 198.58V250.48" stroke="#E0B9B9" stroke-linecap="round" stroke-linejoin="round"/>
<path d="M575.17 253.93V202.28L588.98 201.77" stroke="#E0B9B9" stroke-linecap="round" stroke-linejoin="round"/>
<path d="M564.46 253.93L563.73 207.52H575.17V253.93" fill="#E0B9B9"/>
<path d="M564.46 253.93L563.73 207.52H575.17V253.93" stroke="#E0B9B9" stroke-linecap="round" stroke-linejoin="round"/>
<path d="M514.49 253.93L501.05 208.71L511.46 206.29" stroke="#E0B9B9" stroke-width="0.75" stroke-linecap="round" stroke-linejoin="round"/>
<path d="M525.23 253.73C525.11 253.93 509.98 201.13 509.98 201.13L522.23 200.25L538.5 253.93" fill="#E0B9B9"/>
<path d="M525.23 253.73C525.11 253.93 509.98 201.13 509.98 201.13L522.23 200.25L538.5 253.93" stroke="#E0B9B9" stroke-linecap="round" stroke-linejoin="round"/>
<path d="M526.46 214.19L542.05 212.42L559.82 253.93" stroke="#E0B9B9" stroke-width="0.75" stroke-linecap="round" stroke-linejoin="round"/>
<path d="M572.48 178.63C572.62 178.63 585.93 128.33 585.93 128.33L594.93 129.59L582.34 178.59" fill="#E0B9B9"/>
<path d="M572.48 178.63C572.62 178.63 585.93 128.33 585.93 128.33L594.93 129.59L582.34 178.59" stroke="#E0B9B9" stroke-miterlimit="10"/>
<path d="M596.91 177.41L596.54 124.79H612.35L611.64 175.53" fill="#F9F9F9"/>
<path d="M596.91 177.41L596.54 124.79H612.35L611.64 175.53" stroke="#E0B9B9" stroke-width="0.75" stroke-linecap="round" stroke-linejoin="round"/>
<path d="M612.3 128.33H630.57L629.29 176.05" fill="#F9F9F9"/>
<path d="M612.3 128.33H630.57L629.29 176.05" stroke="#E0B9B9" stroke-width="0.75" stroke-linecap="round" stroke-linejoin="round"/>
<path d="M671.06 123.68L684.12 124.79L669.72 178.63L658.98 174.93L671.06 123.68Z" stroke="#E0B9B9" stroke-linecap="round" stroke-linejoin="round"/>
<path d="M683.17 178.12L696.08 130.89L683.17 128.33L669.72 178.63" fill="#E0B9B9"/>
<path d="M683.17 178.12L696.08 130.89L683.17 128.33L669.72 178.63" stroke="#E0B9B9" stroke-linecap="round" stroke-linejoin="round"/>
<path d="M558 165.04H565.43V178.63" stroke="#E0B9B9" stroke-linecap="round" stroke-linejoin="round"/>
<path d="M513.07 165.98L513.4 178.63" stroke="#E0B9B9" stroke-linecap="round" stroke-linejoin="round"/>
<path d="M567.44 147.93H513.4V156.56H567.44V147.93Z" stroke="#E0B9B9" stroke-linecap="round" stroke-linejoin="round"/>
<path d="M513.4 156.56H506.55V166.11L558 165.04V156.56" fill="#E0B9B9"/>
<path d="M513.4 156.56H506.55V166.11L558 165.04V156.56" stroke="#E0B9B9" stroke-linecap="round" stroke-linejoin="round"/>
<path d="M696.08 178.63H501.05V191.85H696.08V178.63Z" stroke="#E0B9B9" stroke-linecap="round" stroke-linejoin="round"/>
<path d="M696.08 253.93H501.05V267.15H696.08V253.93Z" stroke="#E0B9B9" stroke-linecap="round" stroke-linejoin="round"/>
<path d="M710.42 102.46V421.1C705.807 419.56 701.027 418.073 696.08 416.64C644.85 401.73 576.08 391.99 501.08 386.23C496.333 385.857 491.553 385.507 486.74 385.18V102.46H710.42Z" stroke="#E0B9B9" stroke-width="2" stroke-linecap="round" stroke-linejoin="round"/>
<path d="M1 401.847C17.5474 397.738 41.3585 393.929 70.4041 390.654C81.7834 389.367 94.0256 388.162 106.941 387.046C111.999 386.618 117.151 386.196 122.398 385.78C126.109 385.499 129.87 385.224 133.682 384.956C144.48 384.186 155.632 383.479 167.138 382.836C219.966 379.912 279.413 378.485 339.78 379.169C343.535 379.209 347.297 379.262 351.065 379.329C358.651 379.437 366.212 379.587 373.747 379.782C381.555 379.983 389.356 380.214 397.151 380.475C424.328 381.409 451.326 382.806 477.602 384.745C482.16 385.074 486.693 385.425 491.201 385.8L494.349 386.062C518.928 388.071 542.711 390.623 565.412 393.688C602.755 398.712 636.973 402.361 666 410.5C669.49 411.485 675.656 412.317 679 413.342C683.691 414.789 695.625 415.959 700 417.5C716.121 423.197 722.82 423.896 734 431" stroke="#E0B9B9" stroke-width="2" stroke-linecap="round" stroke-linejoin="round"/>
<path d="M341.37 45.2799V379.63C263.88 378.81 187.8 381.1 124.03 385.39V45.2799H341.37Z" fill="#F9F9F9" stroke="#E0B9B9" stroke-linecap="round" stroke-linejoin="round"/>
<path d="M271.95 359.19L288.48 308.8L298.03 309.74L283.51 359.1" stroke="#E0B9B9" stroke-linecap="round" stroke-linejoin="round"/>
<path d="M296.56 359.1L313.34 297.72H301.66L298.03 309.74" stroke="#E0B9B9" stroke-linecap="round" stroke-linejoin="round"/>
<path d="M308.06 359.1L320.36 307.45L310.84 306.86L296.56 359.1" fill="#E0B9B9"/>
<path d="M308.06 359.1L320.36 307.45L310.84 306.86L296.56 359.1" stroke="#E0B9B9" stroke-linecap="round" stroke-linejoin="round"/>
<path d="M341.37 296.12C341.37 296.36 322.59 296.12 322.59 296.12L323.28 358.6" stroke="#E0B9B9" stroke-linecap="round" stroke-linejoin="round"/>
<path d="M265.36 226.7H279.63L291.06 274.95H278.24" fill="#E0B9B9"/>
<path d="M265.36 226.7H279.63L291.06 274.95H278.24" stroke="#E0B9B9" stroke-linecap="round" stroke-linejoin="round"/>
<path d="M302.49 221.69H291.06C291.06 221.69 292 275 293 275H304" fill="#F9F9F9"/>
<path d="M302.49 221.69H291.06C291.06 221.69 292 275 293 275H304" stroke="#E0B9B9" stroke-linecap="round" stroke-linejoin="round"/>
<path d="M304 275C303.31 274.16 302.47 212.74 302.47 212.74H316.22V275" fill="#F9F9F9"/>
<path d="M304 275C303.31 274.16 302.47 212.74 302.47 212.74H316.22V275" stroke="#E0B9B9" stroke-linecap="round" stroke-linejoin="round"/>
<path d="M326 275L340 222.81L330 219.37C330 219.37 316.19 266.77 316.19 267.16V275" fill="#E0B9B9"/>
<path d="M326 275L340 222.81L330 219.37C330 219.37 316.19 266.77 316.19 267.16V275" stroke="#E0B9B9" stroke-linecap="round" stroke-linejoin="round"/>
<path d="M267.4 274.95L252.47 220.18L263.55 218.38L278.24 274.95" fill="#F9F9F9"/>
<path d="M267.4 274.95L252.47 220.18L263.55 218.38L278.24 274.95" stroke="#E0B9B9" stroke-linecap="round" stroke-linejoin="round"/>
<path d="M204.52 248.84L199.98 248.5V253.64" stroke="#E0B9B9" stroke-linecap="round" stroke-linejoin="round"/>
<path d="M251.02 251.07L250.61 259.21" stroke="#E0B9B9" stroke-linecap="round" stroke-linejoin="round"/>
<path d="M207.1 238.45L205.94 229.1H251.53V238.45" stroke="#E0B9B9" stroke-linecap="round" stroke-linejoin="round"/>
<path d="M204.52 248.84L203.77 238.45H254.95L255.54 251.17L204.52 248.84Z" fill="#E0B9B9" stroke="#E0B9B9" stroke-miterlimit="10"/>
<path d="M203.77 257.94L253.42 259.21V274.95" stroke="#E0B9B9" stroke-linecap="round" stroke-linejoin="round"/>
<path d="M217.13 158.92H156.64V168.61H217.13V158.92Z" stroke="#E0B9B9" stroke-width="0.75" stroke-linecap="round" stroke-linejoin="round"/>
<path d="M214.33 190.59C214.83 191.51 214.33 177.11 214.33 177.11L165.11 176.44V190.79" stroke="#E0B9B9" stroke-width="0.75" stroke-linecap="round" stroke-linejoin="round"/>
<path d="M211.37 168.61V177.07" stroke="#E0B9B9" stroke-width="0.75" stroke-linecap="round" stroke-linejoin="round"/>
<path d="M222.69 190.87L224.78 124.31L240.35 125.21L239.01 190.8" fill="#E0B9B9"/>
<path d="M222.69 190.87L224.78 124.31L240.35 125.21L239.01 190.8" stroke="#E0B9B9" stroke-linecap="round" stroke-linejoin="round"/>
<path d="M240.27 129.06H253.25L252.07 190.8" stroke="#E0B9B9" stroke-width="0.75" stroke-linecap="round" stroke-linejoin="round"/>
<path d="M168.53 169.27L169.03 176.49" stroke="#E0B9B9" stroke-width="0.75" stroke-linecap="round" stroke-linejoin="round"/>
<path d="M124.03 135.41H138.05L140.52 190.87" stroke="#E0B9B9" stroke-linecap="round" stroke-linejoin="round"/>
<path d="M152.19 190.59L150.56 139.85L138.22 139.19" stroke="#E0B9B9" stroke-linecap="round" stroke-linejoin="round"/>
<path d="M253.25 190.8L267.06 133.74L281.56 137.06" stroke="#E0B9B9" stroke-linecap="round" stroke-linejoin="round"/>
<path d="M266.79 190.8L283.54 129.06L297.88 134.68L283.15 190.8" stroke="#E0B9B9" stroke-linecap="round" stroke-linejoin="round"/>
<path d="M318.13 190.87L317.27 124.31L297.96 123.58V190.87" stroke="#E0B9B9" stroke-linecap="round" stroke-linejoin="round"/>
<path d="M334.67 190.87L333.66 129.72H317.27L318.68 190.87" fill="#E0B9B9"/>
<path d="M334.67 190.87L333.66 129.72H317.27L318.68 190.87" stroke="#E0B9B9" stroke-linecap="round" stroke-linejoin="round"/>
<path d="M341.37 190.79H124.02V204.02H341.37V190.79Z" stroke="#E0B9B9" stroke-linecap="round" stroke-linejoin="round"/>
<path d="M341.37 274.95H124.02V288.17H341.37V274.95Z" stroke="#E0B9B9" stroke-linecap="round" stroke-linejoin="round"/>
<path d="M341.37 359.1H124.02V372.33H341.37V359.1Z" stroke="#E0B9B9" stroke-width="2" stroke-linecap="round" stroke-linejoin="round"/>
<path d="M353.27 28.4199V379.79C349.27 379.723 345.303 379.67 341.37 379.63C263.88 378.81 187.8 381.1 124.03 385.39C120.03 385.65 116.063 385.923 112.13 386.21V28.4199H353.27Z" stroke="#E0B9B9" stroke-width="2" stroke-linecap="round" stroke-linejoin="round"/>
<path d="M258.82 52.14L256.6 59.1L241.43 106.65H232.15L250.26 49.84L258.82 52.14Z" stroke="#E0B9B9" stroke-width="0.75" stroke-linecap="round" stroke-linejoin="round"/>
<path d="M256.61 59.1L269.57 62.54L256.14 106.65" stroke="#E0B9B9" stroke-width="0.75" stroke-linecap="round" stroke-linejoin="round"/>
<path d="M269.88 45.2899L268.78 106.64" stroke="#E0B9B9" stroke-width="0.75" stroke-linecap="round" stroke-linejoin="round"/>
<path d="M274.66 50.21H287.79" stroke="#E0B9B9" stroke-width="0.75" stroke-linecap="round" stroke-linejoin="round"/>
<path d="M291.68 45.2899V106.64" stroke="#E0B9B9" stroke-width="0.75" stroke-linecap="round" stroke-linejoin="round"/>
<path d="M291.68 77.77L300.48 106.64" stroke="#E0B9B9" stroke-width="0.75" stroke-linecap="round" stroke-linejoin="round"/>
<path d="M308.46 106.64L317.27 102.95L299.38 56.83L291.68 59.1" stroke="#E0B9B9" stroke-width="0.75" stroke-linecap="round" stroke-linejoin="round"/>
<path d="M315.64 103.63L316.73 106.64H320.52L327.01 103.36L315.48 63.62L303.23 66.76" stroke="#E0B9B9" stroke-width="0.75" stroke-linecap="round" stroke-linejoin="round"/>
<path d="M341.37 106.64H124.02V119.86H341.37V106.64Z" stroke="#E0B9B9" stroke-linecap="round" stroke-linejoin="round"/>
<path d="M147.81 106.65H137.71L124.03 62.56L134.92 59.1L147.91 100.82" stroke="#E0B9B9" stroke-linecap="round" stroke-linejoin="round"/>
<path d="M161.73 106.65H147.81L147.91 100.82L148.78 51.1499H160.72L161.01 66.5399L161.77 106.65" stroke="#E0B9B9" stroke-linecap="round" stroke-linejoin="round"/>
<path d="M190.22 106.65H174.36L173.65 63.1L173.44 50.28L187.39 49.84C187.39 49.84 187.52 52.43 187.72 56.57C188.32 69 189.61 95.25 190.22 106.65Z" stroke="#E0B9B9" stroke-linecap="round" stroke-linejoin="round"/>
<path d="M161.73 106.65L161.01 66.54L160.9 60.1L173.65 63.1H173.66L174.36 106.65H161.77" fill="#E0B9B9"/>
<path d="M161.73 106.65L161.01 66.54L160.9 60.1L173.65 63.1H173.66L174.36 106.65H161.77" stroke="#E0B9B9" stroke-linecap="round" stroke-linejoin="round"/>
<path d="M190.22 106.65H204.07L202.85 59.0999L202.79 56.5699H187.72L190.22 106.65Z" fill="#E0B9B9" stroke="#E0B9B9" stroke-linecap="round" stroke-linejoin="round"/>
<path d="M202.85 59.1H218.08L218.55 106.65H204.07" stroke="#E0B9B9" stroke-linecap="round" stroke-linejoin="round"/>
<path d="M499.73 451.52L571.91 424L643.54 432C643.54 432 648.45 433.72 646.13 439.77L575.27 475L499.73 451.52Z" fill="#F9F9F9" stroke="#E0B9B9" stroke-linecap="round" stroke-linejoin="round"/>
<path d="M576.12 465.65C576.12 465.65 622.93 443.84 643.54 432.04L576.12 465.65Z" fill="#F9F9F9"/>
<path d="M576.12 465.65C576.12 465.65 622.93 443.84 643.54 432.04" stroke="#E0B9B9" stroke-linecap="round" stroke-linejoin="round"/>
<path d="M499.73 451.52C499.73 451.52 571.91 462.14 576.12 465.65C578.04 467.25 578.21 475.49 574.01 474.95C569.81 474.41 499.73 463.86 499.73 463.86C499.73 463.86 510 459.18 499.73 451.52Z" fill="#E0B9B9" stroke="#E0B9B9" stroke-linecap="round" stroke-linejoin="round"/>
<path d="M595.164 76.4982C614.293 72.5958 626.637 53.925 622.735 34.7957C618.832 15.6664 600.161 3.32253 581.032 7.22486C561.903 11.1272 549.559 29.798 553.461 48.9273C557.364 68.0566 576.034 80.4005 595.164 76.4982Z" stroke="#E0B9B9" stroke-width="2" stroke-linecap="round" stroke-linejoin="round"/>
<path d="M605.21 51.77L592.27 42.47C592.305 42.2617 592.325 42.0511 592.33 41.84C592.328 41.0741 592.117 40.3233 591.721 39.668C591.325 39.0126 590.757 38.4775 590.08 38.12C589.85 33.29 589.43 24.46 589.03 16.18C588.95 14.47 587.31 14.48 587.24 16.18L586.24 38.02C585.391 38.4413 584.708 39.1361 584.302 39.9926C583.896 40.8491 583.791 41.8173 584.002 42.7413C584.213 43.6652 584.73 44.4911 585.468 45.0859C586.206 45.6807 587.122 46.0097 588.07 46.02C588.959 46.0201 589.824 45.7363 590.54 45.21L604.2 53.21C605.71 54.16 606.61 52.77 605.21 51.77Z" fill="#E0B9B9" stroke="#E0B9B9" stroke-miterlimit="10"/>
<path d="M232.26 418.18L330 436.6C330 436.6 323.3 447.51 332 450.72L261.45 470C261.45 470 171.34 449.31 168.09 447.89C164.84 446.47 161.33 439.68 169.45 437.04C177.57 434.4 232.26 418.18 232.26 418.18Z" fill="#F9F9F9" stroke="#E0B9B9" stroke-linecap="round" stroke-linejoin="round"/>
<path d="M261.45 470C257.8 469.57 255.38 461.69 262.71 459C269.77 456.4 329.96 436.64 329.96 436.64" fill="#F9F9F9"/>
<path d="M261.45 470C257.8 469.57 255.38 461.69 262.71 459C269.77 456.4 329.96 436.64 329.96 436.64" stroke="#E0B9B9" stroke-linecap="round" stroke-linejoin="round"/>
<path d="M181.42 442.32L247.15 457.99" stroke="#E0B9B9" stroke-linecap="round" stroke-linejoin="round"/>
<path d="M41.93 446.66C52.33 444.25 50.46 440.95 47.74 434.57C45.02 428.19 36.74 421.93 23.83 424.65C10.92 427.37 10.92 439.73 21 443.26C31.08 446.79 36.66 447.88 41.93 446.66Z" fill="#F9F9F9" stroke="#E0B9B9" stroke-linecap="round" stroke-linejoin="round"/>
<path d="M44.29 437.47C45.52 439.816 46.5245 442.274 47.29 444.81L44.29 437.47Z" fill="#F9F9F9"/>
<path d="M44.29 437.47C45.52 439.816 46.5245 442.274 47.29 444.81" stroke="#E0B9B9" stroke-linecap="round" stroke-linejoin="round"/>
<path d="M39.68 433.87C40.5947 435.269 41.6357 436.581 42.79 437.79C44.11 439.1 45.52 438.58 45.26 437.19C44.7719 434.999 43.7402 432.967 42.26 431.28C41.9057 431 41.4609 430.86 41.0103 430.887C40.5596 430.914 40.1345 431.105 39.8158 431.425C39.4972 431.745 39.3073 432.171 39.2823 432.622C39.2572 433.072 39.3988 433.517 39.68 433.87Z" fill="#F9F9F9" stroke="#E0B9B9" stroke-linecap="round" stroke-linejoin="round"/>
<path d="M494.66 14V58.6823C494.148 58.8175 493.731 58.995 493.442 59.2005C493.154 59.4059 493.002 59.6334 493 59.8644V61.0831C493.002 61.3141 493.154 61.5417 493.442 61.7471C493.731 61.9526 494.148 62.1301 494.66 62.2653V64H499.35V62.2653C499.86 62.1297 500.275 61.952 500.562 61.7466C500.849 61.5412 500.999 61.3138 501 61.0831V59.8644C500.999 59.6338 500.849 59.4064 500.562 59.201C500.275 58.9956 499.86 58.8179 499.35 58.6823V14" fill="#E0B9B9"/>
<path d="M494.66 14V58.6823C494.148 58.8175 493.731 58.995 493.442 59.2005C493.154 59.4059 493.002 59.6334 493 59.8644V61.0831C493.002 61.3141 493.154 61.5417 493.442 61.7471C493.731 61.9526 494.148 62.1301 494.66 62.2653V64H499.35V62.2653C499.86 62.1297 500.275 61.952 500.562 61.7466C500.849 61.5412 500.999 61.3138 501 61.0831V59.8644C500.999 59.6338 500.849 59.4064 500.562 59.201C500.275 58.9956 499.86 58.8179 499.35 58.6823V14" stroke="#E0B9B9" stroke-width="2" stroke-linecap="round" stroke-linejoin="round"/>
<path d="M291.65 21V59.4268C291.14 59.5434 290.725 59.6962 290.438 59.8729C290.151 60.0495 290.001 60.245 290 60.4434V61.4915C290.001 61.6899 290.151 61.8854 290.438 62.0621C290.725 62.2387 291.14 62.3916 291.65 62.5081V64H296.34V62.5081C296.852 62.3919 297.269 62.2392 297.558 62.0625C297.846 61.8858 297.998 61.6902 298 61.4915V60.4434C297.998 60.2448 297.846 60.0491 297.558 59.8724C297.269 59.6957 296.852 59.543 296.34 59.4268V21" fill="#E0B9B9"/>
<path d="M291.65 21V59.4268C291.14 59.5434 290.725 59.6962 290.438 59.8729C290.151 60.0495 290.001 60.245 290 60.4434V61.4915C290.001 61.6899 290.151 61.8854 290.438 62.0621C290.725 62.2387 291.14 62.3916 291.65 62.5081V64H296.34V62.5081C296.852 62.3919 297.269 62.2392 297.558 62.0625C297.846 61.8858 297.998 61.6902 298 61.4915V60.4434C297.998 60.2448 297.846 60.0491 297.558 59.8724C297.269 59.6957 296.852 59.543 296.34 59.4268V21" stroke="#E0B9B9" stroke-width="2" stroke-linecap="round" stroke-linejoin="round"/>
<path d="M508.71 53.5599H281.56V67.7199H508.71V53.5599Z" fill="#E0B9B9" stroke="#E0B9B9" stroke-width="2" stroke-linecap="round" stroke-linejoin="round"/>
<path d="M511.79 57.21H508.71V64.08H511.79V57.21Z" fill="#F9F9F9" stroke="#E0B9B9" stroke-linecap="round" stroke-linejoin="round"/>
<path d="M498.96 67.72H291.3C289.505 67.72 288.05 69.175 288.05 70.97V71.17C288.05 72.9649 289.505 74.42 291.3 74.42H498.96C500.755 74.42 502.21 72.9649 502.21 71.17V70.97C502.21 69.175 500.755 67.72 498.96 67.72Z" fill="#F9F9F9" stroke="#E0B9B9" stroke-linecap="round" stroke-linejoin="round"/>
<path d="M483.24 439.37L554.31 411.15L624.84 418.42C624.84 418.42 629.62 423.98 626.37 430.3L557.62 462.06L483.24 439.37Z" fill="#F9F9F9" stroke="#E0B9B9" stroke-linecap="round" stroke-linejoin="round"/>
<path d="M558.46 452.72C558.46 452.72 615.8 426.51 624.84 418.42L558.46 452.72Z" fill="#F9F9F9"/>
<path d="M558.46 452.72C558.46 452.72 615.8 426.51 624.84 418.42" stroke="#E0B9B9" stroke-linecap="round" stroke-linejoin="round"/>
<path d="M483.24 439.37C483.24 439.37 554.31 449.25 558.46 452.72C560.34 454.3 560.52 462.54 556.37 462.04C552.22 461.54 483.24 451.71 483.24 451.71C483.24 451.71 493.31 446.93 483.24 439.37Z" fill="#F9F9F9" stroke="#E0B9B9" stroke-linecap="round" stroke-linejoin="round"/>
<path d="M233.35 324C241.9 334.75 262.97 378 246.54 390.67C223.82 408.19 197.54 359.77 192.72 345.67L233.35 324Z" fill="#FEBD9D"/>
<path d="M235.73 322.21C235.73 322.21 232.53 324.68 227.45 328.09C218.23 334.28 202.82 343.54 189.16 346.58C189.16 346.58 187.75 343.76 185.6 339.51L180.8 330C177.91 324.25 174.7 317.87 171.96 312.4L168.77 306C168.18 304.82 167.65 303.75 167.2 302.82C159.2 286.61 150.25 248.42 176.53 245.88C178.776 245.647 181.037 245.6 183.29 245.74H183.4C184.02 245.79 184.62 245.85 185.21 245.93L185.71 246L186.59 246.16C186.94 246.22 187.29 246.3 187.59 246.38C187.89 246.46 188.13 246.51 188.39 246.59L188.76 246.68L189.52 246.93C189.761 247.003 189.998 247.09 190.23 247.19C190.473 247.262 190.71 247.353 190.94 247.46C191.216 247.565 191.486 247.686 191.75 247.82C191.992 247.921 192.229 248.035 192.46 248.16C192.773 248.307 193.073 248.467 193.36 248.64C193.62 248.78 193.87 248.93 194.11 249.08L194.73 249.49C195.459 249.974 196.16 250.498 196.83 251.06C197.12 251.3 197.4 251.53 197.67 251.79C198.58 252.616 199.445 253.49 200.26 254.41C200.53 254.72 200.81 255.04 201.08 255.41C201.35 255.78 201.5 255.92 201.71 256.18C202.05 256.6 202.39 257.04 202.71 257.5C202.94 257.79 203.16 258.1 203.38 258.41C203.72 258.88 204.06 259.41 204.38 259.87C204.7 260.33 204.91 260.64 205.17 261.06L205.99 262.36C206.27 262.8 206.54 263.25 206.82 263.72C207.46 264.77 208.09 265.88 208.73 267.03C208.93 267.41 209.15 267.8 209.36 268.19C209.57 268.58 209.93 269.25 210.22 269.8C210.51 270.35 210.78 270.8 211.05 271.38C211.32 271.96 211.68 272.59 212 273.22C212.66 274.52 213.32 275.83 214 277.15C221.54 292.22 229.24 308.52 233.09 316.77C234.79 320.17 235.73 322.21 235.73 322.21Z" fill="#FED81D"/>
<path d="M214.1 277.14C206.739 277.399 199.772 280.529 194.69 285.86C193.984 286.599 193.317 287.373 192.69 288.18C186.334 296.028 178.109 302.156 168.77 306C168.18 304.82 167.65 303.75 167.2 302.82C159.2 286.61 150.25 248.42 176.53 245.88C178.776 245.647 181.037 245.6 183.29 245.74H183.4C184.02 245.79 184.62 245.85 185.21 245.93L185.71 246L186.59 246.16C186.94 246.22 187.29 246.3 187.59 246.38C187.89 246.46 188.13 246.51 188.39 246.59L188.76 246.68L189.52 246.93C189.761 247.003 189.998 247.09 190.23 247.19C190.473 247.262 190.71 247.353 190.94 247.46C191.216 247.565 191.486 247.686 191.75 247.82C191.992 247.921 192.229 248.035 192.46 248.16C192.773 248.307 193.073 248.467 193.36 248.64C193.62 248.78 193.87 248.93 194.11 249.08L194.73 249.49C195.459 249.974 196.16 250.498 196.83 251.06C197.12 251.3 197.4 251.53 197.67 251.79C198.58 252.616 199.445 253.49 200.26 254.41C200.53 254.72 200.81 255.04 201.08 255.41C201.35 255.78 201.5 255.92 201.71 256.18C202.05 256.6 202.39 257.04 202.71 257.5C202.94 257.79 203.16 258.1 203.38 258.41C203.72 258.88 204.06 259.41 204.38 259.87C204.7 260.33 204.91 260.64 205.17 261.06L205.99 262.36C206.27 262.8 206.54 263.25 206.82 263.72C207.46 264.77 208.09 265.88 208.73 267.03C208.93 267.41 209.15 267.8 209.36 268.19C209.57 268.58 209.93 269.25 210.22 269.8C210.51 270.35 210.78 270.8 211.05 271.38C211.32 271.96 211.68 272.59 212 273.22C212.79 274.51 213.45 275.82 214.1 277.14Z" fill="#FFE05C"/>
<path d="M227.45 328.09C218.23 334.28 202.82 343.54 189.16 346.58C189.16 346.58 187.75 343.76 185.6 339.51L180.8 330C177.91 324.25 174.7 317.87 171.96 312.4L187.58 297.21C188.19 296.98 200.14 297.59 196.45 307.61C192.76 317.63 186.25 324.34 191.56 328.41C196.87 332.48 212.21 299.66 225.74 323.97C226.477 325.268 227.051 326.652 227.45 328.09Z" fill="#FCC71F"/>
<path d="M196.38 270.43C196.38 270.96 196.38 271.5 196.3 272.06C196.13 274.85 195.82 277.98 195.4 281.5C195.25 282.83 195.01 284.28 194.69 285.86C194.32 287.77 193.84 289.86 193.29 292.05C191.54 298.93 188.95 307.14 185.9 315.9C185.54 316.9 185.17 318 184.79 319.05C184.12 320.96 183.42 322.88 182.72 324.81C182.093 326.53 181.453 328.26 180.8 330C173.32 350 164.71 370.64 159.31 383.28C147.19 383.913 135.43 384.617 124.03 385.39C120.03 385.65 116.063 385.923 112.13 386.21C106.59 386.623 101.157 387.043 95.83 387.47C82.21 388.58 69.33 389.78 57.3 391.06C59.49 380.29 65.42 351.76 72.39 321.96C76.23 305.56 80.39 288.77 84.39 274.35C87.22 264.2 89.99 255.23 92.52 248.35C95.16 241.26 97.5201 236.43 99.5201 234.9C106.46 229.6 112.44 227.9 119.93 228.82C120.75 228.93 121.58 229.06 122.44 229.22C123.3 229.38 124.17 229.58 125.07 229.8C125.4 229.87 125.73 229.96 126.07 230.05C126.41 230.14 126.78 230.25 127.14 230.35L128.27 230.67C130.05 231.203 131.94 231.827 133.94 232.54L135.18 232.98C136.18 233.34 137.18 233.72 138.26 234.13C140.26 234.88 142.38 235.72 144.64 236.61C150.29 238.86 157.73 241.88 173.5 245.2C174.55 245.41 175.56 245.64 176.5 245.86L177.34 246.05L178.15 246.25C178.55 246.34 178.96 246.45 179.34 246.55C179.72 246.65 180.11 246.75 180.48 246.85C181.23 247.05 181.95 247.25 182.64 247.47C183.75 247.82 184.79 248.18 185.76 248.57L186.67 248.95C187.25 249.22 187.8 249.49 188.31 249.77L188.99 250.15C190.042 250.767 191.016 251.509 191.89 252.36L192.06 252.53L192.3 252.79L192.62 253.15C192.936 253.524 193.233 253.915 193.51 254.32C193.66 254.55 193.8 254.77 193.94 255.02C194.08 255.27 194.16 255.4 194.26 255.61L194.4 255.89C195.212 257.631 195.751 259.485 196 261.39C196 261.64 196.07 261.89 196.11 262.16C196.15 262.43 196.11 262.49 196.17 262.67C196.23 262.85 196.23 263.24 196.25 263.53C196.27 263.82 196.3 264.17 196.31 264.53V264.96C196.31 265.31 196.31 265.67 196.31 266.04C196.47 267.39 196.45 268.85 196.38 270.43Z" fill="#FED81D"/>
<path d="M159.31 383.28C164.71 370.64 173.31 350.03 180.8 330C181.467 328.26 182.107 326.53 182.72 324.81C183.42 322.88 184.12 320.96 184.79 319.05C185.17 318 185.54 316.94 185.9 315.9C188.9 307.14 191.54 298.9 193.29 292.05" stroke="#F7AD2B" stroke-width="0.75" stroke-linecap="round" stroke-linejoin="round"/>
<path d="M195.4 281.5C195.25 282.83 195.01 284.28 194.69 285.86C193.984 286.599 193.317 287.373 192.69 288.18C186.334 296.028 178.109 302.156 168.77 306C154.29 311.73 137.36 310.31 126.42 287.9C124.49 283.9 122.6 280.32 120.77 277.03C110.93 259.46 102.18 251.03 92.54 248.37C95.18 241.28 97.54 236.45 99.54 234.92C106.48 229.62 112.46 227.92 119.95 228.84C120.77 228.95 121.6 229.08 122.46 229.24C123.32 229.4 124.19 229.6 125.09 229.82C125.42 229.89 125.75 229.98 126.09 230.07C126.43 230.16 126.8 230.27 127.16 230.37L128.29 230.69C130.07 231.223 131.96 231.847 133.96 232.56L135.2 233C136.2 233.36 137.2 233.74 138.28 234.15C139.11 234.47 139.98 234.79 140.86 235.15C141.45 235.37 142.03 235.6 142.64 235.85L144.64 236.64C150.29 238.89 157.73 241.91 173.5 245.23C174.55 245.44 175.56 245.67 176.5 245.89C195 250.09 198.63 254.71 195.4 281.5Z" fill="#FFE05C"/>
<path d="M183.32 245.74C180.11 255.64 172.09 265.89 159.84 264.03C146.47 262.03 138.23 248.22 138.29 234.15C140.29 234.9 142.41 235.74 144.67 236.63C150.32 238.88 157.76 241.9 173.53 245.22C174.58 245.43 175.59 245.66 176.53 245.88C178.786 245.645 181.057 245.598 183.32 245.74Z" fill="white"/>
<path d="M132.27 373.71C127 377.91 112.7 383.71 95.83 387.47C82.21 388.58 69.33 389.78 57.3 391.06C59.49 380.29 65.42 351.76 72.39 321.96C76.23 305.56 80.39 288.77 84.39 274.35C113.83 278.49 121.68 309.66 108.31 320.2C93.31 332.06 91.66 341.91 110.65 341.65C129.64 341.39 147.11 361.9 132.27 373.71Z" fill="#FCC71F"/>
<path d="M179.21 207.8C179.07 209.22 178.92 210.57 178.79 211.86C177.61 223.4 177.08 230.49 177 237C177 240.44 177 243.72 177.24 247.41C177.24 247.41 172.56 262.77 155.89 256.41C144.13 251.91 144.67 236.66 144.67 236.66C148.11 225.752 150.399 214.514 151.5 203.13C151.9 197.42 181.37 187.14 179.21 207.8Z" fill="#FEBD9D"/>
<path d="M178.79 211.86C177.61 223.4 177.08 230.49 177 237C167.44 239.9 157.48 228.73 163 216.47C167 207.78 174.16 209.5 178.79 211.86Z" fill="#F4A789"/>
<path d="M235.73 322.21C235.73 322.21 210.33 341.86 189.16 346.58C189.16 346.58 187.75 343.76 185.6 339.51C203 333.51 221.22 324.76 233.19 316.76C234.79 320.17 235.73 322.21 235.73 322.21Z" fill="white"/>
<path d="M185.74 223.13C180.14 230.42 170.19 228.72 154.68 212.98C148.81 206.98 142.04 197.31 142.22 189.66C142.4 182.01 151.66 165.9 169.22 175.15C176 178.73 180.85 185.63 183.93 193.15C185.094 196.026 186.021 198.992 186.7 202.02C188.75 211.19 188.34 219.74 185.74 223.13Z" fill="#FEBD9D"/>
<path d="M166.54 201.49C165.59 203.86 161.68 204.54 157.8 203C153.92 201.46 151.53 198.28 152.48 195.91C153.43 193.54 157.33 192.85 161.22 194.39C165.11 195.93 167.48 199.11 166.54 201.49Z" fill="#F4AF90"/>
<path d="M186.67 202C184.23 202.9 181.9 202.65 180.82 201.2C179.33 199.2 180.71 195.63 183.9 193.13C185.064 196.006 185.991 198.972 186.67 202Z" fill="#F4AF90"/>
<path d="M182.71 195.28C186.587 195.28 189.73 192.137 189.73 188.26C189.73 184.383 186.587 181.24 182.71 181.24C178.833 181.24 175.69 184.383 175.69 188.26C175.69 192.137 178.833 195.28 182.71 195.28Z" stroke="#683F1D" stroke-miterlimit="10"/>
<path d="M167.07 192C167.068 192.289 167.152 192.572 167.311 192.814C167.47 193.055 167.698 193.244 167.964 193.356C168.231 193.468 168.525 193.498 168.809 193.443C169.092 193.388 169.354 193.25 169.559 193.046C169.764 192.842 169.904 192.582 169.961 192.298C170.018 192.015 169.99 191.721 169.88 191.454C169.77 191.186 169.582 190.958 169.342 190.797C169.102 190.636 168.819 190.55 168.53 190.55C168.144 190.55 167.775 190.702 167.501 190.974C167.228 191.246 167.073 191.614 167.07 192Z" fill="#683F1D"/>
<path d="M177.24 189.72C177.24 190.009 177.326 190.291 177.486 190.531C177.646 190.771 177.874 190.958 178.141 191.069C178.408 191.179 178.702 191.208 178.985 191.152C179.268 191.095 179.528 190.956 179.732 190.752C179.937 190.548 180.076 190.288 180.132 190.005C180.188 189.721 180.159 189.428 180.049 189.161C179.938 188.894 179.751 188.666 179.511 188.506C179.271 188.345 178.989 188.26 178.7 188.26C178.313 188.26 177.941 188.414 177.668 188.688C177.394 188.961 177.24 189.333 177.24 189.72Z" fill="#683F1D"/>
<path d="M156.14 211.94C152.56 214 147 214 145.08 208.3C143.16 202.6 148.63 199.74 151.73 200.3C155.55 201 157.67 206.6 156.14 211.94Z" fill="#FEBD9D"/>
<path d="M154.23 206.72C152.49 203.42 148.56 202.72 146.89 207.19" stroke="#EF8A66" stroke-width="0.75" stroke-linecap="round" stroke-linejoin="round"/>
<path d="M153.26 205.36C149.01 203.45 148.16 210.7 153.06 208.87" stroke="#EF8A66" stroke-width="0.75" stroke-linecap="round" stroke-linejoin="round"/>
<path d="M181.7 188.47C179.96 185.151 177.724 182.116 175.07 179.47C170.76 181.89 167.87 179.68 167.87 179.68C167.87 179.68 163.67 184.17 159.75 183.08C155.83 181.99 156.12 179.26 153.65 178.64C151.18 178.02 148.8 180.64 148.8 181.39C148.8 182.14 150.08 182.61 152.43 188.18C154.78 193.75 154.08 201.56 149.28 202.44C147.75 202.72 140.1 201.67 136.28 195.9C136.203 195.805 136.133 195.704 136.07 195.6C132.34 189.55 134.52 185.2 135.79 183.6C137.06 182 139.05 182.71 139.33 181.19C140.95 172.54 148.92 165.1 157.46 164.3C166 163.5 165.73 166.61 165.73 166.61C165.73 166.61 174.26 165.96 178.89 171.85C179.17 172.2 179.43 172.55 179.66 172.9C181.208 175.149 182.2 177.733 182.554 180.439C182.909 183.146 182.616 185.898 181.7 188.47Z" fill="#7F542D"/>
<path d="M181.7 188.47C179.96 185.151 177.724 182.116 175.07 179.47C170.76 181.89 167.87 179.68 167.87 179.68C167.87 179.68 163.67 184.17 159.75 183.08C155.83 181.99 156.12 179.26 153.65 178.64C151.18 178.02 148.8 180.64 148.8 181.39C148.8 182.14 150.08 182.61 152.43 188.18C154.78 193.75 154.08 201.56 149.28 202.44C147.75 202.72 140.1 201.67 136.28 195.9C146.28 194.04 146.61 188.72 144.47 180.16C143.07 174.52 153.47 169.24 159.28 172.83C162.9 175.08 172.84 174.37 179.66 172.9C181.208 175.149 182.2 177.733 182.554 180.439C182.909 183.146 182.616 185.898 181.7 188.47Z" fill="#704725"/>
<path d="M165.75 166.62C162.297 166.61 158.877 167.29 155.69 168.62" stroke="#A56F42" stroke-width="0.75" stroke-linecap="round" stroke-linejoin="round"/>
<path d="M166.83 172.7C168.41 172.98 173.39 177.27 175.07 179.48C175.07 179.48 177.86 181.48 179.21 178.64" stroke="#A56F42" stroke-width="0.75" stroke-linecap="round" stroke-linejoin="round"/>
<path d="M157.7 175.24C159.09 174.02 161.8 174.36 163.7 176.44C164.915 177.715 166.305 178.809 167.83 179.69" stroke="#A56F42" stroke-width="0.75" stroke-linecap="round" stroke-linejoin="round"/>
<path d="M171.48 185C171.03 190 172.6 192.35 174.75 192.48C176.9 192.61 179.75 193.33 179.21 196.7" stroke="#EF8A66" stroke-width="0.75" stroke-linecap="round" stroke-linejoin="round"/>
<path d="M169 203.1C171.972 203.613 174.985 203.844 178 203.79C178 203.79 177 207.63 173.29 207.19C172.232 207.055 171.245 206.585 170.474 205.849C169.702 205.113 169.185 204.15 169 203.1Z" fill="white" stroke="#EF8A66" stroke-width="0.75" stroke-linecap="round" stroke-linejoin="round"/>
<path d="M159.15 193.5C159.15 194.884 159.56 196.238 160.33 197.389C161.099 198.54 162.192 199.437 163.471 199.967C164.75 200.497 166.158 200.635 167.516 200.365C168.873 200.095 170.121 199.429 171.1 198.45C172.079 197.471 172.745 196.223 173.015 194.866C173.286 193.508 173.147 192.1 172.617 190.821C172.087 189.542 171.19 188.449 170.039 187.68C168.888 186.91 167.534 186.5 166.15 186.5C164.293 186.5 162.513 187.237 161.2 188.55C159.887 189.863 159.15 191.643 159.15 193.5Z" stroke="#683F1D" stroke-miterlimit="10"/>
<path d="M172.56 182.08C172.43 184.58 179.44 184.08 179.5 183C179.56 181.92 172.69 179.7 172.56 182.08Z" fill="#7F542D"/>
<path d="M160.84 187.94C161.56 189.38 168.44 185.66 166.84 183.06C165.24 180.46 159.85 186 160.84 187.94Z" fill="#7F542D"/>
<path d="M156.14 211.94C154.36 212.988 152.271 213.387 150.23 213.07" stroke="#EF8A66" stroke-width="0.75" stroke-linecap="round" stroke-linejoin="round"/>
<path d="M113.64 289.89C104.81 302.72 97.58 315.67 91.07 327.59C75 357 65.81 378.4 46 378.14C27.93 377.89 26 351.34 47.07 308.14L41.75 303.19C41.75 303.19 57.24 280.61 72.14 257.93C85.6 237.46 97.38 222.62 119.96 228.82C133.29 232.51 129.32 267 113.64 289.89Z" fill="#FEBD9D"/>
<path d="M120.77 277C118.779 281.489 116.393 285.793 113.64 289.86C106.64 300 100.69 310.21 95.2799 319.93C93.8299 322.51 92.4299 325.06 91.0699 327.56C84.7485 326.041 78.5129 324.185 72.3899 322C62.9999 318.51 53.5699 314 46.9999 308.15L41.6799 303.2C41.6799 303.2 43.3799 300.73 46.1799 296.62C51.8499 288.27 62.0899 273.13 72.0699 257.94C74.3699 254.43 76.6299 251.09 78.8999 247.99C89.8999 232.99 101.18 223.69 119.9 228.83C131 231.93 130.17 255.91 120.77 277Z" fill="#FED81D"/>
<path d="M95.28 320C93.83 322.58 92.43 325.13 91.07 327.63C77.23 324.21 58.07 318.03 47.07 308.19L41.75 303.24C41.75 303.24 43.45 300.77 46.25 296.66C54.46 305.57 65.46 311.24 95.28 320Z" fill="white"/>
<path d="M120.77 277C110.93 259.43 102.18 251 92.5399 248.34C88.0921 247.197 83.4446 247.067 78.9399 247.96C89.9399 232.96 101.22 223.66 119.94 228.8C131 231.93 130.17 255.91 120.77 277Z" fill="#FFE05C"/>
<path d="M120.83 276.88C118.832 281.422 116.426 285.774 113.64 289.88C104.81 302.71 97.5799 315.66 91.0699 327.58" stroke="#F7AD2B" stroke-width="0.75" stroke-linecap="round" stroke-linejoin="round"/>
<path d="M119.61 259.24C121.61 266.39 124.78 269.71 118.26 282.24" stroke="#F7AD2B" stroke-width="0.75" stroke-linecap="round" stroke-linejoin="round"/>
<path d="M34.05 358.58C41.72 340.09 69.81 339.48 103.73 351.85C137.65 364.22 174.94 376.61 180.59 378.14C186.24 379.67 185.18 398.92 170.96 397.85C156.74 396.78 102.96 401.44 71.49 395.59C40.02 389.74 29 370.67 34.05 358.58Z" fill="#FEBD9D"/>
<path d="M49.87 345.25C58.87 342.59 70.69 342.98 84.2 346.03" stroke="#EF8A66" stroke-width="0.75" stroke-linecap="round" stroke-linejoin="round"/>
<path d="M261.53 378.71C276.53 357.15 284.27 272.03 284.27 272.03C284.27 272.03 299.32 265.03 301.82 263.34C304.32 261.65 309.18 253.19 310.02 250.66C310.02 250.66 314.24 248.08 314.11 246.66C313.98 245.24 312.43 245.24 312.43 245.24C312.43 245.24 313.43 242.01 307.98 242.92C307.723 242.582 307.375 242.323 306.976 242.175C306.578 242.026 306.146 241.993 305.73 242.08C304.11 242.27 284.83 248.01 284.83 248.01C284.83 248.01 292.7 242.53 292.83 240.34C292.96 238.15 290.3 239 288.49 240.09C284.824 242.25 280.881 243.901 276.77 245C274.84 245.56 268.77 250.42 263.29 260.93C257.81 271.44 225.65 340.64 222.14 350C210.66 380.78 236.56 414.48 261.53 378.71Z" fill="#FEBD9D"/>
<path d="M233.68 323.93C228 336.49 223.35 346.81 222.14 350" stroke="#EF8A66" stroke-width="0.75" stroke-linecap="round" stroke-linejoin="round"/>
<path d="M301.82 263.34C304.33 261.66 309.18 253.19 310.02 250.66C310.02 250.66 314.24 248.08 314.11 246.66C313.98 245.24 312.43 245.24 312.43 245.24C312.43 245.24 313.43 242.01 307.98 242.92C307.723 242.582 307.375 242.323 306.976 242.175C306.578 242.026 306.146 241.993 305.73 242.08C304.11 242.27 284.83 248.01 284.83 248.01C284.83 248.01 292.7 242.53 292.83 240.34C292.96 238.15 290.3 239 288.49 240.09C284.824 242.25 280.881 243.901 276.77 245" stroke="#EF8A66" stroke-width="0.75" stroke-linecap="round" stroke-linejoin="round"/>
<path d="M284.83 248L281.83 250.06C281.83 250.06 284.29 255.53 278.24 260.06" stroke="#EF8A66" stroke-width="0.75" stroke-linecap="round" stroke-linejoin="round"/>
<path d="M290.07 251.17L307.98 242.92" stroke="#EF8A66" stroke-width="0.75" stroke-linecap="round" stroke-linejoin="round"/>
<path d="M296.9 257.22C297.05 257.12 302.33 254.63 302.33 254.63C302.33 254.63 307.76 246.17 309.2 245.74C310.64 245.31 312.29 246.01 310.02 250.66" stroke="#EF8A66" stroke-width="0.75" stroke-linecap="round" stroke-linejoin="round"/>
<path d="M293 254.04L308.57 246.17" stroke="#EF8A66" stroke-width="0.75" stroke-linecap="round" stroke-linejoin="round"/>
<path d="M312.43 245.24L310.42 245.73" stroke="#EF8A66" stroke-width="0.75" stroke-linecap="round" stroke-linejoin="round"/>
<path d="M251.42 351.66C242.58 378.22 227.15 416.21 227.15 416.21L124.06 439.6L52.64 422.68V417.47L134.29 400.25C140.17 385.35 147.67 356.98 151.38 356.25C157.45 355.05 242.33 341.83 248.74 341.66C254.8 341.49 253.34 345.89 251.42 351.66Z" fill="#F9F9F9" stroke="#E0B9B9" stroke-linecap="round" stroke-linejoin="round"/>
<path d="M134.29 400.25L123.13 429.71" stroke="#E0B9B9" stroke-linecap="round" stroke-linejoin="round"/>
<path d="M124.22 433.87L124.06 439.6L52.64 422.68V417.47L124.22 433.87Z" fill="#E0B9B9" stroke="#E0B9B9" stroke-linecap="round" stroke-linejoin="round"/>
<path d="M511.68 333.07C511.6 333.98 511.53 334.88 511.46 335.76C508.88 364.76 506.03 379.65 504.37 386.49L501.05 386.23C496.303 385.857 491.523 385.507 486.71 385.18C459 383.25 430.53 381.86 401.87 380.93C393.663 380.663 385.437 380.433 377.19 380.24C383.19 367.76 390.67 344.76 396.85 324.24C397.68 321.42 398.51 318.66 399.29 315.97C399.957 313.73 400.59 311.557 401.19 309.45C401.27 309.15 401.36 308.85 401.45 308.55C401.54 308.25 401.66 307.79 401.78 307.41C402.05 306.47 402.31 305.52 402.58 304.57C402.72 304.13 402.84 303.69 402.96 303.25C403.16 302.56 403.35 301.87 403.54 301.19C403.73 300.51 403.88 300.01 404.04 299.44C404.29 298.55 404.53 297.67 404.77 296.83C404.91 296.29 405.07 295.76 405.2 295.25L406.2 291.78C406.32 291.38 406.41 291.01 406.5 290.67C406.7 289.98 406.85 289.41 406.98 288.99C406.98 288.89 407.03 288.79 407.05 288.71C407.07 288.63 407.1 288.53 407.12 288.45C407.123 288.407 407.123 288.363 407.12 288.32V288.19C407.21 287.84 407.3 287.52 407.38 287.19L407.74 285.86C408.28 283.86 408.57 282.79 408.57 282.79C406.801 283.496 404.881 283.744 402.99 283.51C394.33 282.86 381.62 276.25 380.1 267.51C380.067 267.338 380.044 267.164 380.03 266.99C379.982 266.659 379.956 266.325 379.95 265.99C379.951 263.251 380.902 260.597 382.64 258.48C392.94 244.79 399.7 239.97 406.45 237.59C407.26 237.32 408.05 237.07 408.86 236.84C416.47 234.75 439.8 233.14 439.8 233.14C442.61 229.14 448.12 215.76 450.93 202.59C454.16 187.42 466.25 185.12 472.67 193.59C475.08 196.76 476.67 201.43 476.76 207.49C476.83 215.03 476.95 224.22 477.02 229.73C477.07 232.73 477.1 234.6 477.1 234.6C477.1 234.6 488.45 230.33 506.62 230.07C510.47 230.02 514.24 230.93 517.03 233.49C521.15 237.27 525.03 244.86 528.53 254.06C536.87 276 543 307.06 545 318.3C547.65 333.83 511.68 333.07 511.68 333.07Z" fill="#C3DCF8"/>
<path d="M519.2 312.48C510.262 314.507 500.946 314.131 492.2 311.39C482.86 315.58 448.54 322.03 425.57 319.83C402.6 317.63 401.62 309.55 401.62 309.55L401.15 309.44C403.9 299.89 407.15 288.18 407.15 288.18C407.15 288.18 408.57 288.47 411.15 288.88C433.346 292.102 455.939 291.323 477.86 286.58C477.86 286.58 495.86 291.66 513.8 287.9L519.2 312.48Z" fill="#83ADDF"/>
<path d="M521.14 321.33C521.14 321.33 490.05 325.73 463.14 329.99C436.23 334.25 408.14 331.99 396.87 324.23L399.32 315.95C409.4 324.7 423.65 326.88 449.55 325.78C475.45 324.68 491.83 316.91 491.83 316.91C505.25 320.48 515.36 318.91 520.35 317.55L521.14 321.33Z" fill="#83ADDF"/>
<path d="M528.58 254.09C514.51 253.02 497.51 259.73 483.37 272.34C471.13 283.24 447.5 297.06 429.68 279.34C426.07 275.796 421.862 272.919 417.25 270.84C406.6 266 393.5 264.56 380 266C380.001 263.261 380.952 260.607 382.69 258.49C392.99 244.8 399.75 239.98 406.5 237.6C407.31 237.33 408.1 237.08 408.91 236.85C416.52 234.76 439.85 233.15 439.85 233.15C442.66 229.15 448.17 215.77 450.98 202.6C454.21 187.43 466.3 185.13 472.72 193.6C475.13 196.77 476.72 201.44 476.81 207.5C476.88 215.04 477 224.23 477.07 229.74C477.12 232.74 477.15 234.61 477.15 234.61C477.15 234.61 488.5 230.34 506.67 230.08C510.52 230.03 514.29 230.94 517.08 233.5C521.2 237.3 525.08 244.89 528.58 254.09Z" fill="#D0E5F7"/>
<path d="M511.46 335.76C508.88 364.76 506.03 379.65 504.37 386.49L501.05 386.23C496.303 385.857 491.523 385.507 486.71 385.18C459 383.25 430.53 381.86 401.87 380.93C412.24 370.03 431.12 365.66 443.3 371.82C456.97 378.73 479.3 372.24 473.42 355.66C469.93 345.83 472.12 334.09 491.79 325.83L511.46 335.76Z" fill="#A7CAF0"/>
<path d="M517.08 233.52C511.23 234.45 503.48 237.67 493.99 241.22C490.65 242.47 487.11 243.76 483.37 245C471.256 249.183 458.631 251.706 445.84 252.5C441.043 252.785 436.232 252.748 431.44 252.39C427.765 252.144 424.131 251.472 420.61 250.39C413.08 247.95 408.88 243.64 406.49 237.64C407.3 237.37 408.1 237.12 408.91 236.89C412.34 235.95 418.99 235.11 425.23 234.46C429.18 234.04 432.99 233.72 435.72 233.51C438.24 233.3 439.85 233.19 439.85 233.19C442.66 229.19 448.17 215.81 450.98 202.64C454.21 187.47 466.3 185.17 472.72 193.64C475.13 196.81 476.72 201.48 476.81 207.54C476.88 215.08 477 224.27 477.07 229.78C477.12 232.78 477.15 234.65 477.15 234.65C479.86 233.717 482.629 232.969 485.44 232.41C488.16 231.83 491.5 231.26 495.37 230.82C499.123 230.398 502.894 230.164 506.67 230.12C510.417 230.095 514.07 231.288 517.08 233.52Z" fill="#B25E47"/>
<path d="M477.07 229.76C467.46 229.19 459.27 221.4 461.3 211.48C463.57 200.39 467.89 195.12 472.72 193.62C475.13 196.79 476.72 201.46 476.81 207.52C476.88 215.06 477 224.25 477.07 229.76Z" fill="#914839"/>
<path d="M495.37 230.8C494.603 234.225 494.145 237.713 494 241.22C490.66 242.47 487.12 243.76 483.38 245C483.543 240.727 484.238 236.491 485.45 232.39C488.16 231.81 491.5 231.24 495.37 230.8Z" fill="#FED81D"/>
<path d="M435.72 233.5C433.647 239.633 432.213 245.963 431.44 252.39C427.765 252.144 424.131 251.472 420.61 250.39C421.644 244.946 423.191 239.612 425.23 234.46C429.18 234 433 233.71 435.72 233.5Z" fill="#FED81D"/>
<path d="M526.1 354.07C525.04 364.33 523.1 374.53 519.73 381.66C517.65 386.05 515.02 389.26 511.68 390.6C504.97 393.31 499.2 392.6 494.6 390.05C486.36 385.5 481.9 375.15 482.6 368.44C482.6 368.12 482.66 367.76 482.7 367.44C482.78 366.44 482.85 365.37 482.92 364.17C482.92 363.78 482.92 363.37 483 362.95C483 362.87 483 362.79 483 362.7C483 362.4 483 362.09 483 361.78C483 361.23 483.06 360.65 483.08 360.08C483.1 359.51 483.08 359.18 483.14 358.71C483.14 358.55 483.14 358.39 483.14 358.23C483.14 357.763 483.16 357.283 483.2 356.79C483.2 356.29 483.2 355.79 483.27 355.26C483.27 354.12 483.35 352.97 483.39 351.77C483.43 350.57 483.46 349.64 483.5 348.55C483.5 348.08 483.5 347.61 483.5 347.15C483.59 344.62 483.66 341.99 483.74 339.32C483.79 337.64 483.84 335.94 483.9 334.23L483.96 332.12L484.05 329.23L484.11 327.23C484.11 326.07 484.2 324.93 484.23 323.79C484.29 322.14 484.35 320.5 484.41 318.89C484.41 317.83 484.5 316.78 484.54 315.74C484.62 313.79 484.71 311.92 484.8 310.11L527.1 316C527.614 328.698 527.28 341.416 526.1 354.07Z" fill="#C3DCF8"/>
<path d="M484.87 310C483.87 329.22 483.56 358 482.54 368.42" stroke="#83ADDF" stroke-width="0.75" stroke-linecap="round" stroke-linejoin="round"/>
<path d="M526.1 354.07C525.04 364.33 523.1 374.53 519.73 381.66C517.65 386.05 515.02 389.26 511.68 390.6C504.97 393.31 499.2 392.6 494.6 390.05C496.976 388.989 499.48 388.246 502.05 387.84C513.28 385.93 509.74 372.12 514.62 362.53C516.59 358.7 519.92 355.53 526.1 354.07Z" fill="#A7CAF0"/>
<path d="M422.1 411.15C419.24 413.65 417.35 424.15 424.24 432.53C431.13 440.91 437.87 435.53 437.87 435.53C437.87 435.53 447.75 427.02 440.87 414.36C433.99 401.7 422.1 411.15 422.1 411.15Z" fill="#83ADDF"/>
<path d="M437.08 409.13C429.84 412.62 424.69 414.97 423.39 414.88C422.09 414.79 409.96 416.28 406.47 417.33C402.98 418.38 395.05 426.74 395.83 427.96C396.61 429.18 399.67 428.96 399.67 428.96C399.67 428.96 387.67 437.77 386.5 440.96C385.33 444.15 388.95 443.4 388.95 443.4C387.08 444.4 384.51 449.74 391.04 447.76C389.47 448.76 388.52 451.71 392.96 450.64C399.41 449.07 409.96 444.71 409.96 444.71C409.96 444.71 402.63 450.2 399.67 451.6C396.71 453 396.53 456.22 402.9 454.39C409.27 452.56 421.64 443.93 425.9 440.87C430.16 437.81 434.27 435.21 435.23 434.6C436.19 433.99 445.35 429.8 445.35 429.8C445.35 429.8 454.25 407.39 437.08 409.13Z" fill="#B25E47"/>
<path d="M399.67 429C404.12 425.86 410.31 421.28 411.62 421.13" stroke="#934735" stroke-width="0.75" stroke-linecap="round" stroke-linejoin="round"/>
<path d="M389 443.48C389.18 442.99 406.94 431.59 406.94 431.59" stroke="#934735" stroke-width="0.75" stroke-linecap="round" stroke-linejoin="round"/>
<path d="M391 447.84C391.09 447.28 409.2 438.16 409.2 438.16" stroke="#934735" stroke-width="0.75" stroke-linecap="round" stroke-linejoin="round"/>
<path d="M406.47 417.33C402.98 418.33 395.05 426.74 395.83 427.96C396.61 429.18 399.67 428.96 399.67 428.96C399.67 428.96 387.67 437.77 386.5 440.96C385.33 444.15 388.95 443.4 388.95 443.4C387.08 444.4 384.51 449.74 391.04 447.76C389.47 448.76 388.52 451.71 392.96 450.64C399.41 449.07 409.96 444.71 409.96 444.71C409.96 444.71 402.63 450.2 399.67 451.6C396.71 453 396.53 456.22 402.9 454.39C404.451 453.901 405.957 453.279 407.4 452.53" stroke="#934735" stroke-width="0.75" stroke-linecap="round" stroke-linejoin="round"/>
<path d="M519.73 381.66C518.08 389.24 499.48 401.8 480.43 412.89C459.73 424.89 438.5 435.24 437.87 435.54C442.39 428.33 441.44 408.83 422.11 411.12C422.11 411.12 472.92 375.12 482.47 367.32C482.529 367.268 482.593 367.221 482.66 367.18C493.54 358.42 507.07 356.82 514.66 362.53C519.31 366.09 521.7 372.45 519.73 381.66Z" fill="#C3DCF8"/>
<path d="M519.73 381.66C518.08 389.24 499.48 401.8 480.43 412.89C482.8 401.89 485.93 394.01 494.58 390.05C496.956 388.989 499.461 388.246 502.03 387.84C513.26 385.93 509.72 372.12 514.6 362.53C519.31 366.09 521.7 372.45 519.73 381.66Z" fill="#A7CAF0"/>
<path d="M465.72 379.87C473.31 374.34 479.67 369.62 482.48 367.34C486.515 364.012 491.208 361.572 496.25 360.18" stroke="#83ADDF" stroke-width="0.75" stroke-linecap="round" stroke-linejoin="round"/>
<path d="M417.25 270.83C415.57 276.958 413.54 282.984 411.17 288.88C408.354 295.926 405.184 302.825 401.67 309.55C400.837 311.17 399.973 312.787 399.08 314.4C398.95 314.65 398.81 314.91 398.66 315.16C397.53 317.22 396.34 319.28 395.13 321.32C391.85 326.84 388.707 331.917 385.7 336.55C381.143 343.736 376.087 350.592 370.57 357.07C360.43 368.68 351.57 373.71 342.9 372.07C341.233 371.749 339.614 371.218 338.08 370.49C336.401 369.717 334.897 368.608 333.663 367.232C332.428 365.857 331.488 364.243 330.9 362.49C330.332 360.875 329.969 359.195 329.82 357.49C329.17 350.74 331.01 342.04 334.98 332.09C337.246 326.519 339.844 321.09 342.76 315.83C343.6 314.31 344.47 312.83 345.36 311.25C348.24 306.33 351.49 301.25 355.06 296.09C355.43 295.57 355.78 295.09 356.13 294.54C357.31 292.84 358.457 291.173 359.57 289.54L362.98 284.54C363.24 284.16 363.49 283.78 363.75 283.41C367.83 277.41 371.53 271.88 374.99 266.92L375.15 266.68L377.15 263.87C388.68 247.67 397.63 238.09 408.93 236.87C421.19 235.59 422.74 250.35 417.25 270.83Z" fill="#C3DCF8"/>
<path d="M417.25 270.83C405.33 265.37 390.34 264.28 375.13 266.68L377.13 263.87C388.66 247.67 397.61 238.09 408.91 236.87C421.19 235.59 422.74 250.35 417.25 270.83Z" fill="#D0E5F7"/>
<path d="M408.61 282.81C411.81 270.24 412.39 265.52 412.39 265.52" stroke="#83ADDF" stroke-width="0.75" stroke-linecap="round" stroke-linejoin="round"/>
<path d="M411.17 288.88C408.354 295.926 405.184 302.825 401.67 309.55C401.67 309.55 377 306.46 363.74 283.41C367.82 277.41 371.52 271.88 374.98 266.92C378.9 273.21 388.76 284.25 411.17 288.88Z" fill="#83ADDF"/>
<path d="M401.19 309.44C403.94 299.89 406.19 291.87 407.42 287.21L407.78 285.88C408.32 283.88 408.61 282.81 408.61 282.81" stroke="#83ADDF" stroke-width="0.75" stroke-linecap="round" stroke-linejoin="round"/>
<path d="M399.07 314.4L398.65 315.14L395.12 321.3C395.12 321.3 365.46 315.44 356.12 294.54C357.3 292.84 358.447 291.173 359.56 289.54C373.05 310.93 399.07 314.4 399.07 314.4Z" fill="#83ADDF"/>
<path d="M379.54 322.15C379.54 322.15 378.01 334.54 371.74 353.81C371.38 354.93 370.99 356.01 370.56 357.08C365.56 369.77 356.64 379.23 347.82 382.46C344.735 383.684 341.358 383.973 338.11 383.29C326.19 380.55 320.84 370.77 324.06 353.81C325.5 346.21 329.46 338.89 334.96 332.12C338.101 328.295 341.546 324.731 345.26 321.46C349.978 317.296 354.991 313.479 360.26 310.04L379.54 322.15Z" fill="#C3DCF8"/>
<path d="M347.82 382.46C344.735 383.684 341.358 383.973 338.11 383.29C326.19 380.55 320.84 370.77 324.06 353.81C325.5 346.21 329.46 338.89 334.96 332.12C338.101 328.296 341.546 324.731 345.26 321.46C346.239 324.505 346.395 327.755 345.712 330.879C345.029 334.004 343.531 336.892 341.37 339.25C336.02 345.25 330.47 351.96 329.8 357.52C329.532 359.263 329.917 361.043 330.88 362.52C331.841 363.888 333.14 364.984 334.65 365.7C337.763 367.314 340.553 369.487 342.88 372.11C345.72 375.33 347.55 379 347.82 382.46Z" fill="#A7CAF0"/>
<path d="M371.74 353.82C373.22 349.26 374.44 345.1 375.43 341.38" stroke="#83ADDF" stroke-width="0.75" stroke-linecap="round" stroke-linejoin="round"/>
<path d="M350.08 317.41C337.15 327.71 326.61 340.3 324.08 353.82" stroke="#83ADDF" stroke-width="0.75" stroke-linecap="round" stroke-linejoin="round"/>
<path d="M356.37 320.2C353.37 325.41 349.1 334.2 352.7 339.91C356.3 345.62 364.12 346.91 370.09 341.39C376.06 335.87 379.09 330.39 379.54 324.47L356.37 320.2Z" fill="#83ADDF"/>
<path d="M365.43 308.67C364.14 307.1 367.43 304.99 369.82 306.47C372.218 308.014 374.82 309.216 377.55 310.04C379.55 310.48 380.81 315.6 379.89 316.54C379.89 316.54 367 310.53 365.43 308.67Z" fill="#B25E47"/>
<path d="M377.55 310C379.55 310.44 380.81 315.56 379.89 316.5" stroke="#934735" stroke-width="0.75" stroke-linecap="round" stroke-linejoin="round"/>
<path d="M338.21 297C335.51 295.31 338.32 290.41 341.03 291.54C343.74 292.67 384.18 319 384.18 319L387.18 324L381.18 323.2C381.18 323.2 340.46 298.45 338.21 297Z" fill="#683F1D"/>
<path d="M356.24 312.79C355.6 308.95 360.64 307.93 363.13 309.72C365.62 311.51 374.41 315.59 377.28 316.54C380.15 317.49 381.95 321.07 380.16 322.32C380.16 322.32 381.95 324.87 379.85 326.04C378.922 326.627 377.91 327.072 376.85 327.36C376.85 327.36 377.71 330.11 371.18 332.98C371.18 332.98 370.18 336.98 366.67 337.98C363.16 338.98 356.67 338.21 355.16 336.98C353.65 335.75 352.9 331.98 354.38 330.6C354.38 330.6 350.63 328.84 351.3 326.08C352.2 322.36 354.76 323.44 353.99 321.97C353.22 320.5 351.99 317.73 353.91 316.58C355.83 315.43 356.59 314.85 356.24 312.79Z" fill="#B25E47"/>
<path d="M377.28 316.54C380.16 317.49 381.95 321.07 380.16 322.32C380.16 322.32 381.95 324.87 379.85 326.04C378.922 326.627 377.91 327.072 376.85 327.36C376.85 327.36 377.71 330.11 371.18 332.98C371.18 332.98 370.18 336.98 366.67 337.98" stroke="#934735" stroke-width="0.75" stroke-linecap="round" stroke-linejoin="round"/>
<path d="M357.35 323.93C362.313 325.785 367.474 327.06 372.73 327.73C374.125 327.725 375.516 327.601 376.89 327.36" stroke="#934735" stroke-width="0.75" stroke-linecap="round" stroke-linejoin="round"/>
<path d="M380.16 322.32C380.16 322.32 372.86 322.53 371.31 322.32C369.94 322.13 359.49 318 359.49 318" stroke="#934735" stroke-width="0.75" stroke-linecap="round" stroke-linejoin="round"/>
<path d="M359.29 332.12C359.29 332.12 367 333.67 371.22 332.98" stroke="#934735" stroke-width="0.75" stroke-linecap="round" stroke-linejoin="round"/>
<path d="M452.69 173.39C450.345 177.581 446.964 181.1 442.87 183.61C435.92 187.95 430.05 184.69 427.55 181.37C426.63 180.13 426.65 176.76 427.36 172.96C428.57 166.53 431.75 158.83 435.66 157.96C437.925 157.419 440.282 157.392 442.559 157.88C444.836 158.368 446.975 159.359 448.82 160.78C449.454 161.268 450.022 161.836 450.51 162.47C453.14 165.83 453.22 166 452.69 173.39Z" fill="#FFEACC"/>
<path d="M452.69 173.39C450.345 177.581 446.964 181.1 442.87 183.61C435.92 187.95 430.05 184.69 427.55 181.37C426.63 180.13 426.65 176.76 427.36 172.96C430.75 178.96 436.72 181.35 439.07 179.43C442.41 176.68 437.33 163.29 448.82 160.74C449.454 161.228 450.022 161.796 450.51 162.43C453.14 165.83 453.22 166 452.69 173.39Z" fill="#EDD6B7"/>
<path d="M444 175C445.92 174.5 446.35 170.16 444.5 169.88C442.65 169.6 441.21 172.65 441.66 175C441.94 176.49 443.07 177.52 446.56 176.68" stroke="#C6AB8B" stroke-width="0.75" stroke-linecap="round" stroke-linejoin="round"/>
<path d="M442 179.69C434.17 179.51 431.26 178.03 430.67 174.53C430.08 171.03 429.73 165.13 429.73 165.13" stroke="#C6AB8B" stroke-width="0.75" stroke-linecap="round" stroke-linejoin="round"/>
<path d="M437.89 179.42C435.846 177.692 434.438 175.33 433.89 172.71C433.25 168.71 436.44 163.37 438.6 163.12C442.33 162.7 450.6 165.9 449.94 172.37" stroke="#C6AB8B" stroke-width="0.75" stroke-linecap="round" stroke-linejoin="round"/>
<path d="M482.4 216.65C474.92 220.17 461.32 216.65 453.55 208.21C443.83 197.64 452.17 174.21 463.27 170.89C474.37 167.57 480.12 179.32 483.37 188.75L483.43 188.95C484.272 191.428 484.973 193.952 485.53 196.51C487.28 204.49 487.86 214.08 482.4 216.65Z" fill="#B25E47"/>
<path d="M453.23 192.5C452.64 194.56 455.63 197.23 459.92 198.5C464.21 199.77 468.15 199.04 468.74 196.97C469.33 194.9 466.34 192.23 462.06 190.97C457.78 189.71 453.82 190.43 453.23 192.5Z" fill="#A0503D"/>
<path d="M485.53 196.51C483.38 197.42 481.47 197.45 480.58 196.4C479.31 194.88 480.58 191.69 483.43 188.95C484.272 191.428 484.973 193.952 485.53 196.51Z" fill="#A0503D"/>
<path d="M476.14 186.7C476.138 186.99 476.222 187.273 476.382 187.515C476.541 187.756 476.769 187.945 477.037 188.057C477.304 188.169 477.598 188.198 477.882 188.142C478.166 188.086 478.427 187.947 478.632 187.742C478.837 187.537 478.976 187.276 479.032 186.992C479.088 186.708 479.059 186.414 478.947 186.147C478.835 185.879 478.646 185.651 478.405 185.492C478.163 185.332 477.88 185.248 477.59 185.25C477.206 185.253 476.839 185.406 476.568 185.677C476.296 185.949 476.143 186.316 476.14 186.7Z" fill="#683F1D"/>
<path d="M468 188.76C468 189.049 468.086 189.332 468.247 189.572C468.408 189.812 468.636 189.999 468.904 190.11C469.171 190.22 469.465 190.248 469.749 190.191C470.032 190.134 470.292 189.994 470.496 189.789C470.7 189.583 470.838 189.322 470.893 189.039C470.948 188.755 470.918 188.461 470.806 188.194C470.694 187.928 470.505 187.7 470.264 187.541C470.022 187.382 469.739 187.298 469.45 187.3C469.259 187.3 469.069 187.338 468.893 187.411C468.716 187.485 468.556 187.592 468.421 187.728C468.286 187.864 468.18 188.025 468.108 188.202C468.035 188.379 467.999 188.569 468 188.76Z" fill="#683F1D"/>
<path d="M464.34 195C464.34 195.136 464.38 195.27 464.456 195.383C464.532 195.497 464.64 195.585 464.766 195.637C464.892 195.69 465.031 195.703 465.165 195.677C465.298 195.65 465.421 195.584 465.518 195.488C465.614 195.391 465.68 195.268 465.707 195.135C465.733 195.001 465.72 194.862 465.667 194.736C465.615 194.61 465.527 194.502 465.413 194.426C465.3 194.35 465.166 194.31 465.03 194.31C464.847 194.31 464.671 194.383 464.542 194.512C464.413 194.641 464.34 194.817 464.34 195Z" fill="#914839"/>
<path d="M467.32 192.9C467.701 192.9 468.01 192.591 468.01 192.21C468.01 191.829 467.701 191.52 467.32 191.52C466.939 191.52 466.63 191.829 466.63 192.21C466.63 192.591 466.939 192.9 467.32 192.9Z" fill="#914839"/>
<path d="M468.01 195.4C468.391 195.4 468.7 195.091 468.7 194.71C468.7 194.329 468.391 194.02 468.01 194.02C467.629 194.02 467.32 194.329 467.32 194.71C467.32 195.091 467.629 195.4 468.01 195.4Z" fill="#914839"/>
<path d="M469.86 192.9C469.86 193.036 469.9 193.17 469.976 193.283C470.052 193.397 470.16 193.485 470.286 193.537C470.412 193.59 470.551 193.603 470.685 193.577C470.818 193.55 470.941 193.484 471.038 193.388C471.134 193.291 471.2 193.168 471.227 193.035C471.253 192.901 471.24 192.762 471.187 192.636C471.135 192.51 471.047 192.402 470.933 192.326C470.82 192.25 470.686 192.21 470.55 192.21C470.367 192.21 470.192 192.283 470.062 192.412C469.933 192.541 469.86 192.717 469.86 192.9Z" fill="#914839"/>
<path d="M481.16 190.32C481.16 190.456 481.2 190.59 481.276 190.703C481.352 190.817 481.46 190.905 481.586 190.957C481.712 191.01 481.851 191.023 481.985 190.997C482.118 190.97 482.241 190.904 482.338 190.808C482.434 190.711 482.5 190.588 482.527 190.454C482.553 190.321 482.54 190.182 482.487 190.056C482.435 189.93 482.347 189.822 482.233 189.746C482.12 189.67 481.986 189.63 481.85 189.63C481.667 189.63 481.491 189.703 481.362 189.832C481.233 189.961 481.16 190.137 481.16 190.32Z" fill="#914839"/>
<path d="M479.37 189.98C479.751 189.98 480.06 189.671 480.06 189.29C480.06 188.909 479.751 188.6 479.37 188.6C478.989 188.6 478.68 188.909 478.68 189.29C478.68 189.671 478.989 189.98 479.37 189.98Z" fill="#914839"/>
<path d="M489.94 188.36C489.1 189.36 488.08 189.86 487.63 189.36C486.75 188.42 489.28 186.94 487.63 185.24C485.98 183.54 481.79 184.55 481.79 184.55C475.7 168.63 466.47 169.13 460.99 171.87C455.51 174.61 454.99 179.4 454.91 182.27C454.83 185.14 454.81 186.12 458.91 188.42C463.01 190.72 459.19 194.32 458.53 197.17C457.87 200.02 460.89 199.17 462.53 202.01C464.17 204.85 460.88 206.24 461.02 205.01C461.16 203.78 460.02 202.2 458.85 202.47C457.68 202.74 455.33 201.87 455.22 200.47C455.11 199.07 454.22 195.8 452.74 195.32C447.57 193.62 444.88 198.61 445.59 202.51C445.822 203.672 446.317 204.765 447.039 205.704C447.76 206.644 448.688 207.406 449.75 207.93C449.75 207.93 446.75 209.41 441.7 203.23C440.616 201.894 439.853 200.327 439.47 198.65C438 192.51 441 185 443.86 180.52C447.49 174.8 448.92 174.52 448.92 174.52C450.607 170.657 453.135 167.22 456.32 164.46C461.79 159.57 466.63 163.69 466.63 163.69C471.9 160.01 478.18 161.49 479.98 164.91C481.78 168.33 481.09 173.7 481.37 175.46C481.65 177.22 483.02 180.19 486.37 180.19C489.72 180.19 491 181.46 491.21 184.53C491.287 185.921 490.833 187.29 489.94 188.36Z" fill="#FFEACC"/>
<path d="M489.94 188.36C489.1 189.36 488.08 189.86 487.63 189.36C486.75 188.42 489.28 186.94 487.63 185.24C485.98 183.54 481.79 184.55 481.79 184.55C475.7 168.63 466.47 169.13 460.99 171.87C455.51 174.61 454.99 179.4 454.91 182.27C454.83 185.14 454.81 186.12 458.91 188.42C463.01 190.72 459.19 194.32 458.53 197.17C457.87 200.02 460.89 199.17 462.53 202.01C464.17 204.85 460.88 206.24 461.02 205.01C461.16 203.78 460.02 202.2 458.85 202.47C457.68 202.74 455.33 201.87 455.22 200.47C455.11 199.07 454.43 196.34 452.72 195.64C447.45 193.47 445.13 198.64 445.84 202.51C446.103 203.693 446.645 204.795 447.421 205.726C448.197 206.657 449.184 207.388 450.3 207.86C450.3 207.86 447.68 210.66 441.7 203.23C440.622 201.89 439.86 200.325 439.47 198.65C444.63 193.94 444.37 189.19 447.82 188.16C452.04 186.9 451.49 178.51 456.35 170.31C461.21 162.11 469.42 167.92 471.45 169.86C471.45 169.86 477.32 166.86 479.07 174.52C480.82 182.18 484.76 183.35 487.42 183.09C489 182.93 490.31 185.67 489.94 188.36Z" fill="#EDD6B7"/>
<path d="M452.69 190.16C454.62 190.46 455.58 193.33 454.53 197.67" stroke="#C6AB8B" stroke-width="0.75" stroke-linecap="round" stroke-linejoin="round"/>
<path d="M455.39 177.06C458.16 169.17 459.45 168.57 460.28 168.06C461.79 167.15 465.17 168.15 465.17 168.15" stroke="#C6AB8B" stroke-width="0.75" stroke-linecap="round" stroke-linejoin="round"/>
<path d="M466.63 163.69C468.325 165.142 469.925 166.702 471.42 168.36" stroke="#C6AB8B" stroke-width="0.75" stroke-linecap="round" stroke-linejoin="round"/>
<path d="M445.66 199C442.89 194.92 440.12 185.91 445.11 178.6" stroke="#C6AB8B" stroke-width="0.75" stroke-linecap="round" stroke-linejoin="round"/>
<path d="M448.42 195.56C446.42 191.43 444.86 183.49 448.92 174.56" stroke="#C6AB8B" stroke-width="0.75" stroke-linecap="round" stroke-linejoin="round"/>
<path d="M473.83 183.09C472.58 187.75 474.42 189.64 476.61 190.21C478.8 190.78 480.55 191.9 480.3 193.84" stroke="#934735" stroke-width="0.75" stroke-linecap="round" stroke-linejoin="round"/>
<path d="M461.36 185C462.36 186 468.36 182.08 466.82 179.77C465.28 177.46 459.9 183.6 461.36 185Z" fill="#FFEACC"/>
<path d="M472.29 178.36C472.29 180.71 478.29 179.44 478.18 178.67C478 177.28 472.28 176.21 472.29 178.36Z" fill="#FFEACC"/>
<path d="M472.12 197.35C473.02 198.221 474.147 198.823 475.371 199.088C476.596 199.353 477.87 199.271 479.05 198.85" stroke="#934735" stroke-width="0.75" stroke-linecap="round" stroke-linejoin="round"/>
<path d="M456.32 202V207.8C454.377 208.452 452.279 208.48 450.32 207.88H450.22C448.857 207.408 447.67 206.532 446.816 205.37C445.962 204.207 445.482 202.812 445.44 201.37C445.374 200.433 445.527 199.494 445.886 198.626C446.245 197.758 446.801 196.986 447.51 196.37C447.982 195.967 448.52 195.649 449.1 195.43C450.302 195.115 451.576 195.231 452.7 195.76C454.4 196.46 455.08 199.14 455.2 200.59C455.263 200.896 455.398 201.183 455.592 201.428C455.787 201.673 456.036 201.869 456.32 202Z" fill="#B25E47"/>
<path d="M447.79 200.69C448.38 199.18 452.3 197.5 454.15 201.62" stroke="#934735" stroke-width="0.75" stroke-linecap="round" stroke-linejoin="round"/>
<path d="M453.85 201C449.56 198.51 447.79 204.89 453.35 204.5" stroke="#934735" stroke-width="0.75" stroke-linecap="round" stroke-linejoin="round"/>
<path d="M456.32 207.78C454.118 208.545 451.712 208.473 449.56 207.58" stroke="#934735" stroke-width="0.75" stroke-linecap="round" stroke-linejoin="round"/>
<path d="M668.29 233.34C667.56 237.99 664.36 242.09 660.09 244.98C651.92 250.55 639.79 251.75 633.46 244.24C625.55 234.87 605.68 190.79 598.75 175.17C597.24 171.74 596.34 169.67 596.34 169.67C596.92 149.02 612.23 140.08 627.57 140.79C642.91 141.5 653.37 152.41 654.18 168.85C654.99 185.29 648.37 209.48 652.93 214.49C657.49 219.5 670.43 219.76 668.29 233.34Z" fill="#D39933"/>
<path d="M662.77 238.11C662.268 240.534 661.362 242.856 660.09 244.98C651.92 250.55 639.79 251.75 633.46 244.24C625.55 234.87 605.68 190.79 598.75 175.17C603.57 152.72 615.39 145.74 628.58 147.92C641.95 150.14 647.68 168.17 643.43 176.05C639.18 183.93 628.35 199.45 633.87 209.23C639.39 219.01 638.43 220.86 644.87 222.4C651.31 223.94 664.75 227.14 662.77 238.11Z" fill="#C4892A"/>
<path d="M601.41 166.11C604.02 151.86 617.41 149.26 623.29 150.65" stroke="#EDB65F" stroke-width="0.75" stroke-linecap="round" stroke-linejoin="round"/>
<path d="M611.22 164.29C618.7 157.98 629.55 160.11 629.48 165.53C629.41 170.95 629 175 632.12 177.2C635.24 179.4 639.89 184.07 637.25 190.64" stroke="#EDB65F" stroke-width="0.75" stroke-linecap="round" stroke-linejoin="round"/>
<path d="M643.72 197.83C641.72 209.6 640.48 215.37 645.79 216.99C651.1 218.61 652.87 220.38 651.72 222.92C650.57 225.46 649.1 226.53 652.57 227.84C656.04 229.15 656.34 233.54 656.34 233.54" stroke="#EDB65F" stroke-width="0.75" stroke-linecap="round" stroke-linejoin="round"/>
<path d="M607.25 307.37C601.1 337.94 590.46 369.8 579.79 384.88C576.72 389.21 573.67 392.16 570.71 393.3C544.91 403.3 534.39 391.24 537.34 354.88C539.04 333.88 550.23 295.4 565.34 267.43C576.17 247.43 589 232.83 601.83 233.93C615.55 235.13 614.7 270.31 607.25 307.37Z" fill="#A7CAF0"/>
<path d="M607.25 307.37C604.257 306.35 601.522 304.691 599.234 302.509C596.946 300.326 595.16 297.672 594 294.73C592.516 290.87 590.619 287.181 588.34 283.73C582.79 275.41 575.07 269.16 565.34 267.38C576.17 247.38 589 232.78 601.83 233.88C615.55 235.13 614.7 270.31 607.25 307.37Z" fill="#C3DCF8"/>
<path d="M588.36 286.58C575.91 288.02 573.24 291.86 574.72 300.53C576.2 309.2 558.28 299.8 553.45 310.04C548.62 320.28 572.35 358.52 572.78 358.74L580.03 362.44L593.77 346.44L602.91 324L603.06 303.47L588.36 286.58Z" fill="#93BEE5"/>
<path d="M698.27 293.58C698.07 298.06 696.48 313.52 694.48 332C691.03 363.73 686.34 404.35 685.27 413.64L681.6 412.69C666.71 408.85 650.6 405.41 633.44 402.31C616.28 399.21 598.21 396.48 579.31 394.08C579.46 391.39 579.62 388.27 579.79 384.88C580.65 367.34 581.65 342.54 580.85 332.43C579.56 316.18 578.79 304.57 584.2 294.25C585.911 290.898 587.304 287.392 588.36 283.78C591.15 274.61 592.64 264.15 592.46 257.29C592.24 249.2 587.6 236.74 601.86 233.93C605.563 233.309 609.332 233.178 613.07 233.54C640.61 235.54 646.24 233.54 646.24 233.54C664.02 230.37 678.77 234.28 682.89 235.72L683.27 235.86C689.27 238.08 694.91 246.38 697.27 263.94C698.471 273.771 698.806 283.69 698.27 293.58Z" fill="#A7CAF0"/>
<path d="M661.42 308.87C641.73 299.63 628.13 320.87 629.15 337.69C630.46 359.08 605.48 332.94 594.88 356.16C586.46 374.61 628.17 391.16 650.11 373.16C672.05 355.16 688 321.33 661.42 308.87Z" fill="#93BEE5"/>
<path d="M697.31 263.94C683.87 261.77 666.91 268.16 656.63 277.44C652.33 281.34 649.2 285.75 647.99 290.25C643.89 305.59 622.32 312.93 607.25 307.37C604.257 306.35 601.522 304.691 599.234 302.509C596.946 300.326 595.16 297.672 594 294.73C592.516 290.869 590.619 287.181 588.34 283.73C591.13 274.56 592.62 264.1 592.44 257.24C592.22 249.15 587.58 236.69 601.84 233.88C605.543 233.259 609.312 233.128 613.05 233.49C640.59 235.49 646.22 233.49 646.22 233.49C664 230.32 678.75 234.23 682.87 235.67L683.25 235.81C689.27 238.08 694.92 246.38 697.31 263.94Z" fill="#C3DCF8"/>
<path d="M579.31 394.08C579.46 391.39 579.62 388.27 579.79 384.88C580.65 367.34 581.65 342.54 580.85 332.43C579.56 316.18 578.79 304.57 584.2 294.25C585.911 290.898 587.304 287.392 588.36 283.78C590.23 277.545 591.499 271.146 592.15 264.67" stroke="#83ADDF" stroke-width="0.75" stroke-linecap="round" stroke-linejoin="round"/>
<path d="M641.35 233.54C641.78 236.7 622.19 259.23 614 257.16C605.81 255.09 610 233.83 610 233.83C610 233.83 609.5 232.39 608.73 230.27C606.84 225.01 603.38 215.49 602.12 212.89C600.674 209.949 599.519 206.875 598.67 203.71C592.43 179.94 612.45 170.77 623.27 194.86C634.21 219.15 640.91 230.37 641.35 233.54Z" fill="#FEBD9D"/>
<path d="M608.75 230.27C606.86 225.01 603.4 215.49 602.14 212.89C600.694 209.949 599.539 206.875 598.69 203.71C605.82 199.07 615.8 203.23 619.69 211.38C623.45 219.3 618.5 228.62 608.75 230.27Z" fill="#F4A789"/>
<path d="M609.31 231.81C611.07 235.4 610.79 236.1 610.79 238.06C610.79 240.02 611.24 249.92 610.35 253.73C610.35 253.73 605.98 249.07 603.62 249.84C601.26 250.61 597.5 253.73 597.5 253.73L604.21 236.73C605.62 233.07 607.55 231.74 609.31 231.81Z" fill="#683F1D"/>
<path d="M646.25 233.54C646.33 231.54 640.75 227.79 639.92 229.66C635.36 239.98 623.53 253.26 619.43 256.11C621.21 256.548 622.901 257.289 624.43 258.3C626.72 259.95 630.96 267.41 630.96 267.41C630.96 267.41 645.42 253.73 646.25 233.54Z" fill="#683F1D"/>
<path d="M609.3 266.1C609.3 266.749 609.492 267.383 609.853 267.922C610.213 268.461 610.725 268.882 611.325 269.13C611.924 269.378 612.584 269.443 613.22 269.317C613.856 269.19 614.441 268.878 614.899 268.419C615.358 267.96 615.67 267.376 615.797 266.74C615.924 266.103 615.859 265.444 615.61 264.845C615.362 264.245 614.942 263.733 614.402 263.373C613.863 263.012 613.229 262.82 612.58 262.82C611.71 262.82 610.876 263.165 610.261 263.781C609.646 264.396 609.3 265.23 609.3 266.1Z" fill="white"/>
<path d="M607.62 278.19C607.618 278.841 607.809 279.478 608.17 280.02C608.53 280.563 609.043 280.986 609.644 281.237C610.245 281.487 610.907 281.554 611.546 281.428C612.185 281.302 612.772 280.99 613.233 280.53C613.694 280.07 614.008 279.484 614.136 278.845C614.264 278.207 614.199 277.545 613.951 276.943C613.702 276.341 613.28 275.827 612.739 275.465C612.198 275.103 611.561 274.91 610.91 274.91C610.479 274.909 610.051 274.992 609.652 275.157C609.253 275.321 608.89 275.562 608.584 275.867C608.279 276.172 608.036 276.534 607.871 276.932C607.705 277.331 607.62 277.758 607.62 278.19Z" fill="white"/>
<path d="M681.6 412.69C666.71 408.85 650.6 405.41 633.44 402.31C633.835 401.121 634.412 400.001 635.15 398.99C644.92 384.89 652.27 369.28 675.3 376.11C684.66 378.89 679.88 394.61 675.3 400.11C670.53 405.77 683.65 405.92 681.6 412.69Z" fill="#93BEE5"/>
<path d="M551.12 396.17C530.12 392.83 524 361.37 520.78 345.26C518.39 333.26 513.58 302.75 511.28 287.89C510.48 282.77 509.98 279.51 509.98 279.51C509.98 279.51 520.6 281.4 531.4 271.36C532.06 273.01 533.13 275.3 534.49 278.09C544.34 298.39 570 344.96 574.72 360.8C580.08 378.82 571.86 399.48 551.12 396.17Z" fill="#A7CAF0"/>
<path d="M520.78 345.26C519.67 339.67 518.03 330.05 516.36 319.87C514.45 308.21 512.51 295.82 511.28 287.87C510.48 282.75 509.98 279.49 509.98 279.49" stroke="#83ADDF" stroke-width="0.75" stroke-linecap="round" stroke-linejoin="round"/>
<path d="M531.4 271.36C528.91 266.36 522.74 256.85 516.88 252.46C513.74 250.12 509.88 250.14 508.55 251.08C508.55 251.08 497.85 249.49 489.72 251.47C481.59 253.45 480.3 257.92 483.67 258.31C487.04 258.7 492.79 256.73 496.96 256.63C496.96 256.63 492.75 257.63 492.84 261.51C491.84 260.92 489.49 262.46 489.99 265.63C489.99 265.63 488.31 263.87 487.64 267.13C486.97 270.39 489.81 275.19 493.07 275.37C496.33 275.55 495.97 273.2 495.97 273.2C495.97 273.2 498.63 278.08 509.97 279.51C509.97 279.51 511.97 282.98 511.97 282.8C511.97 282.62 531.74 284.64 531.4 271.36Z" fill="#FEBD9D"/>
<path d="M516.88 252.46C513.74 250.12 509.88 250.14 508.55 251.08C508.55 251.08 497.85 249.49 489.72 251.47C481.59 253.45 480.3 257.92 483.67 258.31C487.04 258.7 492.79 256.73 496.96 256.63C496.96 256.63 492.75 257.63 492.84 261.51C491.84 260.92 489.49 262.46 489.99 265.63C489.99 265.63 488.31 263.87 487.64 267.13C486.97 270.39 489.81 275.19 493.07 275.37C496.33 275.55 495.97 273.2 495.97 273.2" stroke="#EF8A66" stroke-width="0.75" stroke-linecap="round" stroke-linejoin="round"/>
<path d="M497 256.63C498.994 256.414 501.006 256.414 503 256.63" stroke="#EF8A66" stroke-width="0.75" stroke-linecap="round" stroke-linejoin="round"/>
<path d="M490 265.63C491.42 269.3 493.3 271.81 496 273.2C498.7 274.59 502.24 270.54 502.06 269.41C503.42 268.47 504.3 266.35 501.57 264.69" stroke="#EF8A66" stroke-width="0.75" stroke-linecap="round" stroke-linejoin="round"/>
<path d="M492.84 261.51C493.59 265.44 496.15 270.38 502.03 269.41" stroke="#EF8A66" stroke-width="0.75" stroke-linecap="round" stroke-linejoin="round"/>
<path d="M518.18 270C511.48 267 510.31 262.89 509.98 259.78C509.98 259.78 500.58 266.64 498.41 264.89C495.71 262.7 506.41 252.33 508.55 251.08" stroke="#EF8A66" stroke-width="0.75" stroke-linecap="round" stroke-linejoin="round"/>
<path d="M534.49 278.09C528.58 283.56 521.33 288.2 511.28 287.89C510.48 282.77 509.98 279.51 509.98 279.51C509.98 279.51 520.6 281.4 531.4 271.36C532.06 273 533.13 275.3 534.49 278.09Z" fill="#683F1D"/>
<path d="M528.58 276.74C528.58 277.106 528.689 277.464 528.893 277.769C529.096 278.073 529.386 278.31 529.724 278.45C530.063 278.59 530.436 278.626 530.795 278.554C531.154 278.481 531.483 278.304 531.742 278.044C532 277.785 532.176 277.454 532.246 277.095C532.316 276.735 532.278 276.363 532.136 276.025C531.995 275.687 531.756 275.399 531.451 275.197C531.145 274.995 530.786 274.888 530.42 274.89C530.178 274.89 529.938 274.938 529.714 275.031C529.49 275.124 529.286 275.26 529.115 275.432C528.944 275.604 528.809 275.808 528.717 276.033C528.625 276.257 528.579 276.497 528.58 276.74Z" fill="white"/>
<path d="M694.48 332C689.01 350.93 682.68 369.48 679.24 379.61C670.76 404.67 639.39 419.61 635.79 396.67C631.51 369.39 649.79 320.17 656.34 279.53C656.45 278.88 656.54 278.18 656.63 277.44C658.41 263.09 658.2 233.59 677.09 234.66C679.063 234.768 681.015 235.125 682.9 235.72L683.28 235.86C694.14 239.6 700.02 251.43 702.73 265.37C703.659 270.276 704.241 275.242 704.47 280.23C705.05 291.66 700.25 312.05 694.48 332Z" fill="#A7CAF0"/>
<path d="M702.73 265.37C700.976 264.711 699.16 264.232 697.31 263.94C683.87 261.77 666.91 268.16 656.63 277.44C658.41 263.09 658.2 233.59 677.09 234.66C679.063 234.768 681.015 235.125 682.9 235.72L683.28 235.86C694.14 239.6 700 251.43 702.73 265.37Z" fill="#C3DCF8"/>
<path d="M637.63 364C641.63 341.48 649.53 314.84 654.41 290.25" stroke="#83ADDF" stroke-width="0.75" stroke-linecap="round" stroke-linejoin="round"/>
<path d="M690.2 346.26C685.97 359.83 681.8 372.06 679.2 379.61C676.631 387.029 672.256 393.693 666.47 399" stroke="#83ADDF" stroke-width="0.75" stroke-linecap="round" stroke-linejoin="round"/>
<path d="M654.4 290.25C656.4 282.37 660.86 277.25 663.62 276.84" stroke="#83ADDF" stroke-width="0.75" stroke-linecap="round" stroke-linejoin="round"/>
<path d="M468.42 282.24C473.07 278.99 481.42 280.31 491.42 291.24C497.59 298.111 502.602 305.94 506.26 314.42C513.372 309.278 521.593 305.88 530.26 304.5C544.4 302.39 561.95 308.71 561.95 308.71L564.68 316.36L506.67 324L468.42 282.24Z" fill="#F9F9F9" stroke="#E0B9B9" stroke-linecap="round" stroke-linejoin="round"/>
<path d="M509.98 317.09L568.17 312.44L591.24 375.57L535.52 380.07L509.98 317.09Z" fill="#F9F9F9" stroke="#E0B9B9" stroke-linecap="round" stroke-linejoin="round"/>
<path d="M465.87 278.19L503.32 316.4L528.73 376.22L492.46 341.92L465.87 278.19Z" fill="#F9F9F9" stroke="#E0B9B9" stroke-linecap="round" stroke-linejoin="round"/>
<path d="M503.32 316.4L509.98 317.09L535.52 380.07L528.73 376.22L503.32 316.4Z" fill="#F9F9F9" stroke="#E0B9B9" stroke-linecap="round" stroke-linejoin="round"/>
<path d="M491.79 297.45C497.26 302.98 502.79 312.52 502.79 312.52" stroke="#E0B9B9" stroke-linecap="round" stroke-linejoin="round"/>
<path d="M510 314.4C514.831 311.614 520.062 309.59 525.51 308.4" stroke="#E0B9B9" stroke-linecap="round" stroke-linejoin="round"/>
<path d="M510.68 315.5C515.68 313.31 525.86 311.39 525.86 311.39" stroke="#E0B9B9" stroke-linecap="round" stroke-linejoin="round"/>
<path d="M500.12 314.57C501.61 311.63 510.03 309.57 511.68 318.57C509.794 319.631 507.615 320.052 505.47 319.77C503.68 319.43 500.12 314.57 500.12 314.57Z" fill="#F9F9F9" stroke="#E0B9B9" stroke-linecap="round" stroke-linejoin="round"/>
<path d="M565.49 347.69C560.102 344.694 555.161 340.957 550.81 336.59C546.71 332.59 536.04 327.28 535.04 327.9C534.04 328.52 533.26 331.26 538.89 336.22C540.614 337.601 542.06 339.298 543.15 341.22C541.139 341.952 538.974 342.159 536.86 341.82C533.26 341.27 518.07 340.27 516.24 340.08C514.41 339.89 514.04 342.37 516.78 343.47C512.38 342.81 511.17 345.42 515.14 347.84C515.14 347.84 511.7 348.76 515.72 351.75C519.134 354.106 522.725 356.195 526.46 358C526.46 358 518.28 355.63 517.22 355.78C516.16 355.93 515.57 357.62 518.38 359.12C521.19 360.62 540.85 368.22 544.25 369.22C548.42 370.43 556.82 371.87 556.82 371.87C556.82 371.87 566.94 357.27 565.49 347.69Z" fill="#FEBD9D"/>
<path d="M647.17 408C628.1 409.3 580.3 386.67 561.62 377.76C557.8 375.95 555.2 374.76 554.31 374.36C554.31 374.36 554.69 351.63 566.82 347.08C568.395 347.955 570.076 348.627 571.82 349.08C574.085 349.739 576.404 350.19 578.75 350.43C586.75 351.32 611.69 355.02 625.27 356.12C638.85 357.22 656.02 366.51 662.16 377.55C666.37 385.12 666 406.74 647.17 408Z" fill="#A7CAF0"/>
<path d="M647.17 408C628.1 409.3 580.3 386.67 561.62 377.76C557.8 375.95 555.2 374.76 554.31 374.36" stroke="#83ADDF" stroke-width="0.75" stroke-linecap="round" stroke-linejoin="round"/>
<path d="M566.82 347.1C568.395 347.975 570.076 348.647 571.82 349.1C574.085 349.759 576.404 350.21 578.75 350.45C586.75 351.34 611.69 355.04 625.27 356.14C634.27 356.87 644.76 361.14 652.65 367.14" stroke="#83ADDF" stroke-width="0.75" stroke-linecap="round" stroke-linejoin="round"/>
<path d="M545.1 332.42C540.65 329.71 535.7 327.49 535.04 327.9C534.04 328.52 533.26 331.26 538.89 336.22C540.614 337.601 542.06 339.298 543.15 341.22C541.139 341.952 538.974 342.159 536.86 341.82C533.26 341.27 518.07 340.27 516.24 340.08C514.41 339.89 514.04 342.37 516.78 343.47C512.38 342.81 511.17 345.42 515.14 347.84C515.14 347.84 511.7 348.76 515.72 351.75C519.134 354.106 522.725 356.195 526.46 358C526.46 358 518.28 355.63 517.22 355.78C516.16 355.93 515.57 357.62 518.38 359.12C519.21 359.56 521.55 360.55 524.51 361.75" stroke="#EF8A66" stroke-width="0.75" stroke-linecap="round" stroke-linejoin="round"/>
<path d="M571.86 349.15C566.01 353.57 561.93 366.49 561.62 377.78C557.8 375.97 555.2 374.78 554.31 374.38C554.31 374.38 554.69 351.65 566.82 347.1C568.406 347.996 570.099 348.685 571.86 349.15Z" fill="#683F1D"/>
<path d="M556.37 370.54C556.368 370.954 556.489 371.359 556.717 371.704C556.946 372.049 557.272 372.318 557.653 372.478C558.035 372.638 558.456 372.681 558.862 372.601C559.268 372.522 559.641 372.323 559.934 372.031C560.228 371.739 560.428 371.367 560.509 370.961C560.591 370.556 560.55 370.135 560.392 369.753C560.234 369.37 559.966 369.043 559.622 368.813C559.278 368.583 558.874 368.46 558.46 368.46C557.907 368.46 557.377 368.679 556.986 369.069C556.594 369.458 556.373 369.987 556.37 370.54Z" fill="white"/>
<path d="M526.46 358C529.05 358.8 530.99 359.57 530.99 359.57" stroke="#EF8A66" stroke-width="0.75" stroke-linecap="round" stroke-linejoin="round"/>
<path d="M515.14 347.8L532.43 353.82" stroke="#EF8A66" stroke-width="0.75" stroke-linecap="round" stroke-linejoin="round"/>
<path d="M516.78 343.43L533 347.8" stroke="#EF8A66" stroke-width="0.75" stroke-linecap="round" stroke-linejoin="round"/>
<path d="M624.37 200C620.09 210.44 609.1 228.45 595.93 219.63C593.18 217.754 590.806 215.38 588.93 212.63C586.47 209.046 584.674 205.049 583.63 200.83C582.103 194.878 581.881 188.666 582.98 182.62C583.362 180.537 583.948 178.498 584.73 176.53C590.14 163.22 607.65 164.28 614.1 170.74C614.28 170.92 614.48 171.12 614.68 171.34C617.923 175.205 620.471 179.603 622.21 184.34C622.47 185.007 622.71 185.673 622.93 186.34C624.82 191.67 625.6 197 624.37 200Z" fill="#FEBD9D"/>
<path d="M586.86 197.41C586.86 197.699 586.946 197.982 587.107 198.222C587.268 198.462 587.496 198.649 587.764 198.76C588.031 198.87 588.325 198.898 588.608 198.841C588.892 198.784 589.152 198.644 589.356 198.439C589.56 198.233 589.698 197.972 589.753 197.689C589.808 197.405 589.778 197.111 589.666 196.844C589.554 196.578 589.365 196.35 589.124 196.191C588.882 196.032 588.599 195.948 588.31 195.95C588.119 195.95 587.929 195.988 587.753 196.061C587.576 196.135 587.416 196.242 587.281 196.378C587.146 196.514 587.04 196.675 586.967 196.852C586.895 197.029 586.859 197.219 586.86 197.41Z" fill="#683F1D"/>
<path d="M594.88 194.86C594.88 195.149 594.966 195.431 595.126 195.671C595.286 195.911 595.514 196.098 595.781 196.209C596.048 196.319 596.342 196.348 596.625 196.292C596.908 196.236 597.168 196.096 597.372 195.892C597.576 195.688 597.716 195.428 597.772 195.145C597.828 194.862 597.799 194.568 597.689 194.301C597.578 194.034 597.391 193.806 597.151 193.646C596.911 193.486 596.629 193.4 596.34 193.4C596.148 193.399 595.957 193.435 595.78 193.508C595.602 193.581 595.44 193.689 595.305 193.825C595.169 193.96 595.061 194.122 594.988 194.3C594.915 194.477 594.879 194.668 594.88 194.86Z" fill="#683F1D"/>
<path d="M621.21 199.45C627.33 201.08 634.38 193.45 630.82 187.13C627.26 180.81 620.28 184.81 619.43 189.3L621.21 199.45Z" fill="#FEBD9D"/>
<path d="M621.21 199.45C622.306 199.725 623.454 199.725 624.55 199.45" stroke="#EF8A66" stroke-width="0.75" stroke-linecap="round" stroke-linejoin="round"/>
<path d="M622.21 192.93C622.77 187.8 627.4 187.55 628.59 189.86" stroke="#EF8A66" stroke-width="0.75" stroke-linecap="round" stroke-linejoin="round"/>
<path d="M622.36 192C626.3 187.72 631.25 194.88 623.47 195.51" stroke="#EF8A66" stroke-width="0.75" stroke-linecap="round" stroke-linejoin="round"/>
<path d="M622.93 186.27C622.902 186.456 622.862 186.639 622.81 186.82C621.92 189.97 618.6 188.4 617.25 185.41C615.69 181.87 606.56 169.13 598.33 177.86C592.23 184.32 587.21 185.19 582.98 182.62C583.339 180.648 583.888 178.716 584.62 176.85C584.651 176.741 584.687 176.634 584.73 176.53C590.14 163.22 607.65 164.28 614.1 170.74C614.28 170.92 614.48 171.12 614.68 171.34C617.923 175.205 620.471 179.603 622.21 184.34C622.47 184.967 622.71 185.61 622.93 186.27Z" fill="#D39933"/>
<path d="M622.81 186.82C621.92 189.97 618.6 188.4 617.25 185.41C615.69 181.87 606.56 169.13 598.33 177.86C592.23 184.32 587.21 185.19 582.98 182.62C583.339 180.648 583.888 178.716 584.62 176.85C589.81 179.01 594.62 175.94 597.79 173.34C601.79 170.13 606.65 170.39 611.66 173.89C616.08 177 619.83 187.36 622.81 186.82Z" fill="#C4892A"/>
<path d="M588.21 183.87C587.4 174.87 591.15 169.07 594.21 167.33" stroke="#EDB65F" stroke-width="0.75" stroke-linecap="round" stroke-linejoin="round"/>
<path d="M590.61 183.42C590.99 179.76 597.55 166.42 604.97 166.42" stroke="#EDB65F" stroke-width="0.75" stroke-linecap="round" stroke-linejoin="round"/>
<path d="M599 177.24C601.33 171.58 604.2 167.96 607.62 167.05" stroke="#EDB65F" stroke-width="0.75" stroke-linecap="round" stroke-linejoin="round"/>
<path d="M612.88 169.68C613.43 174.31 612.99 177.37 611.64 178.12" stroke="#EDB65F" stroke-width="0.75" stroke-linecap="round" stroke-linejoin="round"/>
<path d="M615.7 172.54C617.23 178.49 615.95 181.17 615.06 181.86" stroke="#EDB65F" stroke-width="0.75" stroke-linecap="round" stroke-linejoin="round"/>
<path d="M589 192.37C591.73 193.47 593 195.37 592.32 197.11C591.48 199.27 590.1 203.11 592.74 204.79" stroke="#EF8A66" stroke-width="0.75" stroke-linecap="round" stroke-linejoin="round"/>
<path d="M592.35 187.32C592.63 189.51 600.44 187.32 600.74 186.03C601.14 184.28 591.86 183.46 592.35 187.32Z" fill="#D39933"/>
<path d="M588 189.29C589 191.08 582 193.62 581 192.78C579.84 191.68 586.36 186.13 588 189.29Z" fill="#D39933"/>
<path d="M596.92 207.43C598.198 206.919 599.36 206.153 600.335 205.181C601.309 204.208 602.076 203.047 602.59 201.77C602.59 201.77 605.19 206.31 602.12 208.66C599.77 210.45 596.92 207.43 596.92 207.43Z" fill="white" stroke="#EF8A66" stroke-width="0.75" stroke-linecap="round" stroke-linejoin="round"/>
<path d="M609.65 201.89C613.383 201.89 616.41 198.863 616.41 195.13C616.41 191.396 613.383 188.37 609.65 188.37C605.916 188.37 602.89 191.396 602.89 195.13C602.89 198.863 605.916 201.89 609.65 201.89Z" fill="#F4AF90"/>
<path d="M591.28 207.52C591.285 208.491 591.077 209.452 590.671 210.335C590.265 211.218 589.671 212.001 588.93 212.63C586.47 209.046 584.674 205.049 583.63 200.83C583.925 200.786 584.222 200.762 584.52 200.76C586.313 200.76 588.032 201.472 589.3 202.74C590.568 204.008 591.28 205.727 591.28 207.52Z" fill="#F4AF90"/>
</g>
<defs>
<clipPath id="clip0_117_4000">
<rect width="735" height="475.841" fill="white" transform="translate(0 0.159058)"/>
</clipPath>
</defs>
</svg>
